<svg width="48" height="48" viewBox="0 0 48 48" fill="none" xmlns="http://www.w3.org/2000/svg">
<path fill-rule="evenodd" clip-rule="evenodd" d="M37.1451 46.0671C34.5082 48.5938 31.5988 48.1999 28.8257 47.0086C25.8775 45.7932 23.1822 45.7164 20.0685 47.0086C16.1911 48.661 14.1331 48.1807 11.7979 46.0671C-1.38658 32.6649 0.559466 12.2493 15.544 11.4807C19.1782 11.6729 21.7227 13.4646 23.8633 13.6136C27.0451 12.9747 30.0907 11.1445 33.4962 11.3847C37.5878 11.7113 40.6479 13.3061 42.6913 16.1739C34.2747 21.1697 36.2693 32.122 44 35.1964C42.4529 39.2074 40.4679 43.1704 37.1402 46.1007L37.1451 46.0671ZM23.5714 11.3366C23.1773 5.38009 28.0668 0.480366 33.6908 0C34.4644 6.86923 27.3662 12.0091 23.5714 11.3366Z" fill="#121826"/>
</svg>
