<svg width="24" height="24" viewBox="0 0 24 24" fill="none" xmlns="http://www.w3.org/2000/svg">
<path fill-rule="evenodd" clip-rule="evenodd" d="M15.9999 21.9998C19.3136 21.9998 21.9999 19.3135 21.9999 15.9998V7.99975C21.9999 4.68604 19.3136 1.99975 15.9999 1.99975L14.0664 1.99951C12.4984 1.99932 11.5756 3.7468 11.9118 5.27832C11.9674 5.5315 11.9999 5.77549 11.9999 5.99975C11.9999 9.31346 9.31364 11.9998 5.99994 11.9998C5.77567 11.9998 5.53169 11.9672 5.27851 11.9116C3.74698 11.5754 1.9995 12.4983 1.99969 14.0663L1.99994 15.9998C1.99994 19.3135 4.68623 21.9998 7.99994 21.9998H15.9999ZM5.99994 9.99975C8.20907 9.99975 9.99993 8.20889 9.99993 5.99975C9.99993 3.79061 8.20907 1.99975 5.99994 1.99975C3.7908 1.99975 1.99994 3.79061 1.99994 5.99975C1.99994 8.20889 3.7908 9.99975 5.99994 9.99975Z" fill="#124d96"/>
<path fill-rule="evenodd" clip-rule="evenodd" d="M6 2C8.20914 2 10 3.79086 10 6H7C6.44772 6 6 5.55228 6 5V2ZM17 10C17 9.44772 17.4477 9 18 9C18.5523 9 19 9.44772 19 10V18C19 18.5523 18.5523 19 18 19C17.4477 19 17 18.5523 17 18V10ZM9 14C9 13.4477 9.44772 13 10 13C10.5523 13 11 13.4477 11 14V18C11 18.5523 10.5523 19 10 19C9.44772 19 9 18.5523 9 18V14ZM5 18C5 17.4477 5.44772 17 6 17C6.55228 17 7 17.4477 7 18C7 18.5523 6.55228 19 6 19C5.44772 19 5 18.5523 5 18ZM14 15C13.4477 15 13 15.4477 13 16V18C13 18.5523 13.4477 19 14 19C14.5523 19 15 18.5523 15 18V16C15 15.4477 14.5523 15 14 15Z" fill="#FFFFFF"/>
</svg>
