<svg width="24" height="24" viewBox="0 0 24 24" fill="none" xmlns="http://www.w3.org/2000/svg">
<path fill-rule="evenodd" clip-rule="evenodd" d="M3 2C3.51284 2 3.93551 2.38604 3.99327 2.88338L4 3V15C4 17.6888 6.12231 19.8818 8.78311 19.9954L9 20H21C21.5523 20 22 20.4477 22 21C22 21.5128 21.614 21.9355 21.1166 21.9933L21 22H9C5.21455 22 2.1309 18.9952 2.00406 15.2407L2 15V3C2 2.44772 2.44772 2 3 2Z" fill="#33D49E"/>
<path fill-rule="evenodd" clip-rule="evenodd" d="M14.2192 7.34108C15.4478 5.80525 17.6889 5.55624 19.2247 6.78491C19.3616 6.89443 19.4902 7.01384 19.6093 7.14212L19.7809 7.34108L21.7809 10.3755C22.1259 10.8068 22.056 11.4361 21.6247 11.7811C21.2266 12.0996 20.6598 12.0645 20.3036 11.718L20.2192 11.6249L18.2192 8.59047C18.1471 8.50044 18.0654 8.41867 17.9753 8.34664C17.3416 7.83968 16.4341 7.90656 15.8804 8.47752L15.7809 8.59047L14.9071 9.88757C13.9859 11.039 12.3676 11.3323 11.1076 10.6035L10.9164 10.4844C10.6069 10.2986 10.2138 10.373 9.99135 10.6439L9.93 10.731L7.85752 15.5147C7.57337 15.9883 6.95911 16.1419 6.48553 15.8577C6.04578 15.5939 5.88196 15.0454 6.0883 14.5892L6.14254 14.4857L8.21502 9.70197C8.98761 8.41432 10.6578 7.99678 11.9454 8.76937L12.0547 8.83855C12.437 9.09343 12.9398 9.04155 13.2621 8.72965L13.3453 8.63818L14.2192 7.34108Z" fill="#1B7A00"/>
</svg>
