<svg width="140" height="140" viewBox="0 0 140 140" fill="none" xmlns="http://www.w3.org/2000/svg">
<circle cx="70" cy="70" r="70" fill="#BAF5E1"/>
<mask id="mask0_267_8139" style="mask-type:alpha" maskUnits="userSpaceOnUse" x="0" y="0" width="140" height="140">
<circle cx="70" cy="70" r="70" fill="white"/>
</mask>
<g mask="url(#mask0_267_8139)">
<path d="M104 32C110.627 32 116 37.3726 116 44V136C116 142.627 110.627 148 104 148H36C29.3726 148 24 142.627 24 136V44C24 37.3726 29.3726 32 36 32H46V32C46 45.2548 56.7452 56 70 56C79.7968 56 88.2226 50.1301 91.9522 41.7154C94.1901 36.6663 98.4772 32 104 32V32Z" fill="white"/>
<circle cx="70" cy="32" r="20" fill="#33D49E"/>
<rect x="60" y="22" width="20" height="20" rx="6" fill="#E1FFF5"/>
<path fill-rule="evenodd" clip-rule="evenodd" d="M73.6257 26.1194C72.7844 25.3983 71.6625 25 70.5 25H69.5L69.2326 25.007C68.1666 25.0632 67.1509 25.4538 66.3743 26.1194C65.5014 26.8677 65 27.9052 65 29C65 29.5523 65.4477 30 66 30C66.5523 30 67 29.5523 67 29L67.0087 28.8349C67.055 28.3963 67.285 27.973 67.6759 27.6379C68.1474 27.2338 68.8059 27 69.5 27H70.5L70.707 27.007C71.3239 27.0485 71.8998 27.2742 72.3241 27.6379C72.7639 28.0149 73 28.5035 73 29C73.0261 29.4895 72.9094 29.9186 72.6689 30.2793C72.4897 30.5482 72.3227 30.6401 72.0695 30.7796C71.983 30.8273 71.8863 30.8806 71.7757 30.9483C71.7757 30.9483 71.0556 31.3922 70.7878 31.6583C70.7731 31.673 70.7578 31.6882 70.7418 31.7039C70.4677 31.9754 70.0184 32.4201 69.6046 33.1074C69.5487 33.2002 69.4966 33.284 69.4482 33.3618C69.1174 33.8934 68.9626 34.1421 69.0009 35.0425C69.0244 35.5943 69.4907 36.0226 70.0425 35.9991C70.5943 35.9756 70.9254 35.5039 70.9991 34.9575C71.1647 33.7297 71.9838 33.1607 72.2764 32.9846L72.41 32.912L72.5518 32.8586C73.2755 32.5552 73.8957 32.0446 74.333 31.3887C74.814 30.6672 75.0475 29.8091 74.9984 28.9434L74.9921 28.7359C74.9315 27.7681 74.4405 26.8178 73.6257 26.1194ZM70 39C70.5523 39 71 38.5523 71 38C71 37.4477 70.5523 37 70 37C69.4477 37 69 37.4477 69 38C69 38.5523 69.4477 39 70 39Z" fill="#1B7A00"/>
<rect x="38" y="64" width="64" height="42" rx="8" fill="#E1FFF5"/>
<rect x="46" y="72" width="18" height="6" rx="3" fill="#33D49E"/>
<rect x="46" y="82" width="48" height="6" rx="3" fill="#BAF5E1"/>
<rect x="46" y="92" width="30" height="6" rx="3" fill="#BAF5E1"/>
<rect x="80" y="92" width="14" height="6" rx="3" fill="#96EED1"/>
<rect x="38" y="114" width="64" height="42" rx="8" fill="#F4F4F6"/>
<rect x="46" y="122" width="18" height="6" rx="3" fill="#D3D5DA"/>
<rect x="46" y="132" width="48" height="6" rx="3" fill="#D3D5DA"/>
</g>
</svg>
