<svg width="196" height="196" viewBox="0 0 196 196" fill="none" xmlns="http://www.w3.org/2000/svg">
<circle cx="98" cy="98" r="98" fill="#33D49E"/>
<mask id="mask0_88_8136" style="mask-type:alpha" maskUnits="userSpaceOnUse" x="0" y="0" width="196" height="196">
<circle cx="98" cy="98" r="98" fill="white"/>
</mask>
<g mask="url(#mask0_88_8136)">
<path fill-rule="evenodd" clip-rule="evenodd" d="M98.0457 74.3318C103.35 74.3318 108.437 76.4389 112.188 80.1895C115.671 83.6723 117.736 88.3074 118.014 93.1988L118.046 94.3318V98.0818C118.046 105.114 120.326 111.956 124.546 117.582C126.203 119.791 125.755 122.925 123.546 124.582C121.336 126.239 118.202 125.791 116.546 123.582C111.373 116.685 108.428 108.39 108.08 99.8027L108.046 98.0818V94.3318C108.046 91.6795 106.992 89.1361 105.117 87.2606C103.241 85.3853 100.698 84.3318 98.0457 84.3318C95.3934 84.3318 92.85 85.3853 90.9746 87.2607C89.0992 89.1361 88.0457 91.6796 88.0457 94.3318C88.0457 97.0932 85.8071 99.3318 83.0457 99.3318C80.2842 99.3318 78.0457 97.0932 78.0457 94.3318C78.0457 89.0275 80.1528 83.9404 83.9035 80.1896C87.6543 76.4389 92.7413 74.3318 98.0457 74.3318Z" fill="#E1FFF5"/>
<path fill-rule="evenodd" clip-rule="evenodd" d="M98.0216 59.25C104.174 59.2459 110.218 60.8632 115.546 63.9391C117.937 65.3198 118.756 68.3777 117.376 70.7692C115.995 73.1607 112.937 73.9801 110.546 72.5995C106.74 70.4023 102.423 69.247 98.0284 69.25C93.6343 69.253 89.3185 70.4142 85.516 72.6164C81.7135 74.8187 78.5587 77.9843 76.3693 81.7943C74.4232 85.1809 73.3012 88.9704 73.0843 92.8664L73.0456 94.3318L73.0428 98.2479C72.7657 106.585 73.8363 114.911 76.2133 122.907C77.0002 125.554 75.4923 128.338 72.8454 129.125C70.1984 129.911 67.4148 128.404 66.6279 125.757C64.1882 117.55 62.9674 109.034 62.9986 100.607L63.0456 98.0818L63.0456 94.3455C63.0288 88.1936 64.6338 82.146 67.6989 76.812C70.764 71.478 75.1807 67.0462 80.5042 63.963C85.8277 60.8798 91.8698 59.2542 98.0216 59.25Z" fill="#E1FFF5"/>
<path fill-rule="evenodd" clip-rule="evenodd" d="M121.34 75.049C123.706 73.624 126.778 74.3863 128.203 76.7516C131.896 82.8815 133.616 89.9848 133.149 97.1015L133.045 98.275L133.046 101.838C133.043 104.524 133.658 107.171 134.839 109.573L135.379 110.587C136.757 112.98 135.933 116.037 133.54 117.415C131.147 118.793 128.09 117.97 126.712 115.576C124.545 111.812 123.304 107.595 123.082 103.275L123.046 101.832V98.0818L123.075 97.5372C123.672 92.0929 122.464 86.6034 119.638 81.912C118.213 79.5467 118.975 76.474 121.34 75.049ZM98.0456 89.3318C100.61 89.3318 102.723 91.262 103.012 93.7487L103.046 94.3318L103.046 101.837C103.035 111.539 105.995 121.011 111.528 128.98C113.103 131.249 112.54 134.364 110.272 135.939C108.004 137.514 104.888 136.952 103.313 134.683C96.9879 125.572 93.4403 114.838 93.0766 103.785L93.0456 101.832V94.3318C93.0456 91.5704 95.2842 89.3318 98.0456 89.3318ZM88.0117 108.75C87.6906 106.008 85.2068 104.045 82.4642 104.366C79.7215 104.687 77.7584 107.171 78.0796 109.913C79.0652 118.331 81.519 126.51 85.3296 134.08C86.5712 136.547 89.5773 137.54 92.0438 136.298C94.5104 135.056 95.5033 132.05 94.2617 129.584C90.9768 123.058 88.8614 116.007 88.0117 108.75Z" fill="#1B7A00"/>
</g>
</svg>
