<svg width="48" height="48" viewBox="0 0 48 48" fill="none" xmlns="http://www.w3.org/2000/svg">
<path d="M44 24.9612C44 23.6116 43.8808 22.3303 43.6765 21.0833H24.4342V28.7878H35.4517C34.9579 31.3162 33.5104 33.4516 31.3648 34.9037V40.0287H37.9378C41.7863 36.4583 44 31.1966 44 24.9612Z" fill="#4285F4"/>
<path d="M24.4342 45C29.9515 45 34.5662 43.155 37.9378 40.0288L31.3648 34.9038C29.5258 36.1338 27.1928 36.8854 24.4342 36.8854C19.1043 36.8854 14.5917 33.2809 12.974 28.4121H6.19668V33.6909C9.5513 40.3875 16.4478 45 24.4342 45Z" fill="#34A853"/>
<path d="M12.974 28.412C12.5483 27.182 12.3269 25.8666 12.3269 24.4999C12.3269 23.1332 12.5653 21.8178 12.974 20.5878V15.3091H6.19668C4.80034 18.0766 4 21.1857 4 24.4999C4 27.8141 4.80034 30.9232 6.19668 33.6907L12.974 28.412Z" fill="#FBBC05"/>
<path d="M24.4342 12.1146C27.4483 12.1146 30.1388 13.1567 32.2673 15.1896L38.0911 9.34708C34.5662 6.03292 29.9515 4 24.4342 4C16.4478 4 9.5513 8.6125 6.19668 15.3092L12.974 20.5879C14.5917 15.7192 19.1043 12.1146 24.4342 12.1146Z" fill="#EA4335"/>
</svg>
