<svg width="24" height="24" viewBox="0 0 24 24" fill="none" xmlns="http://www.w3.org/2000/svg">
<path fill-rule="evenodd" clip-rule="evenodd" d="M3 16.9709C3 15.7805 3.72471 14.7101 4.82992 14.268L8 13V17H3.02911C3.01303 17 3 16.987 3 16.9709ZM16 13L19.1701 14.268C20.2753 14.7101 21 15.7805 21 16.9709C21 16.987 20.987 17 20.9709 17H16V13ZM11 18C10.176 18 9.70557 18.9408 10.2 19.6L12 22L13.8 19.6C14.2944 18.9408 13.824 18 13 18H11Z" fill="#77AEFF"/>
<path d="M6.45691 14.013C5.55944 9.07692 6.983 2 12 2V2V2C17.017 2 18.4406 9.07692 17.5431 14.013L17.0276 16.8483C17.0116 16.9361 16.9351 17 16.8458 17H7.15423C7.06492 17 6.98839 16.9361 6.97241 16.8483L6.45691 14.013Z" fill="#1C78FF"/>
</svg>
