<svg width="32" height="32" viewBox="0 0 32 32" fill="none" xmlns="http://www.w3.org/2000/svg">
<path fill-rule="evenodd" clip-rule="evenodd" d="M8.16102 6.66659C7.70769 6.17325 7.72102 5.41326 8.20103 4.93326L10.0944 3.03992C10.5877 2.54659 11.401 2.54659 11.8944 3.03992L15.521 6.66659H8.16102ZM26.6276 24C26.6276 28 25.2943 29.3333 21.2943 29.3333H10.6276C6.62761 29.3333 5.29428 28 5.29428 24V13.3333H26.6276V24ZM20.0928 3.03992L16.4662 6.66659H23.8262C24.2795 6.17325 24.2662 5.41326 23.7862 4.93326L21.8928 3.03992C21.3995 2.54659 20.5862 2.54659 20.0928 3.03992Z" fill="#33D49E"/>
<path fill-rule="evenodd" clip-rule="evenodd" d="M26 13.3337C27.96 13.3337 28.6667 12.1337 28.6667 10.667V9.33366C28.6667 7.86699 27.96 6.66699 26 6.66699H6.00001C3.96001 6.66699 3.33334 7.86699 3.33334 9.33366V10.667C3.33334 12.1337 3.96001 13.3337 6.00001 13.3337L11.9193 13.3337V20.187C11.9193 21.2537 13.0926 21.8803 13.9859 21.307L15.2393 20.4803C15.6926 20.187 16.2659 20.187 16.7059 20.4803L17.8926 21.2803C18.7726 21.867 19.9593 21.2403 19.9593 20.1737V13.3337L26 13.3337Z" fill="#1B7A00"/>
</svg>
