<svg width="327" height="247" viewBox="0 0 327 247" fill="none" xmlns="http://www.w3.org/2000/svg">
<path d="M10.4172 67.8235C15.0088 64.0896 21.2255 63.5488 26.9005 64.5788C32.9624 65.6604 38.4826 68.5703 44.0802 71.0166C49.8584 73.566 55.7397 75.3943 62.0854 75.7033C68.4053 76.0381 74.7251 75.1368 80.8644 73.5917C93.6848 70.3729 105.447 64.1926 117.752 59.5316C123.917 57.1883 130.288 55.1539 136.84 54.2269C140.4 53.7119 143.986 53.5831 147.571 53.9694C150.976 54.3299 154.304 55.1282 157.632 55.9522C164.983 57.7805 172.309 59.3771 179.841 60.2784C187.606 61.2054 195.448 61.5145 203.264 61.2569C203.754 61.2312 203.754 60.4587 203.264 60.4844C189.076 60.9994 174.889 59.4801 161.114 56.0552C154.536 54.4071 148.01 52.7076 141.174 53.0423C134.545 53.3771 127.993 55.1282 121.75 57.2655C109.239 61.566 97.4767 67.875 84.7853 71.7119C78.3365 73.6433 71.6555 74.9823 64.8971 75.0081C58.0355 75.0338 51.5867 73.4372 45.3184 70.7076C39.1275 68.0295 33.0656 64.7076 26.333 63.6776C20.6064 62.802 14.4929 63.4973 9.87551 67.257C9.48858 67.5917 10.0303 68.1583 10.4172 67.8235Z" fill="#E8E8E8"/>
<path d="M149.351 44.2869C167.227 51.9865 187.528 50.699 205.817 45.111C215.723 42.0723 225.577 38.0037 236.127 38.0294C246.755 38.0552 256.841 41.7633 267.236 43.4114C276.677 44.905 287.073 44.7247 295.173 39.0594C295.585 38.7762 295.198 38.1067 294.786 38.3899C287.305 43.6174 277.812 44.0809 269.042 42.8964C259.111 41.5573 249.566 38.1067 239.532 37.3856C229.497 36.6646 220.031 39.6775 210.615 42.7676C201.226 45.832 191.733 48.2269 181.853 48.7934C170.916 49.4372 159.85 47.9693 149.764 43.6174C149.3 43.4114 148.913 44.0809 149.351 44.2869Z" fill="#E8E8E8"/>
<path d="M0.56338 108.485C6.21257 104.467 12.8936 101.995 19.8067 101.326C23.2633 100.991 26.7457 101.12 30.1507 101.712C33.6847 102.33 37.0897 103.515 40.4689 104.699C46.7371 106.862 52.9538 108.51 59.5574 106.991C65.2582 105.678 70.4173 102.716 75.4732 99.9094C81.4319 96.5875 87.6228 93.1884 94.536 92.5703C95.0261 92.5188 95.0261 91.7463 94.536 91.7978C82.2058 92.9051 72.9453 102.15 61.4405 105.678C58.5256 106.579 55.4818 107.042 52.4379 106.862C48.6976 106.63 45.0604 105.472 41.5523 104.261C38.0183 103.051 34.4843 101.738 30.7698 101.042C27.5712 100.45 24.2951 100.27 21.0707 100.476C13.5901 100.939 6.28996 103.489 0.176449 107.841C-0.236277 108.098 0.150654 108.768 0.56338 108.485Z" fill="#E8E8E8"/>
<path d="M68.947 118.373C78.9814 107.789 93.7363 103.463 108.001 103.334C116.282 103.257 124.536 104.442 132.61 106.167C140.297 107.789 147.752 109.901 155.697 108.845C164.003 107.738 171.767 104.184 179.196 100.45C179.635 100.218 179.248 99.5489 178.81 99.7807C171.742 103.334 164.39 106.708 156.522 107.944C152.498 108.562 148.448 108.51 144.424 107.867C140.349 107.223 136.376 106.141 132.326 105.291C117.571 102.201 101.862 100.888 87.3649 105.909C80.2196 108.382 73.6159 112.321 68.4053 117.806C68.0699 118.193 68.6116 118.734 68.947 118.373Z" fill="#E8E8E8"/>
<path d="M188.509 126.073C192.713 127.54 197.021 126.176 200.865 124.347C205.172 122.287 209.222 119.738 213.633 117.909C218.044 116.081 222.791 114.845 227.589 115.437C231.974 115.978 236.024 117.935 239.867 120.021C243.504 122.004 247.09 124.167 250.959 125.686C255.267 127.36 259.91 128.158 264.528 128.055C273.995 127.849 282.043 123.137 290.684 119.944C298.758 116.957 309.515 115.618 315.989 122.622C316.325 122.982 316.867 122.442 316.531 122.081C311.449 116.596 303.35 115.978 296.385 117.446C287.305 119.352 279.463 124.888 270.332 126.665C265.456 127.618 260.349 127.489 255.525 126.33C251.037 125.249 247.013 123.137 242.989 120.897C239.351 118.862 235.663 116.751 231.664 115.54C227.511 114.279 223.178 114.253 218.973 115.283C213.84 116.545 209.119 119.043 204.502 121.566C199.73 124.141 194.209 127.283 188.663 125.352C188.251 125.171 188.044 125.918 188.509 126.073Z" fill="#E8E8E8"/>
<path d="M256.428 138.485C267.107 139.128 275.903 131.892 285.989 129.704C288.672 129.111 291.51 128.854 294.244 129.317C296.695 129.729 298.913 130.734 301.028 132.021C304.665 134.236 308.199 137.094 312.636 137.403C318.027 137.764 322.799 134.416 326.824 131.274C327.21 130.965 326.669 130.425 326.282 130.734C322.361 133.772 317.666 137.094 312.404 136.605C307.838 136.193 304.227 132.897 300.383 130.759C291.535 125.815 282.069 129.704 273.582 133.437C268.139 135.807 262.49 138.098 256.454 137.738C255.938 137.686 255.938 138.459 256.428 138.485Z" fill="#E8E8E8"/>
<path d="M12.9452 187.721C16.6855 184.167 22.2315 182.777 27.21 184.141C32.4207 185.558 35.7741 190.038 39.9529 193.129C48.2849 199.283 59.6348 198.305 68.7922 194.674C79.6005 190.399 88.6031 182.674 99.3855 178.322C104.648 176.184 110.349 174.82 116.075 175.206C121.647 175.592 126.393 177.987 130.804 181.232C135.19 184.45 139.317 188.262 144.45 190.296C149.945 192.459 156.135 191.996 161.294 189.137C161.733 188.905 161.346 188.236 160.908 188.468C155.645 191.378 149.351 191.635 143.857 189.214C139.265 187.18 135.499 183.781 131.501 180.794C127.399 177.729 123.04 175.335 117.881 174.614C112.567 173.892 107.15 174.794 102.12 176.468C91.1052 180.15 82.0252 187.747 71.5781 192.614C61.9306 197.12 49.523 199.232 40.3657 192.459C35.7999 189.086 32.2143 184.27 26.333 183.137C21.3545 182.184 16.0664 183.678 12.4035 187.18C12.0423 187.515 12.584 188.081 12.9452 187.721Z" fill="#E8E8E8"/>
<path d="M112.051 202.09C116.307 199.335 121.363 198.021 126.445 198.433C131.088 198.82 135.473 200.545 139.73 202.27C143.857 203.944 148.036 205.695 152.473 206.416C157.116 207.163 161.81 206.596 166.273 205.232C171.613 203.584 176.565 200.957 181.441 198.305C181.879 198.073 181.492 197.403 181.054 197.635C172.129 202.451 162.326 207.523 151.853 205.515C143.109 203.841 135.422 198.433 126.419 197.661C121.208 197.223 115.998 198.588 111.638 201.42C111.251 201.704 111.638 202.373 112.051 202.09Z" fill="#E8E8E8"/>
<path d="M209.429 219.549C215.052 214.296 221.965 210.511 229.42 208.579C233.212 207.601 237.107 207.111 241.028 207.137C245.387 207.189 249.721 207.884 254.055 208.296C262.464 209.094 270.538 207.678 278.406 204.614C285.912 201.704 292.98 196.656 301.054 195.42C310.495 193.978 317.795 200.236 323.805 206.648C324.141 207.008 324.683 206.468 324.347 206.107C319.394 200.828 313.565 195.369 306.032 194.519C297.778 193.592 290.271 198.433 283.1 201.755C274.846 205.592 265.946 208.219 256.789 207.704C252.223 207.446 247.709 206.622 243.117 206.39C239.222 206.184 235.301 206.468 231.484 207.266C223.049 208.991 215.181 213.06 208.887 218.957C208.526 219.343 209.068 219.884 209.429 219.549Z" fill="#E8E8E8"/>
<path d="M58.3967 56.8277C65.6194 62.4157 75.0347 59.9436 82.9023 57.3685C92.653 54.1496 102.533 52.1153 112.851 51.9093C113.341 51.9093 113.341 51.1367 112.851 51.1367C103.358 51.317 93.9943 52.9393 84.9659 55.8749C76.7888 58.5273 66.6254 62.2612 58.9384 56.287C58.5514 55.978 58.0097 56.5187 58.3967 56.8277Z" fill="#121826"/>
<path d="M127.941 10.0121C136.66 9.36836 145.069 6.94775 153.504 4.91341C162.275 2.77607 171.071 1.35975 180.125 2.3383C189.257 3.31684 198.105 6.07221 207.056 8.0293C215.671 9.93489 224.416 10.8104 233.238 10.3727C243.169 9.88338 252.971 7.79754 262.232 4.24388C262.696 4.06362 262.49 3.31684 262.026 3.4971C245.181 9.96064 226.789 11.3254 209.145 7.66878C200.349 5.84045 191.733 3.16233 182.834 1.87477C174.244 0.63872 165.86 1.334 157.399 3.18808C147.597 5.32543 137.975 8.46707 127.941 9.21385C127.451 9.29111 127.451 10.0636 127.941 10.0121Z" fill="#121826"/>
<path d="M267.546 74.5445C275.078 71.7634 282.894 75.7291 290.426 76.4501C294.476 76.8364 298.5 76.4501 302.447 75.5231C306.316 74.596 310.082 73.2312 314.029 72.639C318.259 71.9952 322.774 72.2527 326.437 74.6475C326.849 74.9308 327.236 74.2613 326.824 73.978C320.323 69.7548 312.378 72.0209 305.517 73.9265C301.209 75.1368 296.901 76.0124 292.412 75.8321C288.13 75.6776 284.029 74.493 279.85 73.6175C275.697 72.7677 271.415 72.3042 267.365 73.7978C266.875 73.9523 267.081 74.699 267.546 74.5445Z" fill="#121826"/>
<path d="M4.61324 152.674C11.1653 146.854 20.4 152.004 27.6743 153.111C36.0836 154.399 44.4929 152.081 52.5153 149.841C53.0054 149.712 52.799 148.965 52.3089 149.094C43.4353 151.566 34.2522 154.013 25.0432 151.824C18.3106 150.227 10.0819 146.828 4.04575 152.133C3.68461 152.442 4.22631 152.983 4.61324 152.674Z" fill="#121826"/>
<path d="M87.1069 224.983C89.1963 222.511 92.4208 221.172 95.671 221.584C97.5282 221.815 99.2307 222.665 100.933 223.412C102.352 224.03 103.797 224.545 105.267 224.957C111.587 226.708 118.371 226.451 124.536 224.287C125 224.133 124.794 223.386 124.33 223.541C117.417 225.936 109.781 225.936 102.894 223.36C99.9014 222.253 97.1155 220.476 93.7879 220.734C90.9762 220.94 88.3709 222.279 86.5394 224.416C86.2299 224.828 86.7974 225.369 87.1069 224.983Z" fill="#121826"/>
<path d="M131.011 222.871C135.705 221.506 140.529 220.837 145.43 220.863C145.92 220.863 145.92 220.09 145.43 220.09C140.478 220.064 135.576 220.76 130.804 222.124C130.34 222.279 130.521 223.026 131.011 222.871Z" fill="#121826"/>
<path d="M137.15 22.7075C141.716 26.2096 146.075 29.9693 150.254 33.9607C150.615 34.2955 151.157 33.7547 150.796 33.4199C146.591 29.4028 142.154 25.6173 137.537 22.0637C137.15 21.7289 136.763 22.3984 137.15 22.7075Z" fill="#121826"/>
<path d="M92.4208 36.2783C92.8593 33.8577 93.3236 31.4371 93.7621 28.9907C93.8653 28.5015 93.1173 28.2955 93.0141 28.7847C92.5756 31.2053 92.1112 33.626 91.6727 36.0723C91.5953 36.5616 92.3434 36.7676 92.4208 36.2783Z" fill="#121826"/>
<path d="M241.157 51.626C241.982 51.626 242.653 50.9573 242.653 50.1325C242.653 49.3076 241.982 48.6389 241.157 48.6389C240.332 48.6389 239.661 49.3076 239.661 50.1325C239.661 50.9573 240.332 51.626 241.157 51.626Z" fill="#33D49E"/>
<path d="M45.6795 174.974C46.6626 174.974 47.4594 174.179 47.4594 173.197C47.4594 172.216 46.6626 171.42 45.6795 171.42C44.6965 171.42 43.8997 172.216 43.8997 173.197C43.8997 174.179 44.6965 174.974 45.6795 174.974Z" fill="#33D49E"/>
<path d="M37.0639 14.0036C39.3148 14.0036 41.1396 12.1819 41.1396 9.93489C41.1396 7.68785 39.3148 5.86621 37.0639 5.86621C34.813 5.86621 32.9882 7.68785 32.9882 9.93489C32.9882 12.1819 34.813 14.0036 37.0639 14.0036Z" fill="#33D49E"/>
<path d="M45.241 17.9435C45.996 17.9435 46.6082 17.3324 46.6082 16.5787C46.6082 15.8249 45.996 15.2139 45.241 15.2139C44.486 15.2139 43.8738 15.8249 43.8738 16.5787C43.8738 17.3324 44.486 17.9435 45.241 17.9435Z" fill="#33D49E"/>
<path d="M123.349 247C125.031 247 126.393 245.64 126.393 243.961C126.393 242.282 125.031 240.923 123.349 240.923C121.668 240.923 120.306 242.282 120.306 243.961C120.306 245.64 121.668 247 123.349 247Z" fill="#33D49E"/>
<path d="M264.811 19.3083C266.292 19.3083 267.494 18.1094 267.494 16.6302C267.494 15.1511 266.292 13.9521 264.811 13.9521C263.331 13.9521 262.129 15.1511 262.129 16.6302C262.129 18.1094 263.331 19.3083 264.811 19.3083Z" fill="#33D49E"/>
<path d="M268.242 13.4113C269.153 13.4113 269.893 12.6735 269.893 11.7632C269.893 10.8529 269.153 10.1151 268.242 10.1151C267.332 10.1151 266.591 10.8529 266.591 11.7632C266.591 12.6735 267.332 13.4113 268.242 13.4113Z" fill="#33D49E"/>
<path d="M41.1653 9.72889C43.4162 9.72889 45.241 7.90725 45.241 5.6602C45.241 3.41316 43.4162 1.59152 41.1653 1.59152C38.9144 1.59152 37.0897 3.41316 37.0897 5.6602C37.0897 7.90725 38.9144 9.72889 41.1653 9.72889Z" fill="#33D49E"/>
<path d="M39.1275 177.369C40.253 177.369 41.1653 176.458 41.1653 175.335C41.1653 174.211 40.253 173.3 39.1275 173.3C38.002 173.3 37.0897 174.211 37.0897 175.335C37.0897 176.458 38.002 177.369 39.1275 177.369Z" fill="#33D49E"/>
<path d="M110.761 241.103C111.759 241.103 112.567 240.297 112.567 239.3C112.567 238.304 111.759 237.498 110.761 237.498C109.764 237.498 108.956 238.304 108.956 239.3C108.956 240.297 109.764 241.103 110.761 241.103Z" fill="#33D49E"/>
<path d="M254.906 10.1151C257.271 10.1151 259.188 8.20132 259.188 5.84046C259.188 3.47959 257.271 1.56577 254.906 1.56577C252.541 1.56577 250.624 3.47959 250.624 5.84046C250.624 8.20132 252.541 10.1151 254.906 10.1151Z" fill="#33D49E"/>
<path d="M184.407 74.8535C184.92 74.8535 185.336 74.4384 185.336 73.9265C185.336 73.4146 184.92 72.9995 184.407 72.9995C183.894 72.9995 183.479 73.4146 183.479 73.9265C183.479 74.4384 183.894 74.8535 184.407 74.8535Z" fill="#33D49E"/>
<path d="M174.889 19.6688C174.347 20.9306 173.831 22.2182 173.289 23.48C173.109 23.9435 173.857 24.1495 174.037 23.686C174.579 22.4242 175.095 21.1367 175.637 19.8748C175.817 19.4113 175.069 19.2053 174.889 19.6688Z" fill="#33D49E"/>
<path d="M174.76 20.2869C175.714 21.2912 176.462 22.4242 176.952 23.7118C177.133 24.1753 177.881 23.9693 177.7 23.5058C177.133 22.0894 176.333 20.8534 175.301 19.7461C174.966 19.3856 174.399 19.9263 174.76 20.2869Z" fill="#33D49E"/>
<path d="M173.496 24.1495C174.244 25.5401 175.095 26.8534 176.049 28.0894C176.359 28.4757 177.03 28.0894 176.72 27.7032C175.766 26.4414 174.914 25.1281 174.166 23.7633C173.908 23.3255 173.264 23.7117 173.496 24.1495Z" fill="#33D49E"/>
<path d="M177.004 23.7633C176.694 25.2053 176.411 26.6474 176.101 28.0895C175.998 28.5787 176.746 28.7847 176.849 28.2955C177.159 26.8534 177.442 25.4113 177.752 23.9693C177.855 23.5057 177.107 23.2997 177.004 23.7633Z" fill="#33D49E"/>
<path d="M247.554 129.91C246.935 131.043 246.522 132.253 246.342 133.54C246.265 134.03 247.013 134.236 247.09 133.746C247.271 132.536 247.632 131.403 248.225 130.322C248.457 129.858 247.786 129.472 247.554 129.91Z" fill="#33D49E"/>
<path d="M247.503 130.141C248.019 131.506 248.612 132.819 249.283 134.081C249.515 134.519 250.185 134.133 249.953 133.695C249.308 132.485 248.741 131.223 248.251 129.935C248.07 129.472 247.322 129.678 247.503 130.141Z" fill="#33D49E"/>
<path d="M246.187 134.081C246.858 135.034 247.503 135.987 248.173 136.94C248.457 137.352 249.128 136.965 248.844 136.553C248.173 135.601 247.529 134.648 246.858 133.695C246.574 133.283 245.903 133.669 246.187 134.081Z" fill="#33D49E"/>
<path d="M248.999 133.952C248.457 134.699 248.199 135.549 248.199 136.45C248.199 136.94 248.973 136.94 248.973 136.45C248.973 135.678 249.205 134.957 249.67 134.339C249.953 133.927 249.283 133.54 248.999 133.952Z" fill="#33D49E"/>
<path d="M31.7758 202.811C31.0793 204.33 30.3828 205.824 29.6864 207.343C29.48 207.781 30.1507 208.193 30.357 207.729C31.0535 206.21 31.75 204.717 32.4465 203.197C32.6528 202.76 32.0079 202.373 31.7758 202.811Z" fill="#33D49E"/>
<path d="M31.9048 203.017C32.5755 204.614 33.2462 206.21 33.9168 207.807C34.0974 208.27 34.8455 208.064 34.6649 207.601C33.9942 206.004 33.3235 204.408 32.6529 202.811C32.4723 202.347 31.7242 202.554 31.9048 203.017Z" fill="#33D49E"/>
<path d="M29.5058 208.039C30.2023 209.403 30.8729 210.794 31.5694 212.159C31.6984 212.39 32.0079 212.39 32.1885 212.236C32.7302 211.798 32.9882 211.051 33.2719 210.459C33.6846 209.635 34.0974 208.811 34.5101 207.987C34.7423 207.549 34.0716 207.163 33.8394 207.601C33.4783 208.322 33.0914 209.043 32.7302 209.764C32.4207 210.382 32.1369 211.232 31.5952 211.669C31.8016 211.695 32.0079 211.721 32.2143 211.747C31.5178 210.382 30.8472 208.991 30.1507 207.626C29.9443 207.214 29.2736 207.601 29.5058 208.039Z" fill="#33D49E"/>
<path d="M291.407 83.1197C290.607 84.639 290.117 86.2356 289.885 87.9351C289.807 88.4244 290.581 88.4244 290.658 87.9351C290.865 86.3643 291.329 84.8965 292.051 83.5059C292.309 83.0682 291.639 82.6819 291.407 83.1197Z" fill="#33D49E"/>
<path d="M291.303 84.021C292.103 85.566 292.877 87.1111 293.676 88.6562C293.909 89.0939 294.579 88.7077 294.347 88.2699C293.547 86.7248 292.774 85.1798 291.974 83.6347C291.742 83.1969 291.071 83.5832 291.303 84.021Z" fill="#33D49E"/>
<path d="M289.936 88.0381C290.581 89.5832 291.355 91.0253 292.283 92.3901C292.567 92.8021 293.238 92.4158 292.954 92.0038C292.051 90.6905 291.277 89.2999 290.684 87.8321C290.504 87.3944 289.756 87.6004 289.936 88.0381Z" fill="#33D49E"/>
<path d="M293.444 88.3729C292.98 89.815 292.593 91.2828 292.335 92.8021C292.258 93.2914 293.006 93.4974 293.083 93.0081C293.341 91.5146 293.702 90.0467 294.192 88.5789C294.347 88.1154 293.599 87.9094 293.444 88.3729Z" fill="#33D49E"/>
<path d="M288.414 208.142C288.105 209.172 287.821 210.176 287.511 211.206C287.382 211.695 288.105 211.875 288.259 211.412C288.569 210.382 288.853 209.378 289.162 208.348C289.317 207.858 288.569 207.652 288.414 208.142Z" fill="#33D49E"/>
<path d="M288.363 208.708C288.827 209.738 289.317 210.768 289.781 211.772C289.988 212.236 290.658 211.824 290.452 211.386C289.988 210.356 289.498 209.326 289.033 208.322C288.827 207.858 288.156 208.245 288.363 208.708Z" fill="#33D49E"/>
<path d="M287.718 211.695C287.95 212.905 288.517 213.987 289.317 214.914C289.652 215.3 290.194 214.734 289.859 214.373C289.136 213.549 288.672 212.571 288.466 211.515C288.363 211 287.615 211.206 287.718 211.695Z" fill="#33D49E"/>
<path d="M289.756 211.592C289.42 212.674 289.265 213.781 289.291 214.888C289.317 215.378 290.091 215.378 290.065 214.888C290.039 213.833 290.168 212.802 290.504 211.798C290.658 211.335 289.91 211.129 289.756 211.592Z" fill="#33D49E"/>
<path d="M22.0509 72.2784C21.4834 73.5145 20.9417 74.7506 20.3742 75.9866C20.1679 76.4244 20.8385 76.8364 21.0449 76.3729C21.6124 75.1368 22.1541 73.9008 22.7216 72.6647C22.928 72.2269 22.2573 71.8149 22.0509 72.2784Z" fill="#33D49E"/>
<path d="M20.4774 76.6304C21.0707 78.1497 21.6382 79.6433 22.2315 81.1626C22.4121 81.6261 23.1601 81.4201 22.9796 80.9566C22.3863 79.4372 21.8188 77.9437 21.2255 76.4244C21.0449 75.9608 20.2969 76.1669 20.4774 76.6304Z" fill="#33D49E"/>
<path d="M22.0509 72.3299C22.8506 73.7205 23.6503 75.1368 24.4499 76.5274C24.7079 76.9651 25.3527 76.5789 25.1206 76.1411C24.3209 74.7505 23.5213 73.3342 22.7216 71.9437C22.4637 71.5059 21.793 71.8922 22.0509 72.3299Z" fill="#33D49E"/>
<path d="M24.6305 76.1926C23.8051 77.7377 23.0828 79.3342 22.4637 80.9566C22.2831 81.4201 23.0312 81.6261 23.2118 81.1626C23.8051 79.5918 24.5015 78.0467 25.3012 76.5789C25.5333 76.1411 24.8627 75.7548 24.6305 76.1926Z" fill="#33D49E"/>
<path d="M216.497 96.021C217.013 95.0425 217.993 94.3729 219.128 94.4244C220.056 94.4502 220.753 95.094 221.578 95.403C223.023 95.918 223.461 94.991 224.545 94.2957C226.015 93.3171 227.434 95.506 229.007 95.4802C229.91 95.4545 230.658 95.0167 230.684 94.0639C230.478 94.1669 230.297 94.2957 230.091 94.3987C230.89 94.8107 231.69 95.2227 232.464 95.6605C232.903 95.8922 233.289 95.2227 232.851 94.991C232.051 94.5789 231.252 94.1669 230.478 93.7291C230.22 93.6004 229.91 93.7549 229.884 94.0639C229.807 95.8922 226.247 93.2914 225.577 93.2141C224.055 93.0081 223.461 94.8879 222.146 94.6819C220.753 94.4502 219.876 93.4459 218.38 93.7034C217.245 93.9094 216.316 94.6047 215.8 95.6347C215.62 96.0725 216.264 96.4588 216.497 96.021Z" fill="#33D49E"/>
<path d="M226.376 90.7935C227.537 89.506 229.369 91.1283 230.684 91.2828C232.206 91.463 233.393 89.8407 234.863 90.6648C236.075 91.36 238.294 93.0081 239.171 90.8965C239.351 90.433 238.603 90.227 238.423 90.6905C237.804 92.1841 235.585 90.0982 234.837 89.7892C233.831 89.3514 233.16 89.712 232.258 90.1497C231.174 90.6648 230.4 90.4845 229.369 90.021C228.904 89.815 228.44 89.6347 227.924 89.5575C227.124 89.4545 226.402 89.609 225.835 90.227C225.499 90.6133 226.041 91.154 226.376 90.7935Z" fill="#33D49E"/>
<path d="M205.43 30.0465C205.792 29.377 206.204 29.1967 206.669 29.5058C206.875 29.583 207.081 29.686 207.288 29.8148C207.52 29.9178 207.752 30.0723 207.984 30.1495C208.397 30.2783 208.81 30.3298 209.222 30.2268C210.332 29.9178 210.899 28.5272 212.086 28.553C213.195 28.5787 213.995 29.6345 215.155 29.0937C215.645 28.862 215.981 28.45 216.445 28.1925C217.477 27.6259 218.741 27.8319 219.618 28.553C220.005 28.862 220.547 28.3212 220.16 28.0122C218.999 27.0594 217.399 26.7761 216.058 27.5229C215.465 27.8577 214.975 28.5787 214.201 28.4757C213.762 28.4242 213.375 28.1152 212.963 27.9607C212.344 27.7289 211.776 27.6517 211.157 27.9349C210.383 28.2955 209.867 29.2998 209.016 29.48C207.933 29.7118 207.21 28.6045 206.204 28.5787C205.25 28.553 204.141 29.48 204.786 30.4328C205.044 30.8448 205.714 30.4586 205.43 30.0465Z" fill="#33D49E"/>
<path d="M213.994 25.4886C214.304 23.8148 217.219 25.4371 218.251 25.2568C218.921 25.1538 219.412 24.6903 220.031 24.4585C221.011 24.0723 221.965 24.2268 222.868 24.7676C223.307 25.0251 223.694 24.3555 223.255 24.098C222.481 23.6345 221.656 23.4027 220.779 23.48C220.392 23.5058 220.031 23.6088 219.695 23.7375C218.663 24.1753 218.251 24.6646 216.961 24.3555C215.723 24.0465 213.608 23.4285 213.272 25.2826C213.143 25.7719 213.891 25.9779 213.994 25.4886Z" fill="#33D49E"/>
<path d="M18.6976 118.553C19.0329 116.931 21.2771 119.146 21.7156 119.429C22.2057 119.764 22.7474 119.995 23.3407 119.867C24.1146 119.738 24.7079 119.094 25.5075 118.914C26.7973 118.631 28.0871 119.043 29.0157 119.97C29.3769 120.33 29.9186 119.764 29.5574 119.429C28.7578 118.631 27.7775 118.141 26.6425 118.064C26.075 118.012 25.5075 118.09 24.9658 118.27C24.1146 118.553 23.4439 119.377 22.4121 118.965C21.3287 118.528 20.916 117.42 19.6778 117.291C18.8781 117.214 18.1301 117.523 17.9753 118.347C17.8463 118.837 18.5944 119.043 18.6976 118.553Z" fill="#33D49E"/>
<path d="M27.2874 116.699C27.8549 115.927 30.4602 117.472 31.2083 117.652C32.4207 117.935 33.6589 117.935 34.897 117.781C35.3871 117.703 35.1808 116.957 34.6907 117.034C32.5497 117.317 30.8987 116.751 28.9641 115.978C28.0871 115.643 27.21 115.515 26.6167 116.313C26.333 116.699 27.0036 117.085 27.2874 116.699Z" fill="#33D49E"/>
<path d="M90.1766 170.674C90.5893 170.03 91.2342 169.618 92.0338 169.618C92.7045 169.618 93.1172 170.03 93.7105 170.21C94.3038 170.416 94.7939 170.287 95.3099 169.953C96.3159 169.283 96.806 168.459 98.1731 168.51C99.4113 168.536 100.598 169.129 101.681 169.669C102.12 169.901 102.507 169.232 102.068 169C100.03 167.97 97.5541 166.991 95.5936 168.665C95.1551 169.026 95.1035 169.129 94.4328 169.257C93.6847 169.412 93.7621 169.309 93.1946 169.077C92.7045 168.871 92.2402 168.794 91.6985 168.845C90.7441 168.948 89.996 169.489 89.5059 170.262C89.2479 170.699 89.9186 171.086 90.1766 170.674Z" fill="#33D49E"/>
<path d="M98.7665 172.167C99.9788 171.111 102.275 173.326 103.771 173.12C104.674 172.991 105.086 172.322 105.68 171.704C106.815 170.493 108.517 170.313 109.91 171.214C110.323 171.472 110.71 170.828 110.297 170.545C109.291 169.901 108.104 169.695 106.944 170.03C106.428 170.184 105.963 170.416 105.551 170.751C104.932 171.266 104.545 172.193 103.668 172.347C101.785 172.682 100.005 170.056 98.2247 171.626C97.8636 171.961 98.4053 172.502 98.7665 172.167Z" fill="#33D49E"/>
<path d="M63.5816 6.99926C63.7879 6.14948 64.278 5.47995 65.1035 5.11943C65.8258 4.81042 66.419 5.01643 67.1671 4.99067C67.9926 4.93917 68.6117 4.52715 69.1018 3.90913C69.8498 2.98209 70.3399 2.02929 71.3976 1.41126C72.6099 0.715984 74.0029 0.587228 75.3443 0.999246C75.8344 1.15375 76.0149 0.40697 75.5506 0.252463C73.0743 -0.49432 70.6237 0.458472 69.1276 2.54432C68.5343 3.36835 68.0957 4.19239 66.9608 4.21814C66.2643 4.24389 65.671 4.08938 65.0003 4.32115C63.8653 4.70741 63.0914 5.6602 62.8335 6.79326C62.7045 7.28253 63.4526 7.48854 63.5816 6.99926Z" fill="#33D49E"/>
<path d="M67.2187 9.96065C66.1095 7.02502 71.4234 7.17953 73.0227 6.613C75.0089 5.91772 76.7114 4.68167 78.3881 3.44561C78.775 3.16235 78.3881 2.49282 78.0012 2.77608C76.8662 3.62587 75.7054 4.44991 74.4672 5.11944C72.9195 5.94347 71.4491 6.20098 69.7724 6.4585C67.9926 6.74176 65.671 7.97781 66.4964 10.1409C66.6512 10.6044 67.3993 10.4242 67.2187 9.96065Z" fill="#33D49E"/>
<path d="M170.091 157.592C172.051 152.468 175.379 149.12 178.81 145.643C183.324 141.086 191.707 132.613 200.246 133.952C207.52 135.085 206.72 142.064 216.703 147.137C226.118 151.953 229.73 147.189 239.119 152.365C240.512 153.137 250.34 158.725 252.584 169.283C253.513 173.661 253.281 179.661 251.346 180.227C249.154 180.871 248.406 168.253 239.635 163.309C232.928 159.523 223.694 161.352 222.945 164.056C222.146 166.914 231.406 168.794 236.643 178.734C238.939 183.06 239.429 187 240.125 192.408C240.77 197.506 241.492 207.961 239.119 208.579C237.159 209.094 236.101 202.116 228.904 196.399C225.112 193.386 221.062 192.15 212.963 189.678C205.663 187.463 201.974 186.382 199.988 188.184C197.047 190.862 199.317 197.661 199.73 198.871C202.619 207.523 209.996 211.129 209.454 212.056C208.732 213.214 195.267 209.867 184.278 199.129C174.889 189.935 164.39 172.45 170.091 157.592Z" fill="#2FBC8E"/>
<path d="M254.313 187.438C254.209 188.159 253.668 192.176 256.041 194.751C258.672 197.584 261.871 195.42 265.095 198.227C268.062 200.802 267.675 204.665 268.578 204.588C269.609 204.511 271.183 199.283 268.964 196.116C268.268 195.111 266.565 194.21 263.186 192.459C259.73 190.656 259.265 190.734 258.363 189.755C256.118 187.335 256.454 184.167 255.654 184.167C255.035 184.167 254.493 186.073 254.313 187.438Z" fill="#33D49E"/>
<path d="M232.129 217.669C230.684 219.833 230.839 222.15 230.968 224.597C231.123 227.094 231.226 229.129 232.696 230.957C234.373 233.043 237.159 233.918 237.52 233.455C237.804 233.094 236.54 232.116 235.405 229.978C235.276 229.721 233.599 226.554 233.676 222.845C233.754 218.21 236.488 215.455 235.792 214.966C235.276 214.579 233.289 215.918 232.129 217.669Z" fill="#33D49E"/>
<path d="M242.473 174.974C246.806 177.832 244.433 184.45 247.271 188.313C247.554 188.699 248.225 188.313 247.941 187.927C245.001 183.91 247.503 177.369 242.86 174.304C242.447 174.021 242.06 174.691 242.473 174.974Z" fill="#33D49E"/>
<path d="M240.925 156.33C245.568 159.884 248.792 164.957 250.082 170.648C250.185 171.137 250.934 170.931 250.83 170.442C249.489 164.545 246.136 159.343 241.338 155.686C240.899 155.352 240.512 156.021 240.925 156.33Z" fill="#33D49E"/>
<path d="M225.964 170.596C229.678 173.635 232.593 177.523 234.399 181.978C234.579 182.442 235.327 182.236 235.147 181.772C233.264 177.189 230.349 173.197 226.505 170.056C226.144 169.747 225.577 170.287 225.964 170.596Z" fill="#33D49E"/>
<path d="M236.204 186.227C236.901 188.081 237.365 189.961 237.546 191.918C237.597 192.408 238.371 192.408 238.32 191.918C238.113 189.884 237.649 187.927 236.927 186.021C236.798 185.558 236.05 185.764 236.204 186.227Z" fill="#33D49E"/>
<path d="M196.505 190.502C195.86 194.39 196.608 198.279 198.724 201.626C198.982 202.038 199.652 201.652 199.394 201.24C197.408 198.099 196.634 194.39 197.253 190.708C197.331 190.219 196.583 190.013 196.505 190.502Z" fill="#33D49E"/>
<path d="M199.755 203.738C200.684 205.438 201.871 206.957 203.289 208.27C203.651 208.605 204.192 208.064 203.831 207.729C202.464 206.442 201.329 204.974 200.426 203.352C200.194 202.914 199.523 203.3 199.755 203.738Z" fill="#33D49E"/>
<path d="M170.142 164.493C169.936 166.94 170.168 169.36 170.865 171.729C170.994 172.219 171.742 172.013 171.613 171.523C170.942 169.206 170.71 166.888 170.916 164.493C170.968 164.004 170.194 164.004 170.142 164.493Z" fill="#33D49E"/>
<path d="M171.638 174.356C172.051 176.365 172.799 178.219 173.883 179.97C174.141 180.382 174.811 179.996 174.553 179.583C173.522 177.884 172.799 176.107 172.387 174.15C172.283 173.686 171.535 173.892 171.638 174.356Z" fill="#33D49E"/>
<path d="M104.287 13.3856C103.564 15.3426 102.687 18.0208 101.836 21.2654C100.959 24.6388 98.8955 33.523 99.1018 45.214C99.3082 56.493 101.527 64.7849 103.564 72.1754C106.737 83.712 110.607 92.0038 112.902 96.8193C112.902 96.8193 120.202 112.244 132.3 128.776C134.442 131.686 137.176 135.369 137.176 135.369C139.162 138.021 140.865 140.236 142.051 141.832C143.006 142.914 144.218 144.124 145.791 145.283C148.732 147.472 151.647 148.579 153.685 149.146C157.038 146.287 160.392 143.403 163.745 140.545C165.267 141.987 166.815 143.403 168.337 144.845C170.452 142.682 172.335 140.957 173.805 139.695C180.203 134.158 185.491 131.326 186.729 130.656C187.786 130.09 188.689 129.652 189.308 129.369C188.354 127.463 187.399 125.558 186.445 123.626C187.993 122.287 189.773 120.871 191.759 119.48C194.442 117.6 197.021 116.081 199.369 114.897C199.343 112.734 199.059 109.463 197.64 105.858C196.583 103.154 195.319 101.326 194.777 100.553C188.818 91.9781 206.385 115.618 183.427 82.9137C174.528 70.2441 170.091 63.8836 168.053 61.257C161.681 52.9393 156.677 47.2483 153.117 43.2054C146.307 35.4543 143.238 32.5702 140.761 30.4586C137.382 27.5229 133.642 24.3555 127.993 21.4199C124.433 19.5916 121.492 18.5873 117.21 17.1195C111.922 15.3169 107.46 14.1323 104.287 13.3856Z" fill="white"/>
<path d="M103.487 13.8491C97.8894 31.0766 97.8894 49.6689 101.913 67.2312C102.919 71.6347 104.183 75.9866 105.68 80.2355C106.428 82.3986 107.331 84.5102 108.13 86.6476C108.414 87.3944 108.466 88.1412 108.801 88.8879C109.291 90.0467 109.807 91.2055 110.323 92.3643C111.277 94.5274 112.283 96.6648 113.341 98.8021C114.398 100.914 115.688 102.922 116.643 105.06C117.004 105.858 117.313 106.708 117.726 107.48C118.268 108.459 119.067 109.206 119.635 110.158C120.822 112.141 121.956 114.176 123.195 116.133C128.844 125.223 135.267 133.798 141.845 142.219C142.154 142.605 142.696 142.064 142.386 141.678C136.582 134.236 130.908 126.691 125.8 118.785C124.536 116.828 123.324 114.871 122.137 112.862C121.57 111.909 121.002 110.931 120.46 109.952C119.919 109 119.196 108.33 118.629 107.403C118.165 106.63 117.829 105.806 117.494 104.982C117.03 103.875 116.41 102.871 115.843 101.815C114.76 99.8322 113.754 97.8236 112.799 95.7892C111.793 93.6519 110.839 91.4888 109.884 89.3257C109.472 88.3729 109.317 87.3686 108.93 86.3901C108.517 85.3343 108.079 84.2785 107.666 83.1969C106.092 79.051 104.725 74.8278 103.59 70.5274C101.32 61.8235 100.005 52.8878 99.8756 43.8749C99.7467 33.7547 101.14 23.6345 104.287 13.9778C104.364 13.5916 103.616 13.3856 103.487 13.8491Z" fill="#121826"/>
<path d="M103.848 13.8491C108.156 14.1838 112.541 15.6774 116.591 17.0937C120.589 18.51 124.536 20.0551 128.199 22.1667C135.499 26.3899 141.948 31.9264 147.829 37.9521C153.891 44.1582 159.411 50.9822 164.751 57.8063C170.065 64.6046 175.147 71.6346 180.048 78.742C185.465 86.6476 190.675 94.7077 195.783 102.845C196.041 103.257 196.712 102.871 196.454 102.459C187.09 87.6004 177.417 72.9222 166.66 59.0166C156.264 45.5487 145.121 31.7976 130.521 22.656C126.548 20.1581 122.292 18.3555 117.907 16.7332C113.47 15.1109 108.62 13.437 103.874 13.0508C103.358 13.0508 103.358 13.8233 103.848 13.8491Z" fill="#121826"/>
<path d="M142.954 141.987C154.975 129.755 168.491 119.017 183.117 110.055C187.245 107.532 191.424 105.163 195.706 102.948C196.144 102.716 195.757 102.047 195.319 102.279C180.125 110.21 165.886 119.97 153.066 131.326C149.403 134.57 145.843 137.944 142.412 141.446C142.051 141.807 142.593 142.347 142.954 141.987Z" fill="#121826"/>
<path d="M142.206 142.579C145.276 146.004 149.274 148.425 153.736 149.506C154.227 149.635 154.433 148.888 153.943 148.759C149.583 147.678 145.74 145.36 142.748 142.013C142.412 141.652 141.871 142.219 142.206 142.579Z" fill="#121826"/>
<path d="M195.577 103.154C197.589 106.682 198.749 110.57 199.007 114.613C199.033 115.103 199.807 115.103 199.781 114.613C199.523 110.416 198.311 106.424 196.247 102.768C196.015 102.33 195.344 102.716 195.577 103.154Z" fill="#121826"/>
<path d="M154.201 149.3C168.156 136.579 183.272 125.197 199.394 115.334C199.807 115.077 199.42 114.407 199.007 114.665C182.859 124.553 167.666 135.987 153.659 148.759C153.298 149.094 153.84 149.635 154.201 149.3Z" fill="#121826"/>
<path d="M163.926 141.008C165.344 142.399 166.763 143.789 168.182 145.206C168.337 145.36 168.595 145.36 168.724 145.206C172.902 140.777 177.597 136.862 182.73 133.592C183.969 132.794 185.233 132.047 186.522 131.326C187.348 130.862 188.921 130.425 189.411 129.549C189.927 128.673 189.154 127.489 188.741 126.742C188.019 125.429 187.167 124.219 186.239 123.085C185.929 122.699 185.387 123.24 185.697 123.626C186.6 124.734 187.399 125.892 188.07 127.128C188.225 127.386 188.56 127.824 188.586 128.133C188.483 128.596 188.38 129.034 188.276 129.497C188.147 129.575 188.019 129.626 187.89 129.704C187.374 130.09 186.703 130.322 186.135 130.656C183.891 131.918 181.699 133.283 179.583 134.751C175.456 137.661 171.638 140.983 168.182 144.639C168.362 144.639 168.543 144.639 168.724 144.639C167.305 143.249 165.886 141.858 164.467 140.442C164.106 140.107 163.564 140.648 163.926 141.008Z" fill="#121826"/>
<path d="M105.318 77.5317C111.664 70.0638 119.093 63.6003 126.703 57.4458C134.338 51.2912 142.335 45.523 151.286 41.4286C151.75 41.2225 151.337 40.553 150.899 40.759C142.025 44.802 134.106 50.5187 126.522 56.596C118.784 62.8278 111.226 69.3943 104.777 76.9651C104.441 77.3772 104.983 77.9179 105.318 77.5317Z" fill="#121826"/>
<path d="M151.441 45.0337C150.589 45.0852 150.228 43.6689 151.183 43.5917C151.518 43.5659 151.905 43.7204 152.034 44.0552C152.215 44.5445 151.75 45.0595 151.26 45.0595C150.899 45.0595 150.873 45.6518 151.26 45.6518C152.06 45.6518 152.756 44.905 152.627 44.1067C152.524 43.4372 151.828 43.0251 151.183 43.0509C150.486 43.1024 149.945 43.6689 150.022 44.3642C150.099 45.0595 150.718 45.7033 151.441 45.6518C151.828 45.6002 151.828 45.008 151.441 45.0337Z" fill="#121826"/>
<path d="M190.83 101.995C190.856 101.995 190.856 101.995 190.882 101.97C190.804 101.97 190.727 101.944 190.65 101.944C190.933 102.073 190.779 101.532 190.753 101.454C190.753 101.377 190.779 101.274 190.804 101.197C190.882 101.042 191.011 100.888 191.166 100.811C191.501 100.656 191.862 100.914 191.965 101.248C192.172 101.918 191.191 102.253 190.933 101.66C190.779 101.326 190.289 101.609 190.443 101.944C190.753 102.665 191.81 102.716 192.326 102.176C192.92 101.532 192.481 100.45 191.681 100.218C190.83 99.9867 190.005 100.888 190.211 101.712C190.289 102.047 190.727 102.459 191.062 102.124C191.32 101.866 191.062 101.3 190.675 101.454C190.34 101.583 190.495 102.124 190.83 101.995Z" fill="#121826"/>
<path opacity="0.15" d="M104.287 13.5401C108.362 16.1667 113.883 20.0294 119.919 25.2053C123.659 28.4242 133.358 37.0509 145.482 53.7891C158.638 71.9437 165.215 81.0081 166.531 91.1283C167.202 96.4073 168.13 111.446 154.846 129.935C160.34 125.764 165.86 121.566 171.355 117.394C173.754 121.334 176.127 125.274 178.526 129.214C175.946 131.12 173.367 133 170.787 134.905C172.051 136.425 173.315 137.918 174.579 139.437C176.127 137.944 177.984 136.347 180.125 134.776C183.427 132.356 186.6 130.631 189.334 129.369C188.302 127.386 187.296 125.377 186.264 123.394C190.701 120.485 195.138 117.549 199.575 114.639C199.343 112.45 198.801 109.283 197.382 105.729C195.731 101.558 193.642 98.7764 192.842 97.6948C187.064 89.8922 189.876 91.7721 177.778 74.8021C169.085 62.596 164.287 55.772 156.6 46.9393C151.673 41.2741 148.397 37.5401 143.16 32.9307C137.589 28.0122 130.83 22.1667 120.512 17.892C113.934 15.2139 108.156 14.0808 104.287 13.5401Z" fill="#121826"/>
<path opacity="0.11" d="M187.116 88.3472C186.884 89.9952 186.419 92.5188 185.258 95.3772C182.576 101.995 178.448 104.879 169.833 113.583C165.757 117.703 159.695 123.806 160.263 124.476C160.804 125.12 167.434 120.021 179.016 112.399C185.8 107.918 191.501 104.442 195.241 102.176C192.533 97.5661 189.824 92.9566 187.116 88.3472Z" fill="#121826"/>
<path opacity="0.08" d="M195.783 102.948C195.422 103.025 196.299 105.832 195.241 109.334C194.467 111.909 193.152 113.146 189.927 117.034C188.534 118.708 186.497 121.231 184.072 124.476C189.128 121.025 194.184 117.575 199.24 114.124C196.944 105.008 196.092 102.897 195.783 102.948Z" fill="#121826"/>
<path d="M152.215 187.232C152.292 187.978 152.576 188.571 153.014 189.292C154.871 192.279 157.941 194.107 160.16 195.163C159.282 197.918 158.225 201.884 157.451 206.725C156.729 211.386 155.877 216.82 156.987 217.18C157.374 217.309 158.509 216.948 169.059 196.09C170.529 193.18 171.742 190.759 172.541 189.111C166.918 186.588 161.32 184.038 155.697 181.515C155.155 181.927 151.931 184.27 152.215 187.232Z" fill="#121826" stroke="#121826" stroke-width="0.515908"/>
<path d="M140.452 130.27C135.705 133.566 132.636 136.759 129.901 139.643C128.792 140.802 123.478 146.442 117.881 155.3C115.404 159.214 113.573 162.665 112.309 165.266C112.464 166.322 112.825 167.841 113.779 169.36C114.837 171.06 116.024 171.807 117.881 173.455C120.151 175.463 120.976 176.648 122.292 177.987C124.846 180.614 128.431 182.596 135.499 186.485C144.373 191.352 149.145 193.129 150.615 193.669C152.421 194.313 153.943 194.802 155.026 195.137C155.542 192.742 156.161 190.193 156.935 187.515C157.632 185.12 158.38 182.88 159.128 180.794C153.633 176.777 147.984 172.27 142.257 167.171C140.271 165.42 138.362 163.644 136.531 161.892C138.388 159.652 140.994 156.716 144.295 153.549C145.25 152.622 147.262 150.716 149.712 148.708C152.808 146.21 157.477 142.862 163.926 139.772C165.035 132.382 163.719 125.48 159.669 123.24C154.613 120.459 146.926 125.789 140.452 130.27Z" fill="white"/>
<path d="M135.241 134.107C126.11 141.832 118.552 151.386 113.186 162.073C112.644 163.18 111.871 164.416 111.767 165.652C111.664 166.965 112.464 167.97 113.186 168.974C114.914 171.317 116.875 173.506 118.964 175.541C123.401 179.789 128.509 183.292 133.874 186.253C140.478 189.91 147.468 192.82 154.433 195.704C154.897 195.884 155.104 195.137 154.639 194.957C143.238 190.219 131.604 185.377 122.085 177.317C119.944 175.489 117.907 173.532 116.075 171.395C115.121 170.262 114.166 169.103 113.341 167.892C112.825 167.146 112.438 166.45 112.567 165.498C112.696 164.571 113.238 163.695 113.65 162.845C116.127 157.824 119.093 153.06 122.498 148.605C126.393 143.48 130.856 138.819 135.783 134.673C136.17 134.339 135.628 133.798 135.241 134.107Z" fill="#121826"/>
<path d="M157.116 142.991C148.268 148.708 140.529 155.944 134.261 164.39C133.977 164.802 134.648 165.189 134.932 164.777C141.123 156.433 148.784 149.274 157.503 143.635C157.915 143.403 157.528 142.734 157.116 142.991Z" fill="#121826"/>
<path d="M136.092 162.279C143.341 168.82 150.796 175.103 158.483 181.103C158.87 181.412 159.411 180.871 159.024 180.562C151.337 174.562 143.857 168.279 136.634 161.738C136.273 161.403 135.731 161.944 136.092 162.279Z" fill="#121826"/>
<path d="M158.509 181C156.884 185.584 155.62 190.27 154.691 195.034C154.588 195.523 155.336 195.729 155.439 195.24C156.368 190.476 157.657 185.79 159.257 181.206C159.411 180.742 158.663 180.536 158.509 181Z" fill="#121826"/>
<path opacity="0.11" d="M150.435 140.107C146.875 140.416 144.192 143.017 135.912 154.502C132.739 158.905 130.082 162.742 128.044 165.781C130.985 167.841 133.307 169.541 134.777 170.648C143.006 176.802 146.462 180.253 153.453 184.013C154.975 184.837 156.239 185.429 156.987 185.764C157.58 184.141 158.173 182.519 158.741 180.897C156.78 179.197 154.82 177.523 152.834 175.824C147.365 171.189 141.948 166.708 136.557 162.356C138.801 159.214 140.916 156.845 142.464 155.223C147.03 150.459 151.57 147.24 155.104 144.768C156.316 143.918 157.348 143.249 158.019 142.811C154.691 140.261 152.086 139.952 150.435 140.107Z" fill="#121826"/>
<path opacity="0.08" d="M151.466 146.828C149.248 147.343 146.282 148.347 143.263 150.356C135.886 155.274 133.41 162.794 132.687 165.369C136.66 168.459 140.761 171.575 145.018 174.691C149.145 177.729 153.246 180.614 157.245 183.395C157.838 182.545 158.431 181.669 158.999 180.82C153.504 176.828 147.803 172.219 142.103 166.94C140.297 165.292 138.569 163.618 136.918 161.97C137.821 160.785 138.801 159.575 139.833 158.339C143.702 153.755 147.675 149.97 151.466 146.828Z" fill="#121826"/>
<path d="M200.297 178.811C203.031 181.386 205.792 183.987 208.526 186.562C207.804 202.991 209.171 206.854 210.615 207.137C212.859 207.575 216.703 199.824 218.38 193.721C219.644 189.086 219.773 185.017 219.644 182.262C215.362 178.45 211.08 174.639 206.798 170.802C204.631 173.48 202.464 176.159 200.297 178.811Z" fill="#121826" stroke="#121826" stroke-width="0.515908"/>
<path d="M146.617 132.485C146.849 136.759 149.841 139.36 149.841 139.36C151.699 140.983 153.788 141.42 154.82 141.549C155.645 141.884 156.471 142.244 157.322 142.579C158.612 144.433 160.521 147.06 163.049 150.047C166.402 154.064 170.916 158.854 181.957 167.918C187.399 172.373 194.416 177.858 202.902 183.884C204.115 183.292 205.559 182.416 207.004 181.129C210.177 178.322 211.647 175.051 212.318 173.197C210.822 171.755 208.603 169.592 206.024 166.914C194.571 155.094 186.935 144.974 181.105 137.197C177.262 132.073 172.335 125.249 166.892 117.008C154.433 120.407 146.307 127 146.617 132.485Z" fill="white"/>
<path d="M150.615 140.339C152.679 141.06 154.717 141.755 156.78 142.476C157.245 142.631 157.451 141.884 156.987 141.729C154.923 141.008 152.885 140.313 150.822 139.592C150.357 139.437 150.151 140.184 150.615 140.339Z" fill="#121826"/>
<path d="M155.929 141.704C165.628 155.017 178.19 165.781 191.217 175.747C194.957 178.605 198.749 181.438 202.541 184.244C202.954 184.553 203.315 183.858 202.928 183.575C189.876 173.918 176.746 164.133 165.654 152.236C162.429 148.785 159.411 145.128 156.626 141.317C156.316 140.931 155.645 141.317 155.929 141.704Z" fill="#121826"/>
<path d="M171.148 123.755C180.28 137.738 190.572 150.922 201.922 163.18C205.198 166.734 208.577 170.184 212.008 173.558C212.369 173.918 212.911 173.352 212.55 173.017C200.607 161.326 189.669 148.631 179.867 135.111C177.081 131.274 174.399 127.36 171.793 123.369C171.535 122.957 170.865 123.343 171.148 123.755Z" fill="#121826"/>
<path d="M211.57 173.068C210.074 177.498 207.184 181.618 202.825 183.575C202.361 183.781 202.773 184.45 203.212 184.244C207.752 182.21 210.744 177.884 212.292 173.274C212.473 172.811 211.724 172.605 211.57 173.068Z" fill="#121826"/>
<path opacity="0.09" d="M171.174 123.343C169.704 121.36 168.466 119.738 167.64 118.682C166.815 120.201 165.68 122.751 165.577 125.918C165.344 133.077 170.607 136.141 185.697 152.828C192.275 160.09 195.757 164.468 204.244 173.12C206.23 175.129 207.907 176.802 209.119 177.987C210.048 176.365 210.976 174.742 211.931 173.12C203.754 164.931 197.279 157.54 192.43 151.695C187.761 146.055 183.582 141.008 179.274 134.725C178.165 133.154 175.353 128.957 171.174 123.343Z" fill="#121826"/>
<path opacity="0.09" d="M175.74 130.579C176.101 132.356 176.849 135.369 178.319 138.871C182.576 148.862 188.87 153.086 200.194 165.575C202.361 167.97 205.714 171.755 209.635 176.648C210.538 175.36 211.441 174.098 212.344 172.811C211.518 172.038 210.203 170.828 208.603 169.283C205.663 166.45 197.692 158.545 182.473 139.257C180.822 137.197 178.5 134.21 175.74 130.579Z" fill="#121826"/>
<path d="M92.0081 107.815C91.4922 108.021 90.7183 108.459 88.4225 112.141C85.9462 116.107 84.2695 118.811 83.0313 123.085C81.9479 126.897 81.6899 130.373 81.7673 133.206C81.9479 134.03 82.0769 135.24 81.6641 136.579C81.1224 138.279 80.1422 138.691 78.2849 141.008C77.5369 141.935 76.2987 143.506 75.3185 145.643C74.2351 148.038 74.7768 148.347 73.7449 150.691C72.5068 153.498 70.6753 155.429 70.3658 155.738C68.6633 157.515 67.8378 157.566 67.0897 159.111C66.2385 160.862 66.4964 162.51 66.5738 163C66.6254 163.36 67.1671 166.502 68.9986 166.888C69.4887 166.991 70.2626 166.94 70.5721 166.476C71.0622 165.755 69.9272 164.751 69.7209 163C69.5403 161.403 70.2368 160.116 70.6753 159.317C71.9909 156.871 73.5128 157.231 74.9057 155.197C76.2471 153.189 74.9831 152.571 76.2729 148.785C76.9952 146.674 77.7174 144.562 79.6521 142.991C80.5291 142.27 81.3804 141.884 82.18 140.673C82.8765 139.618 83.1345 138.562 83.2377 137.841C84.6564 140.107 86.1525 141.575 87.2359 142.476C88.6805 143.661 90.3314 145.051 91.7243 144.536C92.4724 144.253 93.1431 143.403 93.0141 142.811C92.9367 142.476 92.6272 142.373 91.8275 141.652C91.8275 141.652 91.518 141.369 90.8215 140.622C90.3572 140.133 89.6865 139.231 89.0932 137.532C89.3254 137.274 89.9187 136.708 90.7183 136.656C91.5954 136.631 92.266 137.249 92.9367 137.918C94.2007 139.154 94.1491 139.901 94.9488 140.648C95.5679 141.24 96.7029 141.858 98.9471 141.704C98.8439 141.42 98.6633 140.957 98.4311 140.442C97.6315 138.716 97.2188 138.536 97.1672 137.815C97.1414 137.249 97.3735 137.094 98.4311 135.292C99.334 133.746 99.7725 132.974 99.7983 132.562C99.9273 131.043 98.6117 130.528 98.328 128.776C98.07 127.309 98.7149 126.124 99.1792 125.197C101.862 119.764 103.564 116.313 103.074 113.712C102.326 109.643 95.8258 106.218 92.0081 107.815Z" fill="#121826"/>
<path d="M90.8215 108.742C87.0811 112.553 84.6822 117.394 83.0829 122.442C81.5351 127.36 80.3743 132.974 82.8249 137.789C83.0571 138.227 83.7277 137.841 83.4956 137.403C81.0708 132.665 82.3864 127.051 83.9599 122.236C85.5076 117.446 87.8034 112.914 91.3632 109.283C91.6985 108.922 91.1568 108.382 90.8215 108.742Z" fill="#121826"/>
<path d="M86.9522 130.991C87.2617 130.837 87.5712 130.708 87.8808 130.553C88.1129 130.682 88.3451 130.837 88.5773 130.965C88.861 131.223 89.119 131.558 89.2995 131.892C89.6607 132.51 89.8412 133.257 89.7896 133.978C89.6865 135.369 88.6804 136.45 88.4225 137.789C88.2677 138.613 88.8094 139.206 89.2737 139.824C90.0734 140.88 91.002 141.858 92.008 142.734C92.3692 143.068 92.9367 142.528 92.5498 142.193C91.9049 141.601 91.26 141.008 90.6925 140.339C89.7638 139.283 88.9384 138.382 89.5833 136.914C90.1508 135.626 90.7441 134.416 90.4861 132.948C90.2798 131.815 89.6349 130.656 88.6289 130.038C87.7776 129.523 86.7458 129.626 86.2815 130.579C86.0493 131.043 86.72 131.429 86.9522 130.991Z" fill="#121826"/>
<path d="M82.8765 137.892C84.3726 140.287 86.4362 142.27 88.9384 143.583C89.6865 143.97 91.1052 144.871 92.008 144.485C92.8593 144.124 92.7045 143.094 92.4724 142.399C92.3176 141.935 91.5695 142.141 91.7243 142.605C92.3176 144.485 89.8154 143.171 89.3253 142.914C88.5257 142.502 87.7776 142.013 87.0553 141.446C85.6366 140.339 84.4758 139 83.5214 137.48C83.2892 137.094 82.6185 137.48 82.8765 137.892Z" fill="#121826"/>
<path d="M100.649 114.253C99.1276 119.352 98.1731 124.605 97.7346 129.91C97.7088 130.064 97.8636 130.244 98.0184 130.27C99.6435 130.708 99.4113 132.716 98.818 133.849C98.2247 134.931 97.2961 135.832 96.8318 136.991C96.0063 139.077 98.4569 139.746 98.4053 141.575C98.5343 141.446 98.6632 141.317 98.7922 141.189C96.4706 141.06 94.5102 139.824 93.3494 137.815C92.5239 136.373 91.5695 136.064 89.9186 136.167C89.4285 136.193 89.4285 136.965 89.9186 136.94C90.5377 136.914 91.2858 136.837 91.8533 137.146C92.3434 137.429 92.4981 137.918 92.7561 138.356C93.1946 139.103 93.7621 139.772 94.4328 140.313C95.6968 141.343 97.1671 141.858 98.7664 141.961C98.9728 141.961 99.1534 141.781 99.1534 141.575C99.1792 140.493 98.4569 139.849 97.8636 139.025C96.6254 137.3 98.6632 135.704 99.4629 134.236C100.34 132.639 100.314 130.064 98.1989 129.523C98.3021 129.652 98.3795 129.781 98.4827 129.884C98.8954 124.631 99.8756 119.48 101.372 114.433C101.527 113.995 100.778 113.789 100.649 114.253Z" fill="#121826"/>
<path d="M81.5093 133.437C81.6899 134.982 81.4835 136.502 80.7355 137.892C80.039 139.206 78.904 140.158 77.7948 141.163C75.8343 142.991 74.9315 145 74.3124 147.575C73.6417 150.304 72.8421 152.493 70.8558 154.553C69.3597 156.073 67.6056 157.489 66.677 159.472C65.7741 161.403 65.9031 163.644 67.0639 165.446C67.7346 166.502 70.0304 168.613 70.9074 166.605C71.2685 165.781 70.8558 164.751 70.5721 163.953C70.3141 163.257 69.9788 162.562 69.9788 161.789C69.9788 160.708 70.5979 159.781 71.3201 159.034C73.0742 157.206 75.3184 156.176 76.0923 153.575C76.5308 152.107 76.2213 150.639 76.3244 149.146C76.4534 147.292 77.3305 145.721 78.6718 144.459C80.7097 142.528 83.4182 140.931 83.4182 137.789C83.4182 137.3 82.6443 137.3 82.6443 137.789C82.6185 140.802 79.6778 142.296 77.8206 144.201C76.376 145.669 75.5506 147.523 75.5248 149.583C75.499 150.948 75.7311 152.236 75.2668 153.549C74.7509 155.043 73.6675 156.047 72.4809 157.025C70.959 158.236 69.2049 159.652 69.2049 161.789C69.2049 162.819 69.7208 163.747 70.0304 164.725C70.1077 164.983 70.3915 165.678 70.2625 165.884C70.0046 165.91 69.7208 165.961 69.4629 165.987C68.9985 166.27 68.6374 166.219 68.3795 165.832C67.812 165.472 67.3218 164.39 67.1155 163.772C66.29 161.352 67.425 159.189 69.0501 157.437C70.4173 155.944 72.0166 154.682 73.1516 152.983C74.364 151.18 74.7251 149.043 75.241 146.983C75.628 145.489 76.1439 144.047 77.1757 142.862C78.0785 141.807 79.2135 141.008 80.1422 139.978C81.7931 138.176 82.5411 135.832 82.2574 133.437C82.2316 132.948 81.4577 132.948 81.5093 133.437Z" fill="#121826"/>
<path d="M64.7681 102.073C64.2264 102.382 63.2204 102.922 63.0141 104.055C62.7561 105.317 63.6589 106.347 63.7879 106.476C63.6331 106.656 63.1688 107.197 63.1172 108.021C63.0656 109.386 64.278 110.184 64.3296 110.236C64.278 110.287 63.53 111.06 63.7879 112.115C63.9943 113.017 64.7939 113.403 64.8971 113.429C64.8455 113.583 64.665 114.253 65.0003 114.871C65.5162 115.798 66.7544 115.746 66.8834 115.746C67.7604 115.695 68.5859 115.103 68.9728 114.201C69.4629 114.485 70.7527 115.154 72.5068 114.974C73.6934 114.845 74.5704 114.382 75.0347 114.098C75.9633 115.721 77.4079 117.909 79.5489 120.15C81.432 122.107 84.9401 125.789 90.1508 127.309C96.6513 129.214 102.404 126.742 105.705 125.326C114.579 121.515 118.99 114.51 120.615 111.884C123.349 107.403 124.304 103.566 125.129 100.09C126.471 94.5789 126.006 92.4158 125.568 91.154C125.31 90.3815 123.788 85.9523 120.28 85.4373C117.417 84.9995 115.043 87.4459 114.76 87.7549C113.779 88.7849 113.263 90.1497 112.232 92.8279C111.716 94.1927 111.38 95.2227 111.226 95.6862C109.549 101.12 108.698 103.824 108.466 104.39C107.846 105.935 106.376 109.463 102.842 112.218C99.463 114.845 95.929 115.412 94.3555 115.643C91.9823 115.978 89.0674 116.39 85.972 114.871C82.5154 113.171 80.9677 110.081 80.5549 109.257C79.3167 106.708 79.0846 103.875 78.904 101.867C78.6719 99.2914 78.8524 97.2828 77.3563 95.6862C77.0726 95.403 76.4019 94.6819 75.7054 94.8107C74.6994 95.0167 74.1319 96.948 73.616 98.7764C73.1774 100.321 73.3064 100.502 72.9453 100.862C72.1972 101.609 71.2428 101.223 67.9668 101.403C66.0579 101.532 65.3872 101.738 64.7681 102.073Z" fill="white"/>
<path d="M70.1078 100.965C67.3219 100.45 62.4208 101.171 62.8077 104.982C63.143 108.407 67.2187 109 69.6693 107.506C70.082 107.249 69.6951 106.579 69.2823 106.836C67.2445 108.073 63.5557 107.738 63.5557 104.648C63.5557 101.661 67.7604 101.326 69.9014 101.712C70.3915 101.815 70.5979 101.068 70.1078 100.965Z" fill="#121826"/>
<path d="M63.4783 106.244C60.6924 109.643 67.3992 113.918 69.3855 109.643C69.5918 109.206 68.9212 108.794 68.7148 109.257C67.1671 112.553 62.008 109.257 64.0458 106.785C64.3554 106.424 63.8137 105.858 63.4783 106.244Z" fill="#121826"/>
<path d="M63.6331 109.695C63.0398 111.034 63.4526 112.733 64.8197 113.429C66.1611 114.124 67.8378 113.48 68.5343 112.193C68.7664 111.755 68.0957 111.369 67.8636 111.806C67.3477 112.708 66.1869 113.223 65.2067 112.759C64.2264 112.296 63.8653 111.034 64.3038 110.081C64.5102 109.643 63.8395 109.257 63.6331 109.695Z" fill="#121826"/>
<path d="M64.2522 113.146C64.149 114.51 64.9487 115.746 66.3416 116.03C67.6314 116.287 68.818 115.437 69.2565 114.279C69.4371 113.815 68.689 113.609 68.5084 114.073C68.1731 114.948 67.2445 115.515 66.3158 115.231C65.3614 114.948 64.9745 114.073 65.0261 113.146C65.0518 112.656 64.278 112.656 64.2522 113.146Z" fill="#121826"/>
<path d="M66.7028 104.725C67.3735 104.648 68.0699 104.673 68.6374 105.06C69.1791 105.42 69.4887 106.141 69.1791 106.733C68.947 107.171 69.6177 107.558 69.8498 107.12C70.2625 106.321 70.082 105.394 69.4629 104.751C68.7664 104.004 67.6572 103.849 66.677 103.952C66.2127 104.03 66.2127 104.802 66.7028 104.725Z" fill="#121826"/>
<path d="M69.1017 114.794C70.4431 114.304 71.7329 115.412 73.1258 115.257C74.1834 115.128 75.1121 114.562 75.9891 114.047C76.4018 113.789 76.0149 113.12 75.6022 113.377C74.2866 114.176 73.1516 114.742 71.5781 114.279C70.6237 113.995 69.8756 113.686 68.8954 114.047C68.4311 114.227 68.6116 114.974 69.1017 114.794Z" fill="#121826"/>
<path d="M69.9014 101.635C71.2428 102.098 73.0485 102.176 73.7965 100.708C74.2093 99.8837 73.9513 98.8794 74.1319 98.0038C74.3382 96.8193 75.0089 95.8407 75.9375 95.0939C76.3245 94.7849 75.7828 94.2442 75.3958 94.5532C74.3898 95.3772 73.6676 96.5103 73.4096 97.7978C73.2806 98.5189 73.4612 99.3686 73.2548 100.064C72.7905 101.454 71.2428 101.274 70.1594 100.888C69.6435 100.733 69.4371 101.48 69.9014 101.635Z" fill="#121826"/>
<path d="M75.3701 95.1454C77.5627 95.4287 77.8464 99.1111 78.2076 100.785C78.6461 102.974 78.8782 105.188 79.291 107.377C79.9616 110.879 81.9995 113.661 85.2497 115.231C88.6547 116.854 92.524 116.776 96.0838 115.798C99.7467 114.768 103.539 112.914 105.912 109.849C106.221 109.463 105.68 108.922 105.37 109.309C102.894 112.502 98.8697 114.382 95.0004 115.283C91.1052 116.184 86.849 115.849 83.5988 113.326C80.0906 110.622 80.0132 106.553 79.3168 102.51C78.9814 100.605 78.6977 98.5446 78.0012 96.742C77.5627 95.609 76.8662 94.5789 75.6022 94.3987C75.0863 94.3214 74.8799 95.0682 75.3701 95.1454Z" fill="#121826"/>
<path d="M74.8025 114.562C77.9238 118.373 80.9418 122.725 85.0691 125.532C89.119 128.261 94.1233 128.545 98.818 127.772C108.362 126.176 116.462 119.712 121.105 111.369C123.762 106.63 125.336 101.377 126.032 95.9952C126.084 95.506 125.31 95.506 125.258 95.9952C124.072 105.188 120.048 114.201 112.877 120.279C109.343 123.266 105.138 125.506 100.624 126.588C95.9547 127.721 90.5635 127.875 86.3073 125.377C81.7673 122.725 78.5944 117.987 75.3442 113.995C75.0347 113.635 74.493 114.176 74.8025 114.562Z" fill="#121826"/>
<path d="M120.641 85.3343C118.5 84.4845 116.23 85.5918 114.734 87.1626C112.98 88.9652 112.103 91.36 111.458 93.7291C110.71 96.4845 110.039 99.2141 108.981 101.867C107.846 104.725 106.402 107.429 104.751 110.004C104.467 110.416 105.138 110.802 105.422 110.39C108.079 106.296 110.116 101.841 111.38 97.1283C112.051 94.6562 112.49 92.0811 113.728 89.8407C114.966 87.5746 117.597 84.948 120.435 86.081C120.899 86.2613 121.105 85.5145 120.641 85.3343Z" fill="#121826"/>
<path d="M67.8636 112.733C68.5858 112.785 68.4311 113.995 68.3021 114.433C68.1473 114.897 68.8954 115.103 69.0501 114.639C69.3855 113.661 69.1533 112.064 67.8636 111.961C67.3734 111.935 67.3734 112.708 67.8636 112.733Z" fill="#121826"/>
<path d="M68.3021 110.364C68.4569 110.982 68.2247 111.626 67.7346 111.987C67.3219 112.27 67.7088 112.94 68.1215 112.656C68.9212 112.09 69.3081 111.111 69.0502 110.158C68.947 109.669 68.1989 109.875 68.3021 110.364Z" fill="#121826"/>
<path d="M68.7406 107.686C69.4371 108.021 68.9728 109.128 68.6375 109.566C68.3279 109.952 68.9986 110.339 69.3081 109.952C69.9014 109.18 70.211 107.532 69.1276 107.017C68.689 106.811 68.3021 107.48 68.7406 107.686Z" fill="#121826"/>
<path opacity="0.11" d="M63.4268 107.789C63.8395 107.558 64.5102 109 66.2385 109.721C66.8833 109.978 67.683 110.158 71.3459 109.721C72.5325 109.566 74.0803 109.36 75.9375 109.025C76.2987 110.493 77.0467 112.708 78.5687 115C79.2135 115.952 81.8189 119.661 86.849 121.849C92.2402 124.219 97.1155 123.42 98.9986 123.085C100.598 122.802 105.061 121.952 109.033 118.502C111.69 116.21 113.392 113.429 115.895 106.193C117.597 101.274 119.661 94.4502 121.183 85.9781C122.214 87.0339 123.814 88.9394 124.717 91.7721C125.155 93.1369 125.568 95.1455 125.233 98.2871C124.536 105.06 121.131 110.699 119.067 113.583C116.926 116.596 113.109 121.798 106.041 125.017C105.086 125.455 99.6951 127.798 92.8335 127.489C91.26 127.412 89.8154 127.334 88.0356 126.691C86.1009 125.995 84.1663 124.193 80.3227 120.639C78.7234 119.171 77.1499 117.626 75.5506 115.386C75.241 114.948 74.9831 114.562 74.8025 114.304C74.2608 114.665 73.4612 115.077 72.5583 114.974C71.3459 114.871 70.9332 113.995 69.9272 114.15C69.0502 114.279 69.0502 115 67.9925 115.386C67.1671 115.669 66.0063 115.643 65.2324 115.051C64.6649 114.613 64.5875 114.124 63.9427 111.343C63.3236 108.613 63.143 107.944 63.4268 107.789Z" fill="#121826"/>
<path d="M92.9109 101.094C92.4208 101.197 92.2402 102.176 91.9307 103.695C91.7501 104.622 91.6727 105.42 91.6469 105.987C90.6151 107.197 90.5119 108.304 90.4861 108.742C90.4603 109.643 90.7699 110.339 91.3632 111.626C91.7759 112.553 92.2144 113.274 92.5239 113.764C91.4147 114.021 90.6409 114.742 90.5893 115.515C90.5377 116.261 91.2084 116.854 91.4663 117.06C92.6271 118.064 93.4784 117.317 94.9487 118.115C96.1353 118.759 96.0321 119.48 97.7604 120.433C98.8438 121.025 99.1792 120.897 99.3081 120.819C99.7467 120.536 99.5919 119.609 99.5145 118.991C99.4113 118.244 99.1018 117.111 98.2505 115.798C99.2565 115.437 100.263 115.077 101.243 114.742C100.521 114.819 100.366 114.845 100.366 114.845C100.366 114.819 102.146 114.098 103.668 114.742C104.932 115.283 105.035 116.416 106.092 116.493C106.686 116.545 107.356 116.21 107.64 115.721C108.233 114.716 107.124 113.249 106.866 112.914C105.809 111.523 104.261 111.111 103.564 110.982C103.797 110.467 104.054 109.643 104.106 108.613C104.158 106.862 103.435 105.575 103.1 105.034C102.636 103.515 102.197 101.995 101.733 100.45C101.011 102.124 100.211 102.639 99.5919 102.768C98.8954 102.922 98.5085 102.588 97.3735 102.768C96.2901 102.948 96.2385 103.283 95.6194 103.257C94.1749 103.103 93.6847 100.939 92.9109 101.094Z" fill="#121826"/>
<path d="M93.5558 109.231C93.9943 109.746 94.6908 110.081 95.3872 109.901C96.0063 109.746 96.4191 109.231 96.4964 108.613C96.5222 108.356 96.1353 108.356 96.1095 108.613C96.0579 109.154 95.5936 109.54 95.0519 109.566C94.5618 109.592 94.1491 109.309 93.8395 108.948C93.6589 108.768 93.401 109.051 93.5558 109.231Z" fill="white"/>
<path d="M99.076 108.382C99.7209 109.309 101.81 109.386 101.733 107.918C101.707 107.661 101.32 107.661 101.346 107.918C101.423 108.974 99.8498 108.819 99.4113 108.176C99.2566 107.97 98.9212 108.176 99.076 108.382Z" fill="white"/>
<path d="M98.07 111.24C98.07 111.266 98.0958 111.291 98.0958 111.317C98.1731 111.343 98.2763 111.369 98.3537 111.394C98.3021 111.291 98.2247 111.24 98.0958 111.24C98.1989 111.214 98.2763 111.163 98.3795 111.137C98.3537 111.111 98.3279 111.06 98.3021 111.034C98.1731 111.085 98.07 111.137 97.941 111.188C98.1216 111.472 98.0442 111.987 97.941 112.27C97.812 112.656 97.2703 113.171 96.935 112.656C96.806 112.45 96.4706 112.63 96.5996 112.862C96.935 113.377 97.6314 113.352 98.0184 112.914C98.4053 112.476 98.6117 111.523 98.2763 111.008C98.1731 110.828 97.8636 110.931 97.9152 111.163C97.9668 111.317 98.0442 111.42 98.1731 111.497C98.2763 111.575 98.4311 111.497 98.4569 111.394C98.5085 111.163 98.4311 110.622 98.07 110.776C97.7346 110.905 97.8636 111.42 98.0184 111.626C98.07 111.703 98.1989 111.755 98.2763 111.703C98.5601 111.497 98.5601 111.111 98.2505 110.957C98.0442 110.802 97.8636 111.137 98.07 111.24Z" fill="white"/>
<path d="M98.0958 111.317C98.199 111.909 98.4053 112.63 99.1018 112.733C99.7983 112.837 100.005 112.167 100.005 111.626C100.005 111.369 99.6177 111.369 99.6177 111.626C99.6177 112.012 99.4887 112.553 98.9728 112.296C98.5859 112.115 98.5343 111.6 98.4827 111.214C98.4311 110.982 98.0442 111.085 98.0958 111.317Z" fill="white"/>
<path d="M90.9763 109.36C91.4664 106.682 93.401 104.39 96.0322 103.618C98.6633 102.845 101.707 103.901 102.92 106.424C103.126 106.862 103.797 106.476 103.59 106.038C102.275 103.334 99.0502 102.124 96.1869 102.794C93.1431 103.515 90.7957 106.115 90.2282 109.154C90.1508 109.643 90.8989 109.849 90.9763 109.36Z" fill="#121826"/>
<path d="M92.3434 105.472C92.3176 104.184 92.5498 102.897 93.0915 101.738C93.1431 101.635 93.1946 101.557 93.2204 101.454C93.401 101.145 93.4268 101.094 93.272 101.3C93.1173 101.429 93.1431 101.532 93.3752 101.686C93.4268 101.764 93.5042 101.867 93.5558 101.944C93.9427 102.562 94.278 103.206 94.5618 103.875C94.7424 104.339 95.4904 104.133 95.3099 103.669C95.0519 103.051 93.8653 99.9094 92.8593 100.605C92.3692 100.939 92.0596 102.073 91.9049 102.613C91.6211 103.54 91.5179 104.519 91.5437 105.497C91.5953 105.961 92.3692 105.961 92.3434 105.472Z" fill="#121826"/>
<path d="M100.211 103.386C100.469 102.948 100.727 102.51 101.011 102.073C101.14 101.892 101.32 101.712 101.398 101.506C101.578 101.403 101.604 101.3 101.501 101.171C101.398 100.991 101.423 101.042 101.552 101.326C101.991 102.433 102.3 103.515 102.429 104.725C102.481 105.214 103.255 105.214 103.203 104.725C103.126 103.875 102.971 103.051 102.739 102.227C102.584 101.764 102.352 100.708 101.913 100.424C101.578 100.218 101.294 100.373 101.062 100.656C100.469 101.351 100.005 102.201 99.5403 103C99.2824 103.412 99.953 103.798 100.211 103.386Z" fill="#121826"/>
<path d="M90.2797 108.948C90.0992 113.274 94.0201 116.982 98.3795 116.081C100.392 115.669 102.249 114.356 103.203 112.527C104.209 110.596 104.777 107.532 103.461 105.626C103.177 105.214 102.507 105.6 102.791 106.012C103.951 107.738 103.384 110.57 102.455 112.296C101.604 113.867 99.9272 114.974 98.1731 115.334C94.278 116.107 90.8988 112.759 91.0536 108.948C91.0536 108.433 90.2797 108.433 90.2797 108.948Z" fill="#121826"/>
<path d="M90.8215 115.746C91.4406 113.455 94.536 113.583 96.1611 114.588C97.8894 115.618 98.7665 117.626 98.947 119.558C98.9986 120.098 99.205 120.639 98.3022 120.304C97.9668 120.176 97.5283 119.686 97.2703 119.429C96.806 118.965 96.3933 118.476 95.8774 118.09C95.3099 117.652 94.7166 117.394 94.0201 117.266C92.9367 117.06 90.9763 117.188 90.8731 115.643C90.8473 115.154 90.0734 115.154 90.0992 115.643C90.1766 116.648 90.8215 117.317 91.7501 117.652C92.4724 117.909 93.2721 117.858 94.0201 118.038C94.9488 118.27 95.5679 118.759 96.2127 119.429C96.8576 120.073 97.9668 121.515 99.076 121.309C100.005 121.128 99.7983 120.073 99.7209 119.377C99.4372 116.905 98.1216 114.459 95.6968 113.506C93.659 112.708 90.7183 113.171 90.0992 115.566C89.9445 116.03 90.6925 116.236 90.8215 115.746Z" fill="#121826"/>
<path d="M101.114 112.399C102.171 110.982 104.57 111.549 105.68 112.502C106.325 113.043 106.763 113.789 106.969 114.613C107.021 114.871 107.15 115.412 107.073 115.695C106.815 116.442 106.273 116.21 105.809 115.849C105.164 115.36 104.674 114.665 103.874 114.356C103.487 114.201 103.1 114.176 102.687 114.201C102.3 114.201 101.939 114.304 101.552 114.253C100.83 114.15 99.8241 113.48 101.036 112.553C101.423 112.244 100.882 111.703 100.495 112.012C99.9015 112.476 99.5919 113.171 99.8499 113.918C100.211 114.897 101.14 115.103 102.094 115.051C103.049 115 103.668 115.025 104.441 115.669C104.803 115.978 105.112 116.339 105.525 116.622C106.067 117.008 106.866 117.369 107.46 116.828C108.827 115.566 107.253 112.759 106.17 111.884C104.622 110.622 101.785 110.261 100.495 112.038C100.159 112.399 100.83 112.785 101.114 112.399Z" fill="#121826"/>
<path d="M92.3176 113.609C93.9943 113.068 96.548 114.124 97.5798 115.489C97.6572 115.592 97.812 115.489 97.7346 115.386C96.6512 113.918 94.0717 112.836 92.266 113.429C92.137 113.455 92.1886 113.635 92.3176 113.609Z" fill="white"/>
<path d="M101.294 112.502C102.042 111.626 103.126 111.24 104.261 111.472C104.39 111.497 104.441 111.317 104.312 111.291C103.126 111.06 101.939 111.446 101.165 112.373C101.088 112.476 101.217 112.605 101.294 112.502Z" fill="white"/>
<path d="M93.272 101.532C93.53 102.201 93.7105 102.871 93.7879 103.566C93.8395 103.54 93.8911 103.515 93.9427 103.489C93.8137 103.36 93.6847 103.283 93.53 103.206C93.4526 103.18 93.3752 103.206 93.3752 103.283C93.3752 103.515 93.3494 103.721 93.3494 103.952C93.401 103.927 93.4526 103.901 93.5042 103.875C93.143 103.463 92.8593 104.39 92.7561 104.57C92.7045 104.673 92.8593 104.776 92.9109 104.673C92.9367 104.622 93.272 103.901 93.3494 104.004C93.401 104.081 93.5042 104.004 93.5042 103.927C93.5042 103.695 93.53 103.489 93.53 103.257C93.4784 103.283 93.4268 103.309 93.3752 103.334C93.53 103.386 93.6332 103.463 93.7363 103.592C93.7879 103.643 93.9169 103.618 93.8911 103.515C93.7879 102.794 93.6332 102.098 93.3494 101.429C93.401 101.377 93.2204 101.429 93.272 101.532Z" fill="white"/>
<path d="M101.243 101.197C100.959 101.738 100.804 102.279 100.753 102.897C100.753 102.948 100.83 103 100.882 103C101.243 102.897 101.294 103.18 101.32 103.489C101.32 103.566 101.423 103.618 101.475 103.566C101.604 103.772 101.707 103.952 101.836 104.158C101.81 104.287 102.017 104.339 102.017 104.21C102.068 103.849 101.836 102.922 101.346 103.437C101.398 103.463 101.449 103.489 101.501 103.515C101.475 103.283 101.423 103.077 101.372 102.845C101.372 102.794 101.32 102.768 101.269 102.768C101.088 102.768 100.959 102.794 100.804 102.845C100.856 102.871 100.882 102.897 100.933 102.948C100.959 102.382 101.114 101.867 101.398 101.351C101.475 101.171 101.294 101.068 101.243 101.197Z" fill="white"/>
<path d="M117.417 85.9266C117.778 88.3987 118.474 92.3128 119.919 96.948C122.963 106.63 126.548 110.776 131.294 122.004C132.481 124.811 134.158 129.034 135.809 134.364C138.878 135.369 144.579 136.734 151.544 135.523C162.997 133.54 169.73 125.97 171.613 123.678C167.692 116.467 163.745 108.665 159.902 100.296C156.084 92.0038 152.756 84.021 149.867 76.4244C147.442 75.5231 141.097 73.5145 133.306 75.4201C123.994 77.6604 118.861 84.021 117.417 85.9266Z" fill="#33D49E"/>
<path opacity="0.13" d="M140.065 74.5445C141.045 76.6046 142.283 79.4115 143.599 82.8106C147.726 93.6261 149.222 102.51 149.764 105.678C150.925 112.218 151.931 122.364 150.28 135.394C153.865 135.291 156.522 134.467 158.199 133.824C162.997 131.918 166.479 128.596 169.833 125.377C170.607 124.656 171.2 124.012 171.587 123.626C170.478 121.721 168.801 118.734 166.841 115C161.166 104.236 157.451 95.3 154.33 87.7291C153.221 85.0767 151.699 81.2656 149.919 76.6561C148.5 76.0638 146.72 75.4716 144.631 75.0853C142.928 74.7505 141.38 74.596 140.065 74.5445Z" fill="#121826"/>
<path opacity="0.1" d="M157.141 94.9652C157.58 99.5747 157.941 103.437 158.199 106.218C159.179 117.111 159.36 120.124 159.437 122.055C159.644 126.613 159.644 130.347 159.618 132.794C161.217 132.227 163.281 131.3 165.422 129.807C168.104 127.927 169.91 125.867 171.071 124.347C166.428 114.536 161.785 104.751 157.141 94.9652Z" fill="#121826"/>
<path d="M138.827 70.0123C137.589 70.3728 136.918 72.1497 136.505 73.978C135.68 77.7119 136.118 80.9051 136.273 82.0124C137.021 86.9308 138.362 90.6132 138.801 91.8235C139.936 94.8107 141.484 98.8021 144.863 103.051C146.797 105.472 148.448 107.558 151.492 109.103C153.272 110.03 156.961 111.909 160.753 110.416C160.933 110.339 164.648 108.819 165.602 105.575C165.809 104.854 165.86 104.133 165.938 102.716C165.989 101.866 166.015 100.373 165.834 98.5188C165.577 96.0725 165.035 94.1669 164.622 92.8021C162.791 86.7506 161.888 83.7377 159.979 81.1111C158.405 78.948 156.626 76.4759 153.685 76.1411C153.427 76.1153 150.46 75.8321 148.706 77.8922C147.494 79.3342 147.571 81.1111 147.597 82.2956C147.675 84.5617 148.552 86.184 149.919 88.6819C151.286 91.154 151.828 91.463 153.453 94.3987C155.671 98.4158 155.439 98.8021 155.336 98.9051C154.897 99.2914 153.143 98.0811 152.756 97.7978C152.395 97.5403 151.879 97.1798 151.234 96.4845C149.222 94.2442 148.036 90.8708 148.036 90.8708C146.978 88.7849 145.585 85.8235 144.166 82.0639C144.605 80.39 145.276 79.2055 145.817 78.433C146.694 77.1969 147.675 76.3471 147.907 74.802C148.01 74.2098 147.958 73.6947 147.907 73.36C148.345 72.948 148.474 72.3299 148.242 71.8149C147.958 71.2226 147.262 70.9394 146.591 71.1454C146.591 71.0681 146.514 70.3986 145.92 70.0381C145.43 69.7291 144.76 69.7806 144.27 70.1411C143.496 69.5488 142.851 69.3943 142.386 69.3685C141.845 69.3428 141.587 69.4715 140.297 69.7033C139.214 69.9866 139.136 69.9351 138.827 70.0123Z" fill="white"/>
<path d="M145.301 80.8793C145.998 79.154 146.875 77.5832 147.829 75.9866C148.319 75.1626 148.887 74.1325 148.216 73.2312C146.694 71.2741 144.631 73.772 143.986 75.0596C143.754 75.4973 144.424 75.8836 144.656 75.4458C145.043 74.6733 145.482 73.7205 146.385 73.463C146.643 73.3342 146.901 73.3342 147.184 73.4115C147.262 74.0038 147.339 74.596 147.442 75.1883C147.365 75.5231 146.901 76.0639 146.72 76.3729C145.895 77.7377 145.224 79.1797 144.605 80.6476C144.373 81.1368 145.121 81.3171 145.301 80.8793Z" fill="#121826"/>
<path d="M136.866 84.2012C136.479 81.4459 136.428 78.639 136.737 75.8836C137.021 73.36 137.563 69.5231 141.071 70.2441C141.561 70.3471 141.767 69.6003 141.277 69.4973C138.517 68.9308 136.789 70.8879 136.325 73.3857C135.628 77.0167 135.602 80.7248 136.118 84.4072C136.196 84.8965 136.944 84.6905 136.866 84.2012Z" fill="#121826"/>
<path d="M140.091 72.3299C140.374 71.6604 140.684 70.9651 141.226 70.4501C142.154 69.5488 143.341 70.0381 144.347 70.5273C144.785 70.7591 145.172 70.0896 144.734 69.8578C143.676 69.317 142.49 68.802 141.355 69.3943C140.374 69.9093 139.858 70.9651 139.446 71.9179C139.239 72.4072 139.91 72.7934 140.091 72.3299Z" fill="#121826"/>
<path d="M142.386 72.5617C143.341 71.3256 144.605 70.0381 146.256 71.0166C146.694 71.2741 147.081 70.6046 146.643 70.3471C144.682 69.1883 143.031 70.4501 141.845 71.9952C141.535 72.4072 142.077 72.948 142.386 72.5617Z" fill="#121826"/>
<path d="M144.115 73.1282C144.605 72.6132 145.121 72.0724 145.791 71.8149C146.591 71.4801 148.061 71.6861 147.752 72.8965C147.649 73.3857 148.371 73.5917 148.5 73.1025C148.758 72.0467 148.061 71.0681 147.004 70.8879C145.585 70.6303 144.476 71.6604 143.573 72.5874C143.238 72.948 143.779 73.4887 144.115 73.1282Z" fill="#121826"/>
<path d="M144.424 80.493C143.521 82.4244 144.631 84.3815 145.405 86.1583C146.488 88.6562 147.623 91.154 149.016 93.4716C150.822 96.5103 154.742 101.97 158.844 98.8536C159.231 98.5446 158.844 97.8751 158.457 98.1841C154.51 101.197 150.847 95.1197 149.248 92.3128C148.319 90.6647 147.494 88.9652 146.72 87.2398C145.946 85.5145 144.218 82.8106 145.121 80.8793C145.301 80.4415 144.631 80.0295 144.424 80.493Z" fill="#121826"/>
<path d="M147.752 78.536C145.482 86.2356 152.447 92.2098 155 98.8021C155.181 99.2656 155.929 99.0596 155.748 98.5961C153.272 92.2098 146.307 86.184 148.5 78.742C148.629 78.2527 147.881 78.0467 147.752 78.536Z" fill="#121826"/>
<path d="M136.092 83.9952C137.408 91.2055 140.478 98.0296 144.992 103.824C147.184 106.605 149.687 109.309 153.143 110.442C156.084 111.394 160.134 111.884 162.868 110.107C165.86 108.201 166.247 104.313 166.376 101.094C166.402 100.605 165.628 100.605 165.602 101.094C165.448 105.24 164.519 109.824 159.592 110.416C155.052 110.957 150.822 109.154 147.752 105.884C142.051 99.8322 138.311 91.9266 136.815 83.7892C136.763 83.2999 136.015 83.5059 136.092 83.9952Z" fill="#121826"/>
<path d="M148.268 79.566C149.093 76.2699 153.066 76.0381 155.542 77.4802C158.07 78.948 159.798 81.6003 161.062 84.1497C162.378 86.8278 163.332 89.712 164.261 92.5446C165.319 95.7892 166.118 99.1884 165.577 102.613C165.499 103.103 166.247 103.309 166.325 102.819C166.944 98.9051 165.963 95.1197 164.7 91.4115C163.539 88.0381 162.404 84.5617 160.469 81.5231C158.844 78.948 156.419 76.2699 153.221 75.8321C150.744 75.4973 148.113 76.8364 147.494 79.36C147.391 79.8493 148.139 80.0553 148.268 79.566Z" fill="#121826"/>
<path opacity="0.1" d="M139.781 69.6776C141.845 68.8535 143.857 69.7548 144.347 69.9866C142.902 71.8922 139.833 76.5016 139.575 83.0167C139.188 92.2871 144.734 98.4416 146.694 100.63C149.222 103.437 152.524 107.094 156.78 106.579C159.179 106.296 161.449 104.699 162.61 102.665C163.771 100.63 163.693 98.4159 162.301 92.6991C160.16 84.0467 157.812 78.9737 158.147 78.8192C158.483 78.6647 161.269 83.0167 163.358 88.4759C163.565 89.0424 165.293 93.6261 165.912 99.9352C166.299 103.824 165.963 105.42 165.164 106.836C163.926 109.025 161.914 110.004 161.14 110.339C158.018 111.652 155.026 110.725 153.607 110.236C148.526 108.536 145.817 104.416 143.083 100.27C138.878 93.8579 137.718 88.3729 136.608 83.0939C135.834 79.4373 135.319 75.1883 137.253 72.0724C137.589 71.4286 138.337 70.2698 139.781 69.6776Z" fill="#121826"/>
<path d="M102.533 57.1367C102.455 58.3471 102.894 59.7119 103.822 62.4415C104.854 65.5059 105.963 68.7763 108.749 71.9952C110.529 74.0553 112.696 76.5789 116.385 77.2999C119.3 77.8664 121.75 77.0424 122.988 76.5274C123.272 77.2999 123.659 78.1239 124.149 78.9737C125.439 81.2398 127.038 82.8364 128.302 83.8922C129.257 83.7892 131.114 83.4029 132.713 81.9609C133.951 80.8278 134.545 79.4887 134.906 78.6132C135.344 77.5832 135.576 76.6819 135.68 76.0381C134.906 75.5746 134.055 74.9565 133.229 74.1068C130.65 71.4801 129.953 68.3643 129.747 66.8707C130.082 63.9093 130.443 60.9222 130.779 57.9608C131.165 58.0123 131.991 58.0638 132.713 57.5745C133.513 57.0337 133.668 56.1325 133.874 55.1282C134.08 54.1239 134.313 52.8363 133.745 51.3685C133.487 50.7247 132.662 48.6646 130.908 48.5359C129.721 48.4329 128.509 49.2311 127.812 50.4672C126.316 49.0251 123.117 46.4758 118.629 46.0638C110.864 45.3427 102.971 51.3942 102.533 57.1367Z" fill="white"/>
<path d="M113.986 68.905C113.779 69.4458 114.373 70.2184 114.811 70.6046C116.024 71.6604 118.165 71.6089 119.712 70.8879C121.879 69.8836 122.576 67.7205 122.885 66.7419C123.246 65.6604 123.711 64.2441 122.963 62.9823C122.318 61.875 121.183 61.4887 120.744 61.36C120.306 62.2612 119.97 62.9308 119.712 63.3685C119.403 63.9093 119.3 64.0896 119.119 64.5016C118.861 65.0424 118.835 65.2484 118.474 65.7377C117.004 67.6432 114.992 68.3385 114.992 68.3385C114.527 68.4415 114.115 68.5445 113.986 68.905Z" fill="#121826"/>
<path d="M102.945 60.2269C104.983 66.5874 107.537 74.0038 114.115 76.9909C116.797 78.2012 119.996 78.433 122.73 77.2484C125.8 75.9351 127.606 72.8965 128.844 69.9608C130.469 66.1239 131.165 61.9522 130.908 57.8063C130.882 57.317 130.108 57.317 130.134 57.8063C130.392 62.1325 129.618 66.4844 127.786 70.4243C126.006 74.2613 123.195 77.3257 118.68 77.2742C109.601 77.1712 105.912 67.1797 103.642 60.0466C103.539 59.5316 102.816 59.7376 102.945 60.2269Z" fill="#121826"/>
<path d="M128.096 51.1882C128.122 49.6432 129.721 48.7161 131.14 49.1539C132.455 49.5917 133.281 50.8792 133.564 52.1668C133.822 53.4028 133.719 54.8449 133.332 56.0295C133.023 57.008 132.636 57.523 131.449 57.523C131.036 57.523 130.624 57.3685 130.185 57.3685C129.695 57.3685 129.695 58.141 130.185 58.141C131.062 58.141 131.914 58.5531 132.765 58.1153C133.384 57.8063 133.745 57.1883 134.003 56.5445C134.674 54.7934 134.751 52.4243 133.9 50.699C133.203 49.2826 131.707 48.0723 130.056 48.2526C128.534 48.4071 127.348 49.6432 127.322 51.1625C127.322 51.6775 128.096 51.6775 128.096 51.1882Z" fill="#121826"/>
<path d="M129.618 65.2999C129.54 69.5488 131.423 73.6175 134.777 76.2699C135.164 76.5789 135.705 76.0381 135.319 75.7291C132.12 73.2055 130.314 69.3943 130.392 65.2999C130.392 64.8106 129.618 64.8106 129.618 65.2999Z" fill="#121826"/>
<path d="M122.963 76.8364C123.943 79.5403 125.542 81.9094 127.683 83.815C128.044 84.1497 128.612 83.6089 128.225 83.2742C126.161 81.4459 124.639 79.2055 123.685 76.6304C123.53 76.1669 122.782 76.3729 122.963 76.8364Z" fill="#121826"/>
<path d="M127.864 84.0725C130.082 84.8707 132.3 82.9909 133.668 81.4201C135.112 79.772 136.376 77.6347 135.757 75.3943C135.628 74.9051 134.88 75.1111 135.009 75.6003C135.525 77.5574 134.364 79.463 133.1 80.8793C131.914 82.2184 129.979 84.021 128.044 83.3257C127.606 83.1454 127.399 83.8922 127.864 84.0725Z" fill="#121826"/>
<path d="M105.834 57.523C105.499 56.5702 106.273 55.5402 106.84 54.8707C107.692 53.8149 109.007 53.5316 109.987 54.6131C111.122 55.8492 111.432 58.0638 111.587 59.6604C111.69 60.7677 111.303 62.184 111.948 63.1625C112.644 64.2183 113.934 64.8364 115.147 65.0681C115.637 65.1711 115.843 64.4243 115.353 64.3213C114.708 64.1926 114.141 63.9866 113.573 63.626C112.644 63.008 112.438 62.3385 112.412 61.2312C112.386 60.2784 112.361 59.3514 112.206 58.3986C111.948 56.8277 111.509 54.8192 110.22 53.7634C109.136 52.8621 107.795 52.8878 106.737 53.7891C105.731 54.6646 104.57 56.3385 105.061 57.7033C105.267 58.1926 106.015 57.9865 105.834 57.523Z" fill="#121826"/>
<path d="M112.98 51.9608C113.16 48.8449 117.055 47.7118 118.861 50.2612C119.145 50.6732 119.815 50.287 119.532 49.8749C117.288 46.6818 112.438 48.0466 112.206 51.9608C112.18 52.45 112.954 52.45 112.98 51.9608Z" fill="#121826"/>
<path d="M109.472 59.5831C109.11 59.0938 108.904 58.5531 108.878 57.9608C108.672 58.0638 108.491 58.1926 108.285 58.2956C108.878 58.6818 109.188 59.2999 109.162 59.9951C109.317 59.8664 109.497 59.7376 109.652 59.6346C109.007 59.4029 108.595 58.6818 108.723 58.0123C108.543 58.0895 108.337 58.1668 108.156 58.2441C108.466 58.4243 108.723 58.6818 108.904 59.0166C108.981 59.1711 109.033 59.3256 109.059 59.5059C109.059 59.6346 109.059 59.4801 109.033 59.4286C108.981 59.3256 108.93 59.2484 108.878 59.1453C108.672 58.6818 108.001 59.0938 108.208 59.5316C108.362 59.8921 108.62 60.2784 109.085 60.3041C109.472 60.3299 109.807 60.0724 109.858 59.6861C109.936 58.8363 109.265 57.9865 108.569 57.6003C108.362 57.4715 108.053 57.5745 108.001 57.832C107.795 58.9393 108.414 60.0209 109.472 60.4072C109.73 60.4844 109.962 60.2784 109.962 60.0466C109.987 59.0681 109.523 58.1926 108.698 57.6775C108.466 57.523 108.104 57.729 108.104 58.0123C108.13 58.7333 108.362 59.4286 108.801 60.0209C109.11 60.3814 109.781 59.9951 109.472 59.5831Z" fill="#121826"/>
<path d="M116.694 54.6131C116.565 54.4586 116.462 54.2784 116.411 54.0724C116.411 54.0209 116.359 53.7119 116.411 53.6861C116.462 53.6604 116.591 54.0724 116.617 54.0981C116.668 54.3041 116.643 54.5359 116.539 54.7162C116.72 54.6646 116.901 54.6131 117.081 54.5874C116.436 54.2269 116.127 53.5573 116.23 52.8363C116.024 52.9393 115.843 53.0681 115.637 53.1711C116.359 53.4801 116.772 54.2269 116.591 54.9994C116.746 54.9222 116.901 54.8192 117.055 54.7419C116.668 54.6131 116.359 54.2784 116.282 53.8664C116.282 53.8406 116.282 53.6089 116.256 53.6089C116.204 53.6346 116.153 53.6604 116.075 53.6861C116.101 53.7376 116.153 53.8149 116.178 53.8664C116.282 54.1496 116.282 54.4329 116.256 54.7419C116.488 54.6389 116.694 54.5616 116.926 54.4586C116.694 54.2784 116.514 54.0724 116.385 53.7891C116.153 53.3513 115.482 53.7376 115.714 54.1754C115.869 54.4844 116.101 54.7677 116.385 54.9994C116.668 55.2312 117.004 55.0767 117.055 54.7162C117.107 54.2011 117.055 53.5058 116.668 53.1196C116.359 52.8106 115.791 52.7848 115.585 53.2483C115.172 54.1496 116.049 55.2054 116.849 55.4887C117.055 55.5659 117.288 55.4114 117.313 55.2312C117.597 54.1496 117.055 52.9651 115.998 52.5273C115.714 52.3985 115.456 52.5531 115.404 52.8621C115.276 53.8406 115.791 54.7934 116.643 55.2827C116.797 55.3857 117.081 55.3342 117.184 55.1539C117.391 54.6646 117.442 54.1754 117.262 53.6861C117.107 53.2998 116.772 52.8878 116.333 52.9393C115.198 53.0681 115.688 54.6904 116.153 55.2054C116.488 55.5402 117.03 54.9737 116.694 54.6131Z" fill="#121826"/>
<path d="M123.427 76.7591C123.427 76.7849 123.427 76.7849 123.401 76.8106C123.556 76.7334 123.711 76.6304 123.865 76.5531C123.84 76.5531 123.814 76.5274 123.788 76.5274C123.865 76.7076 123.943 76.9136 124.02 77.0939C124.072 76.9909 124.768 76.6561 124.975 76.4759C125.439 76.0896 125.826 75.5746 126.187 75.0853C126.987 74.0295 127.58 72.8707 128.07 71.6604C127.812 71.5832 127.58 71.5316 127.322 71.4544C126.548 73.669 126.006 76.7591 123.84 78.0724C124.02 78.2527 124.201 78.433 124.381 78.6132C124.897 77.8407 125.413 77.0424 125.929 76.2699C126.161 75.9093 125.619 75.4716 125.31 75.8063C124.897 76.2441 124.459 76.7076 124.046 77.1454C124.227 77.3257 124.407 77.5059 124.588 77.6862C124.975 77.2227 125.336 76.7334 125.671 76.2441C125.929 75.8836 125.362 75.4458 125.052 75.7806C124.691 76.1669 124.33 76.4501 123.865 76.6819C124.072 76.7849 124.252 76.9136 124.459 77.0166C124.459 76.9394 124.433 76.8621 124.433 76.7849C124.381 76.2956 123.607 76.2956 123.659 76.7849C123.659 76.8621 123.685 76.9394 123.685 77.0166C123.711 77.2999 123.994 77.5059 124.278 77.3514C124.794 77.0681 125.207 76.7591 125.619 76.3214C125.413 76.1669 125.207 76.0124 125 75.8578C124.691 76.2956 124.381 76.7334 124.046 77.1454C123.736 77.5317 124.252 78.0724 124.588 77.6862C125 77.2484 125.439 76.7849 125.852 76.3471C125.645 76.1926 125.439 76.0381 125.233 75.8836C124.717 76.6561 124.201 77.4544 123.685 78.2269C123.478 78.5617 123.891 78.948 124.227 78.7677C126.6 77.3257 127.219 74.1325 128.07 71.6862C128.225 71.1969 127.503 71.0424 127.322 71.4801C126.78 72.7935 126.084 74.081 125.155 75.1626C124.717 75.6776 124.02 75.9608 123.607 76.4244C123.504 76.5274 123.401 76.5531 123.349 76.6819C123.22 76.9136 123.324 77.1454 123.582 77.2484C123.607 77.2484 123.633 77.2742 123.659 77.2742C123.865 77.3514 124.072 77.1969 124.123 77.0166C124.123 76.9909 124.123 76.9909 124.149 76.9651C124.355 76.5016 123.607 76.2956 123.427 76.7591Z" fill="#121826"/>
<path d="M126.29 75.9866C126.522 75.7291 126.677 75.4716 126.754 75.1626C126.883 74.699 126.29 74.5445 126.058 74.8535C125.516 75.5746 124.975 76.2956 124.433 77.0166C124.123 77.4029 124.794 77.7892 125.104 77.4029C125.645 76.6819 126.187 75.9608 126.729 75.2398C126.496 75.1368 126.264 75.0338 126.032 74.9308C125.981 75.1111 125.903 75.2656 125.774 75.4201C125.413 75.8321 125.981 76.3729 126.29 75.9866Z" fill="#121826"/>
<path d="M114.373 69.6003C113.65 68.1583 114.424 67.6175 115.869 67.2312C116.049 67.1797 116.23 67.154 116.385 67.0767C117.004 66.7934 117.365 66.1754 117.623 65.5831C118.036 64.7076 118.268 63.7548 118.809 62.9565C119.944 61.2312 121.957 61.3084 122.601 63.3685C123.246 65.4286 122.447 67.7205 121.079 69.2913C120.409 70.0638 119.583 70.7849 118.603 71.1196C117.752 71.4286 117.004 71.3256 116.178 70.9651C115.585 70.7076 114.502 70.1926 114.347 69.5231C114.244 69.0338 113.496 69.2398 113.599 69.7291C113.883 71.0681 115.895 71.8922 117.107 72.0724C118.423 72.2784 119.661 71.6347 120.667 70.8106C122.911 68.9565 124.304 65.6861 123.22 62.8535C122.06 59.7891 118.913 60.9222 117.752 63.3428C117.391 64.0896 117.21 65.3514 116.617 65.8922C115.869 66.5874 114.914 66.3299 114.141 66.8707C113.057 67.6432 113.16 69.008 113.702 70.0638C113.934 70.4501 114.605 70.0638 114.373 69.6003Z" fill="#121826"/>
<path d="M113.857 68.802C117.855 68.699 119.79 64.9908 120.667 61.5917C120.796 61.1024 120.048 60.8964 119.919 61.3857C119.145 64.4243 117.468 67.9265 113.857 68.0295C113.367 68.0552 113.367 68.8278 113.857 68.802Z" fill="#121826"/>
<path d="M103.255 59.8149C102.791 60.0724 99.9788 57.008 98.7922 52.9136C97.9152 49.9264 98.1731 47.2741 98.4827 45.6002C98.9212 44.2612 99.5403 42.8191 100.392 41.3513C104.054 35.068 109.833 32.1066 112.825 30.8448C112.206 31.4371 111.484 32.2096 110.813 33.1882C109.884 34.4757 109.291 35.686 108.904 36.6903C109.781 35.9436 110.787 35.1968 111.87 34.4757C114.295 32.8534 116.643 31.6946 118.68 30.8706C118.371 32.1839 118.036 33.4972 117.726 34.7848C118.448 34.3727 119.454 33.7805 120.693 33.1882C122.06 32.5444 124.871 31.2053 125.31 31.7976C125.439 31.9779 125.284 32.1839 125.052 32.9307C124.742 33.9092 124.639 34.7333 124.588 35.274C125.387 35.1453 126.29 35.0423 127.27 35.0165C128.354 34.965 129.334 35.0165 130.211 35.0938C129.901 36.2783 129.592 37.4371 129.282 38.6217C129.901 38.8534 130.779 39.2912 131.681 40.0122C134.106 41.9951 134.803 44.6732 134.983 45.729C135.37 48.2526 134.751 50.3642 134.287 51.523C133.049 48.8964 130.598 47.8663 129.205 48.5101C128.354 48.8964 127.374 50.1324 127.477 51.3943C127.502 51.6775 127.58 51.935 127.657 52.1153C126.754 51.2912 125.387 50.1839 123.607 49.1539C121.828 48.1239 119.841 46.9651 117.21 46.6303C112.257 45.9865 108.388 48.6904 107.356 49.4372C105.757 50.5702 103.152 52.3985 102.687 55.3084C102.223 57.7548 103.616 59.6346 103.255 59.8149Z" fill="#33D49E"/>
<path opacity="0.11" d="M122.885 48.5101C123.685 50.3127 124.768 53.1196 125.361 56.6475C125.981 60.1496 126.754 64.6561 124.871 69.6518C124.226 71.3514 122.705 74.6218 119.093 77.6862C119.944 77.6604 121.415 77.5059 122.963 76.6819C125.49 75.3686 126.6 73.1797 126.935 72.4072C128.147 73.5917 129.773 75.4458 131.011 78.0724C131.707 79.5403 132.146 80.9051 132.404 82.0381C133.1 81.4201 134.39 80.081 134.983 77.9694C135.215 77.1454 135.293 76.3986 135.293 75.7806C133.797 74.9565 132.842 73.9523 132.3 73.3085C132.068 73.0252 129.773 70.1411 129.901 66.1497C129.953 64.7076 130.263 64.6818 130.495 62.4672C130.701 60.4844 130.598 58.8106 130.495 57.7033C131.81 58.2441 132.481 57.9865 132.791 57.8063C133.384 57.4458 133.539 56.802 134.08 53.5316C134.364 51.7805 134.519 50.905 134.57 50.4415C134.88 47.9436 135.035 46.6818 134.88 45.6775C134.441 42.8191 132.61 40.9135 131.991 40.3213C130.959 39.317 129.901 38.7504 129.205 38.4414C129.515 37.3599 129.798 36.2526 130.108 35.171C128.638 36.8963 127.27 38.0809 126.342 38.8534C124.02 40.7075 122.679 41.1453 121.079 42.9221C119.815 44.3127 119.093 45.729 118.68 46.6818C120.099 47.3256 121.492 47.9178 122.885 48.5101Z" fill="#121826"/>
<path opacity="0.17" d="M112.257 31.1281C111.38 31.5144 109.317 32.5959 107.872 34.8878C107.511 35.4543 106.711 36.8706 106.479 38.8534C106.221 41.0423 106.763 42.7676 107.073 43.6174C107.176 41.4801 107.692 38.0294 109.755 34.4757C110.555 33.1367 111.432 32.0294 112.257 31.1281Z" fill="#121826"/>
<path opacity="0.08" d="M130.495 57.832C130.417 57.8063 130.263 58.0896 129.695 60.0466C128.921 62.699 128.509 64.6561 128.276 65.6346C127.941 67.051 127.374 69.0595 126.316 71.4802C128.147 71.8407 129.979 72.2012 131.81 72.536C131.14 71.0681 130.34 68.9565 130.03 66.3299C129.54 61.8235 130.753 57.8835 130.495 57.832Z" fill="#121826"/>
</svg>
