<svg width="327" height="257" viewBox="0 0 327 257" fill="none" xmlns="http://www.w3.org/2000/svg">
<path d="M259.303 160.369C259.274 164.982 259.217 169.623 259.189 174.236C259.189 175.375 259.16 176.514 259.16 177.625C259.16 178.394 258.99 179.362 259.303 180.102C259.787 181.355 261.41 181.013 262.007 182.067C262.064 181.868 262.121 181.668 262.15 181.469C260.071 182.494 259.53 184.801 259.36 186.936C259.217 188.987 259.132 192.29 261.808 192.689C261.78 192.432 261.751 192.176 261.694 191.92C257.651 193.771 259.274 201.003 260.982 203.908C262.235 206.044 264.086 207.781 265.993 209.318C267.075 210.201 268.157 211.027 269.267 211.881C269.922 212.394 270.577 212.878 271.203 213.39C271.545 213.647 272.997 214.444 273.054 214.928C273.168 214.786 273.253 214.643 273.367 214.529C273.395 214.529 273.395 214.529 273.424 214.529C273.481 214.729 273.538 214.928 273.566 215.127C273.595 215.099 273.595 215.07 273.623 215.042C273.851 214.558 273.139 214.131 272.883 214.615C272.854 214.643 272.854 214.672 272.826 214.7C272.712 214.928 272.769 215.127 272.968 215.298C273.168 215.469 273.31 215.469 273.566 215.384C273.737 215.327 273.908 215.156 273.879 214.985C273.765 214.102 272.883 213.704 272.2 213.191C271.203 212.394 270.178 211.625 269.182 210.828C267.303 209.375 265.395 207.923 263.772 206.214C261.95 204.307 260.698 202.086 260.328 199.437C260.014 197.273 259.73 193.799 262.121 192.689C262.434 192.546 262.377 191.948 262.007 191.92C259.73 191.578 260.043 188.332 260.214 186.595C260.385 184.886 260.869 183.092 262.548 182.266C262.748 182.152 262.805 181.868 262.691 181.668C262.093 180.643 260.641 180.843 260.1 179.931C259.673 179.248 259.958 177.653 259.986 176.828C259.986 175.688 260.014 174.549 260.014 173.439C260.043 169.111 260.071 164.754 260.128 160.425C260.157 159.827 259.303 159.799 259.303 160.369Z" fill="#E8E8E8"/>
<path d="M259.758 160.596C263.744 160.796 266.534 163.843 268.926 166.69C270.064 168.057 271.26 169.338 272.427 170.62C273.623 171.901 275.189 174.492 273.025 175.745C272.655 175.973 272.826 176.543 273.253 176.543C276.555 176.628 278.007 180.643 279.032 183.178C280.256 186.253 281.224 189.414 281.936 192.632C283.388 199.238 283.673 206.044 282.847 212.735C282.79 213.276 283.644 213.276 283.701 212.735C284.584 205.275 284.128 197.7 282.278 190.439C281.424 187.022 280.285 183.576 278.748 180.387C277.666 178.109 275.986 175.745 273.253 175.688C273.338 175.945 273.395 176.23 273.481 176.486C277.637 174.094 272.484 169.538 270.805 167.573C267.815 164.099 264.797 159.97 259.787 159.714C259.217 159.714 259.217 160.568 259.758 160.596Z" fill="#E8E8E8"/>
<path d="M274.05 170.848C276.043 163.786 278.833 156.98 282.42 150.573C282.221 150.63 282.022 150.687 281.822 150.715C282.591 151.171 283.388 151.626 284.157 152.082C284.555 152.31 284.926 151.854 284.755 151.484C282.705 147.384 288.854 144.764 290.933 142.315C290.762 142.343 290.591 142.372 290.42 142.372C290.819 142.6 291.246 142.827 291.644 143.055C291.844 143.169 292.1 143.112 292.242 142.913C294.52 139.04 298.534 136.876 302.406 134.883C302.207 134.712 301.979 134.569 301.78 134.399C300.555 138.414 302.491 142.799 302.862 146.814C303.061 148.978 303.089 151.171 302.918 153.363C302.833 154.446 302.918 156.069 302.491 157.037C302.491 157.749 302.093 158.147 301.267 158.29C301.011 158.318 300.783 158.347 300.527 158.375C299.958 158.432 299.36 158.489 298.79 158.546C298.563 158.575 298.335 158.717 298.363 158.973C298.392 159.543 298.563 159.714 298.99 160.084C299.531 160.539 299.958 160.596 300.214 161.394C300.356 161.821 300.356 162.305 300.356 162.732C300.328 165.039 299.986 167.402 299.587 169.68C299.189 171.901 298.62 174.094 297.936 176.23C297.338 178.023 296.541 180.7 294.321 180.985C294.036 181.013 293.751 181.327 293.95 181.64C295.602 184.174 293.153 187.25 291.958 189.442C290.648 191.777 289.452 194.169 288.342 196.59C286.121 201.402 284.299 206.385 282.819 211.482C282.676 212.024 283.502 212.251 283.644 211.71C285.324 205.844 287.516 200.149 290.192 194.682C291.445 192.091 292.954 189.642 294.264 187.079C295.203 185.228 295.943 183.064 294.719 181.184C294.605 181.412 294.463 181.611 294.349 181.839C296.029 181.64 297.111 180.444 297.851 178.992C298.961 176.771 299.559 174.208 300.1 171.787C300.698 169.111 301.096 166.377 301.239 163.643C301.296 162.732 301.381 161.707 300.983 160.853C300.755 160.283 299.303 159.4 299.274 159.002C299.132 159.144 298.99 159.286 298.847 159.429C300.442 159.258 302.719 159.657 303.26 157.834C303.972 155.556 303.943 152.737 303.915 150.402C303.915 147.896 303.659 145.419 303.203 142.97C302.691 140.208 301.78 137.446 302.634 134.655C302.748 134.285 302.321 134 302.007 134.171C297.993 136.25 293.865 138.499 291.531 142.514C291.73 142.457 291.929 142.4 292.128 142.372C291.73 142.144 291.303 141.916 290.904 141.688C290.762 141.603 290.506 141.603 290.392 141.745C288 144.564 281.708 147.241 284.071 151.94C284.271 151.74 284.47 151.541 284.669 151.342C283.901 150.886 283.103 150.43 282.335 149.975C282.136 149.861 281.851 149.918 281.737 150.117C278.15 156.61 275.303 163.472 273.281 170.591C273.054 171.161 273.879 171.389 274.05 170.848Z" fill="#E8E8E8"/>
<path d="M253.922 141.745C249.139 142.087 246.605 136.477 247.402 132.434C248.171 128.476 252.043 125.685 256 125.799C261.21 125.913 263.886 131.01 262.947 135.765C262.121 140.008 257.851 143.141 253.58 141.461C253.068 141.261 252.84 142.087 253.353 142.286C256.769 143.625 260.755 142.059 262.634 138.955C264.627 135.652 264.399 130.925 262.093 127.849C259.758 124.717 255.288 124.29 251.901 125.799C248.513 127.28 246.292 130.611 246.377 134.313C246.463 138.357 249.452 142.913 253.893 142.6C254.463 142.571 254.491 141.717 253.922 141.745Z" fill="#E8E8E8"/>
<path d="M297.623 79.1841C295.972 82.2595 294.064 85.164 291.901 87.8977C291.559 88.3248 292.157 88.9228 292.498 88.4957C294.719 85.7051 296.684 82.7436 298.363 79.6112C298.619 79.1272 297.879 78.7 297.623 79.1841Z" fill="#E8E8E8"/>
<path d="M297.595 79.8675C298.619 82.5727 299.701 85.2779 300.812 87.9546C301.011 88.4672 301.837 88.2394 301.637 87.7268C300.527 85.0501 299.445 82.3449 298.42 79.6397C298.221 79.1272 297.395 79.355 297.595 79.8675Z" fill="#E8E8E8"/>
<path d="M297.395 80.2662C297.196 90.8592 295.829 101.395 293.296 111.675C293.153 112.216 293.979 112.444 294.121 111.903C296.684 101.538 298.05 90.9446 298.249 80.2662C298.278 79.6967 297.424 79.6967 297.395 80.2662Z" fill="#E8E8E8"/>
<path d="M302.321 97.6649C303.061 103.759 302.89 109.909 301.78 115.946C301.694 116.487 302.491 116.715 302.605 116.174C303.716 110.052 303.915 103.844 303.175 97.6649C303.089 97.1238 302.235 97.1238 302.321 97.6649Z" fill="#E8E8E8"/>
<path d="M299.047 109.511C300.043 111.789 301.78 113.868 301.894 116.43C301.922 116.858 302.463 117.028 302.691 116.658C303.687 114.921 304.712 113.184 305.708 111.447C305.993 110.963 305.253 110.536 304.968 111.02C303.972 112.757 302.947 114.494 301.95 116.231C302.207 116.317 302.491 116.373 302.748 116.459C302.634 113.697 300.84 111.561 299.787 109.112C299.559 108.571 298.819 108.998 299.047 109.511Z" fill="#E8E8E8"/>
<path d="M104.797 253.684C121.965 252.089 139.16 250.01 156.384 249.298C173.751 248.586 191.203 249.042 208.57 249.498C218.534 249.754 228.498 250.238 238.406 251.178C238.947 251.235 238.947 250.38 238.406 250.323C220.982 248.672 203.502 248.473 186.022 248.273C177.253 248.159 168.484 248.074 159.744 248.359C151.231 248.615 142.747 249.327 134.263 250.096C124.441 251.007 114.619 251.918 104.797 252.829C104.256 252.858 104.256 253.712 104.797 253.684Z" fill="#E8E8E8"/>
<path d="M194.135 241.097C201.281 242.436 208.342 242.379 215.545 241.724C222.947 241.04 230.321 240.613 237.751 240.271C252.669 239.617 267.587 239.019 282.477 238.392C290.99 238.022 299.502 237.68 308.015 237.31C308.555 237.282 308.555 236.427 308.015 236.456C293.068 237.082 278.15 237.709 263.203 238.335C248.513 238.962 233.737 239.275 219.075 240.528C215.089 240.869 211.103 241.325 207.118 241.382C202.847 241.439 198.577 241.04 194.363 240.243C193.822 240.186 193.594 241.012 194.135 241.097Z" fill="#E8E8E8"/>
<path d="M0.427047 235.06C13.694 235.431 26.9609 235.374 40.2278 234.89C40.7687 234.861 40.7687 234.007 40.2278 234.035C26.9609 234.519 13.694 234.576 0.427047 234.206C-0.142349 234.178 -0.142349 235.032 0.427047 235.06Z" fill="#E8E8E8"/>
<path d="M14.9182 246.508C19.758 245.483 24.8826 246.138 29.7794 246.365C34.7047 246.622 39.6015 246.849 44.5267 247.106C54.5481 247.618 64.541 248.131 74.5623 248.615C75.1033 248.643 75.1033 247.789 74.5623 247.761C64.3702 247.248 54.1495 246.735 43.9573 246.223C38.8612 245.967 33.7652 245.71 28.6691 245.454C24.0285 245.226 19.3025 244.685 14.7189 245.682C14.1779 245.796 14.4057 246.622 14.9182 246.508Z" fill="#E8E8E8"/>
<path d="M91.6727 224.809C109.267 226.005 126.577 221.449 144.142 221.506C144.683 221.506 144.683 220.652 144.142 220.652C126.577 220.595 109.267 225.122 91.6727 223.955C91.1318 223.898 91.1318 224.781 91.6727 224.809Z" fill="#E8E8E8"/>
<path d="M78.4912 136.306C78.6335 135.822 78.7759 135.338 79.0036 134.883C79.146 134.683 79.2599 134.513 79.4022 134.313C80.0001 134.256 80.6264 134.171 81.2243 134.114C81.3951 134.228 81.5374 134.569 81.6513 134.74C82.0784 135.338 82.5339 135.851 83.1887 136.25C84.4414 136.99 85.9503 137.161 87.2883 136.648C90.7901 135.367 92.0997 130.725 96.3702 131.181C97.509 131.295 98.5908 131.75 99.4165 132.548C100.043 133.146 100.527 133.886 101.182 134.456C102.349 135.424 103.801 135.566 105.196 135.054C106.904 134.456 108.214 133.174 109.495 131.95C111.231 130.327 113.765 128.362 116.071 130.099C117.58 131.209 118.463 132.918 120.342 133.516C122.107 134.085 123.986 133.744 125.466 132.633C125.893 132.32 125.466 131.551 125.039 131.893C122.989 133.43 120.427 133.174 118.634 131.38C117.438 130.213 116.413 128.76 114.648 128.561C110.491 128.049 108.328 133.117 104.797 134.285C102.121 135.167 101.239 132.775 99.4734 131.466C98.1638 130.497 96.5125 130.099 94.8898 130.355C93.1816 130.611 91.872 131.636 90.6762 132.804C89.2812 134.199 87.8008 136.107 85.6371 136.107C84.1851 136.107 83.0748 135.31 82.2777 134.171C81.8221 133.544 81.452 133.032 80.6264 132.946C78.8328 132.775 78.0641 134.655 77.6371 136.05C77.4947 136.591 78.3204 136.819 78.4912 136.306Z" fill="#E8E8E8"/>
<path d="M122.392 121.585C123.416 118.595 127.004 121.129 128.37 122.239C129.566 123.208 130.961 124.204 132.584 124.147C135.26 124.033 136.683 121.3 138.876 120.161C141.922 118.595 143.772 122.667 146.733 122.268C148.043 122.097 148.726 121.043 149.552 120.132C150.434 119.164 151.345 119.164 152.598 119.449C153.765 119.734 154.961 120.018 156.128 120.303C156.669 120.445 156.897 119.62 156.356 119.477C155.189 119.193 153.993 118.908 152.826 118.623C152.029 118.424 151.231 118.196 150.434 118.424C148.868 118.908 148.413 120.987 146.847 121.357C145.167 121.755 143.516 119.876 142.064 119.278C140.84 118.765 139.644 118.765 138.477 119.392C137.224 120.047 136.285 121.157 135.175 122.04C134.434 122.638 133.609 123.179 132.641 123.236C131.16 123.322 129.936 122.296 128.854 121.442C127.545 120.417 126.15 119.193 124.356 119.335C123.075 119.42 122.021 120.104 121.594 121.328C121.395 121.869 122.221 122.097 122.392 121.585Z" fill="#E8E8E8"/>
<path d="M251.103 38.4923C250.847 43.8172 250.676 49.1707 250.619 54.5241C250.619 55.0651 251.474 55.0651 251.474 54.5241C251.53 49.1707 251.701 43.8457 251.958 38.4923C251.986 37.9512 251.132 37.9512 251.103 38.4923Z" fill="#E8E8E8"/>
<path d="M251.673 38.8909C258.249 37.9797 264.94 37.0969 271.488 38.6346C272.029 38.7485 272.257 37.9512 271.716 37.8088C265.025 36.2142 258.164 37.1254 251.445 38.0651C250.904 38.1221 251.132 38.9479 251.673 38.8909Z" fill="#E8E8E8"/>
<path d="M270.947 38.9194C271.089 49.7402 270.89 60.5894 270.321 71.4102C270.292 71.9513 271.146 71.9513 271.175 71.4102C271.744 60.5894 271.943 49.7687 271.801 38.9194C271.801 38.3784 270.947 38.3784 270.947 38.9194Z" fill="#E8E8E8"/>
<path d="M251.331 68.5057C251.474 69.8725 251.531 71.2963 251.787 72.6347C251.929 73.2896 252.157 73.7452 252.726 74.1439C254.52 75.3114 257.424 74.628 259.388 74.5141C262.178 74.3432 264.997 74.1724 267.787 74.0015C269.039 73.9161 271.032 73.5744 270.264 71.8374C270.036 71.3248 269.296 71.7804 269.523 72.2645C269.666 72.5777 268.071 73.0903 267.787 73.1472C267.331 73.2327 266.847 73.2042 266.392 73.2327C265.566 73.2896 264.712 73.3466 263.886 73.3751C262.207 73.489 260.527 73.5744 258.847 73.6883C257.31 73.7737 255.602 74.0869 254.064 73.7452C252.128 73.2896 252.385 70.1573 252.185 68.5342C252.128 67.9647 251.274 67.9647 251.331 68.5057Z" fill="#E8E8E8"/>
<path d="M246.15 67.4521C243.644 71.1255 241.054 74.7419 238.434 78.3298C238.349 78.4437 238.349 78.6431 238.434 78.757C238.89 79.4689 239.659 79.7536 240.484 79.4973C241.708 79.1272 242.306 77.7318 242.933 76.7637C243.958 75.169 245.125 73.6598 246.377 72.2075C246.918 71.6096 247.459 71.0116 248.029 70.4421C248.684 69.7871 249.794 68.3918 250.733 68.2494C251.274 68.164 251.046 67.3382 250.506 67.4236C249.651 67.566 249.082 68.2494 248.456 68.8189C247.63 69.5878 246.833 70.3851 246.064 71.2394C244.584 72.891 243.217 74.6565 242.022 76.5074C241.68 77.02 241.395 77.6464 240.968 78.102C240.513 78.757 240.029 78.8139 239.459 78.2729C239.63 78.0451 239.801 77.8173 239.943 77.5895C240.712 76.5359 241.481 75.4823 242.221 74.4287C243.787 72.236 245.324 70.0434 246.833 67.8223C247.203 67.4236 246.463 66.9965 246.15 67.4521Z" fill="#E8E8E8"/>
<path d="M250.591 68.5057C254.121 68.5911 257.509 66.4554 258.904 63.2092C260.157 60.2762 259.474 56.4604 256.826 54.5241C253.78 52.3315 249.879 53.9831 247.516 56.375C246.121 57.7988 244.954 59.5928 244.669 61.5861C244.555 62.3834 244.584 63.1807 244.783 63.9496C244.897 64.4052 245.068 64.8323 245.296 65.231C245.353 65.3449 246.662 67.1958 246.093 67.1673C245.552 67.1104 245.552 67.9647 246.093 68.0216C246.975 68.107 247.431 67.3097 247.175 66.5124C246.975 65.8574 246.349 65.4018 246.007 64.8038C245.495 63.8641 245.381 62.7821 245.523 61.7285C246.007 58.0836 249.879 54.2678 253.637 54.3248C257.338 54.3532 259.274 58.4822 258.506 61.7285C257.651 65.2595 254.178 67.7368 250.591 67.6229C250.022 67.6514 250.022 68.5057 250.591 68.5057Z" fill="#E8E8E8"/>
<path d="M254.634 41.9093L254.605 41.8809C254.605 42.0802 254.605 42.2795 254.605 42.4789C254.975 42.0517 257.538 42.0802 258.221 41.9948C259.303 41.8809 260.413 41.7954 261.495 41.7385C262.577 41.6815 263.687 41.6246 264.797 41.5961C265.281 41.5961 267.815 41.8239 267.986 41.3683C267.787 41.8809 268.612 42.1087 268.812 41.5961C268.84 41.5392 268.84 41.5107 268.869 41.4537C268.926 41.3114 268.869 41.1405 268.755 41.0266C268.128 40.4001 266.99 40.6849 266.164 40.6849C264.598 40.6849 263.061 40.7418 261.495 40.8557C260.043 40.9412 258.591 41.0835 257.111 41.2259C256.37 41.3114 254.52 41.1975 253.979 41.8239C253.837 41.9948 253.808 42.2511 253.979 42.4219L254.007 42.4504C254.434 42.906 255.032 42.2795 254.634 41.9093Z" fill="#E8E8E8"/>
<path d="M254.235 46.0668C257.111 46.4655 259.901 46.3516 262.776 46.2377C263.317 46.2092 263.317 45.3549 262.776 45.3834C259.958 45.4973 257.253 45.6112 254.463 45.241C253.922 45.1841 253.694 46.0098 254.235 46.0668Z" fill="#E8E8E8"/>
<path d="M252.299 49.2846C252.214 49.37 252.128 49.4839 252.043 49.5693C251.787 49.8541 251.958 50.2812 252.356 50.3097C257.31 50.3951 262.264 50.1673 267.189 49.6263C267.73 49.5693 267.73 48.715 267.189 48.772C262.264 49.313 257.31 49.5408 252.356 49.4554C252.47 49.7117 252.555 49.9395 252.669 50.1958C252.755 50.1104 252.84 49.9965 252.926 49.911C253.267 49.4839 252.669 48.8859 252.299 49.2846Z" fill="#E8E8E8"/>
<path d="M258.42 53.9546C261.011 54.1539 263.602 54.04 266.164 53.6129C266.705 53.5274 266.477 52.7016 265.936 52.7871C263.431 53.1857 260.926 53.2996 258.42 53.1003C257.851 53.0718 257.851 53.9261 258.42 53.9546Z" fill="#E8E8E8"/>
<path d="M251.474 65.4873C249.167 65.6012 247.203 63.5794 247.943 61.2444C248.513 59.3935 250.648 57.4286 252.584 57.1154C253.523 56.973 254.548 57.2008 255.26 57.8558C256.313 58.8239 256.029 60.2477 255.545 61.4152C254.719 63.4655 253.21 65.3164 250.904 65.5727C250.363 65.6296 250.363 66.4839 250.904 66.427C253.865 66.1137 255.972 63.5794 256.684 60.7888C257.367 58.169 255.431 56.0048 252.726 56.2326C250.221 56.4604 247.459 58.9948 247.004 61.4722C246.52 64.2343 248.769 66.4839 251.474 66.3415C252.014 66.3131 252.014 65.4588 251.474 65.4873Z" fill="#E8E8E8"/>
<path d="M251.958 57.4856C250.819 59.9345 249.765 62.4119 248.826 64.9177C248.627 65.4303 249.452 65.6581 249.651 65.1456C250.591 62.6966 251.587 60.2762 252.698 57.9127C252.926 57.4001 252.214 56.973 251.958 57.4856Z" fill="#E8E8E8"/>
<path d="M253.267 59.9345C252.527 61.4722 251.815 63.0099 251.075 64.5476C250.847 65.0317 251.587 65.4873 251.815 64.9747C252.555 63.437 253.267 61.8993 254.007 60.3616C254.235 59.8775 253.523 59.4219 253.267 59.9345Z" fill="#E8E8E8"/>
<path d="M41.6228 13.4336C41.6228 16.0249 41.6228 18.6446 41.6228 21.2359C41.6228 21.777 42.4769 21.777 42.4769 21.2359C42.4769 18.6446 42.4769 16.0249 42.4769 13.4336C42.4769 12.8925 41.6228 12.8925 41.6228 13.4336Z" fill="#E8E8E8"/>
<path d="M42.1637 21.6061C44.5837 21.6061 46.9751 21.6061 49.3951 21.6061C49.936 21.6061 49.936 20.7518 49.3951 20.7518C46.9751 20.7518 44.5837 20.7518 42.1637 20.7518C41.6228 20.7518 41.6228 21.6061 42.1637 21.6061Z" fill="#E8E8E8"/>
<path d="M49.9075 20.6949C49.9075 17.8758 49.9075 15.0282 49.9075 12.2091C49.9075 11.6681 49.0534 11.6681 49.0534 12.2091C49.0534 15.0282 49.0534 17.8758 49.0534 20.6949C49.0534 21.2359 49.9075 21.2359 49.9075 20.6949Z" fill="#E8E8E8"/>
<path d="M49.5944 11.6681C47.1175 11.6681 44.6406 11.6681 42.1922 11.6681C41.6513 11.6681 41.6513 12.5223 42.1922 12.5223C44.6691 12.5223 47.1459 12.5223 49.5944 12.5223C50.1353 12.5223 50.1353 11.6681 49.5944 11.6681Z" fill="#E8E8E8"/>
<path d="M45.2385 22.0617C45.2385 24.9663 45.2385 27.8423 45.2385 30.7468C45.2385 31.2879 46.0926 31.2879 46.0926 30.7468C46.0926 27.8423 46.0926 24.9663 46.0926 22.0617C46.0926 21.5207 45.2385 21.5207 45.2385 22.0617Z" fill="#E8E8E8"/>
<path d="M35.2171 30.6329C38.3773 27.6145 41.6798 24.71 45.0961 21.9478C45.5232 21.6061 44.9253 21.0081 44.4983 21.3498C41.0819 24.112 37.8079 26.988 34.6193 30.0349C34.2207 30.4051 34.8185 31.0031 35.2171 30.6329Z" fill="#E8E8E8"/>
<path d="M46.1495 22.2326C49.5659 24.8239 52.9823 27.4152 56.3986 30.0065C56.8257 30.3482 57.2527 29.6078 56.8257 29.2661C53.4093 26.6748 49.9929 24.0835 46.5766 21.4922C46.1495 21.1505 45.7225 21.8909 46.1495 22.2326Z" fill="#E8E8E8"/>
<path d="M31.9146 31.6581C33.7936 31.6581 35.6726 31.6581 37.5801 31.6581C38.121 31.6581 38.121 30.8038 37.5801 30.8038C35.7011 30.8038 33.8221 30.8038 31.9146 30.8038C31.3737 30.8038 31.3737 31.6581 31.9146 31.6581Z" fill="#E8E8E8"/>
<path d="M37.0676 31.8289C37.0676 33.9646 37.0676 36.1288 37.0676 38.2644C37.0676 38.8055 37.9217 38.8055 37.9217 38.2644C37.9217 36.1288 37.9217 33.9646 37.9217 31.8289C37.9217 31.2594 37.0676 31.2594 37.0676 31.8289Z" fill="#E8E8E8"/>
<path d="M31.2883 31.4303C31.2883 33.9361 31.2883 36.442 31.2883 38.9479C31.2883 39.4889 32.1424 39.4889 32.1424 38.9479C32.1424 36.442 32.1424 33.9361 32.1424 31.4303C32.1424 30.8607 31.2883 30.8607 31.2883 31.4303Z" fill="#E8E8E8"/>
<path d="M31.6299 39.4604C33.395 39.4604 35.1317 39.4604 36.8968 39.4604C37.4378 39.4604 37.4378 38.6062 36.8968 38.6062C35.1317 38.6062 33.395 38.6062 31.6299 38.6062C31.089 38.6062 31.089 39.4604 31.6299 39.4604Z" fill="#E8E8E8"/>
<path d="M42.6193 31.6296C42.6193 34.107 42.6193 36.5844 42.6193 39.0333C42.6193 39.5743 43.4734 39.5743 43.4734 39.0333C43.4734 36.5559 43.4734 34.0785 43.4734 31.6296C43.4734 31.0601 42.6193 31.0601 42.6193 31.6296Z" fill="#E8E8E8"/>
<path d="M43.0463 39.2611C44.783 39.2611 46.4911 39.2611 48.2278 39.2611C48.7687 39.2611 48.7687 38.4068 48.2278 38.4068C46.4911 38.4068 44.783 38.4068 43.0463 38.4068C42.5054 38.4068 42.5054 39.2611 43.0463 39.2611Z" fill="#E8E8E8"/>
<path d="M43.331 32.0567C44.8684 32.0567 46.3773 32.0567 47.9146 32.0567C48.4556 32.0567 48.4556 31.2025 47.9146 31.2025C46.3773 31.2025 44.8684 31.2025 43.331 31.2025C42.7901 31.2025 42.7901 32.0567 43.331 32.0567Z" fill="#E8E8E8"/>
<path d="M47.6015 31.5157C47.6015 33.8507 47.6015 36.1857 47.6015 38.5492C47.6015 39.0902 48.4556 39.0902 48.4556 38.5492C48.4556 36.2142 48.4556 33.8792 48.4556 31.5157C48.4556 30.9746 47.6015 30.9746 47.6015 31.5157Z" fill="#E8E8E8"/>
<path d="M54.6904 31.5157C54.605 33.3666 54.5481 35.2175 54.5481 37.0685C54.5481 37.6095 55.4022 37.6095 55.4022 37.0685C55.4022 35.2175 55.4591 33.3666 55.5445 31.5157C55.573 30.9746 54.7189 30.9746 54.6904 31.5157Z" fill="#E8E8E8"/>
<path d="M55.0606 31.715C56.9396 31.5157 58.8186 31.2879 60.6976 31.0885C61.2385 31.0316 61.2385 30.1773 60.6976 30.2343C58.8186 30.4336 56.9396 30.6614 55.0606 30.8607C54.5196 30.9177 54.4912 31.772 55.0606 31.715Z" fill="#E8E8E8"/>
<path d="M60.4129 30.8323C60.2136 32.7401 60.2705 34.6195 60.6122 36.4989C60.6976 37.04 61.5232 36.8122 61.4378 36.2711C61.1246 34.4487 61.0677 32.6547 61.267 30.8323C61.3239 30.2912 60.4698 30.2912 60.4129 30.8323Z" fill="#E8E8E8"/>
<path d="M55.3453 37.8088C57.2243 37.5241 59.1033 37.2393 60.9823 36.9546C61.5232 36.8691 61.2954 36.0433 60.7545 36.1288C58.8755 36.4135 56.9965 36.6983 55.1175 36.983C54.5766 37.0685 54.8043 37.8658 55.3453 37.8088Z" fill="#E8E8E8"/>
<path d="M45.1246 39.5174C44.0712 41.112 43.1602 42.7921 42.3346 44.5006C42.1068 44.9847 42.847 45.4403 43.0748 44.9278C43.9004 43.1907 44.8399 41.5391 45.8648 39.9445C46.1495 39.4889 45.4093 39.0618 45.1246 39.5174Z" fill="#E8E8E8"/>
<path d="M45.3808 39.8591C46.4342 41.2829 47.3452 42.7636 48.1139 44.3298C48.3702 44.8139 49.1104 44.3867 48.8541 43.9026C48.057 42.3365 47.146 40.8273 46.121 39.432C45.8079 38.9763 45.0677 39.4035 45.3808 39.8591Z" fill="#E8E8E8"/>
<path d="M40.7972 45.6112C41.3951 45.6112 41.9929 45.6112 42.6193 45.6397C42.904 45.6397 43.1602 45.6681 43.4449 45.6966C43.9573 45.7251 43.9004 45.5542 43.9858 46.0099C44.1851 47.0919 43.9573 48.4872 43.8719 49.5978C43.815 50.1388 44.6691 50.1388 44.726 49.5978C44.783 48.7435 44.8399 47.8608 44.8399 47.0065C44.8399 46.5224 44.9822 45.7251 44.726 45.2695C44.4698 44.8423 43.8719 44.8993 43.4449 44.8708C42.5623 44.8139 41.6798 44.7854 40.7972 44.7854C40.2563 44.7569 40.2563 45.6112 40.7972 45.6112Z" fill="#E8E8E8"/>
<path d="M40.2278 45.5827C40.3132 46.5794 40.3986 47.5475 40.484 48.5442C40.541 49.3415 40.4271 50.509 40.7402 51.2779C40.8541 51.5911 40.9965 51.705 41.3096 51.762C42.0499 51.9043 43.1602 51.5341 43.9004 51.4202C44.4413 51.3348 44.2136 50.5375 43.6726 50.5944C43.1602 50.6514 42.363 50.9646 41.879 50.8507C41.3381 50.7083 41.452 49.968 41.4235 49.3985C41.3096 48.1171 41.1958 46.8641 41.0819 45.5827C41.0249 45.0417 40.1709 45.0132 40.2278 45.5827Z" fill="#E8E8E8"/>
<path d="M46.662 45.4688C46.605 46.2946 46.5766 47.1489 46.605 47.9747C46.605 48.174 46.8613 50.0534 46.7758 50.1104C46.9182 50.0819 47.0605 50.0249 47.2029 49.9965C47.1744 49.9965 47.146 49.968 47.089 49.968C47.2029 50.1104 47.2883 50.2527 47.4022 50.3666C47.4022 50.3382 47.4022 50.3097 47.4022 50.2527C47.2883 50.3951 47.2029 50.5375 47.089 50.6514C47.1175 50.6514 47.146 50.6514 47.1744 50.6229C47.7153 50.509 47.4876 49.6832 46.9467 49.7971C46.9182 49.7971 46.8897 49.7971 46.8613 49.8256C46.662 49.8541 46.5481 50.0534 46.5481 50.2243C46.5481 50.2527 46.5481 50.2812 46.5481 50.3382C46.5481 50.509 46.6904 50.7083 46.8613 50.7368C47.6015 50.8792 47.6015 50.1958 47.573 49.6547C47.4591 48.231 47.4022 46.8356 47.5161 45.3834C47.5445 44.8993 46.6904 44.9278 46.662 45.4688Z" fill="#E8E8E8"/>
<path d="M47.1744 45.6681C47.1744 45.4688 48.9965 45.4119 49.2527 45.4403C49.9645 45.5542 49.8221 45.6112 49.936 46.1238C50.0214 46.4655 49.9075 46.9496 49.8791 47.2913C49.8506 48.0032 49.8506 48.6866 49.8791 49.3985C49.8791 49.7971 50.1637 50.9931 49.9645 51.2779C50.1637 51.2209 50.363 51.164 50.5623 51.1355C50.5339 51.1355 50.5054 51.107 50.4769 51.107C50.5339 51.2779 50.6193 51.4203 50.6762 51.5911C50.6762 51.5626 50.7047 51.5342 50.7047 51.5057C50.847 50.9646 50.0214 50.7368 49.8791 51.2779C49.8791 51.3063 49.8506 51.3348 49.8506 51.3633C49.7936 51.5342 49.879 51.762 50.0499 51.8474C50.0783 51.8474 50.1068 51.8759 50.1353 51.8759C50.363 51.9613 50.5908 51.9328 50.7331 51.7335C50.9324 51.4487 50.847 51.164 50.8186 50.8223C50.7901 50.0534 50.7331 49.2561 50.7331 48.4872C50.7331 47.7184 50.7616 46.9211 50.7901 46.1522C50.8186 45.8105 50.904 45.3549 50.6762 45.0417C50.1922 44.3867 48.6548 44.5861 48.0285 44.6715C47.3168 44.7569 46.3773 44.8424 46.3203 45.6966C46.3203 46.2092 47.1744 46.2092 47.1744 45.6681Z" fill="#E8E8E8"/>
<path d="M47.2598 51.4487C48.1139 51.3918 48.968 51.4772 49.7936 51.6765C50.3346 51.8189 50.5623 50.9931 50.0214 50.8507C49.1104 50.5944 48.1993 50.509 47.2598 50.566C46.6904 50.6229 46.6904 51.4772 47.2598 51.4487Z" fill="#E8E8E8"/>
<path d="M57.9645 37.9797C57.2812 39.4889 56.6833 41.0551 56.1424 42.6212C55.9716 43.1338 56.7972 43.3616 56.968 42.849C57.4805 41.3398 58.0499 39.8591 58.7047 38.4068C58.9324 37.8943 58.1922 37.4671 57.9645 37.9797Z" fill="#E8E8E8"/>
<path d="M53.6086 44.7284C55.0321 44.3298 56.484 44.1304 57.9929 44.1874C58.5339 44.2159 58.5339 43.3616 57.9929 43.3331C56.4271 43.2762 54.8897 43.4755 53.3808 43.9026C52.8399 44.045 53.0677 44.8708 53.6086 44.7284Z" fill="#E8E8E8"/>
<path d="M53.5801 44.3298C53.3239 45.1271 53.5232 45.8675 53.6086 46.6648C53.694 47.633 53.694 48.5727 53.6655 49.5408C53.6086 50.7938 53.9218 50.9362 55.1744 50.8223C56.0285 50.7368 57.1958 50.9646 57.5089 50.0249C57.7936 49.1137 57.7082 47.8893 57.7936 46.9211C57.8791 45.8959 57.9929 44.8423 58.0783 43.8172C58.1353 43.2762 57.2812 43.2762 57.2242 43.8172C57.1104 45.0132 56.9965 46.2377 56.8826 47.4336C56.8257 47.9177 56.8541 48.5157 56.7403 48.9998C56.5694 49.7971 56.484 49.8541 55.6584 49.9395C55.4022 49.968 55.1744 49.9965 54.9182 50.0249C54.4342 50.1958 54.2919 50.0534 54.4912 49.5693C54.3773 49.1707 54.5481 48.5442 54.5196 48.1171C54.4912 47.035 54.0641 45.5827 54.3773 44.5576C54.5766 44.0165 53.7509 43.7887 53.5801 44.3298Z" fill="#E8E8E8"/>
<path d="M59.1602 38.777C59.815 39.7737 60.3844 40.8273 60.9253 41.9093C61.1531 42.3934 61.8933 41.9663 61.6655 41.4822C61.1531 40.4001 60.5552 39.375 59.9004 38.3499C59.5872 37.8658 58.847 38.2929 59.1602 38.777Z" fill="#E8E8E8"/>
<path d="M60.1282 43.1623C61.5517 43.1623 62.9752 43.1623 64.3986 43.1623C64.9396 43.1623 64.9396 42.308 64.3986 42.308C64.3132 42.308 64.2278 42.308 64.1424 42.308C63.6015 42.308 63.6015 43.1623 64.1424 43.1623C64.2278 43.1623 64.3132 43.1623 64.3986 43.1623C64.9396 43.1623 64.9396 42.308 64.3986 42.308C62.9752 42.308 61.5517 42.308 60.1282 42.308C59.5588 42.308 59.5588 43.1623 60.1282 43.1623Z" fill="#E8E8E8"/>
<path d="M59.7011 43.1338C59.815 44.2159 59.9004 45.298 59.9289 46.38C59.9574 47.1489 59.7011 48.4588 60.0428 49.1707C60.2421 49.5978 60.4983 49.6547 60.9538 49.6547C62.0072 49.6263 63.146 49.37 64.1993 49.2276C64.3702 49.1991 64.5125 48.9713 64.5125 48.829C64.484 46.8926 64.4556 44.9847 64.4271 43.0484C64.4271 42.5073 63.573 42.5073 63.573 43.0484C63.6015 44.9847 63.63 46.8926 63.6584 48.829C63.7723 48.6866 63.8577 48.5442 63.9716 48.4303C63.2883 48.5157 62.605 48.6011 61.9218 48.715C61.694 48.7435 61.0392 48.9429 60.8399 48.772C60.6976 48.6581 60.8399 47.7753 60.8399 47.6045C60.8114 46.1238 60.726 44.643 60.5837 43.1908C60.4983 42.5928 59.6442 42.5928 59.7011 43.1338Z" fill="#E8E8E8"/>
<path d="M28.0997 45.4688C29.5801 44.102 31.089 42.8206 32.7118 41.6531C33.1388 41.3398 32.7118 40.5995 32.2847 40.9127C30.605 42.1371 29.0107 43.447 27.5018 44.8708C27.1032 45.241 27.7011 45.839 28.0997 45.4688Z" fill="#E8E8E8"/>
<path d="M32.4555 41.2829C33.3096 42.5073 34.0214 43.7887 34.5908 45.1271C34.8185 45.6397 35.5588 45.184 35.331 44.7C34.7331 43.3331 34.0214 42.0517 33.1958 40.8557C32.8826 40.4001 32.1424 40.8273 32.4555 41.2829Z" fill="#E8E8E8"/>
<path d="M24.3132 47.035C25.0819 46.978 25.8221 46.9211 26.5908 46.8641C26.9324 46.8356 27.3025 46.7502 27.6157 46.7787C28.0143 46.6363 28.1281 46.6648 27.9573 46.8926C27.8434 47.0634 27.7865 47.2343 27.815 47.4336C27.5018 48.8289 27.4449 50.3097 27.3879 51.7335C27.6442 51.6196 27.8719 51.5341 28.1281 51.4202C28.0997 51.3918 28.0712 51.3633 28.0427 51.3063C27.6726 50.9077 27.0748 51.5057 27.4449 51.9043C27.4733 51.9328 27.5018 51.9613 27.5303 52.0182C27.7865 52.303 28.242 52.0752 28.2705 51.705C28.299 50.4805 28.4128 49.2561 28.5837 48.0601C28.6691 47.5475 29.0392 46.6933 28.726 46.1807C28.4698 45.782 28.0427 45.8675 27.6442 45.8959C26.5338 45.9814 25.452 46.0668 24.3417 46.1522C23.7723 46.2377 23.7723 47.0919 24.3132 47.035Z" fill="#E8E8E8"/>
<path d="M24.8826 46.2092C24.8541 46.2092 24.8256 46.2092 24.7687 46.2092C24.6264 46.2092 24.484 46.2946 24.3986 46.4085C23.9431 47.1774 23.9716 48.5157 23.8292 49.3985C23.6299 50.6514 23.4306 51.9043 23.2313 53.1573C23.2029 53.3851 23.2883 53.6414 23.516 53.6698C24.8541 53.9546 26.1068 53.8976 27.3879 53.4136C27.9004 53.2142 27.6726 52.3884 27.1602 52.5878C26.0214 53.0149 24.9395 53.1003 23.7438 52.844C23.8292 53.0149 23.9431 53.1857 24.0285 53.3566C24.1139 52.7871 25.1103 47.0635 24.8256 47.035C25.4235 47.1204 25.4235 46.2661 24.8826 46.2092Z" fill="#E8E8E8"/>
<path d="M32.6264 46.0668L32.5979 46.0953C32.7972 46.0953 32.9965 46.0953 33.1958 46.0953C33.1673 46.0953 33.1673 46.0668 33.1388 46.0668C33.1388 46.2661 33.1388 46.4655 33.1388 46.6648C33.1673 46.6363 33.6797 46.6363 33.7936 46.6363C34.1068 46.6078 34.4484 46.5794 34.7616 46.5794C35.3595 46.5509 35.9573 46.5794 36.5552 46.6363C36.4413 46.38 36.3559 46.1522 36.242 45.8959C36.1851 45.9244 36.1281 45.9814 36.0997 46.0098C35.5588 46.0668 35.5588 46.9211 36.0997 46.8641C36.4128 46.8356 36.6406 46.7502 36.8684 46.4939C37.1246 46.2092 36.9538 45.782 36.5552 45.7536C35.7296 45.6966 34.9039 45.6681 34.0783 45.7251C33.6797 45.7536 32.8541 45.6681 32.5694 46.0383C32.4271 46.2092 32.3701 46.4939 32.5694 46.6363C32.5979 46.6363 32.5979 46.6648 32.6264 46.6648C32.7972 46.8072 33.0819 46.8641 33.2242 46.6648L33.2527 46.6363C33.5943 46.2661 32.9965 45.6681 32.6264 46.0668Z" fill="#E8E8E8"/>
<path d="M32.2847 46.2661C32.1993 47.4336 32.1139 48.6011 32.057 49.7686C32.0285 50.4236 31.6584 52.1037 32.057 52.7016C32.2563 52.9864 32.4555 53.1003 32.8257 53.0718C33.1958 53.0718 33.5943 52.8156 33.936 52.7301C34.6193 52.5308 35.331 52.4738 36.0427 52.4738C36.5837 52.4738 36.5837 51.6196 36.0427 51.6196C35.4164 51.6196 34.7901 51.6765 34.1637 51.8189C33.879 51.8759 33.3381 52.1891 33.0819 52.1321C32.8826 52.2745 32.7972 52.246 32.8541 52.0182C32.8257 51.7904 32.8257 51.5626 32.8541 51.3063C32.8826 49.6547 33.0249 47.9747 33.1388 46.3231C33.1958 45.6966 32.3417 45.6966 32.2847 46.2661Z" fill="#E8E8E8"/>
<path d="M35.9573 46.3515C35.7296 48.2594 35.6157 50.1673 35.6442 52.1037C35.6442 52.6447 36.4983 52.6447 36.4983 52.1037C36.4698 50.1673 36.5837 48.2594 36.8114 46.3515C36.8968 45.8105 36.0427 45.8105 35.9573 46.3515Z" fill="#E8E8E8"/>
<path d="M263.374 165.807C270.093 180.586 274.79 196.191 277.381 212.223C277.466 212.764 278.292 212.536 278.207 211.995C275.587 195.906 270.861 180.216 264.114 165.38C263.886 164.896 263.146 165.323 263.374 165.807Z" fill="#E8E8E8"/>
<path d="M298.819 140.806C290.506 153.506 283.274 166.889 278.15 181.213C277.95 181.725 278.776 181.953 278.975 181.441C284.071 167.174 291.274 153.876 299.559 141.233C299.844 140.777 299.103 140.35 298.819 140.806Z" fill="#E8E8E8"/>
<path d="M260.47 181.412C265.082 182.665 269.039 185.513 271.687 189.499C272 189.955 272.74 189.528 272.427 189.072C269.666 184.915 265.538 181.896 260.698 180.586C260.157 180.444 259.929 181.27 260.47 181.412Z" fill="#E8E8E8"/>
<path d="M271.573 169.595C270.007 172.186 268.954 175.005 268.527 178.023C268.442 178.565 269.267 178.792 269.353 178.251C269.78 175.318 270.776 172.556 272.313 170.022C272.598 169.566 271.858 169.139 271.573 169.595Z" fill="#E8E8E8"/>
<path d="M280.427 153.591C281.822 155.129 282.79 156.894 283.531 158.802C283.872 159.657 284.157 160.539 284.413 161.394C284.669 162.219 285.267 163.444 284.926 164.27C284.726 164.782 285.552 165.01 285.751 164.497C286.093 163.672 285.751 162.846 285.495 162.049C285.153 160.881 284.783 159.714 284.328 158.575C283.531 156.524 282.477 154.616 280.997 152.965C280.655 152.566 280.057 153.164 280.427 153.591Z" fill="#E8E8E8"/>
<path d="M290.079 156.866C293.637 152.765 298.249 149.861 303.488 148.437C304.029 148.295 303.801 147.469 303.26 147.611C297.908 149.064 293.125 152.054 289.481 156.24C289.139 156.667 289.737 157.293 290.079 156.866Z" fill="#E8E8E8"/>
<path d="M280.029 179.732C282.591 177.454 285.609 175.859 288.797 174.663C290.249 174.122 291.701 173.695 293.182 173.268C294.007 173.04 294.805 172.841 295.63 172.613C296.029 172.528 297.708 171.844 298.022 172.015C297.965 171.816 297.908 171.616 297.879 171.417C297.851 171.446 297.851 171.474 297.822 171.503C298.022 171.446 298.221 171.389 298.42 171.36C298.392 171.36 298.363 171.332 298.335 171.332C297.851 171.075 297.424 171.816 297.908 172.072C297.936 172.072 297.965 172.101 297.993 172.101C298.192 172.214 298.449 172.157 298.591 171.958C298.619 171.93 298.619 171.901 298.648 171.873C298.762 171.673 298.705 171.417 298.506 171.275C298.107 171.047 297.68 171.246 297.253 171.332C296.285 171.559 295.317 171.787 294.349 172.044C292.498 172.528 290.648 173.069 288.826 173.695C285.41 174.92 282.164 176.6 279.459 179.049C279.032 179.476 279.63 180.102 280.029 179.732Z" fill="#E8E8E8"/>
<path d="M265.509 214.871C271.972 216.437 278.548 215.27 285.011 214.501C292.015 213.675 299.047 213.533 306.079 213.419C306.619 213.419 306.619 212.565 306.079 212.565C299.217 212.678 292.356 212.821 285.552 213.59C278.975 214.359 272.285 215.64 265.737 214.045C265.224 213.903 264.997 214.729 265.509 214.871Z" fill="#E8E8E8"/>
<path d="M285.894 212.451C297.395 211.853 308.897 211.226 320.399 210.628C320.94 210.6 320.94 209.745 320.399 209.774C308.897 210.372 297.395 210.998 285.894 211.596C285.353 211.625 285.353 212.479 285.894 212.451Z" fill="#E8E8E8"/>
<path d="M252.954 130.241C250.135 130.782 246.691 128.077 246.776 125.087C246.89 121.698 251.132 120.559 253.837 120.531C256.826 120.531 258.933 122.837 258.221 125.856C257.908 127.166 257.082 128.248 256.057 129.074C255.459 129.558 253.039 131.323 252.356 130.469C252.014 130.042 251.417 130.64 251.758 131.067C252.669 132.206 254.548 131.038 255.516 130.497C256.997 129.615 258.335 128.276 258.904 126.625C260.043 123.293 258.022 119.961 254.52 119.705C251.189 119.449 246.036 120.987 245.95 125.087C245.893 128.675 249.822 131.693 253.21 131.067C253.723 130.982 253.495 130.156 252.954 130.241Z" fill="#E8E8E8"/>
<path d="M34.42 143.653C33.3666 144.849 32.4555 146.159 31.6869 147.583C31.4306 148.067 32.1709 148.494 32.4271 148.01C33.1673 146.672 34.0214 145.419 35.0463 144.251C35.3879 143.853 34.7901 143.226 34.42 143.653Z" fill="#121826"/>
<path d="M34.3915 143.995C35.2456 145.191 36.0997 146.358 36.9538 147.554C37.2669 148.01 38.0072 147.583 37.694 147.127C36.8399 145.931 35.9858 144.764 35.1317 143.568C34.7901 143.112 34.0499 143.539 34.3915 143.995Z" fill="#121826"/>
<path d="M34.3346 145.675C34.5908 155.727 34.8185 165.779 35.0748 175.859C35.0748 176.4 35.9289 176.4 35.9289 175.859C35.6726 165.807 35.4449 155.755 35.1886 145.675C35.1602 145.134 34.3061 145.105 34.3346 145.675Z" fill="#121826"/>
<path d="M36.0143 176.657C48.6548 176.657 61.2954 176.657 73.936 176.657C74.4769 176.657 74.4769 175.802 73.936 175.802C61.2954 175.802 48.6548 175.802 36.0143 175.802C35.4733 175.802 35.4733 176.657 36.0143 176.657Z" fill="#121826"/>
<path d="M72.2848 175.802C73.1673 176.144 74.0214 176.486 74.904 176.827C74.7901 176.514 74.6478 176.201 74.5339 175.888C74.1068 176.657 73.509 177.255 72.7688 177.71C72.057 178.137 72.7118 179.248 73.4236 178.821C74.3631 178.28 75.1317 177.482 75.6727 176.543C75.9004 176.144 75.6727 175.745 75.3026 175.603C74.42 175.261 73.5659 174.92 72.6833 174.578C71.8577 174.265 71.5161 175.489 72.2848 175.802Z" fill="#121826"/>
<path d="M290.933 22.0048C289.794 20.4956 291.417 18.189 293.182 19.3281C293.979 19.8406 294.349 20.8942 293.78 21.72C293.267 22.4604 292.214 22.7736 291.417 22.375C290.933 22.1187 290.506 22.859 290.99 23.1153C292.157 23.6848 293.58 23.3431 294.406 22.318C295.289 21.2075 294.975 19.6413 293.894 18.787C292.84 17.9612 291.36 17.9612 290.449 18.9863C289.623 19.926 289.481 21.4353 290.249 22.4604C290.506 22.859 291.246 22.4319 290.933 22.0048Z" fill="#33D49E"/>
<path d="M314.62 130.298C314.563 128.96 315.559 128.049 316.869 128.049C317.41 128.049 317.837 128.191 318.349 127.963C319.317 127.536 319.687 126.425 320 125.486C320.456 124.119 320.797 123.464 322.506 123.891C322.961 124.005 323.246 124.233 323.73 124.062C325.153 123.521 324.299 121.072 326.463 121.471C327.004 121.585 327.232 120.759 326.691 120.645C326.007 120.502 325.353 120.559 324.755 120.987C324.214 121.385 324.157 121.869 323.844 122.382C323.815 122.923 323.445 123.151 322.762 123.065C322.62 122.98 322.449 122.894 322.306 122.837C321.993 122.809 321.822 122.638 321.481 122.667C320.854 122.695 320.37 123.094 320 123.549C319.459 124.204 319.317 125.002 319.004 125.799C318.691 126.596 318.378 127.166 317.41 127.251C316.982 127.28 316.584 127.137 316.157 127.194C314.648 127.422 313.68 128.817 313.737 130.298C313.794 130.868 314.648 130.868 314.62 130.298Z" fill="#33D49E"/>
<path d="M44.5267 175.034C48.541 166.975 49.1673 157.891 51.5303 149.32C52.1282 147.127 52.726 144.564 54.3773 142.913C56.7972 140.492 59.8719 142.201 60.8684 145.049C61.6086 147.213 61.6371 149.719 61.7794 151.997C61.9218 154.446 62.0356 156.894 62.178 159.343C62.4912 164.583 63.0321 169.851 64.7972 174.834C64.968 175.347 65.7937 175.119 65.6228 174.606C63.7723 169.367 63.2598 163.814 62.9752 158.29C62.8328 155.585 62.7189 152.851 62.5196 150.146C62.3488 147.982 62.2634 145.618 61.2385 143.653C60.4413 142.116 58.904 140.863 57.1104 140.863C55.2598 140.863 53.7225 142.144 52.783 143.625C51.5588 145.59 50.9894 148.067 50.42 150.288C49.7936 152.765 49.2812 155.271 48.7687 157.777C47.6299 163.529 46.4627 169.31 43.815 174.606C43.5303 175.09 44.2705 175.518 44.5267 175.034Z" fill="#33D49E"/>
<path d="M48.4271 139.724C47.8577 138.898 49.025 137.787 49.7082 138.698C50.363 139.553 49.1388 140.407 48.4556 139.752C48.057 139.382 47.4591 139.98 47.8577 140.35C48.4556 140.92 49.4235 140.977 50.1068 140.492C50.8755 139.951 50.9609 138.926 50.3915 138.186C49.8221 137.446 48.7687 137.246 48.057 137.873C47.4306 138.442 47.2314 139.439 47.7153 140.151C48 140.606 48.7403 140.179 48.4271 139.724Z" fill="#33D49E"/>
<path d="M54.7189 135.936C54.2634 135.281 55.2598 134.683 55.6869 135.367C56.1424 136.107 54.8613 136.933 54.4342 136.107C54.178 135.623 53.4662 136.05 53.694 136.534C54.0641 137.303 55.0605 137.502 55.7723 137.075C56.5125 136.648 56.8541 135.68 56.3986 134.911C56 134.256 55.0605 133.915 54.3773 134.342C53.7225 134.769 53.4947 135.68 53.9218 136.335C54.2919 136.819 55.0321 136.392 54.7189 135.936Z" fill="#33D49E"/>
<path d="M52.242 129.672C52.0143 129.017 52.726 128.333 53.2954 128.874C53.8648 129.415 53.21 130.184 52.5552 129.956C52.0427 129.786 51.815 130.611 52.3274 130.782C53.8079 131.266 55.0605 129.387 53.8933 128.276C53.3808 127.764 52.5837 127.678 51.9858 128.105C51.4449 128.504 51.1602 129.245 51.4164 129.899C51.6157 130.412 52.4413 130.213 52.242 129.672Z" fill="#33D49E"/>
<path d="M63.1175 137.275C63.0321 137.218 63.146 137.303 63.1744 137.36C63.1744 137.389 63.1744 137.417 63.1744 137.446C63.1744 137.474 63.1744 137.474 63.1744 137.417V137.446C63.2314 137.417 63.1744 137.446 63.1744 137.446C63.146 137.446 63.2598 137.446 63.2883 137.446C63.3737 137.446 63.4591 137.474 63.5445 137.502C63.4307 137.36 63.3453 137.218 63.2314 137.104C63.2314 137.332 63.2314 137.559 63.2314 137.787C63.3453 137.645 63.4307 137.502 63.5445 137.389C63.3168 137.474 63.089 137.502 62.8613 137.446C62.3488 137.275 62.1211 138.1 62.6335 138.271C63.0036 138.385 63.4307 138.385 63.7723 138.214C63.9431 138.129 64.0855 138.015 64.0855 137.816C64.0855 137.588 64.0855 137.36 64.0855 137.132C64.0855 136.933 63.9431 136.762 63.7723 136.734C63.3168 136.62 62.7759 136.563 62.4912 137.018C62.2634 137.36 62.2919 137.901 62.7189 138.072C62.9182 138.186 63.1744 138.129 63.3168 137.93C63.4022 137.673 63.3453 137.389 63.1175 137.275Z" fill="#33D49E"/>
<path d="M110.662 23.9127C110.804 23.9696 110.491 25.3934 110.634 25.7351C110.833 26.1622 111.288 26.4185 111.744 26.4755C112.37 26.5894 112.911 26.3046 113.424 25.9914C113.936 25.6782 115.16 24.5961 115.53 25.7921C115.616 26.0483 115.331 26.6748 115.416 27.0165C115.673 28.1556 116.755 28.0986 117.523 27.5006C117.808 27.2728 117.979 26.988 118.207 26.7318C118.491 26.0483 118.918 25.906 119.459 26.3046C119.459 26.4755 119.488 26.6463 119.545 26.7887C119.829 27.2159 119.972 27.5006 120.541 27.4721C121.082 27.4437 121.082 26.5894 120.541 26.6179C120.57 26.6179 119.943 25.3365 119.602 25.1941C119.203 25.0232 118.747 25.1656 118.377 25.3934C118.121 25.5358 117.922 25.7636 117.723 25.9629C117.295 26.3901 117.324 27.0165 116.641 26.5894C115.986 26.1907 116.527 25.5643 116.071 24.9947C115.331 24.055 114.078 24.5676 113.281 25.0802C112.826 25.3649 111.687 26.3901 111.402 24.8808C111.374 24.6815 111.545 24.3683 111.545 24.1689C111.545 23.7133 111.459 23.4571 111.061 23.2577C110.605 22.916 110.178 23.6564 110.662 23.9127Z" fill="#33D49E"/>
<path d="M80.8826 90.5175C81.2243 94.5041 81.5659 98.4907 81.936 102.477C81.993 103.018 82.7332 103.018 82.7901 102.477C82.7901 102.392 82.8186 102.278 82.8186 102.193C82.8755 101.651 82.0214 101.651 81.9645 102.193C81.9645 102.278 81.936 102.392 81.936 102.477C82.2207 102.477 82.5054 102.477 82.7901 102.477C82.4485 98.4907 82.1068 94.5041 81.7367 90.5175C81.6798 89.9764 80.8257 89.9479 80.8826 90.5175Z" fill="#33D49E"/>
<path d="M81.5374 90.8307C82.7332 90.5744 84.8115 90.2042 85.7225 91.2009C86.5481 92.0836 86.3488 93.8207 86.4627 95.0166C86.662 97.4086 86.8613 99.8006 87.0606 102.164C87.1175 102.705 87.9716 102.705 87.9147 102.164C87.63 98.747 87.6015 95.159 87.0321 91.7704C86.6051 89.1222 83.3026 89.6062 81.3097 90.0049C80.7688 90.1188 80.9965 90.9446 81.5374 90.8307Z" fill="#33D49E"/>
<path d="M88.8257 74.7704C89.7367 83.8826 90.0499 93.0233 89.7652 102.193C89.7367 102.734 90.5908 102.734 90.6193 102.193C90.904 93.0518 90.5908 83.8826 89.6798 74.7704C89.6229 74.2293 88.7688 74.2009 88.8257 74.7704Z" fill="#33D49E"/>
<path d="M89.8506 74.7704C91.0179 74.9412 92.4414 74.9412 93.5232 75.3399C94.9752 75.8524 94.7474 78.4722 94.8898 79.8106C95.146 82.4019 95.3168 84.9932 95.4876 87.5845C95.8008 92.9664 95.9147 98.3483 96.0286 103.73C96.0286 104.271 96.8827 104.271 96.8827 103.73C96.7403 97.5225 96.598 91.2863 96.1709 85.0786C95.9716 82.1741 95.8293 79.2411 95.3738 76.365C94.9752 73.9161 92.0428 74.2293 90.0784 73.9161C89.5375 73.8876 89.3097 74.6849 89.8506 74.7704Z" fill="#33D49E"/>
<path d="M97.0819 69.4169C98.0499 80.2377 99.0464 91.03 100.014 101.851C100.071 102.392 100.925 102.392 100.868 101.851C99.9004 91.03 98.904 80.2377 97.936 69.4169C97.9076 68.8759 97.0535 68.8759 97.0819 69.4169Z" fill="#33D49E"/>
<path d="M97.6229 69.8441C98.9894 69.5878 100.384 69.5024 101.779 69.6447C102.947 69.7586 103.772 69.9864 103.829 71.2394C103.858 71.6665 103.858 72.1221 103.858 72.5493C103.943 74.6849 104.029 76.8206 104.142 78.9563C104.513 87.1288 104.94 95.2729 105.367 103.445C105.395 103.986 106.249 103.986 106.221 103.445C105.765 94.618 105.31 85.819 104.911 76.9915C104.826 75.1406 104.74 73.3181 104.683 71.4672C104.655 70.6414 104.655 69.8156 103.886 69.2745C103.174 68.7905 102.064 68.762 101.239 68.7335C99.9574 68.6481 98.6763 68.762 97.3951 69.0183C96.8542 69.1322 97.0819 69.958 97.6229 69.8441Z" fill="#33D49E"/>
<path d="M74.7616 66.6832C73.8221 68.5342 72.9111 70.3851 71.9716 72.236C71.7154 72.7201 72.4556 73.1472 72.7118 72.6632C73.6513 70.8122 74.5623 68.9613 75.5018 67.1104C75.7296 66.6263 74.9894 66.1707 74.7616 66.6832Z" fill="#121826"/>
<path d="M74.8755 67.5375C75.2741 69.1891 76.1567 70.6414 77.4663 71.7235C77.8933 72.0652 78.4912 71.4672 78.0641 71.1255C76.8684 70.1288 76.0712 68.8474 75.7011 67.3382C75.5588 66.7687 74.7332 66.9965 74.8755 67.5375Z" fill="#121826"/>
<path d="M74.2777 67.9362C74.1068 80.4086 75.7296 92.8525 79.1175 104.869C79.2599 105.41 80.0855 105.182 79.9431 104.641C76.5837 92.7101 74.9609 80.3516 75.1317 67.9362C75.1317 67.3951 74.2777 67.3951 74.2777 67.9362Z" fill="#121826"/>
<path d="M80.1424 105.61C86.8044 104.983 93.4948 104.641 100.185 104.613C106.42 104.584 113.167 104.328 118.918 107.147C119.402 107.375 119.829 106.663 119.345 106.407C113.765 103.673 107.388 103.73 101.295 103.759C94.235 103.759 87.1745 104.1 80.1424 104.755C79.6015 104.812 79.6015 105.667 80.1424 105.61Z" fill="#121826"/>
<path d="M115.416 104.214C116.954 105.154 118.434 106.179 119.801 107.318C119.829 107.09 119.858 106.863 119.886 106.635C118.719 107.517 117.58 108.4 116.413 109.283C115.986 109.625 116.413 110.365 116.84 110.023C118.007 109.141 119.146 108.258 120.313 107.375C120.513 107.233 120.626 106.891 120.399 106.692C118.947 105.496 117.438 104.414 115.844 103.474C115.36 103.218 114.932 103.93 115.416 104.214Z" fill="#121826"/>
<path d="M76.9253 82.3734C77.3524 82.886 77.7794 83.3985 78.2065 83.9111C78.3773 84.1104 78.7474 84.0535 78.8898 83.8257C81.1673 79.355 83.4165 74.8558 85.7225 70.3851C86.3204 69.2461 87.146 70.1858 88.0001 70.499C88.541 70.6983 89.1104 70.6414 89.6513 70.4421C91.0179 69.9295 91.9289 68.5057 92.5552 67.2528C93.5802 65.1171 94.4912 62.896 95.4876 60.7318C95.7439 60.1338 96.0286 59.5358 96.2848 58.9663C96.4271 58.6246 96.598 57.9127 96.8827 57.6564C97.7652 56.8591 99.9289 58.6816 100.669 59.1372C101.893 59.8775 103.658 61.5291 105.253 61.102C106.449 60.7888 107.018 59.4789 107.36 58.3968C109.011 53.5274 111.118 49.1137 114.363 45.0986C114.619 44.7854 114.392 44.2443 113.936 44.3867C112.456 44.8708 111.118 45.6112 109.893 46.5509C109.495 46.8641 110.007 47.4336 110.406 47.2343C111.516 46.6933 112.655 46.1238 113.765 45.5827C113.566 45.4973 113.338 45.4119 113.139 45.3264C113.481 47.035 113.822 48.7435 114.135 50.4521C114.249 50.9931 115.075 50.7653 114.961 50.2243C114.619 48.5157 114.278 46.8072 113.965 45.0986C113.908 44.8139 113.566 44.7284 113.338 44.8423C112.228 45.3834 111.089 45.9529 109.979 46.4939C110.15 46.7217 110.32 46.9495 110.491 47.1774C111.602 46.2946 112.797 45.6681 114.164 45.2125C114.021 44.9847 113.879 44.7284 113.737 44.5006C111.26 47.576 109.21 50.9646 107.73 54.638C107.331 55.6062 106.989 56.6028 106.676 57.5995C106.42 58.3968 106.021 60.1053 104.968 60.2762C103.772 60.4755 102.235 59.1087 101.267 58.5107C100.299 57.9127 99.3595 57.2578 98.3631 56.7167C97.2243 56.1187 96.5125 56.3465 95.9432 57.4571C94.8613 59.5928 93.9787 61.8708 92.9823 64.0635C92.2421 65.7151 91.3026 69.0467 89.2812 69.5878C87.9147 69.958 86.662 67.9077 85.4378 69.1037C84.7261 69.7871 84.356 71.0685 83.9289 71.9228C83.2741 73.2042 82.6478 74.4571 81.993 75.7385C80.7118 78.2729 79.4022 80.8072 78.1211 83.3416C78.3488 83.3131 78.5766 83.2846 78.8043 83.2561C78.3773 82.7436 77.9503 82.231 77.5232 81.7185C77.1531 81.3483 76.5552 81.9463 76.9253 82.3734Z" fill="#121826"/>
<path d="M200.854 11.6111C198.064 10.0734 196.869 6.17226 198.634 3.41011C200.427 0.59101 204.783 0.0784461 207.317 2.15718C209.908 4.32133 209.936 8.76355 207.459 11.0131C204.897 13.3766 200.598 12.7502 198.491 10.1304C198.15 9.70325 197.552 10.3012 197.893 10.7284C199.858 13.1203 203.36 13.9746 206.235 12.7786C209.025 11.6111 210.477 8.5927 210.107 5.6597C209.737 2.64126 207.488 0.391679 204.47 0.0499703C201.595 -0.291739 198.52 1.13205 197.438 3.92267C196.242 6.99806 197.58 10.7284 200.456 12.2945C200.911 12.6078 201.338 11.8674 200.854 11.6111Z" fill="#33D49E"/>
<path d="M213.21 16.8507C212.014 14.6296 215.089 12.1806 216.627 14.5726C217.993 16.6798 214.634 18.2745 213.552 16.3096C213.296 15.8255 212.555 16.2527 212.812 16.7368C213.495 17.9897 215.089 18.3314 216.342 17.7904C217.822 17.1639 218.192 15.4554 217.367 14.1455C216.513 12.7786 214.748 12.2376 213.381 13.2058C212.1 14.117 211.701 15.911 212.441 17.3063C212.755 17.7619 213.495 17.3348 213.21 16.8507Z" fill="#33D49E"/>
<path d="M198.235 232.241C220.641 232.241 243.018 232.241 265.424 232.241C265.965 232.241 265.965 231.387 265.424 231.387C243.018 231.387 220.641 231.387 198.235 231.387C197.666 231.387 197.666 232.241 198.235 232.241Z" fill="#121826"/>
<path d="M279.488 232.241C283.758 232.241 288.029 232.241 292.299 232.241C292.84 232.241 292.84 231.387 292.299 231.387C288.029 231.387 283.758 231.387 279.488 231.387C278.947 231.387 278.947 232.241 279.488 232.241Z" fill="#121826"/>
<path d="M133.694 245.169C148.584 245.169 163.502 245.169 178.392 245.169C178.933 245.169 178.933 244.315 178.392 244.315C163.502 244.315 148.584 244.315 133.694 244.315C133.153 244.315 133.153 245.169 133.694 245.169Z" fill="#121826"/>
<path d="M177.822 241.752C190.719 241.752 203.644 241.752 216.541 241.752C217.082 241.752 217.082 240.898 216.541 240.898C203.644 240.898 190.719 240.898 177.822 240.898C177.281 240.898 177.281 241.752 177.822 241.752Z" fill="#121826"/>
<path d="M73.7652 239.417C77.6656 239.417 81.5374 239.417 85.4378 239.417C86.2634 239.417 86.2634 238.136 85.4378 238.136C81.5374 238.136 77.6656 238.136 73.7652 238.136C72.9396 238.136 72.9396 239.417 73.7652 239.417Z" fill="#121826"/>
<path d="M89.4236 239.417C90.7616 239.417 92.0713 239.417 93.4093 239.417C94.235 239.417 94.235 238.136 93.4093 238.136C92.0713 238.136 90.7616 238.136 89.4236 238.136C88.5979 238.136 88.5979 239.417 89.4236 239.417Z" fill="#121826"/>
<path d="M57.1958 187.705C57.7367 187.791 58.4769 188.474 59.0463 191.72C60.726 191.834 62.4058 191.948 64.0855 192.062C65.4805 190.895 66.8755 189.727 68.2705 188.531C68.4698 189.67 68.726 191.35 68.9538 193.4C69.4663 198.156 69.1531 199.295 69.4663 201.943C69.6086 203.111 70.2634 208.037 73.3097 212.821C75.6442 216.494 77.1816 216.608 79.0036 220.196C80.4271 223.015 80.8542 225.663 81.025 227.4C81.3097 227.372 84.9253 227.087 87.2314 229.906C88.2848 231.216 89.452 233.665 88.5695 235.601C87.7154 237.481 85.751 237.196 82.1922 240.3C80.9396 241.382 79.7438 242.464 80.0285 243.318C80.3132 244.201 81.8506 244.03 84.5552 245.483C85.9787 246.251 86.662 246.65 86.8898 247.333C87.7439 249.811 82.3346 253.627 81.5374 254.196C78.9182 256.019 75.7296 257.442 75.331 256.873C74.7332 256.019 81.1673 251.32 80.1994 249.498C79.4876 248.131 75.4449 249.839 74.5054 248.33C73.4805 246.679 77.0962 242.55 79.0321 240.3C82.7616 235.972 85.1246 234.89 84.7261 233.437C84.299 231.9 81.0535 230.874 79.3737 231.928C77.9503 232.811 78.235 234.804 77.694 236.114C76.6691 238.62 71.7723 240.67 54.9182 238.791C55.146 238.335 55.4876 237.794 55.9146 237.282C57.3666 235.601 59.1887 235.003 60.0997 234.776C59.8435 234.349 58.363 231.814 59.2741 228.739C59.9574 226.404 61.5801 225.122 62.1211 224.724C60.9823 222.474 59.8435 220.025 58.7616 217.348C58.0783 215.611 57.452 213.931 56.9111 212.308C55.3168 212.308 53.4662 212.024 52.0428 210.799C49.9075 208.92 50.7616 206.613 48.541 204.933C46.4627 203.338 43.9858 204.05 43.5588 202.683C43.3595 202.029 43.758 201.26 44.1851 200.861C45.2669 199.836 47.2029 200.348 49.3097 200.918C50.7616 201.317 52.8399 202.057 55.146 203.452C54.3773 202.342 52.9823 200.007 52.8968 196.903C52.6976 192.233 55.5445 187.477 57.1958 187.705Z" fill="#121826"/>
<path d="M56.1993 208.151C54.2349 209.005 54.9751 214.786 55.6869 220.054C56.1424 223.385 56.9111 227.799 58.363 232.953C54.3773 236.029 54.5766 236.911 54.6904 237.139C55.0605 237.908 57.7082 237.452 58.5339 237.31C59.4164 237.168 60.6691 236.94 61.3808 236.484C63.4022 235.146 62.3488 231.074 61.7225 224.581C60.8114 215.184 61.8933 211.255 58.8755 209.005C58.4769 208.692 57.1673 207.724 56.1993 208.151Z" fill="#121826"/>
<path d="M36.726 219.94C36.8114 219.911 37.5516 219.541 37.5232 219.513C37.4662 219.484 37.4662 219.94 37.4662 220.054C37.4378 220.424 37.3239 220.879 37.3808 221.278C37.4947 221.848 37.9217 222.132 38.4911 222.075C38.8043 222.047 39.0321 221.905 39.2883 221.705C39.3452 221.648 39.7438 221.307 39.7723 221.307C39.8292 221.335 39.8292 221.962 39.8577 222.019C39.9716 222.56 40.3701 223.015 40.968 222.958C41.5089 222.901 41.5089 222.047 40.968 222.104C40.6833 222.132 40.5979 220.595 40.1139 220.424C39.9146 220.338 39.6869 220.395 39.5161 220.481C39.089 220.68 38.4627 221.591 38.2634 220.794C38.121 220.196 38.7189 219.342 38.178 218.829C37.6655 218.345 36.8114 218.915 36.3274 219.171C35.815 219.456 36.242 220.196 36.726 219.94Z" fill="white"/>
<path d="M56.3132 196.988C56.7972 196.533 57.6228 196.647 57.9645 197.216C58.1922 197.558 58.7332 197.245 58.5054 196.903C57.936 195.992 56.6264 195.821 55.8577 196.533C55.573 196.817 56.0285 197.273 56.3132 196.988Z" fill="white"/>
<path d="M62.4058 196.789C62.9182 196.276 63.7723 196.248 64.3132 196.732C64.6264 197.017 65.0819 196.561 64.7687 196.276C63.9716 195.536 62.7189 195.565 61.9502 196.333C61.6655 196.618 62.1211 197.074 62.4058 196.789Z" fill="white"/>
<path d="M57.4235 200.121C57.1104 200.747 55.7723 202.911 57.2243 203.082C57.8221 203.139 58.3915 202.598 58.7332 202.199C59.2171 201.63 59.5018 200.918 59.7581 200.235C59.9574 199.722 59.1317 199.494 58.9324 200.007C58.6193 200.804 58.2776 201.544 57.5944 202.114C57.452 202.228 57.3666 202.427 57.4235 202.171C57.452 202 57.5374 201.829 57.6228 201.687C57.7937 201.317 57.9645 200.946 58.1638 200.576C58.3915 200.035 57.6513 199.608 57.4235 200.121Z" fill="#33D49E"/>
<path d="M58.1922 200.576C58.5623 200.405 58.847 200.178 59.1887 199.95C59.0748 199.978 58.9609 199.978 58.847 200.007C58.8755 200.007 58.904 200.035 58.9324 200.035C58.847 199.978 58.7616 199.893 58.6762 199.836C58.6762 199.665 58.6477 199.665 58.5339 199.864C58.4485 199.95 58.3915 200.035 58.3061 200.149C58.1638 200.32 58.0499 200.491 57.936 200.662C57.6798 201.06 57.452 201.459 57.2243 201.886C56.968 202.37 57.7082 202.797 57.9645 202.313C58.2207 201.858 58.4769 201.374 58.7616 200.946C58.9894 200.605 59.4734 200.235 59.5018 199.807C59.5303 199.494 59.2741 199.209 58.9894 199.209C58.7901 199.181 58.6477 199.295 58.5054 199.409C58.2492 199.608 58.0214 199.75 57.7082 199.893C57.2812 200.035 57.7082 200.776 58.1922 200.576Z" fill="#33D49E"/>
<path d="M57.3381 200.092C58.2776 200.121 59.1602 199.437 59.331 198.498C59.388 198.099 58.7901 197.928 58.7047 198.327C58.5908 199.01 58.0214 199.494 57.3381 199.466C56.9111 199.437 56.9111 200.064 57.3381 200.092Z" fill="white"/>
<path d="M58.7901 198.298C58.904 199.437 59.9004 200.348 61.0677 200.263C61.4663 200.235 61.4663 199.58 61.0677 199.608C60.2705 199.665 59.5018 199.124 59.4164 198.298C59.388 197.9 58.7616 197.9 58.7901 198.298Z" fill="white"/>
<path d="M231.801 144.621C222.377 156.04 212.982 167.43 203.559 178.849C218.335 182.523 233.111 186.196 247.886 189.869C248.37 183.747 248.484 171.246 241.68 158.176C238.605 152.253 234.933 147.811 231.801 144.621Z" fill="#33D49E"/>
<path d="M200.797 181.156C215.716 184.915 230.662 188.645 245.58 192.404C245.409 194.796 244.926 198.127 243.502 201.829C241.822 206.271 239.459 209.489 237.751 211.482C225.452 201.374 213.125 191.265 200.797 181.156Z" fill="#33D49E"/>
<path fill-rule="evenodd" clip-rule="evenodd" d="M198.605 231.814C226.011 231.814 248.228 209.032 248.228 180.928C248.228 152.824 226.011 130.042 198.605 130.042C171.199 130.042 148.982 152.824 148.982 180.928C148.982 209.032 171.199 231.814 198.605 231.814Z" stroke="#121826" stroke-width="2.616"/>
<path d="M199.232 179.846C199.345 179.732 199.63 179.817 199.687 179.96C199.715 179.846 199.715 179.732 199.744 179.618C199.715 179.675 199.63 179.647 199.602 179.618C199.374 179.533 199.146 179.704 199.089 179.903C199.032 180.131 199.175 180.358 199.374 180.415C199.715 180.529 200.114 180.444 200.342 180.188C200.627 179.903 200.541 179.504 200.285 179.248C199.829 178.792 199.118 178.764 198.662 179.191C198.207 179.59 198.804 180.216 199.232 179.846Z" fill="#121826"/>
<path d="M229.239 141.233C220.157 154.446 210.392 167.203 200 179.419C199.659 179.846 200.256 180.444 200.598 180.017C211.046 167.744 220.84 154.958 229.979 141.66C230.292 141.204 229.552 140.777 229.239 141.233Z" fill="#121826"/>
<path d="M199.573 180.387C215.63 183.263 231.573 186.652 247.402 190.581C247.943 190.724 248.171 189.898 247.63 189.755C231.801 185.854 215.858 182.437 199.801 179.561C199.26 179.476 199.032 180.302 199.573 180.387Z" fill="#121826"/>
<path d="M199.516 180.245C211.673 191.379 224.199 202.086 237.096 212.394C237.523 212.735 238.121 212.137 237.694 211.796C224.826 201.516 212.271 190.781 200.114 179.647C199.715 179.276 199.089 179.874 199.516 180.245Z" fill="#121826"/>
<path opacity="0.21" d="M198.634 130.156C199.687 134.854 200.399 141.546 197.808 148.38C191.915 163.985 174.804 164.754 168.313 177.482C164.783 184.402 163.901 195.849 175.061 215.782C175.061 219.142 175.061 222.474 175.061 225.834C171.758 223.983 168.114 221.477 164.612 218.06C151.317 205.047 149.267 188.047 148.84 181.583C148.868 176.913 149.523 161.735 160.712 148.181C163.246 145.105 172.242 134.569 187.559 131.181C192.029 130.213 195.901 130.07 198.634 130.156Z" fill="#121826"/>
<path d="M114.363 210.002C116.328 214.957 118.292 219.883 120.228 224.838C119.061 227.4 117.267 231.188 114.79 235.715C111.545 241.638 110.007 243.632 110.52 244.23C111.26 245.084 116.071 242.948 134.747 228.967C133.58 225.72 132.384 222.446 131.217 219.114C129.509 214.273 127.858 209.489 126.235 204.734C122.306 206.499 118.349 208.265 114.363 210.002Z" fill="#121826"/>
<path d="M166.861 123.208C170.022 128.59 167.772 136.933 167.459 138.044C165.723 144.508 161.794 145.134 147.388 158.774C138.363 167.345 135.772 170.819 133.865 174.635C131.274 179.874 130.335 184.744 129.965 188.047C131.132 194.881 132.299 201.687 133.466 208.521C130.477 210.457 126.292 212.764 120.94 214.387C117.182 215.526 113.765 216.096 110.947 216.352C108.327 209.717 104.569 197.472 106.591 182.58C109.039 164.441 118.634 152.566 126.605 142.714C138.733 127.735 152.769 118.025 164.783 111.76C164.384 113.896 164.157 116.971 165.352 120.218C165.922 121.755 166.548 122.667 166.861 123.208Z" fill="#33D49E"/>
<path opacity="0.2" d="M162.135 115.491C158.577 125.116 154.306 132.576 150.434 138.186C138.904 154.958 130.392 156.325 123.587 171.901C119.231 181.868 118.292 191.379 118.007 194.796C117.295 202.74 117.922 209.489 118.719 214.444C120.313 214.387 122.306 214.159 124.498 213.533C128.74 212.308 131.758 210.173 133.495 208.663C133.011 206.357 132.299 202.94 131.502 198.754C130.42 192.945 129.879 190.012 129.879 187.933C129.879 181.811 132.47 177.198 134.577 173.524C135.573 171.787 138.477 166.975 148.641 157.663C159.374 147.839 163.844 146.131 166.662 138.926C168.342 134.626 168.313 131.209 168.285 130.099C168.029 122.61 163.815 117.37 162.135 115.491Z" fill="#121826"/>
<path opacity="0.27" d="M168.256 132.434C162.42 137.332 154.078 144.65 144.484 154.047C130.562 167.715 128.086 171.702 127.004 173.695C123.986 179.248 118.804 191.891 123.929 212.992C125.609 212.308 127.345 211.539 129.167 210.657C130.619 209.945 132.014 209.204 133.324 208.493C132.185 201.829 131.046 195.166 129.908 188.474C129.993 185.968 130.392 182.209 132.071 178.023C132.47 177.027 133.637 174.265 136.57 170.278C138.904 167.089 141.153 164.925 145.566 160.739C149.096 157.379 152.513 153.848 156.185 150.658C162.79 144.935 165.751 143.368 167.345 138.955C168.285 136.363 168.342 134 168.256 132.434Z" fill="#121826"/>
<path d="M145.708 209.375C150.036 212.707 154.363 216.039 158.691 219.37C152.94 233.95 152.94 237.737 154.107 238.392C156.043 239.503 162.392 232.64 166.007 227.6C169.224 223.072 171.103 218.829 172.185 215.868C170.42 213.618 168.399 211.283 166.15 208.891C163.046 205.588 160 202.769 157.125 200.32C153.338 203.367 149.523 206.357 145.708 209.375Z" fill="#121826"/>
<path d="M190.121 123.208C192.655 129.928 191.118 136.42 190.719 138.044C187.815 150.117 177.025 160.084 173.21 163.558C166.691 169.538 161.281 172.528 158.263 180.501C157.21 183.235 156.783 185.655 156.612 187.307C158.691 192.062 160.769 196.817 162.847 201.544C161.481 204.477 158.491 209.888 152.456 214.017C149.893 215.782 147.388 216.864 145.338 217.576C141.011 213.163 129.281 200.064 129.908 182.551C130.392 169.111 137.993 158.29 143.858 149.889C149.751 141.489 151.26 142.514 158.691 131.779C165.125 122.467 166.349 118.224 171.758 116.345C177.196 114.437 185.167 115.491 188.669 120.218C189.352 121.214 189.666 122.04 190.121 123.208Z" fill="#33D49E"/>
<path opacity="0.24" d="M176.883 121.926C177.196 124.546 177.424 129.045 176.114 134.228C171.559 151.854 154.876 153.392 146.847 172.471C145.281 176.201 141.637 185.228 144.513 195.678C146.733 203.823 151.915 209.119 154.847 211.682C155.986 211.084 157.865 209.888 159.516 207.781C161.566 205.161 162.221 202.484 162.449 201.146C160.427 196.276 158.406 191.379 156.413 186.509C156.783 184.345 157.552 181.241 159.345 177.91C161.794 173.296 164.755 170.961 168.57 167.516C175.573 161.223 180.043 157.236 183.915 151.74C186.363 148.238 189.922 143.084 191.089 135.538C192.057 129.387 191.032 124.233 190.15 121.129C185.737 121.414 181.296 121.67 176.883 121.926Z" fill="#121826"/>
<path opacity="0.25" d="M191.374 131.067C189.125 135.196 185.253 141.631 179.274 148.523C167.772 161.764 159.972 164.526 154.619 174.72C152.313 179.106 150.207 186.338 152.797 197.957C156.071 199.266 159.374 200.576 162.648 201.915C160.57 197.017 158.52 192.147 156.441 187.25C156.641 184.829 157.239 181.241 159.26 177.539C161.054 174.236 163.046 172.499 167.431 168.513C174.691 161.906 178.335 158.603 179.815 156.951C183.203 153.221 186.904 149.035 189.239 142.571C190.947 137.987 191.317 133.858 191.374 131.067Z" fill="#121826"/>
<path d="M122.078 83.5124C121.31 81.8039 119.972 79.3265 117.523 77.0769C114.449 74.2578 110.15 72.236 109.466 73.0618C109.182 73.4035 109.21 74.5995 114.392 80.3231" fill="white"/>
<path d="M122.078 83.5124C121.31 81.8039 119.972 79.3265 117.523 77.0769C114.449 74.2578 110.15 72.236 109.466 73.0618C109.182 73.4035 109.21 74.5995 114.392 80.3231" stroke="#121826" stroke-width="1.744"/>
<path d="M111.345 78.8424C110.235 79.5258 108.271 80.9781 107.217 83.484C106.819 84.4521 106.306 85.7051 106.676 87.1573C107.331 89.6632 110.349 90.7168 110.605 90.8307C111.829 91.2578 112.142 90.9446 113.025 91.4572C114.449 92.283 114.392 93.3935 115.445 94.4186C117.609 96.4974 121.993 95.6716 122.192 94.7888C122.306 94.3047 121.053 93.8491 121.167 92.9664C121.224 92.4253 121.765 92.1975 122.135 91.8558C124.128 90.0334 122.221 84.7084 121.879 83.8257C121.566 82.9999 121.082 81.8039 120.228 80.4655" fill="white"/>
<path d="M111.345 78.8424C110.235 79.5258 108.271 80.9781 107.217 83.484C106.819 84.4521 106.306 85.7051 106.676 87.1573C107.331 89.6632 110.349 90.7168 110.605 90.8307C111.829 91.2578 112.142 90.9446 113.025 91.4572C114.449 92.283 114.392 93.3935 115.445 94.4186C117.609 96.4974 121.993 95.6716 122.192 94.7888C122.306 94.3047 121.053 93.8491 121.167 92.9664C121.224 92.4253 121.765 92.1975 122.135 91.8558C124.128 90.0334 122.221 84.7084 121.879 83.8257C121.566 82.9999 121.082 81.8039 120.228 80.4655" stroke="#121826" stroke-width="1.744"/>
<path d="M106.192 86.7871C106.847 88.4957 108.1 90.0049 109.836 90.6883C111.602 91.4002 112.911 90.4605 112.94 88.5811C112.94 88.0401 112.086 88.0401 112.086 88.5811C112.057 90.7737 109.893 89.9764 108.811 89.0937C107.986 88.4387 107.388 87.556 107.018 86.5593C106.819 86.0468 105.993 86.2461 106.192 86.7871Z" fill="#121826"/>
<path d="M108.328 84.4521C109.182 86.0468 110.32 87.8123 112.086 88.4672C113.68 89.0652 114.619 88.097 114.79 86.5878C114.847 86.0468 113.993 86.0468 113.936 86.5878C113.68 88.8374 111.488 87.2712 110.719 86.4739C110.036 85.762 109.523 84.9077 109.068 84.025C108.811 83.5409 108.071 83.968 108.328 84.4521Z" fill="#121826"/>
<path d="M110.89 80.6079C111.402 81.7469 111.915 82.9144 112.626 83.9396C113.11 84.6514 113.794 85.6766 114.733 85.8474C116.954 86.2746 116.242 83.1138 115.815 82.0317C115.616 81.5191 114.79 81.7469 114.989 82.2595C115.189 82.7436 115.616 83.7402 115.445 84.2813C114.961 85.8474 113.651 83.9111 113.367 83.5124C112.655 82.4873 112.142 81.3198 111.63 80.1808C111.402 79.6682 110.662 80.0953 110.89 80.6079Z" fill="#121826"/>
<path d="M111.317 79.3265C112.171 78.8994 113.224 79.6682 113.822 80.2377C114.42 80.8072 114.819 81.5476 115.132 82.288C115.331 82.8005 116.157 82.5727 115.957 82.0602C115.246 80.2947 113.139 77.4756 110.89 78.5861C110.406 78.8139 110.833 79.5543 111.317 79.3265Z" fill="#121826"/>
<path d="M173.068 70.5844C173.979 73.2896 172.584 75.5962 168.683 82.5443C162.135 94.1054 161.737 95.1305 160.228 96.953C156.669 101.224 154.648 103.645 150.918 105.211C144.114 108.059 136.57 105.553 132.441 103.987C128.598 102.506 125.751 100.598 123.9 99.1741C122.648 98.149 121.68 97.3517 121.054 96.8676C119.744 95.814 119.146 95.3584 118.634 94.4471C118.605 94.4187 118.121 93.5359 118.007 92.5392C117.58 89.4923 120.598 86.9295 120.826 86.7302C117.21 87.5845 115.957 87.4136 115.73 86.901C115.189 85.762 119.118 81.5761 121.879 82.5158C123.189 82.9429 123.844 84.4237 124.328 85.5057C125.267 87.556 125.153 89.4639 125.039 90.432C126.776 91.628 129.253 93.0233 132.413 93.963C138.648 95.7855 144 94.8173 146.648 94.1339C148.1 91.7989 150.463 87.9831 153.338 83.2277C161.196 70.1858 163.274 66.0568 166.89 65.9998C169.594 65.9714 172.271 68.2209 173.068 70.5844Z" fill="white" stroke="#121826" stroke-width="1.744"/>
<path d="M120.57 87.4706C118.121 87.3567 117.779 90.5175 117.466 92.3114C117.751 92.3399 118.036 92.3969 118.292 92.4253C118.32 91.2863 118.833 90.3466 119.374 89.3784C119.658 88.8943 118.918 88.4672 118.634 88.9513C117.523 90.7453 116.84 92.9664 118.377 94.7319C118.577 94.5325 118.776 94.3332 118.975 94.1339C118.548 93.7637 118.32 93.2796 118.292 92.6816C118.007 92.7101 117.723 92.767 117.466 92.7955C117.609 93.2511 117.779 93.6783 118.007 94.1054C118.263 94.5895 119.004 94.1624 118.747 93.6783C118.548 93.3366 118.377 92.9664 118.292 92.5677C118.178 92.1121 117.409 92.1975 117.466 92.6816C117.552 93.5074 117.808 94.1339 118.406 94.7319C118.804 95.1305 119.374 94.5325 119.004 94.1339C117.751 92.6816 118.548 90.8307 119.402 89.3784C119.146 89.2361 118.918 89.0937 118.662 88.9513C118.036 90.0619 117.495 91.1155 117.466 92.4253C117.438 92.9094 118.235 93.0233 118.292 92.5392C118.52 91.2294 118.719 88.2679 120.57 88.3248C121.11 88.3533 121.11 87.499 120.57 87.4706Z" fill="white"/>
<path opacity="0.21" d="M168.712 67.1673C166.918 71.9797 164.014 78.8424 159.431 86.6163C154.762 94.561 152.313 98.5476 148.1 100.655C139.445 104.955 126.093 102.05 121.594 93.8207C120.228 91.3148 119.915 88.7804 119.915 86.8726C118.833 87.2428 117.153 87.6414 115.53 87.0149C111.886 85.5627 111.545 80.1238 109.609 80.1808C108.328 80.2377 107.388 82.6582 107.046 83.5409C106.733 84.3382 106.221 85.6481 106.534 87.0149C106.989 89.0367 109.125 90.6314 111.801 91.1439C113.196 91.8274 114.078 92.5962 114.619 93.1942C115.559 94.2193 115.815 95.0166 116.812 95.5007C117.694 95.9279 118.634 95.8709 119.26 95.757C120.598 96.8391 122.705 98.4622 125.438 100.142C131.303 103.73 138.392 108.059 146.42 106.578C150.207 105.894 152.797 104.157 154.392 103.104C156.982 101.367 159.772 98.747 165.068 89.2076C167.26 85.2495 169.965 79.9814 172.669 73.489C172.783 73.2042 173.409 71.5241 172.527 69.7586C171.445 67.4236 168.854 67.1673 168.712 67.1673Z" fill="#121826"/>
<path opacity="0.22" d="M114.847 86.958C114.449 87.2427 114.619 87.8123 114.135 88.2394C113.794 88.5242 113.338 88.5242 113.053 88.5242C113.053 88.9228 112.997 89.4354 112.683 89.891C112.285 90.4605 111.744 90.5744 111.772 90.8022C111.829 91.0585 112.626 90.9161 113.395 91.3433C113.936 91.6565 114.278 92.1406 114.477 92.5108C116.356 90.7168 118.235 88.9513 120.114 87.1573C118.691 87.6984 117.637 87.6129 116.925 87.4421C116.014 87.1573 115.331 86.6163 114.847 86.958Z" fill="#121826"/>
<path d="M172.84 65.0032C170.933 66.9111 169.936 69.0752 168 73.4035C166.463 76.7921 163.986 82.4588 163.16 90.0049C162.249 98.4337 164.384 100.342 162.676 106.606C161.395 111.333 158.975 114.807 157.182 116.914C159.488 119.221 163.673 122.78 169.908 124.973C180.47 128.675 189.751 125.884 192.797 124.802C195.331 117.968 197.836 111.134 200.37 104.328C200.399 98.5476 200.627 93.6213 200.854 89.8056C201.424 80.6933 202.363 73.7168 202.961 69.4739C203.644 64.4906 204.356 60.3047 204.897 57.2293C198.491 57.571 193.196 58.3114 189.409 58.9948C176.997 61.2729 174.064 63.7787 172.84 65.0032Z" fill="white" stroke="#121826" stroke-width="1.744"/>
<path opacity="0.19" d="M187.929 59.1941C189.21 62.241 190.861 67.1673 191.232 73.3466C192.114 88.0401 185.025 99.5443 179.644 108.258C177.196 112.216 173.409 117.712 167.801 123.663C169.965 124.802 173.068 126.084 176.968 126.71C184.029 127.849 189.78 126.141 192.627 125.059C195.018 118.167 197.381 111.305 199.772 104.414C199.915 99.7151 200.171 94.8458 200.541 89.891C201.395 78.3298 202.79 67.4806 204.498 57.4001C198.975 57.9981 193.452 58.5961 187.929 59.1941Z" fill="#121826"/>
<path opacity="0.11" d="M193.025 58.3114C195.075 63.6079 197.21 71.3248 196.726 80.6079C195.36 106.435 174.918 122.069 171.388 124.688C173.552 125.457 176.484 126.255 180.043 126.482C185.338 126.824 189.637 125.742 192.285 124.831C194.904 117.94 197.552 111.077 200.171 104.186C200.171 97.8927 200.399 91.1724 200.94 84.0535C201.68 74.4571 202.904 65.5727 204.385 57.5425C200.598 57.7988 196.812 58.0551 193.025 58.3114Z" fill="#121826"/>
<path d="M203.844 56.8591C206.15 57.7134 209.538 59.365 211.986 62.6966C214.719 66.427 215.317 70.9261 213.751 85.1925C212.299 98.4622 211.046 101.31 210.562 109.283C210.022 118.054 210.847 125.229 211.616 129.814C214.861 129.045 218.107 128.276 221.353 127.507C224.883 128.447 227.018 130.184 228.071 131.238C229.125 132.263 231.345 134.427 230.719 136.193C230.32 137.332 228.869 137.901 228.242 138.129C227.018 138.613 225.993 138.556 224.883 138.471C222.52 138.328 220.157 138.243 217.794 138.129C216.57 138.072 214.804 138.015 212.669 138.129C215.545 140.606 216.769 142.201 216.399 142.913C215.886 143.853 212.47 143.198 206.121 140.977C205.836 138.67 205.381 135.167 204.698 130.896C202.933 119.734 201.651 115.747 200.797 109.824C199.915 103.702 200.199 98.1774 200.797 87.1573C201.253 79.355 202.078 69.0467 203.844 56.8591Z" fill="white" stroke="#121826" stroke-width="1.744"/>
<path d="M217.054 134.342C219.246 133.43 221.523 133.943 223.63 134.883C225.424 135.652 227.189 136.591 228.584 137.958C228.982 138.328 229.58 137.73 229.182 137.36C227.559 135.794 225.538 134.74 223.459 133.915C221.324 133.032 219.018 132.633 216.797 133.544C216.342 133.715 216.57 134.541 217.054 134.342Z" fill="#121826"/>
<path d="M219.844 131.722C223.63 130.982 228.128 133.231 230.207 136.449C230.52 136.904 231.26 136.477 230.947 136.022C228.612 132.462 223.829 130.099 219.616 130.925C219.075 131.01 219.303 131.836 219.844 131.722Z" fill="#121826"/>
<path d="M223.118 129.757C224.627 129.814 225.936 130.469 227.246 131.181C227.73 131.437 228.157 130.697 227.673 130.44C226.221 129.672 224.769 128.96 223.118 128.903C222.577 128.874 222.577 129.729 223.118 129.757Z" fill="#121826"/>
<path opacity="0.16" d="M204.242 57.5425C205.666 60.7603 207.687 65.9998 208.712 72.7201C211.189 89.1791 205.096 97.7503 206.178 115.548C206.434 119.961 207.26 126.539 209.879 134.541C212.157 133.801 215.63 133.06 219.701 133.516C222.577 133.858 224 134.028 225.424 135.054C226.847 136.079 227.673 137.446 229.125 137.36C229.694 137.332 230.463 137.075 230.776 136.477C231.545 135.082 229.438 132.69 228.726 131.893C227.701 130.725 225.595 128.732 221.723 127.564C218.363 128.248 215.004 128.931 211.644 129.615C210.99 126.71 210.078 121.869 209.993 115.861C209.908 110.735 210.819 104.528 212.669 92.283C213.011 90.0049 213.438 85.4203 214.32 76.2226C214.605 73.2042 214.833 70.499 213.808 67.1673C213.296 65.4873 212.043 61.6715 208.342 59.2796C206.776 58.1975 205.267 57.7703 204.242 57.5425Z" fill="#121826"/>
<path opacity="0.22" d="M210.477 137.958C210.847 138.869 211.644 140.435 213.267 141.66C214.264 142.4 216 143.312 216.313 142.941C216.712 142.486 215.203 139.98 212.869 138.727C211.986 138.243 211.103 138.044 210.477 137.958Z" fill="#121826"/>
<path opacity="0.4" d="M213.666 80.9781C211.075 88.097 207.972 99.5158 208.826 113.611C209.253 120.816 210.648 127.023 212.128 131.95C210.648 126.311 210.221 121.641 210.078 118.452C209.737 109.938 211.274 105.154 212.869 89.5208C213.267 85.9044 213.523 82.9144 213.666 80.9781Z" fill="#121826"/>
<path opacity="0.22" d="M219.417 131.067C219.36 130.725 222.207 129.415 225.025 130.042C228.812 130.896 230.577 134.883 230.89 135.652C229.552 134.142 227.388 132.178 224.256 131.437C221.609 130.839 219.445 131.352 219.417 131.067Z" fill="#121826"/>
<path d="M162.363 51.0216C161.167 52.1321 160.911 54.4671 160.427 59.0517C159.886 64.3198 159.659 66.9965 160.769 68.3348C162.79 70.7838 167.146 70.9261 170.164 69.5878C173.723 67.9931 174.947 64.5476 175.26 63.6933C176.655 59.7352 176.199 53.7552 171.986 51.0216C169.139 49.1422 164.726 48.8289 162.363 51.0216Z" fill="#33D49E"/>
<path d="M168.513 55.179C168.94 57.2293 171.217 57.4002 173.153 60.6749C174.548 63.0384 174.833 65.4588 174.861 67.1958C176.598 67.1673 179.815 66.8256 183.288 65.0317C185.993 63.6079 187.815 61.8139 188.869 60.5894C188.157 59.4219 187.103 57.7134 185.851 55.6631C180.441 46.978 179.644 46.2946 178.562 46.0099C174.178 44.9562 167.687 51.3633 168.513 55.179Z" fill="white" stroke="#121826" stroke-width="1.744"/>
<path d="M177.367 51.7335C176.057 54.4956 174.719 57.2293 172.897 59.7067C173.125 59.6782 173.352 59.6497 173.58 59.6213C173.409 59.4219 173.239 59.1941 173.096 58.9948C173.068 59.1657 173.039 59.3365 173.039 59.5074C173.78 58.8809 174.349 58.1975 174.861 57.3717C174.605 57.2293 174.377 57.0869 174.121 56.9445C173.723 57.7988 173.21 58.3114 172.385 58.6816C172.555 58.9094 172.726 59.1372 172.897 59.365C174.377 57.9697 175.715 56.432 176.911 54.7804C177.224 54.3248 176.484 53.8976 176.171 54.3532C175.032 55.9479 173.723 57.4286 172.299 58.767C171.929 59.1087 172.413 59.6213 172.812 59.4504C173.751 59.0233 174.434 58.3399 174.861 57.4002C175.089 56.9161 174.434 56.4889 174.121 56.973C173.637 57.7134 173.096 58.3399 172.441 58.9378C172.299 59.0517 172.271 59.308 172.385 59.4504C172.641 59.8491 172.669 59.906 173.011 60.2477C173.21 60.4755 173.523 60.3616 173.694 60.1623C175.516 57.7134 176.854 54.9512 178.164 52.1891C178.335 51.6765 177.594 51.2494 177.367 51.7335Z" fill="#121826"/>
<path d="M149.78 29.8641C148.47 32.2845 148.783 34.7335 149.409 39.5174C150.15 44.9278 151.118 49.4554 152.285 52.4454C152.456 52.901 152.911 53.1573 153.395 53.1003C154.022 53.0434 154.961 52.5593 155.502 52.3884C156.185 53.6129 157.324 55.2645 159.089 56.8022C162.591 59.8206 166.434 60.5325 168.143 60.7318C169.822 60.1054 173.979 58.2544 176.74 53.8122C178.562 50.8507 178.933 48.1171 179.018 47.4906C179.502 43.3901 178.135 40.2008 177.481 38.8909C178.078 38.5207 178.99 37.8658 179.616 36.7552C180.925 34.4487 180.869 30.6329 178.79 29.6078C177.224 28.839 174.748 29.6932 173.068 31.8859C172.527 30.9462 171.701 29.6932 170.449 28.4403C170.135 28.1271 167.829 25.7921 165.21 24.7385C160.086 22.7167 152.456 24.9378 149.78 29.8641Z" fill="white" stroke="#121826" stroke-width="1.744"/>
<path d="M157.296 55.0082C159.26 54.4956 160.399 52.844 161.395 51.2209C161.68 50.7653 160.94 50.3382 160.655 50.7938C159.772 52.2176 158.776 53.7268 157.068 54.2109C156.527 54.3248 156.755 55.1506 157.296 55.0082Z" fill="#121826"/>
<path d="M159.886 51.164C160.456 51.1924 160.911 51.4202 161.281 51.8474C161.651 52.2745 162.249 51.6481 161.879 51.2494C161.367 50.6514 160.655 50.3382 159.886 50.3097C159.317 50.3097 159.317 51.164 159.886 51.164Z" fill="#121826"/>
<path d="M157.723 46.4655C157.723 46.437 157.723 46.4085 157.723 46.38C157.723 46.1522 157.523 45.9529 157.296 45.9529C157.068 45.9529 156.868 46.1522 156.868 46.38C156.868 46.4085 156.868 46.437 156.868 46.4655C156.868 46.6933 157.068 46.8926 157.296 46.8926C157.523 46.8641 157.723 46.6933 157.723 46.4655Z" fill="#121826"/>
<path d="M159.63 44.1874C160.171 44.1874 160.171 43.3331 159.63 43.3331C159.089 43.3331 159.089 44.1874 159.63 44.1874Z" fill="#121826"/>
<path d="M159.374 46.3516C159.915 46.3516 159.915 45.4973 159.374 45.4973C158.833 45.4973 158.833 46.3516 159.374 46.3516Z" fill="#121826"/>
<path d="M148.555 39.5743C147.644 39.2611 145.708 38.4353 144.598 36.5274C142.861 33.5659 144.256 30.1204 144.94 28.4973C145.31 27.586 146.335 25.3364 151.288 20.9227C155.046 17.5341 156.954 15.854 159.089 14.9143C166.719 11.5827 174.52 14.7719 175.943 15.3699C178.05 16.2242 179.587 17.2778 182.634 19.3281C186.335 21.8339 188.698 23.457 190.548 26.2477C192.797 29.6648 191.431 30.5475 193.367 34.3917C196.441 40.4855 200.683 39.7452 203.217 45.3834C203.644 46.3231 206.007 51.5626 203.331 56.1472C201.139 59.8775 196.669 61.2159 193.367 61.1305C187.246 60.9596 183.402 55.7201 181.381 52.9864C177.538 47.7753 176.797 42.251 176.626 39.2896C179.046 38.0651 179.986 35.4453 179.103 33.6229C178.42 32.1706 176.427 30.9462 174.691 31.6865C173.495 32.1991 172.726 33.5659 172.755 35.0752C171.616 35.2745 168.114 35.7016 164.498 33.7083C161.822 32.2561 160.37 30.2058 159.744 29.1807C158.15 29.8071 155.587 31.0031 153.054 33.3666C150.634 35.6447 149.267 38.0366 148.555 39.5743Z" fill="#33D49E"/>
<path opacity="0.24" d="M167.118 41.2259C170.278 44.1874 171.815 47.4621 172.299 48.5727C174.292 53.1288 174.178 57.3147 173.979 59.4504C175.004 57.7134 176 55.9764 177.025 54.2109C178.676 57.9127 180.299 61.6146 181.95 65.2879C182.833 65.0886 184.57 64.576 186.249 63.0953C187.53 61.9563 188.214 60.7318 188.555 59.963C186.164 58.2544 181.466 54.3817 178.733 47.7184C177.424 44.5291 176.911 41.5676 176.74 39.3465C179.046 38.0936 180.014 35.5877 179.246 33.7083C178.705 32.3415 177.025 30.8038 175.175 31.3164C173.609 31.7435 172.527 33.4236 172.783 35.303C171.587 35.4453 168.74 35.6447 165.58 34.2494C162.306 32.7971 160.513 30.4336 159.829 29.437C160.598 34.4772 162.534 37.2108 164.157 38.777C165.182 39.8306 165.609 39.8306 167.118 41.2259Z" fill="#121826"/>
<path opacity="0.24" d="M176.797 42.5928C176.598 42.5928 176.712 45.5258 176.427 48.231C176.057 51.705 175.032 54.4672 174.178 56.3181C174.947 55.834 176.086 54.9228 177.082 53.499C178.506 51.4202 178.762 49.37 178.847 48.3733C178.591 47.9747 178.249 47.4052 177.936 46.6933C176.94 44.4152 176.968 42.5928 176.797 42.5928Z" fill="#121826"/>
<path opacity="0.19" d="M177.794 52.4738C178.477 53.1857 179.445 54.1254 180.698 55.1506C184.484 58.3114 188.157 60.1054 188.271 59.906C188.385 59.7067 184.797 58.2544 182.064 54.3248C180.356 51.8759 179.36 48.9713 178.933 49.1137C178.733 49.1707 178.904 49.8541 178.562 50.9646C178.335 51.6196 178.022 52.1321 177.794 52.4738Z" fill="#121826"/>
<path d="M155.36 41.767C155.644 42.3365 155.644 43.1623 155.274 43.3331C154.904 43.5325 154.192 42.9914 153.936 42.365C153.737 41.8239 153.794 41.0551 154.164 40.9127C154.562 40.7703 155.132 41.2829 155.36 41.767Z" fill="#121826"/>
<path d="M153.025 41.112C154.021 40.7703 155.046 40.514 156.1 40.3432C156.498 40.2862 156.328 39.6597 155.929 39.7167C154.876 39.8876 153.851 40.1438 152.854 40.4855C152.456 40.6279 152.626 41.2259 153.025 41.112Z" fill="#121826"/>
</svg>
