<svg width="291" height="360" viewBox="0 0 291 360" fill="none" xmlns="http://www.w3.org/2000/svg">
<path d="M44.6291 229.231C58.1105 229.231 70.6438 234.892 83.8477 236.741C96.6817 238.52 109.377 235.586 122.003 233.598C128.362 232.605 134.79 231.819 141.242 232.143C147.902 232.489 154.076 234.291 160.134 236.972C165.615 239.421 170.98 242.264 176.784 243.904C182.31 245.475 187.999 245.545 193.641 244.551C206.915 242.217 219.124 234.985 232.837 235.054C233.276 235.054 233.276 234.361 232.837 234.361C220.835 234.292 209.898 239.768 198.521 242.749C192.601 244.297 186.427 245.129 180.368 244.02C174.24 242.911 168.598 240.091 163.002 237.503C157.452 234.939 151.833 232.697 145.728 231.865C139.438 231.01 133.079 231.38 126.812 232.212C114.094 233.852 101.445 237.319 88.5419 236.533C73.6268 235.609 59.7292 228.561 44.6754 228.561C44.1898 228.538 44.1898 229.231 44.6291 229.231Z" fill="#161616"/>
<path d="M26.0374 232.004C28.7892 230.964 31.6103 230.225 34.524 229.786C34.9633 229.716 34.7783 229.046 34.339 229.115C31.4253 229.531 28.6042 230.271 25.8524 231.334C25.4362 231.496 25.6212 232.166 26.0374 232.004Z" fill="#161616"/>
<path d="M21.0888 238.012C36.582 231.195 53.3008 238.89 68.4471 242.795C72.887 243.95 77.4193 244.805 82.021 245.06C82.4604 245.083 82.4604 244.389 82.021 244.366C65.3253 243.465 50.1559 234.153 33.2521 234.707C28.951 234.846 24.6962 235.701 20.7651 237.434C20.3488 237.596 20.6957 238.197 21.0888 238.012Z" fill="#161616"/>
<path d="M92.82 250.721C96.3811 250.189 99.7573 249.011 103.157 247.856C106.533 246.723 109.932 245.753 113.401 245.036C120.569 243.581 127.922 243.095 135.207 243.604C139.438 243.904 143.647 244.551 147.763 245.499C148.202 245.591 148.387 244.921 147.948 244.828C133.657 241.524 118.534 242.125 104.567 246.654C100.613 247.925 96.7511 249.427 92.6119 250.051C92.1957 250.12 92.3806 250.79 92.82 250.721Z" fill="#161616"/>
<path d="M175.674 251.668C180.484 254.141 185.987 254.187 191.237 253.471C197.318 252.662 203.284 251.044 209.181 249.288C220.905 245.799 232.583 241.547 244.908 240.808C251.683 240.392 258.505 241.108 264.864 243.534C265.28 243.696 265.465 243.026 265.049 242.864C241.763 233.945 218.176 247.601 195.561 252.038C189.155 253.286 182.056 254.141 176.044 251.044C175.628 250.859 175.281 251.46 175.674 251.668Z" fill="#161616"/>
<path d="M246.642 235.354C251.891 235.216 257.094 236.233 261.904 238.405C262.297 238.589 262.667 237.989 262.251 237.804C257.349 235.585 252.03 234.523 246.642 234.661C246.18 234.684 246.18 235.378 246.642 235.354Z" fill="#161616"/>
<path d="M83.1772 235.817C81.3735 233.922 79.9629 231.68 79.0611 229.208C78.668 228.099 78.3674 226.966 78.1824 225.811C78.0668 225.118 77.6043 223.177 79.1998 223.616C79.8242 223.801 80.541 224.771 80.8879 225.28C81.1423 225.649 81.7435 225.303 81.4891 224.933C80.2867 223.2 79.3848 221.282 78.8299 219.249C78.5524 218.232 78.3674 217.169 78.2517 216.106C78.2055 215.598 78.1824 215.089 78.1824 214.558C78.1824 214.304 78.1824 214.049 78.2055 213.795C78.1592 213.287 78.3905 212.894 78.9455 212.617C79.1767 212.547 79.3848 212.501 79.6161 212.432C79.2461 211.485 78.9686 210.514 78.7836 209.52C78.6911 208.966 78.6217 208.388 78.5755 207.81C78.5755 207.741 78.6217 205.615 78.9917 206.008C79.223 206.262 79.6855 206.008 79.5698 205.661C78.3905 201.941 78.1593 197.99 78.9917 194.154C79.1536 193.415 79.2923 192.328 79.8242 191.728C80.5179 190.942 81.5123 191.358 82.021 192.097C82.3447 192.56 82.5529 193.091 82.7378 193.623C83.3159 195.379 83.5241 197.273 83.8709 199.076C85.374 206.955 86.8077 214.858 87.6402 222.853C88.1027 227.336 88.3801 231.842 88.3801 236.348C88.3801 236.787 89.0739 236.787 89.0739 236.348C89.0739 226.99 87.8714 217.677 86.299 208.457C85.5127 203.905 84.7265 199.307 83.7553 194.778C83.4316 193.299 82.8997 191.173 81.3041 190.572C80.1248 190.133 79.2692 191.081 78.8761 192.097C77.2343 196.349 77.5812 201.548 78.9224 205.823C79.1073 205.708 79.3155 205.592 79.5005 205.477C78.6449 204.599 77.9511 205.731 77.8818 206.54C77.7199 208.55 78.2286 210.699 78.9455 212.547C79.1073 212.963 79.7548 212.802 79.6161 212.363C79.408 211.692 78.5986 211.485 78.0436 211.947C77.1187 212.709 77.4655 214.858 77.558 215.852C77.8124 219.225 78.9917 222.437 80.8879 225.21C81.096 225.095 81.281 224.979 81.4891 224.864C80.8879 224.009 79.4773 222.229 78.2286 222.715C76.9568 223.2 77.3962 225.164 77.558 226.135C78.2055 229.947 80.0323 233.46 82.6916 236.256C82.9922 236.625 83.5009 236.14 83.1772 235.817Z" fill="#E8E8E8"/>
<path d="M88.1258 218.879C88.1258 216.614 88.3339 214.373 88.7733 212.178C88.9582 211.323 90.0682 205.8 91.0626 205.962C91.2244 205.985 91.4557 205.916 91.4788 205.731C91.9413 203.281 92.5887 200.878 93.4443 198.544C94.2768 196.326 95.2018 193.461 97.1211 191.936C96.9592 191.936 96.7973 191.936 96.6355 191.936C97.8611 193.276 97.5142 195.702 97.5373 197.389C97.5373 199.238 97.4911 201.086 97.3754 202.958C97.1442 206.863 96.6817 210.745 96.0574 214.581C94.8549 222.091 93.0512 229.508 91.2244 236.903C91.1088 237.342 91.7794 237.527 91.895 237.088C93.8837 229.115 95.803 221.143 97.0055 213.01C97.5836 209.151 97.9767 205.292 98.1385 201.41C98.231 199.33 98.2542 197.25 98.1848 195.171C98.1385 193.83 98.0692 192.49 97.1211 191.474C96.9823 191.335 96.7742 191.358 96.6355 191.474C94.7855 192.929 93.9068 195.471 93.0744 197.597C92.0569 200.185 91.3169 202.842 90.8082 205.569C90.9469 205.5 91.0857 205.407 91.2244 205.338C90.5076 205.222 90.1376 205.638 89.837 206.262C89.2357 207.556 88.8195 208.989 88.4726 210.375C87.7327 213.171 87.4089 216.06 87.4089 218.948C87.4321 219.318 88.1258 219.318 88.1258 218.879Z" fill="#E8E8E8"/>
<path d="M192.185 244.228C191.028 242.333 190.057 240.346 189.294 238.243C188.947 237.295 188.647 236.325 188.392 235.331C188.253 234.8 188.138 234.268 188.022 233.737C187.976 233.483 187.907 233.205 187.86 232.928C187.629 232.374 187.86 232.004 188.531 231.819C188.762 231.796 188.993 231.75 189.201 231.727C188.577 230.017 188.138 228.26 187.907 226.435C187.791 225.534 187.722 224.656 187.722 223.755C187.722 223.316 188.045 221.19 187.791 220.912C187.999 221.143 188.392 220.959 188.392 220.658C188.346 218.463 188.462 216.291 188.832 214.119C188.993 213.125 189.225 212.155 189.479 211.184C189.618 210.699 189.756 210.214 189.895 209.728C189.988 209.451 190.08 209.174 190.173 208.92C190.265 208.319 190.635 208.065 191.329 208.18C191.468 208.527 192.023 208.504 192 208.088C191.976 205.8 192.323 203.559 193.133 201.41C193.341 200.878 194.011 198.729 194.798 198.683C195.815 198.637 195.838 201.387 195.884 201.941C196.278 206.493 196.578 211.069 196.74 215.644C197.087 224.956 196.994 234.268 196.439 243.558C196.416 243.997 197.11 243.997 197.133 243.558C197.619 235.401 197.757 227.244 197.549 219.087C197.434 215.043 197.249 210.999 196.971 206.979C196.832 204.991 196.694 203.027 196.486 201.04C196.37 199.815 196.139 198.683 195.075 197.944C194.959 197.874 194.844 197.897 194.728 197.944C193.225 198.66 192.647 200.509 192.185 202.01C191.56 203.975 191.283 206.031 191.306 208.111C191.537 208.088 191.768 208.042 191.976 208.018C191.745 207.395 191.075 207.117 190.45 207.418C189.433 207.88 189.178 209.705 188.901 210.606C187.976 213.888 187.583 217.284 187.675 220.681C187.883 220.589 188.068 220.52 188.277 220.427C188.23 220.381 188.207 220.358 188.161 220.312C188.092 220.219 187.93 220.173 187.814 220.219C187.305 220.404 187.19 220.727 187.097 221.236C186.889 222.461 186.958 223.801 187.051 225.025C187.213 227.382 187.722 229.693 188.531 231.911C188.647 232.258 189.248 232.235 189.201 231.819C189.132 231.103 188.369 230.71 187.698 231.08C186.612 231.657 187.213 233.437 187.398 234.315C188.207 237.942 189.641 241.385 191.56 244.551C191.815 244.944 192.416 244.597 192.185 244.228Z" fill="#E8E8E8"/>
<path d="M197.758 226.897C197.734 225.649 197.85 224.425 198.104 223.2C198.22 222.645 198.382 222.091 198.567 221.559C198.636 221.374 199.376 219.249 199.816 219.896C200.001 220.173 200.44 220.08 200.463 219.711C200.532 218.694 200.671 217.7 200.949 216.73C201.064 216.314 202.082 213.426 202.544 213.703C202.776 213.865 203.053 213.657 203.076 213.402C203.215 211.369 203.677 209.382 204.51 207.533C204.903 206.632 205.389 205.754 205.944 204.945C206.383 204.275 207.053 203.143 207.747 202.704C209.551 201.548 209.227 204.367 209.204 205.199C209.158 206.239 209.088 207.279 209.019 208.342C208.857 210.583 208.626 212.802 208.325 215.02C207.123 224.055 204.995 232.928 202.891 241.778C202.799 242.217 203.446 242.402 203.562 241.963C205.55 233.668 207.539 225.349 208.765 216.892C209.343 212.871 209.759 208.827 209.921 204.76C209.967 203.79 210.106 202.218 209.042 201.687C207.932 201.132 207.007 202.496 206.406 203.212C204.024 206.124 202.637 209.682 202.382 213.449C202.567 213.356 202.729 213.241 202.914 213.148C200.926 211.877 199.839 218.717 199.793 219.757C200.001 219.688 200.232 219.641 200.44 219.572C199.654 218.417 198.659 219.549 198.289 220.404C197.434 222.461 197.064 224.702 197.087 226.92C197.064 227.336 197.758 227.336 197.758 226.897Z" fill="#E8E8E8"/>
<path d="M31.726 228.977C30.801 228.607 29.9223 228.076 29.3442 227.244C29.0667 226.851 28.8817 226.412 28.7199 225.973C28.6736 225.88 28.2343 224.471 28.7892 224.748C29.1592 224.933 29.4598 224.517 29.2055 224.194C27.9568 222.599 27.0549 220.774 26.6156 218.786C26.4999 218.255 26.2224 217.492 26.3381 216.961C26.5693 215.898 27.633 215.759 28.3268 216.429C29.0667 217.146 29.7142 218.024 30.2923 218.879C32.4429 221.998 33.7609 225.603 34.154 229.37C34.2003 229.809 34.894 229.809 34.8478 229.37C34.5934 226.805 33.9228 224.332 32.8591 221.975C31.8648 219.803 30.4079 217.169 28.5117 215.667C27.8874 215.182 27.0087 214.858 26.2918 215.32C25.4594 215.829 25.6443 216.961 25.7368 217.77C26.0606 220.335 27.1243 222.692 28.7199 224.725C28.8586 224.54 28.9974 224.355 29.1361 224.17C28.743 223.986 28.3268 223.963 28.003 224.332C27.5174 224.864 27.818 225.603 28.0493 226.181C28.6967 227.914 29.8067 229 31.5179 229.693C31.9573 229.809 32.1422 229.139 31.726 228.977Z" fill="#E8E8E8"/>
<path d="M32.4892 221.49C31.5411 217.885 30.6161 214.373 30.1536 210.676C30.038 209.798 29.9224 208.896 29.853 208.018C29.7836 207.117 29.5524 205.8 29.7836 204.922C29.7836 204.783 29.8068 204.622 29.8068 204.483C30.5236 203.697 31.0555 203.651 31.4023 204.391C31.6104 204.691 31.7954 205.038 31.9573 205.384C32.3967 206.147 32.7898 206.932 33.1598 207.741C36.2584 214.234 37.6921 221.421 37.3915 228.607C37.3684 229.046 38.0621 229.046 38.0852 228.607C38.4552 220.265 36.5128 211.508 32.1654 204.344C31.6336 203.466 30.3386 202.265 29.4368 203.466C29.0437 203.975 29.0899 204.806 29.0899 205.407C29.0437 206.586 29.1362 207.787 29.2749 208.966C29.5061 211.045 29.7143 213.171 30.1767 215.228C30.6624 217.423 31.2867 219.572 31.8648 221.744C31.9342 222.091 32.6048 221.906 32.4892 221.49Z" fill="#E8E8E8"/>
<path d="M18.1521 167.326C33.4371 166.957 48.3291 170.816 62.828 175.275C77.3268 179.735 91.7101 184.911 106.741 187.384C114.279 188.631 121.933 189.117 129.564 188.539C137.958 187.915 146.214 186.205 154.353 184.125C162.655 181.999 170.864 179.527 179.166 177.332C187.49 175.113 195.861 173.103 204.302 171.37C221.344 167.858 238.664 165.501 256.1 165.085C258.204 165.039 260.332 165.016 262.436 165.016C262.875 165.016 262.875 164.322 262.436 164.322C245.347 164.276 228.305 166.171 211.493 169.267C194.543 172.41 177.986 176.962 161.383 181.537C153.151 183.825 144.849 185.928 136.386 187.129C128.316 188.262 120.176 188.4 112.082 187.453C96.8667 185.697 82.2754 180.705 67.7534 176.107C53.4164 171.578 38.7788 167.257 23.6787 166.679C21.8288 166.61 19.9789 166.61 18.1289 166.656C17.6896 166.656 17.6896 167.349 18.1521 167.326Z" fill="#E8E8E8"/>
<path d="M168.691 170.885C184.484 166.541 199.885 160.972 215.517 156.073C231.103 151.174 247.012 146.899 263.315 145.236C272.403 144.311 281.583 144.196 290.671 145.236C291.11 145.282 291.11 144.589 290.671 144.542C274.53 142.717 258.227 144.496 242.434 147.985C226.409 151.521 210.869 156.812 195.307 161.942C186.427 164.877 177.547 167.742 168.529 170.215C168.066 170.33 168.251 171 168.691 170.885Z" fill="#E8E8E8"/>
<path d="M117.84 207.579C123.76 208.943 129.865 208.319 135.785 207.233C141.982 206.101 148.064 204.483 154.145 202.773C166.401 199.353 178.588 195.864 191.329 194.893C198.521 194.362 205.758 194.501 212.927 195.263C213.366 195.309 213.366 194.616 212.927 194.57C200.486 193.23 187.907 193.854 175.651 196.442C163.464 199.007 151.671 203.166 139.508 205.777C132.501 207.279 125.148 208.55 118.048 206.909C117.586 206.817 117.401 207.487 117.84 207.579Z" fill="#E8E8E8"/>
<path d="M232.791 212.062C248.284 211.23 262.621 218.139 277.49 221.282C281.652 222.16 285.861 222.738 290.115 222.807C290.555 222.807 290.555 222.114 290.115 222.114C274.645 221.86 260.47 214.766 245.393 212.201C241.231 211.485 237.022 211.138 232.791 211.369C232.351 211.415 232.328 212.108 232.791 212.062Z" fill="#E8E8E8"/>
<path d="M7.12176 140.753C23.1468 140.568 39.1487 143.479 54.0638 149.326C58.3418 151.012 62.5273 152.953 66.5971 155.102C66.9902 155.31 67.3371 154.71 66.944 154.502C52.7226 146.969 37.0676 142.255 21.0656 140.66C16.4408 140.198 11.7697 139.99 7.12176 140.06C6.6824 140.06 6.6824 140.753 7.12176 140.753Z" fill="#E8E8E8"/>
<path d="M23.2625 113.648C35.9114 116.814 47.4503 123.029 59.4055 128.09C71.4764 133.197 84.1484 136.732 97.1211 138.488C104.428 139.482 111.828 139.921 119.205 139.805C119.644 139.805 119.644 139.112 119.205 139.112C105.908 139.32 92.5887 137.703 79.7317 134.329C73.4188 132.665 67.2446 130.586 61.2092 128.09C55.2201 125.617 49.3465 122.798 43.4267 120.187C36.9288 117.322 30.3384 114.688 23.4474 112.978C23.0312 112.862 22.8462 113.532 23.2625 113.648Z" fill="#E8E8E8"/>
<path d="M109.446 153.554C121.448 158.176 134.629 155.657 146.399 151.59C152.735 149.395 158.886 146.761 165.176 144.473C171.35 142.232 177.616 140.291 183.976 138.65C191.329 136.755 198.798 135.276 206.313 134.213C206.753 134.144 206.568 133.474 206.128 133.543C193.11 135.392 180.299 138.488 167.881 142.786C155.672 147.015 143.855 153 130.929 154.825C123.783 155.842 116.407 155.495 109.631 152.884C109.215 152.722 109.03 153.393 109.446 153.554Z" fill="#E8E8E8"/>
<path d="M65.6491 112.492C66.9517 112.492 68.0077 111.458 68.0077 110.182C68.0077 108.906 66.9517 107.871 65.6491 107.871C64.3464 107.871 63.2904 108.906 63.2904 110.182C63.2904 111.458 64.3464 112.492 65.6491 112.492Z" fill="#33D49E"/>
<path d="M155.81 142.971C156.806 142.971 157.614 142.185 157.614 141.215C157.614 140.245 156.806 139.459 155.81 139.459C154.814 139.459 154.006 140.245 154.006 141.215C154.006 142.185 154.814 142.971 155.81 142.971Z" fill="#5222D0"/>
<path d="M196.763 16.4582C197.427 16.4582 197.966 15.9306 197.966 15.2797C197.966 14.6289 197.427 14.1013 196.763 14.1013C196.099 14.1013 195.561 14.6289 195.561 15.2797C195.561 15.9306 196.099 16.4582 196.763 16.4582Z" fill="#33D49E"/>
<path d="M67.3834 176.546C68.3412 176.546 69.1177 175.791 69.1177 174.859C69.1177 173.928 68.3412 173.172 67.3834 173.172C66.4255 173.172 65.649 173.928 65.649 174.859C65.649 175.791 66.4255 176.546 67.3834 176.546Z" fill="#33D49E"/>
<path d="M216.974 96.8257C217.204 96.8257 217.39 96.6394 217.39 96.4097C217.39 96.18 217.204 95.9938 216.974 95.9938C216.744 95.9938 216.557 96.18 216.557 96.4097C216.557 96.6394 216.744 96.8257 216.974 96.8257Z" fill="#5222D0"/>
<path d="M60.978 108.934C62.2424 108.934 63.2673 107.93 63.2673 106.693C63.2673 105.455 62.2424 104.451 60.978 104.451C59.7137 104.451 58.6887 105.455 58.6887 106.693C58.6887 107.93 59.7137 108.934 60.978 108.934Z" fill="#33D49E"/>
<path d="M69.9039 169.106C70.3381 169.106 70.6901 168.764 70.6901 168.343C70.6901 167.922 70.3381 167.58 69.9039 167.58C69.4697 167.58 69.1177 167.922 69.1177 168.343C69.1177 168.764 69.4697 169.106 69.9039 169.106Z" fill="#EC615B"/>
<path d="M27.7253 44.1177C28.6704 44.1177 29.4365 43.3729 29.4365 42.454C29.4365 41.5352 28.6704 40.7903 27.7253 40.7903C26.7803 40.7903 26.0142 41.5352 26.0142 42.454C26.0142 43.3729 26.7803 44.1177 27.7253 44.1177Z" fill="#33D49E"/>
<path d="M202.498 81.8983C203.443 81.8983 204.209 81.1534 204.209 80.2346C204.209 79.3157 203.443 78.5708 202.498 78.5708C201.553 78.5708 200.787 79.3157 200.787 80.2346C200.787 81.1534 201.553 81.8983 202.498 81.8983Z" fill="#33D49E"/>
<path d="M209.412 75.6824C210.204 75.6824 210.846 75.0617 210.846 74.296C210.846 73.5303 210.204 72.9095 209.412 72.9095C208.62 72.9095 207.978 73.5303 207.978 74.296C207.978 75.0617 208.62 75.6824 209.412 75.6824Z" fill="#33D49E"/>
<path d="M53.3239 142.671C51.1965 142.717 50.2946 145.675 50.9883 147.431C51.3121 148.24 52.0289 148.448 52.8383 148.309C53.0926 148.263 53.4164 148.101 53.6939 148.101C54.7807 148.17 54.7576 148.84 54.4338 149.487C54.2026 149.95 53.9482 150.319 53.8326 150.828C53.6939 151.475 53.8095 152.191 54.4801 152.468C54.8501 152.63 55.2894 152.353 55.6132 152.468C56.7694 152.838 55.8444 154.294 55.7519 155.01C55.6594 155.796 55.8675 156.697 56.6306 157.067C57.3012 157.39 58.1106 157.182 58.4575 156.512C58.6656 156.119 58.0643 155.773 57.8562 156.165C57.07 156.789 56.6075 156.558 56.4225 155.426C56.4225 155.103 56.4688 154.802 56.5613 154.502C56.6769 153.993 56.9081 153.531 56.9544 153C56.9775 152.63 56.9544 152.237 56.6769 151.96C56.1219 151.452 54.7807 152.191 54.4801 151.29C54.2951 150.735 55.1276 149.811 55.2894 149.303C55.6132 148.309 55.2201 147.315 54.0407 147.338C53.0695 147.362 51.9133 148.355 51.5665 146.622C51.3121 145.421 51.8902 143.364 53.3701 143.341C53.7633 143.341 53.7864 142.648 53.3239 142.671Z" fill="#33D49E"/>
<path d="M182.195 119.794C179.859 119.841 177.686 121.458 177.131 123.769C176.645 125.779 177.894 128.182 180.183 126.935C180.992 126.496 181.802 125.71 181.941 124.739C182.033 123.977 181.547 123.33 180.738 123.399C179.605 123.492 178.564 124.832 177.963 125.664C177.269 126.611 176.553 127.928 176.668 129.153C176.899 131.256 179.929 131.672 180.992 130.008C181.177 129.731 180.807 129.315 180.507 129.523C178.911 130.747 177.246 132.758 177.871 134.93C178.356 136.64 180.206 137.864 181.941 137.264C182.357 137.125 182.172 136.455 181.756 136.593C180.206 137.125 178.588 135.831 178.449 134.26C178.31 132.573 179.582 131.094 180.854 130.123C180.692 129.962 180.53 129.8 180.368 129.638C179.906 130.378 178.865 130.539 178.102 130.147C177.015 129.569 177.316 128.321 177.732 127.397C178.079 126.611 178.588 125.895 179.166 125.271C179.397 125.017 179.998 124.323 180.322 124.277C180.622 124.347 180.946 124.439 181.247 124.508C181.224 124.809 181.131 125.063 180.969 125.317C180.345 126.334 178.773 127.143 177.917 125.964C177.339 125.202 177.709 123.769 178.102 123.006C178.888 121.481 180.461 120.511 182.149 120.488C182.634 120.465 182.634 119.771 182.195 119.794Z" fill="#EC615B"/>
<path d="M0.577608 84.7867C1.31758 83.8855 2.58941 84.1859 2.9594 85.2257C3.19064 85.8496 3.16752 86.3811 3.74562 86.8201C4.78621 87.6058 6.17366 87.005 7.28362 86.7739C10.1741 86.1963 9.22605 89.0847 10.8679 90.2169C11.5847 90.7253 12.6716 90.5867 13.0415 89.7548C13.2265 89.362 12.6253 88.9922 12.4403 89.4082C11.8391 90.7484 10.7291 89.0154 10.5441 88.4839C10.4285 88.1604 10.3591 87.8369 10.2204 87.5365C10.0123 87.0512 9.73478 86.5891 9.2723 86.2887C7.97735 85.4799 6.54365 86.4735 5.22557 86.4966C3.81499 86.5429 3.95374 85.5724 3.46813 84.6249C3.26001 84.209 2.91315 83.9086 2.47379 83.7238C1.6182 83.4003 0.646983 83.5851 0.0920028 84.3014C-0.208612 84.6481 0.300118 85.1333 0.577608 84.7867Z" fill="#33D49E"/>
<path d="M3.05176 91.3261C4.50858 89.7548 6.61288 90.4942 7.46847 92.2042C8.00033 93.2671 8.37032 94.4225 9.52653 94.954C11.284 95.7627 13.5733 94.8615 14.1745 93.036C14.3132 92.6201 13.6426 92.4353 13.5039 92.8512C13.0645 94.1914 11.4458 94.8384 10.1509 94.4456C8.55531 93.9834 8.43969 92.158 7.56097 91.0026C6.35852 89.4082 3.90735 89.3851 2.56615 90.8408C2.26553 91.1644 2.75114 91.6496 3.05176 91.3261Z" fill="#33D49E"/>
<path d="M167.164 192.791C168.02 191.797 169.176 191.82 170.217 192.513C170.563 192.744 170.91 192.975 171.35 192.814C171.905 192.606 171.997 191.866 172.39 191.497C173.2 190.734 174.541 190.734 175.373 191.427C175.72 191.705 176.206 191.219 175.859 190.942C174.61 189.902 172.552 189.995 171.558 191.381C171.465 191.52 171.35 191.889 171.234 191.959C170.702 192.305 170.494 191.774 170.147 191.635C169.777 191.497 169.43 191.335 169.037 191.312C168.112 191.242 167.257 191.612 166.655 192.305C166.401 192.629 166.887 193.114 167.164 192.791Z" fill="#33D49E"/>
<path d="M173.94 193.969C175.512 191.635 181.201 194.801 181.779 191.058C181.848 190.619 181.177 190.434 181.108 190.873C180.807 192.837 178.079 192.375 176.691 192.329C175.396 192.305 174.101 192.49 173.338 193.623C173.084 193.992 173.685 194.339 173.94 193.969Z" fill="#33D49E"/>
<path d="M51.3814 203.674C52.2832 202.126 53.4857 200.832 54.9656 199.838C55.3356 199.584 54.9888 198.983 54.6188 199.238C53.0463 200.324 51.7514 201.687 50.7802 203.328C50.5489 203.697 51.1501 204.044 51.3814 203.674Z" fill="#33D49E"/>
<path d="M54.6651 202.565C55.8907 201.733 57.1162 200.878 58.3418 200.046C58.7118 199.792 58.3649 199.191 57.995 199.446C56.7694 200.277 55.5438 201.132 54.3182 201.964C53.9482 202.218 54.2951 202.819 54.6651 202.565Z" fill="#33D49E"/>
<path d="M53.8558 5.57466C53.6477 23.506 49.0229 41.2987 40.5363 57.1041C38.1545 61.5638 35.449 65.8387 32.4891 69.9287C32.2347 70.2984 32.8359 70.6451 33.0903 70.2753C43.6812 55.6484 50.6878 38.5027 53.3471 20.6176C54.0871 15.6264 54.4802 10.589 54.5495 5.55155C54.5727 5.13562 53.8789 5.13562 53.8558 5.57466Z" fill="#E8E8E8"/>
<path d="M56.7463 6.33718C68.0309 13.2463 81.9979 15.3722 94.8781 12.4837C98.5317 11.675 102.07 10.4272 105.423 8.83277C105.816 8.64792 105.469 8.04712 105.076 8.23198C93.3519 13.824 79.5005 14.5172 67.1984 10.4503C63.6604 9.27182 60.2612 7.70051 57.0932 5.75949C56.7232 5.50531 56.3763 6.1061 56.7463 6.33718Z" fill="#E8E8E8"/>
<path d="M111.157 8.67102C116.083 16.4813 123.922 22.2582 132.755 24.8924C143.416 28.0812 154.908 25.9785 165.407 23.1594C171.257 21.5881 176.969 19.4391 182.056 16.1578C182.426 15.9267 182.079 15.326 181.709 15.557C177.223 18.4223 172.298 20.4327 167.21 21.9347C161.892 23.4829 156.388 24.6844 150.885 25.3546C145.589 26.0016 140.201 26.0016 134.999 24.7769C130.605 23.737 126.396 21.8884 122.627 19.3928C118.28 16.5044 114.557 12.7379 111.759 8.32441C111.527 7.9547 110.926 8.30131 111.157 8.67102Z" fill="#E8E8E8"/>
<path d="M184.785 16.62C183.166 25.447 181.917 34.6899 182.357 43.6787C182.704 51.05 184.715 58.7447 190.728 63.5048C194.312 66.347 198.682 67.9184 202.96 69.4434C203.377 69.6052 203.562 68.9351 203.145 68.7733C199.376 67.41 195.514 66.0467 192.208 63.7359C189.04 61.5407 186.704 58.4674 185.247 54.9089C182.403 47.9305 182.773 40.0046 183.351 32.6334C183.767 27.3187 184.484 22.0271 185.432 16.7817C185.525 16.3658 184.854 16.1809 184.785 16.62Z" fill="#E8E8E8"/>
<path d="M34.2697 74.2267C51.5203 76.9302 67.4297 86.7971 77.5812 101.008C80.4255 105.006 82.8073 109.327 84.611 113.879C84.7729 114.295 85.4435 114.11 85.2816 113.694C78.8068 97.3803 65.2792 84.3477 49.1154 77.6697C44.398 75.7287 39.4726 74.3422 34.4546 73.5566C34.0153 73.4872 33.8303 74.1574 34.2697 74.2267Z" fill="#E8E8E8"/>
<path d="M89.0739 114.457C97.2368 108.125 108.059 106.554 118.072 108.033C128.755 109.604 138.444 114.734 147.185 120.881C152.457 124.578 157.429 128.668 162.401 132.758C162.748 133.035 163.233 132.55 162.886 132.272C153.914 124.878 144.803 117.391 134.235 112.377C124.801 107.894 114.164 105.653 103.758 107.432C98.2542 108.379 93.0282 110.528 88.5883 113.948C88.2415 114.249 88.7271 114.734 89.0739 114.457Z" fill="#E8E8E8"/>
<path d="M162.1 128.483C166.077 111.314 176.923 96.0631 191.445 86.1501C195.607 83.3079 200.07 80.9047 204.741 79.0099C205.157 78.8481 204.972 78.178 204.556 78.3398C187.999 85.0871 174.148 98.0504 166.401 114.156C164.227 118.685 162.562 123.422 161.429 128.298C161.337 128.737 162.007 128.922 162.1 128.483Z" fill="#E8E8E8"/>
<path d="M57.7868 87.3979C61.2554 88.8768 63.8685 91.8114 66.3428 94.5612C68.9095 97.4034 71.2682 100.43 73.4419 103.596C77.6505 109.766 81.0035 116.467 83.4084 123.538C83.5471 123.954 84.2177 123.769 84.079 123.353C81.6047 116.12 78.1361 109.234 73.8119 102.926C71.6844 99.8297 69.3489 96.8719 66.8284 94.0759C64.3078 91.303 61.6485 88.2991 58.1337 86.8202C57.7406 86.6122 57.3706 87.213 57.7868 87.3979Z" fill="#161616"/>
<path d="M110.417 12.3682C114.233 18.5148 120.222 23.0207 127.113 25.1466C127.552 25.2852 127.714 24.6151 127.298 24.4765C120.569 22.4199 114.719 18.0064 111.019 12.0216C110.787 11.6288 110.186 11.9985 110.417 12.3682Z" fill="#161616"/>
<path d="M54.2719 0.652765C61.6717 5.66707 71.037 7.28458 79.7085 5.20492C80.1479 5.08938 79.9629 4.44237 79.5235 4.5348C71.0138 6.59136 61.8567 4.95074 54.6188 0.0519721C54.2488 -0.179102 53.902 0.421691 54.2719 0.652765Z" fill="#161616"/>
<path d="M29.7604 65.3997C33.4602 61.3097 36.6745 56.8268 39.3338 51.9974C39.5419 51.6046 38.9407 51.2579 38.7326 51.6508C36.0964 56.434 32.9284 60.8706 29.2748 64.9144C28.9742 65.2379 29.4598 65.7232 29.7604 65.3997Z" fill="#161616"/>
<path d="M52.214 38.3178C51.8903 41.5991 50.156 44.6955 48.8148 47.6532C47.4273 50.6803 45.9936 53.6611 44.5368 56.642C44.3287 57.0348 44.9299 57.3814 45.138 56.9886C46.7567 53.7536 48.306 50.4723 49.8091 47.168C51.1041 44.3257 52.6303 41.4373 52.9309 38.2947C52.954 37.8788 52.2603 37.8788 52.214 38.3178Z" fill="#161616"/>
<path d="M159.88 116.328C163.511 106.97 169.361 98.5819 176.853 91.9038C177.177 91.6034 176.691 91.1182 176.368 91.4186C168.783 98.1891 162.886 106.669 159.21 116.143C159.048 116.559 159.718 116.721 159.88 116.328Z" fill="#161616"/>
<path d="M51.0808 10.4734C50.6877 12.9459 50.2714 15.4184 49.8783 17.8909C49.8089 18.3299 50.4795 18.5148 50.5489 18.0757C50.942 15.6032 51.3583 13.1307 51.7514 10.6582C51.8207 10.2192 51.1501 10.0344 51.0808 10.4734Z" fill="#33D49E"/>
<path d="M110.233 2.59379C115.227 8.55549 121.425 13.408 128.408 16.8279C128.801 17.0128 129.148 16.4351 128.755 16.2271C121.818 12.8304 115.667 8.02402 110.718 2.10853C110.441 1.76192 109.955 2.24717 110.233 2.59379Z" fill="#33D49E"/>
<path d="M151.185 29.5139C157.013 29.7912 162.817 28.6589 168.089 26.1633C168.482 25.9785 168.135 25.3777 167.742 25.5625C162.563 27.9888 156.897 29.098 151.185 28.8207C150.723 28.7976 150.746 29.4908 151.185 29.5139Z" fill="#33D49E"/>
<path d="M171.835 18.9307C176.761 16.5275 181.201 13.2925 184.993 9.31805C185.294 8.99454 184.808 8.50929 184.507 8.83279C180.761 12.761 176.368 15.9499 171.488 18.3299C171.095 18.5148 171.442 19.1156 171.835 18.9307Z" fill="#33D49E"/>
<path d="M90.4845 110.02C96.3118 103.897 105.191 101.077 113.516 102.556C113.956 102.626 114.14 101.956 113.701 101.886C105.122 100.361 96.0111 103.203 89.9989 109.535C89.6751 109.835 90.1607 110.344 90.4845 110.02Z" fill="#33D49E"/>
<path d="M38.9407 71.3382C43.843 72.355 48.5603 73.9956 53.0233 76.2601C53.4164 76.4681 53.7633 75.8673 53.3702 75.6593C48.861 73.3717 44.0742 71.6848 39.1257 70.6681C38.6863 70.5757 38.5013 71.2458 38.9407 71.3382Z" fill="#33D49E"/>
<path d="M57.1394 15.0256C57.4169 17.7291 57.4632 20.4558 57.3013 23.1594C57.2782 23.5984 57.9719 23.5984 57.995 23.1594C58.1569 20.4327 58.0875 17.7291 57.8331 15.0256C57.7869 14.5865 57.0932 14.5865 57.1394 15.0256Z" fill="#5222D0"/>
<path d="M147.462 108.056C150.191 102.741 154.608 98.5125 159.973 95.9014C160.366 95.7166 160.019 95.1158 159.626 95.3006C154.145 97.958 149.636 102.302 146.861 107.709C146.653 108.102 147.254 108.472 147.462 108.056Z" fill="#5222D0"/>
<path d="M132.987 58.2363C135.022 56.8268 137.38 56.1798 139.854 56.3184C140.294 56.3415 140.294 55.6483 139.854 55.6252C137.265 55.4866 134.767 56.1798 132.64 57.6587C132.27 57.8897 132.617 58.4905 132.987 58.2363Z" fill="#33D49E"/>
<path d="M138.606 51.9974C140.618 52.4133 142.56 52.991 144.456 53.7535C144.873 53.9153 145.058 53.2451 144.641 53.0834C142.745 52.3209 140.803 51.7432 138.791 51.3272C138.352 51.2348 138.167 51.9049 138.606 51.9974Z" fill="#33D49E"/>
<path d="M88.1952 34.1816C88.912 30.9465 90.5538 28.0581 92.9125 25.7243C93.2362 25.4008 92.7506 24.9155 92.4269 25.239C89.9757 27.6422 88.2645 30.6461 87.5246 33.9967C87.409 34.4357 88.0795 34.6206 88.1952 34.1816Z" fill="#33D49E"/>
<path d="M93.2824 34.921C96.7279 32.2406 100.613 30.2302 104.798 28.9362C105.214 28.7976 105.053 28.1274 104.613 28.2661C100.312 29.5832 96.3348 31.6629 92.7968 34.4127C92.45 34.7131 92.9356 35.1983 93.2824 34.921Z" fill="#33D49E"/>
<path d="M86.3221 80.6274C87.1777 82.8457 87.2702 85.1565 86.6227 87.4441C86.5071 87.8832 87.1777 88.068 87.2933 87.629C87.9871 85.2258 87.8714 82.7764 86.9927 80.4426C86.8309 80.0267 86.1603 80.2115 86.3221 80.6274Z" fill="#5222D0"/>
<path d="M92.2419 81.39C93.4675 82.8688 94.9937 84.0704 96.7049 84.9254C97.098 85.1334 97.4448 84.5326 97.0517 84.3246C95.3637 83.4927 93.9069 82.3374 92.7275 80.8816C92.45 80.5581 91.9644 81.0434 92.2419 81.39Z" fill="#5222D0"/>
<path d="M167.65 76.8378C168.69 77.9932 169.153 79.4952 168.898 81.0433C168.829 81.4824 169.5 81.6672 169.569 81.2282C169.87 79.4258 169.361 77.6928 168.135 76.3525C167.835 76.0059 167.349 76.4912 167.65 76.8378Z" fill="#5222D0"/>
<path d="M173.408 75.7749C174.263 76.7454 175.096 77.6928 175.951 78.6633C176.252 79.0099 176.738 78.5015 176.437 78.178C175.581 77.2075 174.749 76.2601 173.893 75.2896C173.616 74.943 173.13 75.4283 173.408 75.7749Z" fill="#5222D0"/>
<path d="M139.855 84.0473C141.45 81.2513 143.554 78.8251 146.121 76.884C146.468 76.6067 146.121 76.006 145.774 76.2832C143.115 78.3167 140.918 80.7892 139.253 83.7007C139.045 84.0935 139.646 84.4401 139.855 84.0473Z" fill="#5222D0"/>
<path d="M223.749 34.0891C225.614 34.0891 227.125 32.6201 227.125 30.8079C227.125 28.9957 225.614 27.5266 223.749 27.5266C221.885 27.5266 220.373 28.9957 220.373 30.8079C220.373 32.6201 221.885 34.0891 223.749 34.0891Z" fill="#33D49E"/>
<path d="M229.97 41.5066C231.54 41.5066 232.814 40.2755 232.814 38.7569C232.814 37.2382 231.54 36.0071 229.97 36.0071C228.399 36.0071 227.125 37.2382 227.125 38.7569C227.125 40.2755 228.399 41.5066 229.97 41.5066Z" fill="#33D49E"/>
<path d="M59.3593 57.1041C59.683 58.7909 60.0761 60.5702 60.5848 62.4188C62.2729 68.4498 64.6778 73.4872 67.0596 77.5079C67.7533 77.6696 68.7477 77.9007 69.9732 78.0394C71.6613 78.2473 74.39 78.5939 77.4655 77.7159C78.2055 77.5079 77.8817 77.531 81.1422 76.1908C84.4027 74.8505 84.5877 74.8968 85.8364 74.3422C87.9639 73.4179 89.8832 72.0777 93.6524 69.4665C94.7392 68.704 96.2423 67.641 97.9998 66.3239C98.1154 65.5845 98.2541 64.4984 98.231 63.1813C98.1847 61.1017 97.7454 59.5997 97.121 57.4276C96.1267 54.0308 95.433 51.7201 94.9936 50.2643C94.1149 49.7097 93.1668 49.1551 92.08 48.6468C88.4957 46.9137 85.0965 46.2205 82.4834 45.9432C79.801 46.1512 77.6736 46.6364 76.2399 47.0293C69.9501 48.7623 65.6259 52.0205 62.9435 54.077C61.3479 55.2786 60.1224 56.3646 59.3593 57.1041Z" fill="white"/>
<path d="M157.082 48.6237C155.232 50.611 153.267 52.991 151.394 55.787C150.469 57.1735 149.659 58.5137 148.942 59.8077C150.353 61.9105 151.764 64.0132 153.197 66.0929C156.365 67.3176 159.533 68.5423 162.701 69.7901C165.707 66.6475 168.737 63.5049 171.743 60.3392C170.957 57.7974 170.17 55.2786 169.407 52.7368C167.858 51.9512 166.077 51.1655 164.042 50.4492C161.453 49.5711 159.117 48.9934 157.082 48.6237Z" fill="white"/>
<path d="M59.1281 57.3121C59.9143 64.7526 63.1979 71.5231 66.759 78.0163C66.9672 78.4091 67.5684 78.0625 67.3603 77.6697C63.8685 71.3151 60.5849 64.6371 59.8218 57.3121C59.7755 56.873 59.0818 56.8499 59.1281 57.3121Z" fill="#161616"/>
<path d="M59.7756 57.4969C65.441 51.3273 73.2107 47.3297 81.5123 46.2436C81.9517 46.1974 81.9517 45.5042 81.5123 45.5504C73.0257 46.6596 65.071 50.6803 59.2668 56.9886C58.9894 57.3352 59.475 57.8204 59.7756 57.4969Z" fill="#161616"/>
<path d="M81.5584 46.1512C85.3276 51.8125 87.0851 58.3981 88.7732 64.8913C88.8888 65.3303 89.5594 65.1455 89.4438 64.7064C87.7326 58.1439 85.952 51.5121 82.1596 45.8046C81.9053 45.4349 81.304 45.7815 81.5584 46.1512Z" fill="#161616"/>
<path d="M67.5684 77.9931C71.8001 76.7222 75.87 75.0354 79.7548 72.9326C81.6741 71.8928 83.5241 70.7374 85.3278 69.4896C86.9465 68.3805 88.6345 67.2251 89.5132 65.4227C89.7214 65.0299 89.1201 64.6833 88.912 65.0761C87.9639 66.994 86.0215 68.1956 84.3103 69.351C82.6222 70.4832 80.8648 71.5462 79.0611 72.5167C75.3381 74.5039 71.4301 76.0983 67.4065 77.323C66.9672 77.4617 67.1522 78.1318 67.5684 77.9931Z" fill="#161616"/>
<path d="M81.9285 46.1974C86.5071 46.3822 90.9007 47.9073 94.6006 50.634C94.9706 50.8882 95.3174 50.2874 94.9474 50.0332C91.1551 47.2372 86.6459 45.689 81.9285 45.5042C81.4892 45.4811 81.4892 46.1743 81.9285 46.1974Z" fill="#161616"/>
<path d="M94.5542 50.3337C96.6585 55.1631 97.7684 60.3392 97.7916 65.6307C97.7916 66.0698 98.4853 66.0698 98.4853 65.6307C98.439 60.2236 97.306 54.932 95.1323 49.987C94.9704 49.5711 94.3923 49.9177 94.5542 50.3337Z" fill="#161616"/>
<path d="M89.0739 65.4921C91.9413 67.3407 95.3406 66.8323 98.4623 66.0005C98.9017 65.8849 98.7167 65.2148 98.2774 65.3303C95.3406 66.116 92.1494 66.6244 89.4439 64.8913C89.0508 64.6602 88.7039 65.261 89.0739 65.4921Z" fill="#161616"/>
<path d="M67.1984 78.1087C71.3145 79.033 75.5924 78.7326 79.5235 77.1844C79.9398 77.0227 79.7548 76.3526 79.3386 76.5143C75.5231 78.0163 71.3838 78.3629 67.3834 77.4386C66.944 77.3462 66.759 78.0163 67.1984 78.1087Z" fill="#161616"/>
<path d="M79.7086 77.1382C86.5765 74.5501 92.9588 70.8299 98.5548 66.0697C98.9017 65.7693 98.393 65.2841 98.0692 65.5845C92.5657 70.2522 86.299 73.9262 79.5468 76.4681C79.1074 76.6298 79.2924 77.2999 79.7086 77.1382Z" fill="#161616"/>
<path d="M156.55 48.5544C153.614 52.0205 150.931 55.6946 148.526 59.5304C148.295 59.9001 148.896 60.2467 149.127 59.877C151.509 56.0874 154.169 52.4595 157.036 49.0396C157.337 48.7161 156.851 48.2078 156.55 48.5544Z" fill="#161616"/>
<path d="M156.874 49.1551C161.036 49.8253 165.037 51.1424 168.76 53.0603C169.153 53.2683 169.5 52.6675 169.107 52.4595C165.314 50.4954 161.268 49.1783 157.036 48.485C156.62 48.4157 156.435 49.0858 156.874 49.1551Z" fill="#161616"/>
<path d="M148.549 60.2698C152.157 61.9104 155.718 63.6204 159.256 65.4228C159.649 65.6307 159.996 65.0299 159.603 64.822C156.065 63.0427 152.503 61.3328 148.896 59.669C148.48 59.4842 148.133 60.085 148.549 60.2698Z" fill="#161616"/>
<path d="M168.945 52.7368C165.846 56.873 162.84 61.0786 159.926 65.3534C160.088 65.3072 160.25 65.261 160.412 65.2379C160.158 65.0993 159.903 64.9375 159.626 64.7989C159.233 64.5678 158.886 65.1686 159.279 65.3997C159.533 65.5383 159.788 65.7001 160.065 65.8387C160.227 65.9311 160.435 65.8618 160.551 65.7232C163.441 61.4483 166.447 57.2196 169.569 53.1065C169.8 52.7368 169.199 52.3902 168.945 52.7368Z" fill="#161616"/>
<path d="M168.875 53.1296C169.916 55.5559 170.679 58.0515 171.188 60.6395C171.28 61.0786 171.951 60.8937 171.858 60.4547C171.35 57.8204 170.54 55.2555 169.477 52.783C169.315 52.3902 168.713 52.7368 168.875 53.1296Z" fill="#161616"/>
<path d="M160.158 65.885C161.059 67.0865 161.846 68.3343 162.539 69.6746C162.747 70.0674 163.349 69.7208 163.141 69.328C162.447 67.9877 161.661 66.7399 160.759 65.5383C160.504 65.1917 159.903 65.5383 160.158 65.885Z" fill="#161616"/>
<path d="M163.141 69.6283C166.147 66.8554 168.968 63.9439 171.65 60.8706C171.951 60.524 171.442 60.0387 171.165 60.3854C168.482 63.4586 165.661 66.3933 162.655 69.1431C162.331 69.4434 162.817 69.9287 163.141 69.6283Z" fill="#161616"/>
<path d="M148.619 60.4547C150.099 62.3726 151.579 64.3136 153.059 66.2315C153.336 66.5781 153.937 66.2315 153.66 65.8849C152.18 63.967 150.7 62.026 149.22 60.1081C148.942 59.7615 148.341 60.085 148.619 60.4547Z" fill="#161616"/>
<path d="M153.197 66.4857C156.296 67.6642 159.394 68.8427 162.493 70.0211C162.909 70.1829 163.094 69.5128 162.678 69.351C159.579 68.1725 156.481 66.9941 153.382 65.8156C152.966 65.6538 152.781 66.3239 153.197 66.4857Z" fill="#161616"/>
<path d="M66.4353 51.0731C69.3721 58.8372 72.332 66.6012 75.2687 74.3884C77.4655 75.0123 79.6855 75.6131 81.8822 76.237C83.5241 75.4976 85.1659 74.735 86.8077 73.9956C84.9346 73.1868 83.0616 72.3781 81.1885 71.5693C78.1824 63.7128 75.1762 55.8332 72.1701 47.9767C71.3376 48.3464 70.4589 48.7623 69.5571 49.2476C68.3777 49.8253 67.3603 50.4723 66.4353 51.0731Z" fill="#33D49E"/>
<path d="M87.5939 46.4978C89.4901 49.9177 91.5481 54.7009 92.4037 60.6395C92.6812 62.5805 92.7968 64.4291 92.7968 66.0929C89.1201 68.912 84.634 71.8928 79.246 74.6657C76.2399 76.2139 73.3263 77.5079 70.6207 78.5709C72.1238 78.5709 73.6269 78.5709 75.1299 78.5709C78.3442 77.2306 81.9053 75.5438 85.6746 73.3948C89.7676 71.061 93.2824 68.6347 96.2192 66.3702C95.6642 63.5973 95.063 60.7551 94.4155 57.8897C93.6987 54.724 92.9587 51.6507 92.2187 48.6237C91.8025 48.2077 91.1087 47.6301 90.1144 47.1679C89.0969 46.7058 88.1951 46.544 87.5939 46.4978Z" fill="#33D49E"/>
<path d="M69.2333 49.3169C68.7246 48.901 69.3952 46.4054 71.2451 45.6197C72.6557 45.019 74.4825 45.5042 75.7543 46.8907C75.0375 47.0986 73.9506 47.4221 72.6557 47.9536C70.3433 48.901 69.5802 49.5942 69.2333 49.3169Z" fill="#33D49E"/>
<path d="M72.4475 46.8906C73.5343 46.1974 75.1068 44.9958 76.4711 43.0779C78.8066 39.7736 78.9917 36.3999 78.9685 34.9903C79.3616 34.8748 81.6972 34.1585 82.9921 35.2907C84.7496 36.8158 83.1309 40.4668 82.784 41.2293C81.7666 43.517 80.1016 44.7648 79.5698 45.1345C76.6099 47.2141 73.3725 46.9831 72.4475 46.8906Z" fill="#33D49E"/>
<path d="M60.608 40.7441C61.7642 40.5592 62.4117 42.6158 64.8166 44.6492C66.9671 46.4516 69.372 47.2604 71.2451 47.6763C70.4589 48.2771 68.9789 49.2707 66.9209 49.5249C63.9379 49.8946 59.868 48.7623 58.8968 45.9201C58.18 43.7712 59.313 40.9289 60.608 40.7441Z" fill="#33D49E"/>
<path d="M161.337 49.5018C158.354 53.4762 155.348 57.4507 152.365 61.4252C153.428 63.3662 154.492 65.3072 155.579 67.2482C156.504 67.618 157.429 68.0108 158.354 68.3805C157.683 66.763 157.013 65.1224 156.319 63.5048C158.978 59.1375 161.661 54.7934 164.32 50.4261C163.326 50.1257 162.331 49.8253 161.337 49.5018Z" fill="#33D49E"/>
<path d="M170.402 55.9256C167.349 59.3224 164.274 62.6961 161.221 66.0928C157.66 65.053 154.099 64.0132 150.538 62.9733C151.139 63.7359 151.74 64.4984 152.342 65.261C155.695 66.3701 159.025 67.4793 162.378 68.5884C165.268 65.3303 168.135 62.0953 171.026 58.8371C170.841 57.8666 170.633 56.8961 170.402 55.9256Z" fill="#33D49E"/>
<path d="M164.32 50.3336C164.436 49.8484 166.147 49.3631 167.303 50.2412C168.043 50.7958 168.482 51.8818 168.159 52.2053C167.557 52.8061 164.158 51.0731 164.32 50.3336Z" fill="#33D49E"/>
<path d="M162.516 42.8699C163.025 42.5927 164.042 43.4707 164.32 43.7018C164.597 43.9329 165.569 44.811 166.239 47.3297C166.586 48.6006 167.095 50.4954 166.563 50.7496C165.962 51.05 164.135 49.1552 163.141 47.1217C162.378 45.5042 161.846 43.2397 162.516 42.8699Z" fill="#33D49E"/>
<path d="M175.928 51.0731C175.975 50.5185 174.726 50.0795 174.379 49.964C174.055 49.8484 172.83 49.4556 170.217 50.0333C168.899 50.3337 166.956 50.7727 166.933 51.3273C166.91 51.9743 169.454 52.5982 171.743 52.4827C173.57 52.3902 175.859 51.7894 175.928 51.0731Z" fill="#33D49E"/>
<path opacity="0.09" d="M67.3833 77.9008C68.7476 77.4155 70.7594 76.6992 73.1643 75.6824C77.2573 73.9725 80.1479 72.7709 83.3621 70.5988C84.9577 69.5128 87.1082 67.849 89.3975 65.4228C90.5306 63.1582 91.9181 59.7846 92.4499 55.4866C92.7737 52.8755 92.7274 50.5647 92.5424 48.693C93.3749 49.1783 94.1842 49.6635 95.0167 50.1257C95.8492 52.2978 96.7048 54.9551 97.306 58.0284C97.9072 61.0093 98.1616 63.7128 98.231 66.0005C95.7335 68.1725 93.5136 69.7901 91.8487 70.9223C83.8246 76.3988 78.2979 77.6928 77.0723 77.9701C75.1762 78.386 73.7193 78.4553 73.0719 78.4784C70.6438 78.5709 68.6783 78.2012 67.3833 77.9008Z" fill="#353535"/>
<path opacity="0.09" d="M149.012 59.9001C150.492 62.0029 151.948 64.1056 153.428 66.1853C156.504 67.3869 159.603 68.5654 162.678 69.767C165.615 66.5781 168.552 63.4124 171.488 60.2236C170.772 57.7742 170.032 55.3248 169.315 52.8755C166.309 56.9424 163.302 61.0093 160.296 65.0762C156.527 63.3662 152.758 61.6332 149.012 59.9001Z" fill="#353535"/>
<path d="M114.45 337.971C116.016 336.014 116.956 335.114 117.308 335.349C118.209 335.897 114.998 343.801 107.636 359.101C89.5847 359.961 80.4217 359.531 80.1868 357.77C79.991 356.244 86.687 353.701 100.275 350.179C103.251 343.879 106.227 337.579 109.203 331.28C110.965 333.51 112.688 335.74 114.45 337.971Z" fill="black"/>
<path d="M123.983 212.153C122.495 222.678 120.772 233.4 118.892 244.278C113.332 276.207 106.557 306.454 99 334.901C100.096 336.114 102.955 338.893 107.654 340.184C113.567 341.788 118.461 340.027 119.871 339.48C128.721 308.567 137.531 277.616 146.381 246.704C158.011 234.026 155.779 217.631 146.89 211.683C141.016 207.77 131.932 208.318 123.983 212.153Z" fill="#33D49E"/>
<path opacity="0.15" d="M124.083 213.892C125.218 214.009 124.513 231.578 123.613 247.386C121.577 283.268 114.881 314.767 106.932 341.023C106.07 340.788 105.052 340.436 104.034 339.927C101.528 338.675 99.8441 337.032 98.8651 335.858C101.254 327.328 104.7 314.493 108.263 298.763C119.423 249.499 122.477 213.774 124.083 213.892Z" fill="#353535"/>
<path opacity="0.13" d="M117.465 254.938C116.604 265.268 115.351 276.146 113.588 287.494C110.73 306.159 106.932 323.297 102.742 338.832C102.272 338.753 101.567 338.558 100.784 338.049C99.7266 337.345 99.2175 336.445 99.0217 336.014C102.154 322.984 105.209 309.837 108.263 296.572C111.435 282.564 114.489 268.673 117.465 254.938Z" fill="#353535"/>
<path d="M189.437 336.797C187.714 334.84 186.657 333.94 186.266 334.175C185.287 334.723 188.811 342.627 196.877 357.927C216.73 358.788 226.755 358.357 227.029 356.596C227.264 355.07 219.902 352.527 204.944 349.005C201.655 342.705 198.404 336.406 195.115 330.106C193.236 332.336 191.356 334.566 189.437 336.797Z" fill="black"/>
<path d="M138.649 222.578C137.201 229.543 140.49 235.295 141.704 237.213C154.626 271.725 167.509 306.276 180.431 340.788C182.624 341.101 187.166 341.414 192.413 339.575C198.326 337.501 201.772 333.784 203.103 332.14C195.389 315.706 190.534 301.932 187.558 292.581C179.765 268.125 169.271 244.491 161.831 219.917C160.578 215.809 158.463 208.609 153.686 207.709C148.126 206.692 140.333 214.361 138.649 222.578Z" fill="#33D49E"/>
<path opacity="0.1" d="M150.789 207.944C148.087 209.9 153.099 220.348 155.487 225.552C161.244 238.113 164.22 251.769 169.741 264.447C175.693 278.103 184.425 300.211 196.76 337.306C197.621 336.875 198.718 336.288 199.814 335.388C201.263 334.214 202.242 333.001 202.868 332.062C199.775 325.371 195.311 315.237 190.612 302.598C188.928 298.098 188.732 297.276 186.892 291.642C184.934 285.655 181.88 276.577 181.253 274.738C178.316 266.286 178.316 267.421 172.795 252.434C171.62 249.264 170.015 244.882 168.096 239.169C167.156 236.391 166.452 234.161 165.943 232.556C165.864 232.321 163.28 224.3 159.638 214.792C158.698 212.287 157.68 209.822 155.135 208.531C154.978 208.413 152.12 206.966 150.789 207.944Z" fill="#353535"/>
<path opacity="0.12" d="M169.897 244.373C169.662 244.452 174.91 260.769 200.01 335.193C201.028 334.214 202.046 333.236 203.064 332.219C201.537 328.814 199.148 323.415 196.407 316.684C190.103 301.307 187.401 292.346 180.353 272.586C176.437 261.59 170.132 244.295 169.897 244.373Z" fill="#353535"/>
<path d="M180.979 98.6555C180.078 98.7338 179.452 96.073 178.473 96.1121C177.69 96.1513 177.141 97.9121 177.102 98.1469C176.632 99.7512 176.867 101.395 178.473 105.699C178.943 106.951 179.569 108.555 180.392 110.394C179.961 113.446 179.178 117.672 177.768 122.642C176.006 128.785 173.03 138.881 165.159 149.289C162.731 152.498 159.09 156.763 153.803 161.145C152.041 165.371 151.806 168.893 151.885 171.084C151.924 172.375 152.081 178.206 154.234 178.753C155.683 179.106 157.406 176.993 158.267 175.936C167.039 164.862 171.464 159.345 173.226 156.137C177.337 148.78 180.666 142.793 183.485 133.794C185.56 127.22 186.539 121.468 187.088 117.242C187.988 115.755 189.241 113.642 190.69 111.06C194.645 104.016 196.055 100.847 196.916 97.3251C197.817 93.6861 197.973 90.5558 197.073 90.2036C196.407 89.9688 195.585 91.1818 194.841 90.8688C193.744 90.3992 194.919 87.1515 193.744 86.4472C193.314 86.1733 192.452 86.2124 190.69 87.3863C189.476 84.8429 188.693 84.3733 188.184 84.4125C187.127 84.569 186.618 87.4645 186.383 90.7514C186.069 89.1471 185.286 85.782 184.307 85.782C183.485 85.782 182.624 88.2471 182.389 90.2036C182.036 92.9035 182.819 94.86 181.84 97.599C181.645 97.9903 181.371 98.5773 180.979 98.6555Z" fill="white"/>
<path d="M179.608 109.886C179.491 115.051 177.846 120.02 176.28 124.911C174.753 129.529 173.03 134.107 170.915 138.489C167 146.628 161.713 154.063 154.782 159.893C154.195 160.363 155.057 161.223 155.605 160.715C162.81 154.689 168.214 146.902 172.208 138.45C174.283 134.068 176.006 129.529 177.494 124.911C179.06 120.059 180.666 115.09 180.744 109.925C180.822 109.142 179.648 109.142 179.608 109.886Z" fill="#161616"/>
<path d="M186.579 116.694C185.521 129.059 180.117 140.68 174.635 151.637C169.623 161.654 163.554 171.397 154.508 178.245C153.921 178.714 154.508 179.732 155.096 179.262C164.337 172.258 170.563 162.436 175.654 152.224C181.253 141.072 186.657 129.255 187.753 116.694C187.792 115.951 186.618 115.951 186.579 116.694Z" fill="#161616"/>
<path d="M180.587 109.26C179.256 106.403 178.003 103.077 177.807 99.9077C177.768 99.4773 177.69 97.6382 178.003 97.4034C178.982 96.7382 179.256 97.873 179.491 98.3425C179.922 99.1642 180.235 99.7512 181.057 100.221C181.723 100.573 182.31 99.5947 181.645 99.2034C180.274 98.4208 180.392 96.2687 178.825 95.6817C177.494 95.173 177.024 96.2687 176.75 97.4034C175.81 101.434 177.846 106.247 179.491 109.847C179.922 110.551 180.901 109.925 180.587 109.26Z" fill="#161616"/>
<path d="M181.919 99.8686C183.25 96.8165 182.937 93.6861 183.054 90.4384C183.094 89.6949 182.937 87.9732 183.368 87.3863C184.151 86.408 184.738 88.4819 184.934 89.1471C185.482 91.2601 185.6 93.3731 185.443 95.5252C185.365 96.2687 186.539 96.2687 186.618 95.5252C186.735 94.0383 186.579 83.669 183.25 85.3516C181.88 86.0559 181.958 88.8341 181.919 90.0471C181.801 93.1383 182.232 96.3078 180.94 99.2425C180.627 99.9468 181.645 100.573 181.919 99.8686Z" fill="#161616"/>
<path d="M186.735 95.6034C186.97 94.1948 187.166 92.7861 187.283 91.3383C187.401 89.734 187.166 87.9341 187.675 86.408C188.106 84.9994 188.341 84.7255 188.928 85.9776C189.359 86.8776 189.515 87.8167 189.633 88.7558C189.829 90.5166 189.985 92.5905 189.437 94.3122C189.202 95.0556 190.338 95.3295 190.573 94.6252C191.199 92.5513 191.043 90.0079 190.69 87.895C190.494 86.7602 189.868 83.7864 188.341 83.7864C187.009 83.7864 186.461 86.0168 186.344 86.9559C185.952 89.6949 186.03 92.5122 185.6 95.2513C185.482 96.0339 186.618 96.3469 186.735 95.6034Z" fill="#161616"/>
<path d="M191.003 94.5861C191.16 93.3731 191.16 92.1209 191.16 90.9079C191.199 89.8514 191.121 87.0341 192.452 87.1515C193.431 87.2298 193.353 88.0515 193.431 88.9123C193.47 89.4993 193.47 90.1253 193.47 90.7123C193.47 92.1601 193.392 93.5687 193.118 95.0165C192.961 95.76 194.097 96.073 194.254 95.3296C194.645 93.4122 195.976 85.5472 192.452 85.469C189.202 85.3907 190.064 92.8253 189.829 94.6252C189.75 95.3295 190.925 95.3296 191.003 94.5861Z" fill="#161616"/>
<path d="M195.193 91.1427C195.663 91.1036 196.094 91.0644 196.564 91.0253C196.642 91.3775 196.721 91.7296 196.76 92.1209C196.838 92.8253 196.877 93.4905 196.877 94.1948C196.838 95.4469 196.642 96.7382 196.29 97.9512C195.663 100.338 194.606 102.608 193.431 104.799C191.278 108.868 188.967 112.899 186.735 116.929C186.383 117.594 187.401 118.181 187.753 117.516C189.633 114.112 191.552 110.707 193.431 107.303C195.193 104.134 196.955 100.808 197.699 97.2077C198.091 95.2513 198.913 90.7514 196.877 89.3819C195.585 88.4819 193.901 89.6949 194.058 91.1818C194.097 91.8862 195.272 91.8862 195.193 91.1427Z" fill="#161616"/>
<path opacity="0.08" d="M193.196 86.7211C192.609 86.7602 192.452 89.1862 192.061 92.0818C191.434 97.1686 190.729 102.882 188.301 107.655C187.518 109.22 186.109 111.529 183.563 114.033C183.172 116.812 182.428 120.803 181.175 125.498C178.982 133.715 175.771 145.376 166.686 156.293C164.219 159.228 160.421 163.297 154.822 167.249C154.665 171.084 154.508 174.88 154.312 178.714C156.74 176.875 160.264 173.94 163.906 169.754C168.683 164.236 171.777 157.976 177.768 145.689C182.545 135.868 183.837 132.072 184.621 129.333C186.109 124.324 186.853 119.981 187.244 116.851C189.907 112.664 191.865 108.947 193.235 106.012C195.624 100.925 199.461 92.7079 197.112 90.6732C196.446 90.1254 195.467 90.1645 194.723 90.2819C194.371 88.6384 193.744 86.682 193.196 86.7211Z" fill="#353535"/>
<path opacity="0.1" d="M191.708 109.651C189.633 111.842 187.558 114.073 185.482 116.264C185.286 118.142 184.934 120.92 184.112 124.246C182.545 130.507 180.274 134.889 179.374 136.728C177.063 141.346 174.048 148.389 171.15 158.915C172.443 156.684 179.295 144.789 183.133 134.615C184.582 130.703 185.365 128.668 185.991 125.498C186.774 121.703 186.579 119.942 187.597 116.89C188.732 113.564 190.455 111.138 191.708 109.651Z" fill="#353535"/>
<path d="M82.9278 90.0862C81.6747 90.4384 81.6356 93.8427 81.8314 95.76C82.1446 99.1643 83.476 101.708 84.0634 102.803C86.5695 107.421 88.9972 111.764 91.4642 115.951C91.7775 118.768 92.3257 122.603 93.4221 127.063C95.3408 134.889 97.8077 140.211 101.214 147.528C106.618 159.071 109.829 165.684 116.682 172.727C119.266 175.349 121.616 177.306 123.221 178.558C123.809 177.893 127.411 173.745 126.706 167.836C126.158 163.023 123.104 160.089 122.242 159.306C120.363 157.741 117.504 155.198 114.567 151.598C108.38 143.928 105.796 136.259 102.037 124.755C101.019 121.625 99.6482 117.203 98.2776 111.764C99.0216 109.338 99.6482 107.421 100.079 106.208C101.371 102.49 102.193 100.612 101.606 98.2251C101.449 97.5991 101.136 96.4252 100.353 96.1904C99.4524 95.9556 98.0818 97.0513 97.0246 99.0469C96.4372 95.8383 96.1631 93.1775 96.0456 91.1819C95.889 88.2863 95.9673 86.1733 95.3408 86.0168C94.6751 85.8603 93.657 88.208 93.5395 88.4428C92.5606 90.6341 92.5606 92.7079 92.7172 93.9992C93.0305 86.7211 92.2082 84.882 91.3075 84.6473C90.5636 84.4516 89.6238 85.4298 89.3497 85.7429C87.5092 87.6994 88.449 90.5558 88.5274 90.7514C87.705 86.4081 86.8436 86.1342 86.5695 86.1342C85.8646 86.095 85.1598 87.6602 84.8857 88.5602C84.5724 89.6558 84.7682 90.634 84.8857 91.1427C84.2591 90.5558 83.5151 89.9297 82.9278 90.0862Z" fill="white"/>
<path d="M97.9253 109.964C98.0427 114.973 99.4916 119.825 100.98 124.598C102.468 129.333 104.151 133.989 106.227 138.489C110.103 146.902 115.35 154.689 122.36 160.754C122.947 161.263 123.769 160.402 123.182 159.932C116.408 154.063 111.317 146.628 107.519 138.528C105.444 134.146 103.76 129.568 102.311 124.95C100.745 120.059 99.1783 115.09 99.0608 109.925C99.0608 109.22 97.8861 109.22 97.9253 109.964Z" fill="#161616"/>
<path d="M91.1901 116.812C92.2083 129.176 97.3771 140.798 102.703 151.871C107.636 162.163 113.706 172.18 122.79 179.301C123.378 179.771 124.2 178.949 123.613 178.479C114.724 171.554 108.85 161.849 103.956 151.871C98.591 140.837 93.3438 129.176 92.3257 116.851C92.2866 116.068 91.1118 116.068 91.1901 116.812Z" fill="#161616"/>
<path d="M99.1392 109.964C100.784 106.286 102.859 101.316 101.724 97.2078C101.449 96.1904 100.94 95.3687 99.7657 95.8383C98.2385 96.4252 98.3952 98.5773 97.0246 99.3599C96.359 99.7512 96.9463 100.769 97.612 100.377C98.2385 100.025 98.591 99.5556 98.9434 98.9295C99.1 98.6165 99.2566 97.9121 99.5307 97.6774C101.058 96.5426 100.784 99.0078 100.784 99.7121C100.705 102.999 99.4133 106.442 98.0819 109.416C97.8078 110.042 98.8259 110.629 99.1392 109.964Z" fill="#161616"/>
<path d="M97.8079 99.3599C96.594 96.5426 96.9465 93.4905 96.8681 90.5167C96.829 89.2645 96.9856 86.2124 95.5368 85.469C92.2867 83.7864 92.0909 94.1948 92.2084 95.6426C92.2867 96.3861 93.4614 96.3861 93.3831 95.6426C93.2265 93.6079 93.3048 91.5732 93.7747 89.5776C93.8921 89.0689 94.3229 86.7211 95.3018 87.1515C95.7326 87.3472 95.6934 90.0471 95.6934 90.5167C95.7717 93.7644 95.4976 96.8947 96.7898 99.9468C97.1031 100.651 98.1212 100.064 97.8079 99.3599Z" fill="#161616"/>
<path d="M93.2655 95.3687C92.8347 92.6296 92.913 89.8515 92.5214 87.1515C92.404 86.1733 91.8949 83.9429 90.5244 83.9038C89.1147 83.8647 88.4882 86.682 88.2924 87.6993C87.8617 89.9297 87.7051 92.5514 88.3316 94.7426C88.5274 95.447 89.6629 95.173 89.4671 94.4296C88.9972 92.8644 89.1147 91.0645 89.2322 89.421C89.3105 88.4428 89.4671 87.4254 89.8196 86.4863C90.4069 84.9994 90.6419 84.6864 91.1901 86.4863C91.6208 87.9341 91.425 89.6167 91.5425 91.1036C91.66 92.6296 91.8558 94.1557 92.1299 95.6817C92.2473 96.4252 93.3829 96.1122 93.2655 95.3687Z" fill="#161616"/>
<path d="M89.1539 94.6644C88.919 92.9035 89.7805 85.3907 86.5695 85.5081C83.1236 85.6255 84.455 93.4905 84.8074 95.3687C84.9641 96.1122 86.0996 95.7991 85.943 95.0557C85.6689 93.647 85.5906 92.1992 85.5906 90.7514C85.5906 89.6949 85.2773 87.308 86.5304 87.1906C87.8226 87.0733 87.7443 89.9297 87.7834 90.9471C87.8226 92.1992 87.7834 93.4122 87.9401 94.6252C88.0575 95.4078 89.2714 95.4469 89.1539 94.6644Z" fill="#161616"/>
<path d="M85.1207 91.221C85.2773 89.7732 83.6718 88.5211 82.3796 89.4211C80.4609 90.7515 81.1657 95.0166 81.5182 96.8948C82.1447 100.377 83.711 103.586 85.3948 106.716C87.3135 110.355 89.3106 113.955 91.2293 117.555C91.5817 118.22 92.5998 117.633 92.2474 116.968C90.0154 112.82 87.7051 108.712 85.5514 104.525C84.4942 102.451 83.5152 100.299 82.967 97.9904C82.6537 96.7774 82.4579 95.5252 82.4188 94.234C82.4188 93.7644 82.4188 93.2949 82.458 92.7862C82.458 92.2775 82.5363 91.7688 82.6537 91.2993C82.6929 90.7123 83.1628 90.6732 83.9851 91.1819C83.8676 91.9645 85.0424 91.9645 85.1207 91.221Z" fill="#161616"/>
<path opacity="0.09" d="M86.8827 86.4864C87.9791 86.8777 87.196 91.5732 87.0002 93.334C86.5695 97.3643 87.4701 103.469 93.8528 112.155C95.5366 120.529 98.7475 131.955 105.326 144.32C110.886 154.806 117.191 162.789 122.438 168.502C122.83 171.945 123.182 175.388 123.574 178.871C121.146 177.188 117.778 174.527 114.45 170.654C111.552 167.249 109.829 164.276 107.323 159.541C100.862 147.293 97.612 141.15 95.3408 133.716C94.0878 129.646 92.5998 123.777 91.7383 116.499C88.6448 112.507 86.5303 108.829 85.1206 106.012C82.3796 100.573 81.6747 97.1295 81.753 94.0383C81.8314 90.5167 82.4579 90.0471 82.732 89.9297C83.3194 89.695 84.1025 90.1645 84.6116 90.5558C84.5724 90.3602 84.1808 88.5993 85.3556 87.3081C85.5514 87.1516 86.3345 86.2907 86.8827 86.4864Z" fill="#353535"/>
<path opacity="0.09" d="M83.7501 100.456C84.1417 100.26 86.5303 103.625 88.2533 106.442C92.2865 113.055 93.9311 118.964 94.3619 120.411C96.9463 129.372 100.275 136.963 106.971 152.106C109.007 156.684 112.1 163.336 116.447 171.201C115.194 170.028 113.393 168.267 111.474 165.958C109.79 163.962 104.269 157.193 98.5126 141.659C96.2806 135.594 93.657 127.416 91.7775 117.359C90.4461 115.09 88.6057 111.842 86.6478 107.773C85.7863 105.934 83.3194 100.69 83.7501 100.456Z" fill="#353535"/>
<path d="M139.354 155.902C137.984 155.784 135.556 155.589 132.384 155.902C128.703 156.293 125.414 156.606 122.947 158.758C121.107 160.363 120.559 162.358 119.54 166.31C118.953 168.619 118.17 171.749 118.248 175.975C118.405 183.801 121.381 184.818 122.947 194.288C123.73 198.866 123.652 202.427 123.613 206.692C123.535 212.365 122.947 217.178 122.321 220.896C124.004 222.226 126.589 224.026 130.113 225.435C132.267 226.296 138.375 228.604 146.207 227.235C154.43 225.826 159.481 221.209 161.165 219.526C158.424 212.131 158.15 206.183 158.385 202.153C158.698 197.262 159.716 196.205 161.165 185.679C162.262 177.853 162.222 174.606 162.144 172.845C161.87 165.802 161.713 162.241 159.364 159.854C157.054 157.506 151.141 156.958 139.354 155.902Z" fill="white"/>
<path d="M137.396 155.628C134.499 155.432 131.601 155.589 128.742 156.097C126.315 156.528 123.809 156.958 122.203 158.954C119.266 162.554 118.013 167.523 117.778 172.062C117.191 183.644 122.947 194.209 124.905 205.4C125.023 206.144 126.158 205.831 126.041 205.087C124.279 194.992 119.423 185.562 118.953 175.231C118.757 170.497 119.462 165.645 121.89 161.497C122.712 160.088 123.613 158.719 125.218 158.132C126.315 157.741 127.529 157.506 128.664 157.271C131.523 156.723 134.46 156.606 137.357 156.762C138.14 156.841 138.14 155.667 137.396 155.628Z" fill="#161616"/>
<path d="M122.203 194.131C123.339 202.74 123.221 211.426 121.811 219.996C121.694 220.739 122.83 221.052 122.947 220.309C124.396 211.622 124.553 202.857 123.378 194.131C123.26 193.388 122.086 193.388 122.203 194.131Z" fill="#161616"/>
<path d="M142.213 156.684C147.46 156.371 153.921 156.997 158.385 160.128C161.087 162.045 161.204 165.254 161.478 168.267C161.752 170.967 161.87 173.667 161.674 176.406C160.891 187.088 156.584 197.222 156.623 208.022C156.623 208.766 157.798 208.766 157.798 208.022C157.758 195.853 163.319 184.388 162.927 172.18C162.771 167.523 162.927 161.536 158.463 158.797C153.803 155.941 147.577 155.197 142.213 155.511C141.43 155.55 141.43 156.724 142.213 156.684Z" fill="#161616"/>
<path d="M157.837 196.283C157.758 203.953 158.698 211.544 160.578 218.978C160.774 219.722 161.909 219.409 161.713 218.665C159.873 211.348 158.933 203.835 159.012 196.283C159.012 195.54 157.837 195.54 157.837 196.283Z" fill="#161616"/>
<path d="M121.89 221.091C127.215 225.513 133.99 228.174 140.96 228.213C148.83 228.252 155.409 224.417 161.478 219.761C162.066 219.291 161.478 218.274 160.891 218.744C155.135 223.126 148.987 226.882 141.586 227C134.734 227.117 127.998 224.574 122.751 220.23C122.125 219.761 121.302 220.583 121.89 221.091Z" fill="#161616"/>
<path opacity="0.11" d="M151.532 156.41C152.746 159.345 154.313 163.767 155.096 169.284C156.623 180.358 154.039 188.849 150.945 198.67C148.635 205.987 144.758 216.083 137.945 227.391C140.098 227.587 142.761 227.587 145.737 227.039C153.49 225.63 158.659 221.404 160.97 219.252C160.695 217.296 160.225 214.244 159.56 210.566C158.503 204.814 158.15 204.383 158.033 202.309C157.876 199.766 158.307 200.079 160.617 189.318C161.518 185.092 162.183 181.258 162.575 176.249C162.614 175.819 162.614 175.388 162.653 174.958C162.849 168.501 162.927 164.549 160.186 161.184C157.563 157.976 153.764 156.841 151.532 156.41Z" fill="#353535"/>
<path opacity="0.08" d="M162.849 175.153C162.575 175.075 161.204 177.227 157.993 185.797C154.469 195.227 150.123 208.805 146.755 226.374C148.478 226.139 150.867 225.63 153.49 224.456C157.014 222.852 159.364 220.7 160.695 219.252C159.52 215.144 158.189 209.039 158.228 201.605C158.267 186.971 163.475 175.349 162.849 175.153Z" fill="#353535"/>
<path d="M125.218 127.416C123.691 130.546 124.122 133.715 124.474 135.202C124.318 135.202 122.477 135.124 121.498 136.455C120.324 138.02 121.42 139.976 121.616 140.289C121.89 140.759 122.242 141.424 122.986 141.62C124.161 141.972 125.258 140.954 125.336 140.876C125.923 142.363 126.902 144.241 128.429 146.159C130.779 149.132 133.402 150.893 135.164 151.871C135.243 153.75 135.321 155.589 135.36 157.467C135.791 157.858 136.692 158.563 138.023 158.797C140.647 159.306 142.683 157.584 142.918 157.35C142.879 155.002 142.839 152.654 142.8 150.306C143.818 149.524 144.993 148.428 146.129 146.98C148.4 144.006 149.222 140.994 149.535 139.194C149.966 139.35 150.671 139.507 151.572 139.507C152.433 139.507 153.529 139.467 154.039 138.763C154.587 137.981 153.999 136.846 153.412 135.633C152.825 134.498 152.394 134.342 152.237 134.302C151.572 134.107 150.945 134.498 150.749 134.615C150.906 133.363 150.984 131.016 150.005 128.394C149.731 127.65 148.165 123.659 144.367 121.546C138.14 118.181 128.351 121.038 125.218 127.416Z" fill="white"/>
<path d="M124.513 127.494C122.203 137.628 125.962 150.698 137.475 152.889C138.219 153.045 138.532 151.911 137.788 151.754C126.902 149.68 123.495 137.354 125.649 127.807C125.806 127.063 124.67 126.75 124.513 127.494Z" fill="#161616"/>
<path d="M137.631 152.85C139.237 153.319 141.43 151.793 142.722 150.932C144.445 149.798 145.972 148.35 147.186 146.667C150.201 142.637 151.337 137.55 150.867 132.62C150.788 131.876 149.614 131.876 149.692 132.62C150.123 136.885 149.34 141.228 147.029 144.867C146.05 146.393 144.836 147.763 143.427 148.937C142.291 149.876 139.511 152.145 137.945 151.715C137.201 151.519 136.887 152.654 137.631 152.85Z" fill="#161616"/>
<path d="M134.186 151.911C134.773 153.515 134.93 155.197 134.655 156.88C134.538 157.623 135.673 157.937 135.791 157.193C136.104 155.276 135.987 153.437 135.321 151.598C135.086 150.893 133.951 151.167 134.186 151.911Z" fill="#161616"/>
<path d="M142.291 150.58C142.095 152.576 142.252 154.532 142.761 156.489C142.957 157.232 144.092 156.919 143.897 156.176C143.427 154.337 143.309 152.458 143.466 150.58C143.544 149.837 142.369 149.837 142.291 150.58Z" fill="#161616"/>
<path d="M134.694 157.623C137.396 160.636 143.035 160.558 144.014 155.98C144.171 155.237 143.035 154.924 142.878 155.667C142.056 159.384 137.67 159.15 135.517 156.802C135.008 156.254 134.185 157.076 134.694 157.623Z" fill="#161616"/>
<path d="M134.929 152.693C137.201 154.767 140.764 154.297 142.213 151.519C142.565 150.854 141.547 150.267 141.195 150.932C140.098 153.006 137.475 153.476 135.752 151.871C135.204 151.363 134.381 152.184 134.929 152.693Z" fill="#161616"/>
<path d="M137.279 153.554C137.827 153.515 138.336 153.554 138.845 153.711C139.589 153.906 139.903 152.771 139.159 152.576C138.532 152.419 137.905 152.341 137.279 152.38C136.535 152.419 136.535 153.593 137.279 153.554Z" fill="#161616"/>
<path d="M124.631 140.993C123.025 142.285 121.616 140.485 121.459 138.959C121.263 137.472 122.556 135.633 124.2 136.65C124.827 137.041 125.414 136.024 124.788 135.633C122.36 134.107 120.01 136.689 120.284 139.115C120.598 141.698 123.143 143.693 125.453 141.815C126.041 141.346 125.218 140.524 124.631 140.993Z" fill="#161616"/>
<path d="M151.062 135.281C152.315 134.107 153.529 136.337 153.49 137.354C153.49 137.981 153.177 138.607 152.629 138.959C152.198 139.233 151.18 139.585 150.827 139.037C150.436 138.411 149.418 138.998 149.809 139.624C150.397 140.602 151.728 140.641 152.707 140.25C153.843 139.781 154.587 138.724 154.626 137.511C154.743 135.359 152.276 132.502 150.201 134.459C149.692 134.968 150.514 135.828 151.062 135.281Z" fill="#161616"/>
<path d="M135.321 127.377C135.634 130.116 135.478 132.698 135.204 135.437C135.047 137.276 136.026 138.059 137.475 139.233C138.062 139.702 138.884 138.881 138.297 138.411C137.279 137.55 136.378 136.963 136.417 135.398C136.417 134.655 136.613 133.833 136.692 133.089C136.848 131.172 136.77 129.255 136.535 127.377C136.417 126.633 135.243 126.633 135.321 127.377Z" fill="#161616"/>
<path d="M128.782 132.933C128.743 132.072 129.996 131.524 130.701 131.563C131.523 131.563 131.954 132.229 132.384 132.855C132.815 133.481 133.833 132.894 133.402 132.268C132.619 131.133 131.719 130.194 130.231 130.429C128.978 130.663 127.529 131.563 127.568 132.972C127.607 133.715 128.782 133.715 128.782 132.933Z" fill="#161616"/>
<path d="M142.213 131.876C143.27 129.881 146.129 130.194 146.638 132.424C146.794 133.168 147.93 132.855 147.773 132.111C147.068 128.903 142.722 128.394 141.195 131.25C140.881 131.915 141.86 132.542 142.213 131.876Z" fill="#161616"/>
<path d="M127.646 128.785C128.312 127.768 129.447 127.103 130.661 126.946C131.405 126.868 131.405 125.694 130.661 125.772C128.977 125.968 127.568 126.79 126.628 128.198C126.197 128.824 127.215 129.411 127.646 128.785Z" fill="#161616"/>
<path d="M142.213 126.594C143.623 126.516 144.915 126.946 145.933 127.885C146.481 128.394 147.342 127.572 146.755 127.063C145.502 125.929 143.897 125.342 142.174 125.42C141.43 125.459 141.43 126.633 142.213 126.594Z" fill="#161616"/>
<path d="M129.095 135.946C129.095 135.907 129.095 135.907 129.095 135.868C129.095 135.555 128.821 135.281 128.508 135.281C128.194 135.281 127.92 135.555 127.92 135.868C127.92 135.907 127.92 135.907 127.92 135.946C127.92 136.259 128.194 136.533 128.508 136.533C128.821 136.533 129.095 136.298 129.095 135.946Z" fill="#161616"/>
<path d="M130.896 135.672C130.935 135.672 130.975 135.672 130.975 135.672C131.288 135.672 131.562 135.398 131.562 135.085C131.562 134.772 131.288 134.498 130.975 134.498C130.935 134.498 130.896 134.498 130.896 134.498C130.583 134.498 130.309 134.772 130.309 135.085C130.348 135.398 130.583 135.672 130.896 135.672Z" fill="#161616"/>
<path d="M130.818 138.254C130.857 138.254 130.896 138.254 130.896 138.254C131.21 138.254 131.484 137.981 131.484 137.668C131.484 137.354 131.21 137.081 130.896 137.081C130.857 137.081 130.818 137.081 130.818 137.081C130.505 137.081 130.231 137.354 130.231 137.668C130.231 137.981 130.505 138.254 130.818 138.254Z" fill="#161616"/>
<path d="M143.505 134.811C143.544 134.811 143.583 134.811 143.583 134.811C143.897 134.811 144.171 134.537 144.171 134.224C144.171 133.911 143.897 133.637 143.583 133.637C143.544 133.637 143.505 133.637 143.505 133.637C143.192 133.637 142.918 133.911 142.918 134.224C142.957 134.537 143.192 134.811 143.505 134.811Z" fill="#161616"/>
<path d="M146.951 134.733C147.695 134.733 147.695 133.559 146.951 133.559C146.207 133.559 146.207 134.733 146.951 134.733Z" fill="#161616"/>
<path d="M145.659 136.611C146.403 136.611 146.403 135.437 145.659 135.437C144.876 135.437 144.876 136.611 145.659 136.611Z" fill="#161616"/>
<path d="M132.697 141.737C135.086 146.041 141.351 145.415 142.878 140.759C143.113 140.054 141.978 139.741 141.743 140.446C140.529 144.202 135.595 144.515 133.716 141.15C133.363 140.485 132.345 141.072 132.697 141.737Z" fill="#161616"/>
<path d="M118.718 132.15C117.269 134.302 115.194 138.02 114.372 142.989C113.784 146.55 112.766 152.771 116.682 157.702C117.739 159.032 121.616 163.376 126.941 162.671C130.505 162.202 134.303 159.541 135.008 155.824C135.36 154.102 134.969 152.615 134.616 151.754C132.933 150.932 129.917 149.211 127.568 145.846C126.393 144.202 125.688 142.598 125.297 141.346C125.101 141.502 124.474 141.972 123.613 141.933C122.595 141.893 121.968 141.189 121.812 140.994C120.598 139.624 120.715 136.807 122.321 135.868C123.143 135.398 124.083 135.555 124.592 135.672C124.357 134.224 124.122 131.133 125.767 127.885C126.863 125.694 128.547 124.09 132.423 121.664C135.634 119.668 137.044 119.825 137.553 119.903C139.276 120.216 140.333 121.585 140.882 122.29C143.348 125.42 146.559 129.45 150.397 134.42C150.554 134.342 151.611 133.833 152.668 134.302C153.412 134.655 153.764 135.32 153.999 135.828C154.195 136.259 154.508 136.885 154.352 137.628C154.195 138.567 153.451 139.428 152.433 139.741C151.18 140.133 150.162 139.467 150.005 139.35C149.692 140.837 149.066 143.067 147.578 145.454C146.05 147.88 144.288 149.485 143.074 150.424C142.918 151.363 142.722 153.084 143.466 155.041C144.641 158.25 147.695 160.284 150.514 160.91C155.801 162.045 160.069 158.093 161.165 157.037C164.924 153.515 167.196 147.606 165.277 141.933C163.828 137.707 160.617 135.398 159.364 134.576C157.837 131.055 156.271 128.316 155.018 126.359C151.493 120.842 149.066 117.125 144.641 115.755C141.939 114.933 139.472 115.246 137.827 115.638C135.165 115.051 133.089 115.286 131.679 115.638C125.179 117.242 120.245 123.737 118.718 132.15Z" fill="#33D49E"/>
<path opacity="0.08" d="M145.58 127.807C145.267 127.924 145.894 129.959 146.207 131.994C146.246 132.268 146.912 137.315 145.032 142.128C142.918 147.528 138.532 150.424 136.613 151.519C137.827 151.793 139.08 152.067 140.294 152.38C140.647 154.493 140.96 156.645 141.312 158.758C142.095 157.819 142.918 156.88 143.701 155.941C144.053 156.606 144.68 157.584 145.659 158.484C145.972 158.797 148.243 160.832 151.611 161.106C155.37 161.458 158.15 159.423 159.716 158.289C160.774 157.545 163.906 155.197 165.355 150.698C166.921 145.806 165.394 141.698 164.924 140.563C164.415 142.52 163.358 145.454 161.087 148.311C160.539 149.015 155.605 155.158 152.551 154.102C149.927 153.202 149.026 147.019 150.319 138.92C150.397 138.998 151.023 139.741 151.924 139.702C153.06 139.663 153.569 138.528 153.647 138.411C154.195 137.237 153.529 135.946 152.864 135.241C152.002 134.302 150.828 134.146 150.475 134.146C149.966 133.637 149.222 132.855 148.439 131.837C146.559 129.529 145.855 127.729 145.58 127.807Z" fill="#353535"/>
<path opacity="0.09" d="M136.104 136.494C136.418 135.985 138.14 135.868 138.649 136.924C139.041 137.746 138.532 138.841 137.984 138.959C137.122 139.194 135.674 137.159 136.104 136.494Z" fill="#353535"/>
<path opacity="0.09" d="M127.059 153.045C126.236 154.454 124.592 155.745 122.947 155.589C121.968 155.51 120.872 154.924 117.074 148.859C115.82 146.863 114.842 145.141 114.176 144.006C113.823 145.298 113.354 147.606 113.745 150.385C113.902 151.48 114.293 153.358 115.351 155.393C116.016 156.684 117.583 159.541 120.911 161.341C121.89 161.889 123.613 162.789 125.923 162.789C129.8 162.749 132.306 160.167 132.815 159.619C133.716 158.719 135.008 157.35 135.204 155.197C135.399 153.124 134.42 151.519 134.185 151.206C133.011 149.406 131.758 149.602 129.761 147.88C127.215 145.689 126.511 142.989 126.197 143.106C125.727 143.38 129.291 149.211 127.059 153.045Z" fill="#353535"/>
<path opacity="0.13" d="M150.162 136.572C149.927 136.494 149.222 138.959 147.186 142.285C144.288 147.019 140.725 150.111 138.141 151.989C139.942 151.48 143.153 150.306 145.815 147.411C150.044 142.872 150.514 136.689 150.162 136.572Z" fill="#353535"/>
</svg>
