<svg width="140" height="140" viewBox="0 0 140 140" fill="none" xmlns="http://www.w3.org/2000/svg">
<circle cx="70" cy="70" r="70" fill="#BAF5E1"/>
<mask id="mask0_74_8136" style="mask-type:alpha" maskUnits="userSpaceOnUse" x="0" y="0" width="140" height="140">
<circle cx="70" cy="70" r="70" fill="white"/>
</mask>
<g mask="url(#mask0_74_8136)">
<path d="M104 32C110.627 32 116 37.3726 116 44V136C116 142.627 110.627 148 104 148H36C29.3726 148 24 142.627 24 136V44C24 37.3726 29.3726 32 36 32H46V32C46 45.2548 56.7452 56 70 56C79.7968 56 88.2226 50.1301 91.9522 41.7154C94.1901 36.6663 98.4772 32 104 32V32Z" fill="white"/>
<circle cx="70" cy="32" r="20" fill="#33D49E"/>
<rect x="62" y="30" width="16" height="10" rx="4" fill="#E1FFF5"/>
<path fill-rule="evenodd" clip-rule="evenodd" d="M73.9949 27.8237C73.9037 26.2489 72.5977 25 71 25H69L68.8237 25.0051C67.2489 25.0963 66 26.4023 66 28V30H68V28L68.0067 27.8834C68.0645 27.386 68.4872 27 69 27H71L71.1166 27.0067C71.614 27.0645 72 27.4872 72 28V30H74V28L73.9949 27.8237ZM70 37C71.1046 37 72 36.1046 72 35C72 33.8954 71.1046 33 70 33C68.8954 33 68 33.8954 68 35C68 36.1046 68.8954 37 70 37Z" fill="#1B7A00"/>
<path fill-rule="evenodd" clip-rule="evenodd" d="M50 66C50 69.3137 47.3137 72 44 72C40.6863 72 38 69.3137 38 66C38 62.6863 40.6863 60 44 60C47.3137 60 50 62.6863 50 66ZM76 66C76 69.3137 73.3137 72 70 72C66.6863 72 64 69.3137 64 66C64 62.6863 66.6863 60 70 60C73.3137 60 76 62.6863 76 66ZM96 72C99.3137 72 102 69.3137 102 66C102 62.6863 99.3137 60 96 60C92.6863 60 90 62.6863 90 66C90 69.3137 92.6863 72 96 72ZM50 92C50 95.3137 47.3137 98 44 98C40.6863 98 38 95.3137 38 92C38 88.6863 40.6863 86 44 86C47.3137 86 50 88.6863 50 92ZM70 98C73.3137 98 76 95.3137 76 92C76 88.6863 73.3137 86 70 86C66.6863 86 64 88.6863 64 92C64 95.3137 66.6863 98 70 98ZM102 92C102 95.3137 99.3137 98 96 98C92.6863 98 90 95.3137 90 92C90 88.6863 92.6863 86 96 86C99.3137 86 102 88.6863 102 92ZM44 124C47.3137 124 50 121.314 50 118C50 114.686 47.3137 112 44 112C40.6863 112 38 114.686 38 118C38 121.314 40.6863 124 44 124ZM76 118C76 121.314 73.3137 124 70 124C66.6863 124 64 121.314 64 118C64 114.686 66.6863 112 70 112C73.3137 112 76 114.686 76 118ZM96 124C99.3137 124 102 121.314 102 118C102 114.686 99.3137 112 96 112C92.6863 112 90 114.686 90 118C90 121.314 92.6863 124 96 124Z" fill="#1B7A00"/>
</g>
</svg>
