<svg width="24" height="24" viewBox="0 0 24 24" fill="none" xmlns="http://www.w3.org/2000/svg">
<path d="M19.7017 5.51885C19.5554 5.4327 19.3754 5.4267 19.2237 5.50287C19.0722 5.57923 18.9698 5.72721 18.9517 5.89587C18.9337 6.05988 18.9057 6.22385 18.8707 6.39588C17.8917 10.8389 15.9257 12.9999 12.8587 12.9999H8.35868C8.1214 13.0003 7.91712 13.1674 7.86968 13.3998L6.36969 20.4308L6.1017 22.2208C5.94762 23.0348 6.48256 23.8196 7.2965 23.9737C7.38626 23.9907 7.47734 23.9994 7.5687 23.9998H10.5787C11.2686 24.002 11.8701 23.5311 12.0337 22.8608L13.2497 17.9999H15.8587C18.9376 17.9999 21.0657 15.5449 21.8506 11.0869V11.0869C22.3688 8.96411 21.5115 6.74308 19.7017 5.51885Z" fill="#03A9F4"/>
<path d="M18.7586 1.78203C17.7706 0.661301 16.3527 0.0133958 14.8586 3.64138e-05H6.57865C5.33951 -0.00661982 4.28455 0.899988 4.10469 2.126L1.53369 19.277C1.41055 20.0962 1.97479 20.8601 2.79402 20.9833C2.86836 20.9945 2.9435 21 3.01869 21H6.85868C7.09596 20.9996 7.30024 20.8325 7.34768 20.6L8.7627 14H12.8627C16.4207 14 18.7717 11.513 19.8517 6.60002C19.8951 6.40418 19.9285 6.20628 19.9517 6.00701C20.2024 4.49131 19.7651 2.9427 18.7586 1.78203Z" fill="#283593"/>
</svg>
