<svg width="327" height="258" viewBox="0 0 327 258" fill="none" xmlns="http://www.w3.org/2000/svg">
<path d="M83.7294 95.3996C85.0564 97.8208 85.0801 100.693 83.8004 103.138C83.5872 103.541 84.2033 103.897 84.4166 103.494C85.8147 100.812 85.791 97.6783 84.3455 95.0435C84.1085 94.6162 83.5161 94.996 83.7294 95.3996Z" fill="#121826"/>
<path d="M84.6061 95.5186C85.4118 95.1151 86.3597 94.6166 87.2839 94.8302C88.6583 95.1151 88.7057 96.2307 88.8005 97.3701C88.8952 98.8893 88.8241 100.503 87.8289 101.738C87.5445 102.094 88.0422 102.592 88.3265 102.236C89.7009 100.551 89.8668 97.9161 89.3455 95.8509C88.682 93.3585 85.9805 94.0469 84.2744 94.9014C83.8478 95.0913 84.2033 95.7085 84.6061 95.5186Z" fill="#121826"/>
<path d="M84.6061 103.636C85.9331 103.803 87.2601 103.28 88.1369 102.26C88.4213 101.904 87.9236 101.405 87.6393 101.761C86.881 102.663 85.7909 103.09 84.6061 102.948C84.1559 102.877 84.1559 103.589 84.6061 103.636Z" fill="#121826"/>
<path d="M84.3929 64.1383C84.7009 63.5449 85.554 61.9307 86.5019 63.4262C86.6678 63.6636 86.6678 64.3282 86.7152 64.5656C86.8099 65.064 86.9758 65.5863 87.3313 65.9661C88.5161 67.2004 89.3455 65.1827 90.5777 65.8474C92.1417 66.6782 90.1038 68.4347 91.3834 69.408C91.6915 69.6453 92.0469 69.6453 92.4024 69.5029C92.6393 69.408 92.8289 69.1943 93.0659 69.0756C93.9426 68.6958 94.2507 69.4792 94.3218 70.1676C94.3455 70.3812 94.464 70.4999 94.6772 70.5236C94.9379 70.5474 95.1749 70.5711 95.4355 70.5948C95.8858 70.6423 95.8858 69.9302 95.4355 69.8827C95.1749 69.859 94.9379 69.8352 94.6772 69.8115C94.7957 69.9302 94.9142 70.0489 95.0327 70.1676C94.9616 69.5266 94.8431 68.6958 94.2507 68.3161C93.6109 67.8888 93.1844 68.2686 92.5919 68.5534C92.3076 68.6958 92.0706 69.1706 91.6678 68.6009C91.5256 68.3873 91.8336 67.7226 91.881 67.4852C91.9758 67.1055 92.0232 66.7731 91.9047 66.3933C91.7152 65.7999 91.1938 65.3014 90.6014 65.1115C89.8668 64.8504 89.5114 65.159 88.8479 65.3489C88.2554 65.5151 87.663 65.4676 87.4498 64.8267C87.3787 64.5893 87.355 64.3045 87.3313 64.0671C87.2602 63.6873 87.2128 63.2838 87.0232 62.9277C86.0516 61.1474 84.3692 62.6429 83.7768 63.8534C83.5635 64.1858 84.1796 64.5418 84.3929 64.1383Z" fill="#121826"/>
<path d="M88.99 61.9302C89.5587 61.3842 90.0801 61.1468 90.6962 61.6691C91.1938 62.0963 91.099 62.2388 91.2412 62.8084C91.336 63.1408 91.4308 63.4494 91.7151 63.6867C92.0706 63.9953 92.4734 63.9953 92.9237 63.9478C93.3502 63.9004 93.8478 63.6155 94.2033 64.0665C94.3692 64.2802 94.3455 64.7549 94.3455 65.016C94.3692 65.7281 94.3692 66.5827 95.1748 66.8438C95.4118 66.915 95.6725 66.7963 95.8857 66.8675C96.1701 66.7488 96.2886 66.82 96.3123 67.1286C96.4071 67.3185 96.4545 67.5084 96.4308 67.7458C96.5493 68.2917 96.7625 68.6953 97.1891 69.0751C97.5208 69.3837 98.0184 68.8852 97.6867 68.5766C96.9758 67.912 97.4734 66.9862 96.881 66.3928C96.2649 65.7756 95.2933 66.6776 95.0801 65.5382C94.9142 64.66 95.2459 63.4731 94.0848 63.1645C93.2554 62.9509 92.3786 63.7817 91.9284 62.6423C91.7388 62.1675 91.8099 61.6453 91.4782 61.1943C90.6962 60.1736 89.2507 60.6958 88.4687 61.4317C88.1369 61.7403 88.6582 62.2625 88.99 61.9302Z" fill="#121826"/>
<path d="M176.289 106.058C175.578 105.987 176.644 104.586 176.857 104.468C177.426 104.159 178.09 104.325 178.516 104.776C179.44 105.773 178.658 107.245 177.402 107.387C176.952 107.435 176.952 108.147 177.402 108.1C178.445 107.981 179.369 107.293 179.606 106.248C179.843 105.227 179.227 104.135 178.279 103.732C177.355 103.352 176.336 103.708 175.791 104.539C175.317 105.251 175.199 106.675 176.312 106.77C176.739 106.818 176.739 106.106 176.289 106.058Z" fill="#121826"/>
<path d="M171.502 104.61C171.004 104.159 171.597 103.257 172.165 103.756C172.758 104.254 171.952 104.942 171.407 104.539C171.052 104.254 170.696 104.871 171.052 105.156C171.549 105.536 172.308 105.417 172.758 104.966C173.279 104.444 173.161 103.637 172.616 103.186C172.071 102.735 171.289 102.759 170.862 103.352C170.483 103.874 170.53 104.634 171.004 105.085C171.336 105.417 171.857 104.919 171.502 104.61Z" fill="#121826"/>
<path d="M253.706 74.1078C253.943 78.5229 251.739 82.7719 248.019 85.1456C247.639 85.383 247.995 86.0001 248.374 85.7628C252.308 83.2704 254.654 78.784 254.417 74.1078C254.393 73.6568 253.682 73.6568 253.706 74.1078Z" fill="#121826"/>
<path d="M254.18 74.6295C256.455 76.2911 255.53 79.3057 254.275 81.2759C253.09 83.1511 251.17 85.3824 248.706 85.0026C248.256 84.9314 248.066 85.6198 248.516 85.691C251.478 86.1183 253.73 83.6259 255.104 81.2996C256.478 78.9971 257 75.8163 254.535 74.0123C254.156 73.7512 253.801 74.3684 254.18 74.6295Z" fill="#121826"/>
<path d="M54.7009 53.5033C56.1938 55.972 57.0943 58.7018 57.3076 61.574C57.355 62.025 58.0659 62.025 58.0185 61.574C57.7815 58.5593 56.881 55.7346 55.317 53.1472C55.0564 52.7437 54.4403 53.0998 54.7009 53.5033Z" fill="#E8E8E8"/>
<path d="M57.5918 52.7201C58.8241 54.9514 59.5113 57.3726 59.6771 59.9125C59.7008 60.3635 60.4117 60.3635 60.388 59.9125C60.2222 57.2539 59.4876 54.714 58.2079 52.364C57.9947 51.9605 57.3786 52.3166 57.5918 52.7201Z" fill="#E8E8E8"/>
<path d="M54.5113 58.0611C56.5729 56.708 58.8952 55.9959 61.3834 55.9484C61.8336 55.9484 61.8336 55.2363 61.3834 55.2363C58.8004 55.2838 56.336 56.0434 54.1559 57.4676C53.7767 57.705 54.1322 58.3222 54.5113 58.0611Z" fill="#E8E8E8"/>
<path d="M54.4402 60.9572C57.0231 59.3905 59.843 58.3936 62.8288 57.9426C63.279 57.8714 63.0895 57.183 62.6392 57.2542C59.5823 57.7052 56.715 58.7496 54.0847 60.34C53.7056 60.5774 54.061 61.1946 54.4402 60.9572Z" fill="#E8E8E8"/>
<path d="M193.587 72.6599C192.497 73.2059 192.071 74.6301 192.995 75.5559C193.493 76.0544 193.919 75.9119 194.512 76.1018C194.891 76.2205 195.317 76.4579 195.246 76.8377C195.199 77.0988 194.938 77.3124 194.796 77.5261C194.559 77.8346 194.275 78.1907 194.18 78.5705C194.085 79.0215 194.203 79.4725 194.559 79.7811C195.08 80.2321 195.767 79.9473 196.336 80.2321C197.521 80.8018 195.365 83.2942 197.189 83.769C197.639 83.8876 197.829 83.1993 197.379 83.0806C196.621 82.8907 197.568 81.4427 197.639 80.9917C197.687 80.5882 197.616 80.1846 197.308 79.8998C196.502 79.1165 194.132 79.9473 195.341 77.9533C195.72 77.3362 196.407 76.5766 195.957 75.7695C195.815 75.5084 195.578 75.366 195.293 75.2948C195.009 75.2473 194.559 75.2948 194.275 75.271C193.019 75.1998 192.876 73.7993 193.943 73.2534C194.346 73.0872 193.99 72.47 193.587 72.6599Z" fill="#E8E8E8"/>
<path d="M198.848 76.6477C198.066 76.9563 198.042 77.8108 198.516 78.4517C198.824 78.9028 199.322 78.9977 199.725 79.3063C200.72 80.0421 199.843 80.6593 199.677 81.5138C199.393 82.9856 200.957 82.4871 201.407 83.4366C201.786 84.2199 201.644 85.0982 202.616 85.4542C203.042 85.6204 203.232 84.932 202.805 84.7659C202.118 84.5285 202.213 83.2229 201.834 82.7007C201.715 82.5108 201.549 82.3921 201.383 82.2497C201.289 82.1785 201.146 82.2022 201.075 82.1548C200.91 82.131 200.791 82.0123 200.744 81.775C200.412 81.5613 200.365 81.3477 200.649 81.1103C200.862 80.4457 201.289 80.0421 200.838 79.3538C200.673 79.0927 200.365 78.9028 200.104 78.7366C199.891 78.5942 198.35 77.6447 199.061 77.3598C199.464 77.1699 199.274 76.4816 198.848 76.6477Z" fill="#E8E8E8"/>
<path d="M244.63 124.573C242.9 123.339 243.184 120.752 245.056 119.802C246.478 119.09 248.421 119.755 249.156 121.155C249.891 122.556 249.251 124.526 247.853 125.262C246.384 126.021 244.559 125.357 243.729 124.004C243.493 123.624 242.876 123.98 243.113 124.36C244.18 126.14 246.644 126.923 248.469 125.736C250.199 124.597 250.744 121.962 249.464 120.301C248.208 118.686 245.696 118.307 244.109 119.612C242.26 121.108 242.402 123.837 244.298 125.214C244.654 125.452 245.009 124.834 244.63 124.573Z" fill="#E8E8E8"/>
<path d="M81.0753 131.409C81.3359 130.555 81.7151 130.317 82.1653 130.721C82.2838 130.768 82.4023 130.84 82.4971 130.887C82.6629 130.935 82.8762 130.982 83.0421 130.958C83.3975 130.911 83.6819 130.697 83.8478 130.412C84.4402 129.463 83.7767 128.537 83.1843 127.801C82.8762 127.445 82.3075 126.971 82.3786 126.425C82.4734 125.38 83.0895 125.807 83.6108 125.736C83.99 125.689 84.3217 125.546 84.5113 125.19C84.7009 124.882 84.6535 124.478 84.6061 124.146C84.5824 123.956 84.5113 123.742 84.5113 123.552C84.3454 123.054 84.5824 122.745 85.2222 122.627C85.5302 122.84 85.7909 123.101 86.0042 123.434C86.2648 123.813 86.8809 123.457 86.6203 123.078C85.9805 122.176 84.0847 120.941 83.7767 122.817C83.6345 123.766 84.5113 124.763 83.1132 125C82.426 125.119 81.952 125.119 81.7388 125.926C81.5492 126.591 81.8099 127.232 82.2127 127.754C82.4023 127.991 82.6155 128.205 82.8051 128.419C83.0421 128.656 83.208 128.917 83.3264 129.226C83.0421 129.51 82.7814 129.795 82.4971 130.08C82.2838 130.128 81.7388 129.677 81.4307 129.653C80.0563 129.558 79.3217 131.409 80.6961 132.003C81.1463 132.193 81.5018 131.576 81.0753 131.409Z" fill="#E8E8E8"/>
<path d="M86.8572 130.389C86.4781 129.772 85.8857 128.822 86.1463 128.039C86.3359 127.445 87.1416 127.184 87.497 126.71C88.0421 125.974 87.971 125.001 87.4733 124.265C87.3786 124.455 87.2601 124.621 87.1653 124.811C88.516 124.906 89.6534 124.099 90.0563 122.793C90.1985 122.342 89.5113 122.176 89.3691 122.603C89.061 123.6 88.2079 124.17 87.1653 124.099C86.9046 124.075 86.7151 124.407 86.8572 124.645C87.1653 125.096 87.2838 125.736 86.9757 126.235C86.6914 126.662 86.3122 126.686 86.0042 126.994C85.7198 127.279 85.5302 127.564 85.4591 127.991C85.2696 128.965 85.7909 129.938 86.2648 130.745C86.4781 131.149 87.0942 130.792 86.8572 130.389Z" fill="#E8E8E8"/>
<path d="M159.227 7.73796C160.483 9.18593 161.265 10.8713 161.597 12.7465C161.668 13.1975 162.355 13.0076 162.284 12.5566C161.928 10.5627 161.052 8.75866 159.725 7.21574C159.417 6.88342 158.919 7.3819 159.227 7.73796Z" fill="#E8E8E8"/>
<path d="M159.843 7.80962C160.649 7.07377 163.872 4.17783 165.056 5.00863C165.649 5.4359 166.17 6.40913 166.549 7.05003C167.023 7.8571 167.402 8.71164 167.71 9.58992C167.853 10.0172 168.54 9.82729 168.398 9.40002C167.995 8.28437 167.497 7.19245 166.857 6.19549C166.455 5.55459 165.838 4.46267 165.104 4.15409C164.274 3.79803 163.255 4.53388 162.568 4.93742C161.407 5.60206 160.341 6.40913 159.345 7.31114C159.014 7.61973 159.511 8.11821 159.843 7.80962Z" fill="#E8E8E8"/>
<path d="M162.355 13.1984C164.203 11.6317 166.218 10.3499 168.445 9.37666C168.872 9.18676 168.492 8.56959 168.09 8.75949C165.815 9.75645 163.753 11.0857 161.857 12.6999C161.502 12.9847 162 13.4832 162.355 13.1984Z" fill="#E8E8E8"/>
<path d="M166.478 6.50362C167.379 5.74402 169.393 3.82131 170.507 5.07938C171.312 5.9814 171.834 7.45311 172.308 8.54502C172.497 8.97229 173.113 8.59249 172.924 8.18896C172.474 7.16826 172 6.19503 171.431 5.24554C171.147 4.74706 170.791 3.98747 170.199 3.77383C169.511 3.53646 168.777 4.03494 168.232 4.36727C167.426 4.84201 166.692 5.38797 165.981 5.9814C165.625 6.31372 166.147 6.8122 166.478 6.50362Z" fill="#E8E8E8"/>
<path d="M164.725 10.8484C165.838 11.3468 166.786 12.0115 167.663 12.866C167.829 13.0322 168.09 12.9847 168.232 12.7948C169.274 11.2994 170.649 10.16 172.308 9.37666C172.734 9.18676 172.355 8.56959 171.952 8.75949C170.175 9.59029 168.729 10.8246 167.616 12.415C167.805 12.3913 167.995 12.3675 168.184 12.3438C167.284 11.4418 166.265 10.7534 165.104 10.2312C164.654 10.065 164.298 10.6585 164.725 10.8484Z" fill="#E8E8E8"/>
<path d="M169.891 37.2433C169.843 36.9822 169.772 36.7211 169.725 36.46C169.938 36.2463 170.151 36.0564 170.412 35.914C170.554 35.8191 170.72 35.7241 170.862 35.6054C171.147 35.3681 171.336 35.1307 171.478 34.7984C171.644 34.3711 171.597 33.9676 171.549 33.5166C171.526 33.3741 171.502 33.208 171.478 33.0656C171.455 32.8994 171.549 30.9767 172.308 31.5938C172.663 31.8787 173.161 31.3802 172.805 31.0954C172.284 30.6681 171.739 30.7393 171.265 31.1903C170.459 31.9736 170.838 32.8994 170.886 33.8489C170.957 35.2731 169.109 35.3443 168.943 36.6499C168.872 37.2433 169.109 37.7893 169.725 37.9079C170.151 38.0029 170.341 37.3145 169.891 37.2433Z" fill="#33D49E"/>
<path d="M172.497 35.274C173.066 35.725 173.872 35.3927 173.99 34.6568C174.109 34.0159 173.682 33.4225 173.729 32.7816C173.801 31.9033 174.393 31.1437 175.199 30.8351C175.625 30.669 175.436 29.9806 175.009 30.1468C174.227 30.4316 173.611 30.9538 173.279 31.7372C173.113 32.0932 173.019 32.4968 173.019 32.9003C173.019 33.0902 173.042 33.2801 173.066 33.4462C173.066 33.4462 173.421 35.0841 173.019 34.7518C172.639 34.4907 172.142 34.9892 172.497 35.274Z" fill="#33D49E"/>
<path d="M111.36 113.607C110.933 113.369 110.886 112.823 111.194 112.467C111.502 112.111 112.071 111.969 112.521 112.04C112.9 112.111 113.327 112.301 113.492 112.681C113.682 113.108 113.398 113.844 112.829 113.773C112.379 113.702 112.189 114.39 112.639 114.461C113.445 114.58 114.156 114.034 114.274 113.203C114.417 112.325 113.706 111.613 112.9 111.399C112.071 111.162 111.028 111.423 110.53 112.183C110.08 112.871 110.27 113.844 111.028 114.224C111.407 114.438 111.763 113.82 111.36 113.607Z" fill="#33D49E"/>
<path d="M73.9189 29.6005C74.0611 29.1257 74.2033 28.6272 74.3218 28.1525C74.4639 28.2 74.6061 28.2474 74.7483 28.2949C74.9379 28.3186 75.1274 28.4373 75.317 28.4848C75.5777 28.556 75.8857 28.5798 76.1464 28.5085C76.7625 28.2949 76.9521 27.7015 76.9521 27.108C76.9521 26.5146 76.7388 25.8737 77.2128 25.399C77.5919 25.0192 78.2317 24.8767 78.7293 24.9954C80.3644 25.3752 80.1985 27.4404 79.4876 28.556C79.2507 28.9358 79.8668 29.2919 80.1038 28.9121C80.8857 27.654 81.0753 25.755 79.7957 24.7343C78.8478 23.9747 77.2365 24.1172 76.5019 25.1141C76.0042 25.7788 76.336 26.3722 76.1938 27.1318C75.9568 28.3899 74.1796 27.2267 73.3739 27.5116C71.8573 28.0575 72.3075 29.9803 73.6583 30.3363C74.1559 30.4075 74.3455 29.7191 73.9189 29.6005Z" fill="#33D49E"/>
<path d="M228.042 133.712C228.54 133.332 229.085 133.308 229.677 133.617C229.938 133.76 230.294 133.522 230.199 133.214C229.985 132.786 230.033 132.406 230.388 132.074C230.554 131.338 230.933 131.291 231.502 131.908C231.668 132.24 232.142 132.05 232.166 131.718C232.166 131.41 232.189 131.077 232.237 130.769C232.308 130.009 232.805 129.819 233.682 130.175C233.872 130.602 234.464 130.223 234.298 129.819C234.014 129.154 233.256 128.941 232.592 129.202C231.597 129.605 231.478 130.792 231.455 131.718C231.668 131.647 231.905 131.599 232.118 131.528C231.786 130.816 230.933 130.555 230.222 130.911C229.322 131.386 229.275 132.501 229.512 133.38C229.677 133.237 229.867 133.119 230.033 132.976C229.227 132.573 228.469 132.596 227.687 133.071C227.308 133.332 227.663 133.949 228.042 133.712Z" fill="#33D49E"/>
<path d="M209.63 35.3682C208.35 35.748 207.45 36.8399 207.284 38.1929C207.118 39.4747 207.876 41.0651 209.298 41.2075C210.341 41.3025 211.384 40.1156 210.744 39.1424C210.057 38.0742 208.729 38.8576 208.184 39.6171C206.644 41.8247 208.019 46.1449 211.194 45.1242C212.071 44.8393 213.161 43.7712 212.663 42.7505C212.047 41.4924 210.673 42.8454 210.317 43.5575C209.583 45.0292 209.393 47.1418 210.91 48.1863C212.094 48.9934 213.73 48.4711 214.109 47.0706C214.203 46.762 213.753 46.4297 213.516 46.7146C211.881 48.7797 213.137 51.6282 215.791 51.7231C216.241 51.7469 216.241 51.0348 215.791 51.011C213.801 50.9398 212.758 48.8035 214.014 47.2368C213.824 47.1181 213.611 46.9994 213.421 46.8807C213.066 48.2338 211.407 48.0201 210.767 47.0232C210.199 46.0974 210.388 44.8393 210.91 43.9136C211.028 43.6762 211.668 42.5606 212.047 43.2727C212.237 43.6525 211.526 44.1984 211.289 44.3409C210.554 44.7444 209.583 44.6257 209.014 44.0085C208.421 43.3914 208.232 42.4419 208.303 41.6111C208.35 41.1601 208.445 40.6378 208.658 40.258C208.753 40.1156 208.872 39.9732 208.966 39.8308C209.559 39.2611 209.535 39.4272 208.872 40.353C208.398 40.4005 207.995 39.0949 207.971 38.7863C207.948 38.4778 207.995 38.1692 208.066 37.8843C208.303 37.006 208.943 36.3414 209.82 36.0803C210.27 35.9379 210.08 35.2495 209.63 35.3682Z" fill="#33D49E"/>
<path d="M82.1417 49.8723C81.9521 49.3026 82.0469 48.7567 82.4735 48.3057C82.9474 47.8072 83.5161 47.8784 84.1085 47.9733C84.5351 48.0445 84.8668 48.092 85.2697 47.8546C85.5777 47.6647 85.791 47.3087 85.9332 47.0001C86.028 46.7627 86.099 46.5254 86.1464 46.288C86.1701 46.1218 86.2175 45.9557 86.2412 45.8132C86.2886 45.2436 86.6915 45.0062 87.4261 45.1011C87.4024 45.5284 87.9948 45.5521 88.1133 45.1961C88.3028 44.6501 88.5398 44.0804 89.0374 43.7481C89.772 43.2496 90.8147 43.3446 90.9569 44.3653C91.028 44.8163 91.6915 44.6264 91.6441 44.1754C91.5019 43.2021 90.5777 42.585 89.6062 42.7274C88.4213 42.8936 87.7815 44.0092 87.4498 45.0299C87.6867 45.0537 87.9237 45.1011 88.137 45.1249C88.1844 44.4127 87.5209 43.9617 86.8336 44.0567C85.7199 44.1991 85.6725 45.4572 85.4355 46.288C85.2697 46.8814 85.1275 47.3324 84.2981 47.3087C84.0611 47.3087 83.7768 47.1425 83.5161 47.1425C83.0659 47.1425 82.6156 47.3087 82.2602 47.5698C81.4782 48.1632 81.1464 49.1602 81.4545 50.0859C81.5967 50.4895 82.2839 50.3233 82.1417 49.8723Z" fill="#33D49E"/>
<path d="M214.796 72.8968C216.497 72.8968 217.876 71.4196 217.876 69.5973C217.876 67.775 216.497 66.2979 214.796 66.2979C213.094 66.2979 211.715 67.775 211.715 69.5973C211.715 71.4196 213.094 72.8968 214.796 72.8968Z" fill="#33D49E"/>
<path d="M48.1606 73.633C49.2862 73.633 50.1985 72.7298 50.1985 71.6153C50.1985 70.5011 49.2862 69.5977 48.1606 69.5977C47.035 69.5977 46.1227 70.5011 46.1227 71.6153C46.1227 72.7298 47.035 73.633 48.1606 73.633Z" fill="#33D49E"/>
<path d="M78.3265 159.561C79.2689 159.561 80.0327 158.733 80.0327 157.71C80.0327 156.687 79.2689 155.858 78.3265 155.858C77.3843 155.858 76.6204 156.687 76.6204 157.71C76.6204 158.733 77.3843 159.561 78.3265 159.561Z" fill="#33D49E"/>
<path d="M211.218 77.0037C213.194 77.0037 214.796 75.4838 214.796 73.6093C214.796 71.7345 213.194 70.2148 211.218 70.2148C209.241 70.2148 207.639 71.7345 207.639 73.6093C207.639 75.4838 209.241 77.0037 211.218 77.0037Z" fill="#33D49E"/>
<path d="M140.388 4.0828C141.396 4.0828 142.213 3.16892 142.213 2.0414C142.213 0.913883 141.396 0 140.388 0C139.381 0 138.563 0.913883 138.563 2.0414C138.563 3.16892 139.381 4.0828 140.388 4.0828Z" fill="#33D49E"/>
<path d="M240.53 112.894C241.943 112.894 243.09 111.619 243.09 110.046C243.09 108.473 241.943 107.197 240.53 107.197C239.118 107.197 237.971 108.473 237.971 110.046C237.971 111.619 239.118 112.894 240.53 112.894Z" fill="#33D49E"/>
<path d="M41.0042 98.1774C43.831 98.1774 46.1227 95.8286 46.1227 92.9315C46.1227 90.0341 43.831 87.6855 41.0042 87.6855C38.1775 87.6855 35.8857 90.0341 35.8857 92.9315C35.8857 95.8286 38.1775 98.1774 41.0042 98.1774Z" fill="#33D49E"/>
<path d="M76.6677 232.649C72.0706 225.718 65.9094 218.169 66.7151 209.339C66.5966 209.458 66.4781 209.576 66.3597 209.695C67.0706 209.671 67.6867 209.79 68.3502 210.075C68.6108 210.193 68.99 210.004 68.8715 209.671C68.6345 209.007 68.208 208.627 67.7341 208.128C66.8573 207.203 66.7862 206.253 66.8336 205.042C66.9047 203.12 66.5729 201.363 65.7672 199.607C65.6962 199.773 65.6251 199.963 65.554 200.129C66.1701 199.915 66.7862 199.702 67.4023 199.488C67.5682 199.417 67.7104 199.251 67.6393 199.061C66.1227 194.646 66.881 189.684 67.2127 185.151C67.5682 180.308 68.0421 175.49 68.6108 170.671C68.4213 170.766 68.2554 170.885 68.0658 170.98C71.2412 173.021 72.9473 176.51 74.2744 179.905C75.7909 183.774 77.0943 187.714 78.1843 191.726C80.4592 199.986 81.8336 208.508 82.3075 217.077C82.5682 221.848 82.5445 226.643 82.2365 231.415C82.2128 231.866 82.9237 231.866 82.9474 231.415C84.0611 213.849 81.3834 195.927 74.8905 179.549C73.4924 176.012 71.6914 172.475 68.4213 170.362C68.1606 170.196 67.9236 170.41 67.8762 170.671C67.2838 175.656 66.8099 180.641 66.4544 185.625C66.1227 190.112 65.4592 194.907 66.9284 199.251C66.9995 199.108 67.0943 198.966 67.1653 198.823C66.5492 199.037 65.9331 199.251 65.317 199.464C65.08 199.535 65.0089 199.773 65.1037 199.986C65.5777 201.031 65.9331 202.123 66.0516 203.286C66.1464 204.259 66.0042 205.209 66.0753 206.182C66.1227 206.846 66.2412 207.464 66.644 208.033C67.118 208.698 67.8762 209.125 68.1606 209.909C68.3265 209.766 68.5161 209.647 68.6819 209.505C67.9236 209.173 67.1653 209.007 66.336 209.03C66.1227 209.03 66.0042 209.196 65.9805 209.386C65.1748 218.359 71.3834 226.026 76.0516 233.052C76.3123 233.385 76.9284 233.029 76.6677 232.649Z" fill="#E8E8E8"/>
<path d="M68.6345 172.332C74.0373 186.859 77.2838 202.17 78.208 217.646C78.4686 222.014 78.5397 226.406 78.4449 230.797C78.4449 231.248 79.1558 231.248 79.1558 230.797C79.5113 215.32 77.5918 199.796 73.4449 184.865C72.2601 180.569 70.862 176.32 69.3217 172.142C69.1795 171.715 68.4923 171.905 68.6345 172.332Z" fill="#E8E8E8"/>
<path d="M66.7151 187.335C70.2222 189.518 73.0895 192.533 75.1037 196.165C75.317 196.568 75.9331 196.212 75.7198 195.809C73.6582 192.082 70.6961 188.972 67.0705 186.717C66.6914 186.48 66.3359 187.097 66.7151 187.335Z" fill="#E8E8E8"/>
<path d="M67.426 178.575C69.4166 180.07 71.0279 181.922 72.2839 184.058C72.5208 184.462 73.1369 184.106 72.9 183.702C71.573 181.447 69.8668 179.524 67.7815 177.958C67.426 177.697 67.0706 178.314 67.426 178.575Z" fill="#E8E8E8"/>
<path d="M77.8525 206.846C78.2791 203.903 79.1084 201.03 80.3407 198.324C80.5302 197.921 79.9141 197.541 79.7246 197.968C78.4686 200.746 77.6155 203.641 77.1653 206.68C77.0942 207.107 77.7814 207.297 77.8525 206.846Z" fill="#E8E8E8"/>
<path d="M79.5587 193.363C81.7388 186.123 85.5066 179.572 89.2744 173.068C89.0611 173.044 88.8478 173.02 88.6346 172.973C90.5777 182.468 92.1891 192.01 93.4213 201.624C93.5398 201.505 93.6583 201.386 93.7767 201.268C92.9474 201.22 92.118 201.173 91.2886 201.125C91.0042 201.102 90.791 201.553 91.0279 201.742C92.4497 202.834 92.3075 204.733 92.1417 206.347C91.9284 208.484 91.6914 210.596 91.4545 212.733C91.5966 212.614 91.7625 212.495 91.9047 212.4C91.2649 212.258 90.6488 212.211 89.9853 212.211C89.7246 212.211 89.535 212.519 89.6772 212.757C91.5019 215.89 88.6582 219.166 87.3312 221.872C86.0042 224.601 85.1511 227.545 84.7246 230.559C84.6535 231.01 85.3407 231.2 85.4118 230.749C85.9094 227.094 87.0943 223.628 88.9189 220.424C90.2933 218.002 91.881 215.13 90.2933 212.4C90.1985 212.59 90.0801 212.757 89.9853 212.946C90.5777 212.923 91.1464 212.97 91.7151 213.113C91.9521 213.16 92.1417 213.018 92.1654 212.78C92.426 210.335 92.8052 207.89 92.9237 205.445C92.9947 203.926 92.7815 202.288 91.5255 201.291C91.4308 201.505 91.3597 201.695 91.2649 201.909C92.0943 201.956 92.9237 202.004 93.753 202.051C93.9189 202.051 94.1322 201.885 94.1085 201.695C92.8526 192.034 91.2412 182.397 89.2744 172.854C89.2033 172.546 88.7767 172.522 88.6346 172.759C84.8431 179.311 81.0516 185.933 78.8478 193.221C78.753 193.601 79.4402 193.79 79.5587 193.363Z" fill="#E8E8E8"/>
<path d="M88.6109 173.852C86.2175 187.999 84.5824 202.289 83.7057 216.626C83.682 217.077 84.3929 217.077 84.4166 216.626C85.2696 202.36 86.9047 188.141 89.2744 174.042C89.3692 173.591 88.682 173.401 88.6109 173.852Z" fill="#E8E8E8"/>
<path d="M81.4308 188.212C82.4023 191.512 83.5398 194.74 84.8194 197.921C84.9853 198.348 85.6725 198.158 85.5066 197.731C84.227 194.55 83.1132 191.298 82.118 188.023C81.9758 187.572 81.2886 187.761 81.4308 188.212Z" fill="#E8E8E8"/>
<path d="M0.435407 202.218C8.56338 199.536 17.4733 197.779 26.0515 198.23C30.5065 198.467 34.7482 199.844 38.9663 201.126C43.0658 202.36 47.1653 203.642 51.2885 204.829C55.9331 206.158 60.625 207.226 65.4355 207.559C65.8857 207.583 65.8857 206.87 65.4355 206.847C56.5729 206.277 48.0184 203.144 39.5824 200.58C35.5776 199.369 31.5966 198.016 27.4023 197.613C23.0895 197.209 18.7056 197.613 14.4402 198.206C9.60603 198.895 4.84299 200.01 0.222137 201.53C-0.180707 201.672 0.00886616 202.36 0.435407 202.218Z" fill="#E8E8E8"/>
<path d="M25.7198 197.944C32.6393 196.425 39.5824 194.906 46.407 192.936C53.1132 190.989 59.6535 187.927 66.644 187.073C67.0943 187.025 67.0943 186.313 66.644 186.361C59.7483 187.215 53.3028 190.182 46.6677 192.129C39.7246 194.17 32.6393 195.713 25.5539 197.28C25.08 197.351 25.2696 198.039 25.7198 197.944Z" fill="#E8E8E8"/>
<path d="M76.9047 185.459C78.8004 185.34 80.7199 185.317 82.6156 185.388C83.0658 185.412 83.0658 184.7 82.6156 184.676C80.6962 184.605 78.8004 184.628 76.9047 184.747C76.4545 184.794 76.4545 185.507 76.9047 185.459Z" fill="#E8E8E8"/>
<path d="M9.53491 230.299C17.497 229.16 25.388 231.177 33.2079 232.412C36.9283 233.005 40.6724 233.361 44.4402 233.266C48.6582 233.148 52.8762 232.72 57.0468 233.456C57.497 233.527 57.6866 232.839 57.2364 232.768C53.1368 232.056 49.0373 232.412 44.8904 232.554C40.7198 232.697 36.6202 232.269 32.5207 231.605C24.843 230.347 17.1415 228.519 9.34533 229.634C8.8951 229.682 9.08467 230.37 9.53491 230.299Z" fill="#E8E8E8"/>
<path d="M56.881 239.603C56.9757 238.868 59.7957 239.2 60.2933 239.2C60.9094 239.2 63.1843 238.844 63.4923 239.508C63.5397 239.342 63.5871 239.176 63.6108 239.01C62.4497 239.793 61.1701 240.126 59.772 240.031C59.3217 240.007 59.3217 240.719 59.772 240.743C61.2885 240.838 62.6867 240.458 63.9663 239.627C64.1322 239.508 64.1795 239.319 64.0848 239.129C63.8715 238.678 63.516 238.559 63.0421 238.488C61.9284 238.322 60.6961 238.464 59.5824 238.464C58.516 238.464 56.3122 238.061 56.1464 239.58C56.099 240.054 56.8336 240.054 56.881 239.603Z" fill="#E8E8E8"/>
<path d="M57.4023 227.854C56.9521 228.091 56.4781 228.02 56.0042 227.64C55.9805 227.83 55.9568 228.02 55.9331 228.21C56.5255 227.759 57.2127 227.474 57.971 227.497C58.5871 227.521 59.1322 227.854 59.7483 227.877C60.317 227.901 60.8383 227.664 61.407 227.592C62.3075 227.45 63.1369 227.64 63.9426 228.091C64.3454 228.305 64.7009 227.711 64.298 227.474C63.7056 227.141 63.1132 226.904 62.426 226.857C61.4544 226.762 60.554 227.284 59.6298 227.165C58.8715 227.07 58.2554 226.762 57.4497 226.833C56.7388 226.904 56.1227 227.189 55.554 227.616C55.3881 227.735 55.2933 228.02 55.4829 228.186C56.1227 228.708 56.7862 228.874 57.5682 228.589C58.0184 228.399 57.8288 227.711 57.4023 227.854Z" fill="#E8E8E8"/>
<path d="M21.4781 237.919C22.6866 239.414 24.298 238.014 25.6487 237.729C26.7624 237.491 27.6392 238.156 28.7293 238.156C29.8904 238.156 31.1463 237.61 32.1653 238.346C32.5444 238.607 32.8999 237.99 32.5207 237.729C31.9046 237.278 31.2411 237.207 30.4828 237.254C29.3454 237.349 28.4449 237.491 27.3075 237.135C26.5255 236.874 25.862 236.874 25.08 237.159C24.1321 237.515 22.7814 238.465 21.9283 237.42C21.6913 237.064 21.17 237.586 21.4781 237.919Z" fill="#E8E8E8"/>
<path d="M98.0184 233.171C99.5824 232.554 100.838 232.743 102.473 232.933C103.492 233.052 104.203 232.696 105.104 232.292C106.052 231.865 106.691 232.079 107.544 232.554C107.9 232.743 108.232 232.91 108.635 232.981C109.843 233.218 111.478 232.411 112.497 233.289C112.853 233.598 113.35 233.076 112.995 232.791C112.094 232.031 111.123 232.198 110.009 232.292C109.085 232.364 108.374 232.198 107.592 231.747C107.118 231.485 106.668 231.248 106.123 231.248C105.625 231.248 105.175 231.462 104.725 231.652C103.658 232.126 103.018 232.269 101.834 232.079C100.435 231.865 99.1558 231.936 97.8288 232.459C97.4023 232.649 97.5918 233.337 98.0184 233.171Z" fill="#E8E8E8"/>
<path d="M253.966 195.049C262.379 191.18 270.839 187.287 279.701 184.581C288.635 181.875 297.924 180.546 307.26 180.759C312.568 180.878 317.877 181.495 323.09 182.563C323.54 182.658 323.73 181.97 323.279 181.875C313.99 179.952 304.44 179.525 295.033 180.64C285.696 181.732 276.763 184.486 268.066 188.023C263.185 190.017 258.374 192.224 253.587 194.432C253.208 194.622 253.564 195.239 253.966 195.049Z" fill="#E8E8E8"/>
<path d="M292.474 195.833C298.019 193.815 303.706 192.248 309.512 191.204C312.497 190.658 315.483 190.278 318.516 189.993C320.696 189.803 324.748 188.878 326.312 190.966C326.573 191.323 327.213 190.966 326.929 190.61C325.578 188.806 323.232 188.973 321.194 189.091C317.971 189.281 314.725 189.637 311.526 190.136C304.962 191.156 298.516 192.865 292.284 195.144C291.857 195.31 292.047 195.999 292.474 195.833Z" fill="#E8E8E8"/>
<path d="M253.99 180.593C260.483 179.168 267.284 179.928 273.279 182.8C273.682 182.99 274.061 182.373 273.635 182.183C267.45 179.24 260.483 178.433 253.801 179.904C253.35 179.999 253.54 180.688 253.99 180.593Z" fill="#E8E8E8"/>
<path d="M268.469 213.255C269.488 212.044 271.099 213.421 272.166 213.848C273.042 214.205 273.73 214.11 274.583 213.73C275.957 213.113 277.071 213.659 278.445 213.611C279.867 213.564 281.028 212.211 282.331 213.397C282.663 213.706 283.185 213.208 282.829 212.899C281.976 212.139 281.052 211.997 279.985 212.377C279.44 212.59 279.038 212.851 278.421 212.899C277.948 212.923 277.474 212.804 277 212.757C276.431 212.685 275.862 212.59 275.317 212.685C274.417 212.851 273.706 213.564 272.711 213.302C272 213.113 271.407 212.614 270.72 212.329C269.748 211.949 268.635 211.878 267.924 212.733C267.663 213.113 268.161 213.611 268.469 213.255Z" fill="#E8E8E8"/>
<path d="M295.791 231.485C294.275 226.643 293.587 221.61 293.777 216.531C293.587 216.626 293.422 216.744 293.232 216.839C293.753 217.1 294.298 217.361 294.82 217.623C295.08 217.741 295.341 217.599 295.365 217.314C295.696 212.424 296.786 207.653 298.564 203.072C298.398 203.143 298.208 203.214 298.042 203.285C298.327 203.428 298.611 203.57 298.919 203.736C299.038 203.807 299.251 203.807 299.346 203.689C301.194 201.363 303.232 199.226 305.507 197.303C305.317 197.28 305.128 197.256 304.938 197.232C306.621 199.582 306.502 202.668 306.384 205.422C306.241 208.484 305.839 211.498 305.151 214.489C303.801 220.281 301.455 225.788 298.208 230.773C297.948 231.153 298.564 231.509 298.824 231.129C302.26 225.883 304.725 220.02 306.028 213.872C306.668 210.881 307.047 207.843 307.142 204.804C307.213 202.098 307.237 199.155 305.578 196.852C305.436 196.663 305.199 196.615 305.009 196.781C302.734 198.704 300.696 200.817 298.848 203.167C298.99 203.143 299.132 203.119 299.275 203.119C298.99 202.977 298.706 202.834 298.398 202.668C298.185 202.549 297.971 202.668 297.876 202.882C296.076 207.511 295.009 212.353 294.654 217.314C294.843 217.219 295.009 217.1 295.199 217.005C294.677 216.744 294.132 216.483 293.611 216.222C293.374 216.103 293.09 216.246 293.066 216.531C292.876 221.658 293.564 226.761 295.104 231.651C295.246 232.102 295.933 231.912 295.791 231.485Z" fill="#E8E8E8"/>
<path d="M306.336 213.493C307.948 210.027 309.843 206.704 311.976 203.547C311.834 203.595 311.715 203.666 311.573 203.713C312.948 204.069 313.706 202.811 314.417 201.862C315.72 200.105 317.355 198.705 319.275 197.637C319.109 197.565 318.919 197.494 318.753 197.423C320.91 204.164 319.535 211.143 315.507 216.887C313.611 219.593 311.431 222.181 309.204 224.626C306.976 227.023 304.535 229.183 301.597 230.679C301.194 230.892 301.549 231.51 301.952 231.296C304.938 229.777 307.45 227.569 309.701 225.124C312.071 222.537 314.393 219.807 316.36 216.911C320.317 211.096 321.597 203.998 319.441 197.257C319.369 197.043 319.132 196.924 318.919 197.043C317.64 197.755 316.455 198.61 315.388 199.654C314.914 200.129 314.464 200.651 314.038 201.197C313.516 201.862 312.829 203.31 311.763 203.049C311.597 203.001 311.455 203.072 311.36 203.215C309.227 206.372 307.331 209.695 305.72 213.161C305.531 213.541 306.147 213.92 306.336 213.493Z" fill="#E8E8E8"/>
<path d="M302.995 201.458C301.36 205.92 299.369 210.407 298.303 215.059C297.213 219.807 296.549 224.673 295.744 229.468C295.673 229.919 296.36 230.108 296.431 229.657C297.26 224.863 297.9 219.973 298.99 215.249C300.057 210.596 302.047 206.134 303.682 201.648C303.848 201.22 303.161 201.03 302.995 201.458Z" fill="#E8E8E8"/>
<path d="M315.483 204.995C312.853 209.22 310.222 213.445 307.592 217.647C305.199 221.492 302.616 225.266 300.957 229.491C300.791 229.919 301.478 230.109 301.644 229.681C303.35 225.385 306.028 221.516 308.469 217.599C311.004 213.516 313.564 209.434 316.099 205.327C316.336 204.947 315.72 204.591 315.483 204.995Z" fill="#E8E8E8"/>
<path d="M296.739 205.873C296.976 208.27 297.545 210.573 298.422 212.804C298.587 213.231 299.275 213.041 299.109 212.614C298.256 210.454 297.687 208.199 297.45 205.873C297.403 205.422 296.692 205.398 296.739 205.873Z" fill="#E8E8E8"/>
<path d="M298.682 217.291C301.407 214.941 303.919 212.377 306.241 209.624C306.526 209.268 306.028 208.769 305.744 209.125C303.421 211.879 300.91 214.443 298.184 216.793C297.829 217.101 298.35 217.6 298.682 217.291Z" fill="#E8E8E8"/>
<path d="M309.511 206.015C309.298 208.413 309.346 210.786 309.654 213.16C309.701 213.611 310.412 213.611 310.365 213.16C310.057 210.786 310.009 208.389 310.222 206.015C310.27 205.54 309.559 205.54 309.511 206.015Z" fill="#E8E8E8"/>
<path d="M30.388 129.012C26.952 128.062 24.4638 124.715 24.5112 121.131C24.5586 117.119 28.1605 112.846 32.3548 112.941C36.7624 113.06 39.1321 118.425 38.7055 122.294C38.2079 126.899 33.6344 129.795 29.2506 128.584C28.8003 128.466 28.6107 129.154 29.061 129.273C32.5918 130.246 36.407 128.869 38.3027 125.688C40.1984 122.484 39.5586 118.235 37.5444 115.22C35.5065 112.182 31.6676 111.422 28.516 113.25C25.5065 115.03 23.4449 118.71 23.8714 122.223C24.2979 125.688 26.8335 128.75 30.1984 129.676C30.6487 129.819 30.8382 129.13 30.388 129.012Z" fill="#E8E8E8"/>
<path d="M23.2316 147.028C23.9662 147.883 24.9378 148.452 26.0752 148.571C26.6676 148.642 27.26 148.571 27.8288 148.357C28.7292 148.049 29.4638 147.384 30.5065 147.574C31.8098 147.788 32.7814 148.69 34.1558 148.524C35.6487 148.357 36.952 147.289 38.516 147.408C39.9378 147.527 41.1463 148.5 42.5444 148.785C43.7767 149.046 44.5586 148.595 45.6013 148.049C48.279 146.625 51.3359 148.429 54.1321 147.479C54.5587 147.337 54.3691 146.648 53.9425 146.791C51.4307 147.622 48.8004 146.245 46.2648 146.981C44.8667 147.384 43.9899 148.429 42.4022 148.025C41.1937 147.717 40.1511 146.981 38.9188 146.767C37.7577 146.553 36.7387 146.957 35.6724 147.361C35.0563 147.598 34.3928 147.859 33.7056 147.859C32.8525 147.859 32.1416 147.384 31.3833 147.099C30.2932 146.696 29.4875 146.838 28.4449 147.313C26.7387 148.096 25.0089 148.073 23.7292 146.53C23.4449 146.174 22.9236 146.672 23.2316 147.028Z" fill="#E8E8E8"/>
<path d="M41.5491 140.833C43.4212 141.877 45.5776 140.334 47.4259 141.308C48.1605 141.687 48.6345 142.305 49.5349 142.186C50.2695 142.091 50.8383 141.521 51.407 141.094C52.6866 140.097 53.7293 140.334 55.1274 140.904C56.17 141.331 57.1653 141.592 58.279 141.569C60.7909 141.521 63.279 140.429 65.7672 141.26C66.1937 141.403 66.3833 140.714 65.9568 140.572C63.824 139.86 61.6913 140.477 59.5349 140.738C58.2553 140.904 57.0468 140.88 55.8383 140.406C54.843 140.026 53.8477 139.456 52.734 139.599C51.9994 139.693 51.4544 140.121 50.8856 140.572C50.4117 140.952 49.9615 141.426 49.3217 141.426C48.6819 141.45 48.3027 140.952 47.7577 140.667C45.9093 139.646 43.7055 141.213 41.8809 140.192C41.5018 139.978 41.1463 140.595 41.5491 140.833Z" fill="#E8E8E8"/>
<path d="M251.81 126.021C253.232 125.641 254.251 125.641 255.507 126.472C256.123 126.876 256.763 127.184 257.497 127.327C258.801 127.564 260.151 127.255 261.407 126.923C262.948 126.496 264.512 125.926 266.123 125.926C267.829 125.926 269.227 127.113 270.957 126.971C274.18 126.686 276.194 123.481 279.654 123.861C282.663 124.193 285.649 126.092 288.611 124.644C289.014 124.454 288.658 123.837 288.256 124.027C285.175 125.523 281.834 123.006 278.658 123.125C277.213 123.173 275.981 123.79 274.748 124.502C273.256 125.404 271.621 126.638 269.748 126.187C268.895 125.997 268.161 125.523 267.308 125.333C266.644 125.19 265.981 125.19 265.317 125.262C263.848 125.404 262.45 125.902 261.052 126.282C259.417 126.71 257.711 127.018 256.17 126.092C255.53 125.689 254.962 125.214 254.203 125.072C253.327 124.905 252.45 125.143 251.621 125.356C251.194 125.451 251.36 126.14 251.81 126.021Z" fill="#E8E8E8"/>
<path d="M277.616 132.287C278.967 131.504 280.53 131.362 281.952 132.026C282.805 132.406 283.469 132.904 284.44 132.833C286.644 132.667 288.161 130.721 290.459 131.765C291.147 132.074 291.81 132.406 292.592 132.287C293.564 132.121 294.251 131.338 295.128 131.006C297.284 130.175 299.725 131.385 301.976 130.887C302.426 130.792 302.237 130.103 301.786 130.198C299.559 130.673 297.26 129.534 295.057 130.27C294.038 130.602 293.256 131.575 292.142 131.575C291.028 131.575 290.151 130.673 288.99 130.697C286.858 130.744 285.151 132.881 282.971 131.836C281.028 130.887 279.18 130.602 277.213 131.741C276.858 131.884 277.213 132.501 277.616 132.287Z" fill="#E8E8E8"/>
<path d="M259.156 167.751C260.673 167.276 261.739 167.656 263.113 168.249C263.872 168.558 264.583 168.629 265.388 168.487C266.383 168.273 267.284 167.798 268.256 167.537C269.725 167.157 270.554 167.964 271.834 168.463C273.729 169.199 275.27 167.846 277.023 167.418C279.251 166.872 281.289 168.463 283.54 168.13C283.99 168.059 283.801 167.371 283.35 167.442C281.17 167.774 279.203 166.208 277 166.706C275.957 166.944 275.056 167.513 274.038 167.822C272.545 168.273 271.692 167.466 270.388 166.944C268.611 166.255 267.047 167.395 265.341 167.774C264.109 168.059 263.279 167.442 262.165 167.062C261.099 166.706 260.009 166.754 258.966 167.086C258.516 167.205 258.706 167.893 259.156 167.751Z" fill="#E8E8E8"/>
<path opacity="0.22" d="M304.677 239.794C272.948 245.871 241.194 251.924 209.464 258C171.478 246.132 133.516 234.263 95.5303 222.395C146.17 222.584 196.81 222.751 247.426 222.94C266.526 228.566 285.602 234.192 304.677 239.794Z" fill="#121826"/>
<path opacity="0.19" d="M267.805 230.821C241.052 237.254 214.274 243.686 187.521 250.119C157.331 240.885 127.118 231.652 96.9283 222.394C137.876 218.952 178.848 215.51 219.796 212.068C235.791 218.335 251.786 224.578 267.805 230.821Z" fill="#121826"/>
<path d="M95.4119 150.612C95.7673 174.278 96.1465 197.944 96.5019 221.634C126.502 228.423 156.478 235.188 186.478 241.977C186.431 214.584 186.36 187.191 186.312 159.799C156.004 156.713 125.696 153.651 95.4119 150.612Z" fill="white" stroke="#121826" stroke-width="0.5"/>
<path d="M252.521 144.37C252.403 170.481 252.284 196.592 252.166 222.703C230.341 229.136 208.493 235.545 186.668 241.978C186.597 214.276 186.526 186.599 186.455 158.897C208.469 154.079 230.507 149.236 252.521 144.37Z" fill="white" stroke="#121826" stroke-width="0.5"/>
<path d="M185.696 159.561C155.72 156.452 125.767 153.342 95.8147 150.233C115.554 145.2 135.293 140.168 155.033 135.136C187.308 138.245 219.606 141.355 251.881 144.488C229.82 149.497 207.758 154.529 185.696 159.561Z" fill="white" stroke="#121826" stroke-width="0.5"/>
<path d="M207.639 140.24C199.938 139.717 192.26 139.195 184.559 138.673C169.393 144.227 154.227 149.782 139.085 155.336C138.943 180.522 138.801 205.707 138.635 230.892C145.436 232.53 152.237 234.144 159.038 235.782C158.753 209.695 158.445 183.631 158.161 157.544C174.654 151.8 191.147 146.008 207.639 140.24Z" fill="#121826" stroke="#121826" stroke-width="0.5"/>
<path d="M214.275 233.574C220.554 231.652 226.858 229.729 233.137 227.806C232.924 201.719 232.687 175.655 232.474 149.568C201.715 145.936 170.933 142.305 140.175 138.673C134.843 140.002 129.535 141.331 124.203 142.684C154.298 147.361 184.393 152.013 214.512 156.689C214.44 182.326 214.369 207.938 214.275 233.574Z" fill="#121826" stroke="#121826" stroke-width="0.5"/>
<path d="M215.862 104.871C218.042 105.773 218.398 111.423 217.213 115.838C212.663 132.762 183.208 139.622 181.81 137.035C181.218 135.919 186.289 133.807 196.952 123.22C208.706 111.541 212.995 103.708 215.862 104.871Z" fill="white" stroke="#121826" stroke-width="0.5"/>
<path d="M155.246 116.004C155.815 118.686 157.213 121.796 166.194 130.436C172.213 136.228 175.246 139.124 176.099 138.554C177.829 137.367 172.094 125.95 166.644 117.808C163.848 113.63 158.943 106.343 156.455 107.292C154.677 107.957 154.535 112.657 155.246 116.004Z" fill="white" stroke="#121826" stroke-width="0.5"/>
<path d="M177.853 148.476C181.334 148.476 184.156 145.49 184.156 141.806C184.156 138.122 181.334 135.136 177.853 135.136C174.371 135.136 171.549 138.122 171.549 141.806C171.549 145.49 174.371 148.476 177.853 148.476Z" fill="#121826" stroke="#121826" stroke-width="0.5"/>
<path d="M177.971 139.1C181.549 135.61 185.175 131.907 188.801 128.038C196.81 119.493 203.943 111.066 210.27 102.9C211.644 102.734 214.346 102.568 215.483 104.111C217.142 106.319 214.512 110.686 213.279 112.751C207 123.22 187.023 134.352 177.971 139.1Z" fill="#121826" stroke="#121826" stroke-width="0.5"/>
<path d="M156.692 106.936C157.568 106.129 160.293 107.767 161.905 108.74C175.27 116.787 176.905 135.825 177.165 139.29C166.265 125.19 154.488 109.001 156.692 106.936Z" fill="#121826" stroke="#121826" stroke-width="0.5"/>
<path d="M100.364 163.431C111.17 163.621 122.023 163.573 132.805 164.072C143.706 164.57 154.511 166.089 165.27 167.965C171.336 169.033 177.402 170.196 183.469 171.383C183.919 171.478 184.109 170.789 183.658 170.694C173.042 168.629 162.402 166.588 151.668 165.14C140.815 163.692 129.962 163.217 119.014 163.027C112.805 162.932 106.573 162.814 100.364 162.719C99.9142 162.719 99.9142 163.431 100.364 163.431Z" fill="#121826"/>
<path d="M192.426 171.027C210.578 165.567 229.085 161.318 247.829 158.327C248.279 158.256 248.09 157.568 247.639 157.639C228.919 160.63 210.412 164.879 192.237 170.338C191.81 170.457 192 171.145 192.426 171.027Z" fill="#121826"/>
<path d="M159.819 203.713C159.819 210.906 159.819 218.074 159.819 225.267C159.819 225.718 160.53 225.718 160.53 225.267C160.53 218.074 160.53 210.906 160.53 203.713C160.53 203.262 159.819 203.262 159.819 203.713Z" fill="#121826"/>
<path d="M162.165 220.97C162.165 224.555 162.165 228.163 162.165 231.747C162.165 232.198 162.876 232.198 162.876 231.747C162.876 228.163 162.876 224.555 162.876 220.97C162.876 220.496 162.165 220.496 162.165 220.97Z" fill="#121826"/>
<path d="M211.218 185.411C211.218 191.156 211.218 196.9 211.218 202.645C211.218 203.096 211.929 203.096 211.929 202.645C211.929 196.9 211.929 191.156 211.929 185.411C211.929 184.96 211.218 184.96 211.218 185.411Z" fill="#121826"/>
<path d="M212.497 209.315C212.497 213.184 212.497 217.077 212.497 220.946C212.497 221.397 213.208 221.397 213.208 220.946C213.208 217.077 213.208 213.184 213.208 209.315C213.208 208.864 212.497 208.864 212.497 209.315Z" fill="#121826"/>
<path d="M125.886 184.486C125.886 187.595 125.886 190.705 125.886 193.814C125.886 194.265 126.597 194.265 126.597 193.814C126.597 190.705 126.597 187.595 126.597 184.486C126.597 184.035 125.886 184.035 125.886 184.486Z" fill="#121826"/>
<path d="M123.872 196.33C123.872 198.847 123.872 201.363 123.872 203.879C123.872 204.33 124.582 204.33 124.582 203.879C124.582 201.363 124.582 198.847 124.582 196.33C124.582 195.879 123.872 195.879 123.872 196.33Z" fill="#121826"/>
<path opacity="0.21" d="M251.004 222.608C229.583 229.136 208.161 235.687 186.739 242.215C186.739 214.965 186.739 187.714 186.739 160.464C208.279 155.527 229.82 150.589 251.36 145.676C251.265 171.312 251.147 196.948 251.004 222.608Z" fill="#121826"/>
<path opacity="0.21" d="M252.426 222.916C230.602 228.898 208.801 234.88 186.976 240.861C186.834 217.005 186.692 193.173 186.526 169.317C196.17 178.171 205.838 187.025 215.483 195.903C227.711 191.844 239.962 187.785 252.189 183.726C252.284 196.781 252.355 209.861 252.426 222.916Z" fill="#121826"/>
<path opacity="0.14" d="M216.929 106.106C215.767 105.868 214.535 113.868 210.483 120.443C206.81 126.401 199.488 133.38 183.35 137.415C185.436 137.225 188.611 136.798 192.331 135.706C196.194 134.59 212.497 129.843 216.786 117.096C218.54 111.826 217.876 106.296 216.929 106.106Z" fill="#121826"/>
<path opacity="0.2" d="M158.421 156.95C165.27 161.603 172.142 166.255 178.99 170.908C172.687 169.816 166.407 168.748 160.104 167.656C160.365 180.331 161.407 194.55 163.824 209.979C165.412 220.115 167.379 229.539 169.559 238.179C166.218 237.253 162.853 236.328 159.511 235.378C159.156 209.243 158.801 183.085 158.421 156.95Z" fill="#121826"/>
<path opacity="0.13" d="M160.08 157.164C170.151 155.716 180.246 154.268 190.317 152.82C185.886 152.227 181.455 151.633 177.023 151.063C173.966 152.203 171.454 152.986 169.701 153.508C167.9 154.031 166.549 154.363 164.535 155.146C162.616 155.882 161.075 156.642 160.08 157.164Z" fill="#121826"/>
<path d="M121.455 27.9625C121.549 29.8852 121.715 32.6862 122.023 36.0331C122.782 44.3649 123.232 51.5573 125.151 57.2542C126.597 61.5506 130.009 69.5976 138.54 77.692C138.042 79.3298 137.237 81.395 135.886 83.6263C134.227 86.3561 132.331 88.3025 130.91 89.5606C123.895 82.7005 120.222 75.8642 118.279 71.4491C113.516 60.5774 113.398 50.679 113.303 43.3442C113.232 37.3861 113.729 32.3776 114.251 28.7933C113.398 27.9862 112.094 26.7281 110.459 25.2327C107.473 22.5266 106.336 21.6484 106.526 21.2686C106.691 20.9362 107.924 20.96 113.042 22.7877C108.635 17.1145 106.668 14.0762 107.142 13.6252C107.568 13.2216 109.938 14.9307 114.274 18.7524C111.052 10.7292 110.53 8.33177 110.957 8.11813C111.383 7.9045 113.042 9.82721 117.687 17.5418C116.952 11.3227 117.189 9.92216 117.568 9.82721C118.232 9.68479 119.701 13.554 120.128 14.7171C121.123 17.3757 121.668 19.6544 121.952 21.1973C125.957 18.0403 126.763 18.3251 126.952 18.515C127.639 19.1322 125.815 22.2655 125.365 23.0489C124.061 25.3276 122.568 26.9418 121.455 27.9625Z" fill="white" stroke="#121826" stroke-width="0.5"/>
<path opacity="0.15" d="M111.17 8.49805C110.767 8.71168 112.26 12.6995 114.203 16.094C114.748 17.0197 115.08 17.4707 117.947 21.7909C119.108 23.5475 120.056 24.9717 120.696 25.9212C119.867 29.3393 118.966 34.0393 118.729 39.6888C118.563 43.6292 118.303 51.4387 121.052 60.7912C124.037 70.9507 129.227 78.2855 133.018 82.7244C134.843 81.0865 136.668 79.4486 138.492 77.8108C130.649 70.2623 127.189 62.6902 125.601 58.3937C123.35 52.2695 122.734 46.3827 122.189 41.2554C121.597 35.9146 121.526 31.4045 121.573 28.105C122.781 27.1555 124.582 25.4939 125.909 22.9065C126.194 22.3369 127.758 19.3222 126.976 18.6576C126.146 17.9455 123.137 20.2242 121.881 21.1975C119.108 12.0112 117.995 9.94602 117.544 10.041C117.284 10.0884 117.213 10.848 117.118 12.0586C116.928 14.5273 117.355 16.545 117.758 17.803C117.734 17.8505 117.734 17.8505 111.17 8.49805Z" fill="#121826"/>
<path opacity="0.2" d="M126.336 20.8174C125.364 21.2684 123.303 22.384 121.668 24.7578C120.175 26.9179 119.772 29.0067 119.654 30.0749C119.322 33.3981 119.251 37.1961 119.677 41.3026C121.17 55.9248 128.018 66.654 132.45 72.3747C129.393 67.3186 125.459 59.5565 123.208 49.4207C121.265 40.7329 121.194 33.1845 121.549 27.7487C122.473 26.7754 123.516 25.5411 124.511 24.0219C125.27 22.8825 125.862 21.7906 126.336 20.8174Z" fill="#121826"/>
<path d="M161.857 76.4818C160.222 77.2413 158.848 77.7636 158.042 79.259C156.455 82.1787 158.564 86.0716 159.085 87.0448C160.412 89.5135 162.308 91.0327 163.753 91.9347C168.35 89.9408 175.222 86.1428 181.312 79.1403C189.18 70.0964 191.455 60.5066 192.639 55.3556C194.227 48.3294 194.298 42.3239 194.085 38.2411C195.246 36.2234 196.928 33.3749 199.085 29.9568C200.981 26.9184 202.023 25.328 201.62 24.9007C201.312 24.5922 200.128 24.8533 195.933 27.8679C197.45 21.9573 197.947 18.8952 197.402 18.6816C196.881 18.4917 195.412 20.8891 192.995 25.8977C193.35 19.0614 193.184 15.5957 192.497 15.5008C191.786 15.3821 190.483 19.1089 188.587 26.6336C187.474 21.4351 186.668 18.8715 186.146 18.919C185.53 18.9902 185.341 22.6694 185.53 29.933C181.952 27.9628 179.914 27.2507 179.417 27.8442C178.729 28.675 181.028 31.9507 186.312 37.7188C186.431 39.9501 186.407 43.5107 185.554 47.7122C185.128 49.8248 182.094 64.6843 171.763 70.5712C168.421 72.4939 165.317 74.8676 161.857 76.4818Z" fill="white" stroke="#121826" stroke-width="0.5"/>
<path opacity="0.16" d="M197.402 18.6335C197.023 18.5148 196.383 20.6986 193.777 24.4491C193.161 25.3511 192.876 25.6835 192.639 26.3956C192 28.4607 193.137 29.7663 193.09 31.4991C193.042 32.7334 192.402 34.4662 189.464 36.5551C189.962 38.3354 190.507 40.8753 190.673 43.9374C191.312 56.1621 184.914 65.111 182.687 68.8378C180.578 72.3746 174.274 81.5372 158.943 87.1629C159.061 87.7563 159.488 89.3942 160.957 90.6998C161.857 91.5068 162.805 91.8629 163.374 92.0053C166.549 90.6998 170.957 88.4684 175.507 84.718C182.687 78.7837 186.17 72.3034 187.829 69.1226C194.535 56.352 194.535 43.8899 194.085 37.6708C195.436 35.5344 196.62 33.6592 197.545 32.1875C200.862 26.9178 201.905 25.2325 201.502 24.8289C201.289 24.6153 200.578 24.7102 198.279 26.2769C197.497 26.7516 196.715 27.2501 195.933 27.7249C197.616 20.6274 197.734 18.7285 197.402 18.6335Z" fill="#121826"/>
<path opacity="0.28" d="M198.374 30.835C192.924 34.1819 191.644 37.0304 191.526 39.0718C191.478 39.8788 191.62 40.0925 191.786 42.0152C191.786 42.0152 191.644 45.5283 191.692 49.9197C191.763 56.1863 189.18 61.8595 186.028 68.7433C184.369 72.3514 181.905 77.0988 178.255 82.2973C180.886 79.6862 183.706 76.3392 186.241 72.1852C194.346 58.7737 194.346 45.101 193.872 38.5258C195.365 35.9385 196.857 33.3748 198.374 30.835Z" fill="#121826"/>
<path opacity="0.11" d="M179.346 28.2471C184.63 30.9532 186.123 31.4042 186.289 31.1668C186.431 30.9294 185.554 30.0037 184.748 29.4815C184.417 29.2678 183.966 29.0542 183.066 28.6744C181.455 27.986 181.028 27.9385 180.72 27.9385C180.104 27.9148 179.63 28.1047 179.346 28.2471Z" fill="#121826"/>
<path d="M108.872 177.887C108.682 179.073 109.772 180.474 111.905 183.299C113.042 184.794 114.085 185.933 114.772 186.669C113.706 188.592 111.834 192.722 112.758 197.66C113.042 199.25 113.54 201.885 114.962 202.217C117.426 202.811 121.099 196.093 122.545 192.912C124.18 189.328 124.89 186.076 125.246 183.773C122.781 180.45 120.293 177.127 117.829 173.804C112.924 174.231 109.18 175.798 108.872 177.887Z" fill="#121826" stroke="#121826" stroke-width="0.5"/>
<path d="M137.876 127.161C139.44 138.958 137.023 143.611 134.298 145.605C131.834 147.409 129.393 146.815 123.564 148.501C118.469 149.996 114.559 152.132 111.976 153.794C112.308 156.168 112.995 159.206 114.369 162.506C116.549 167.728 119.582 171.407 121.739 173.615C121.312 174.517 119.535 177.982 115.388 179.739C112.023 181.187 108.99 180.665 107.876 180.427C104.085 176.914 98.2555 170.386 95.6251 160.773C94.5588 156.856 93.2555 151.8 95.1749 146.151C96.3834 142.614 98.2555 140.62 102.023 136.632C103.255 135.326 108.635 129.748 118.161 124.668C123.729 121.701 126.549 120.206 129.891 120.894C134.132 121.82 136.763 125.38 137.876 127.161Z" fill="#33D49E"/>
<path opacity="0.21" d="M132.331 126.448C128.492 128.774 123.161 132.169 117 136.608C106.336 144.299 101.454 148.405 99.7009 152.678C97.9948 156.832 99.2033 164.428 114.606 179.501C115.436 179.335 116.739 178.931 118.042 178.029C120.151 176.581 121.123 174.635 121.478 173.757C119.748 171.976 117.687 169.46 115.838 166.137C113.208 161.389 112.165 156.951 111.715 153.936C116.549 150.542 120.791 149.141 123.872 148.5C128.469 147.527 132.189 147.907 135.033 144.963C136.478 143.468 137.047 141.759 137.568 140.192C139.037 135.801 138.492 131.908 138.042 129.89C136.146 128.774 134.227 127.611 132.331 126.448Z" fill="#121826"/>
<path opacity="0.16" d="M130.909 129.795C130.412 131.979 129.606 134.424 128.398 136.987C124.18 145.817 117.236 150.707 113.374 152.986C116.478 150.921 119.227 149.829 121.17 149.212C121.834 148.998 122.521 148.808 129.796 146.909C133.113 146.031 134.061 145.794 135.056 144.844C135.649 144.274 136.62 143.111 137.379 138.886C137.758 136.726 138.137 133.569 137.876 129.652C135.53 129.7 133.208 129.747 130.909 129.795Z" fill="#121826"/>
<path opacity="0.17" d="M111.739 153.271C111.099 156.286 110.341 162.078 112.331 168.843C113.587 173.116 115.554 176.344 117.071 178.457C117.782 178.053 118.777 177.365 119.748 176.273C120.578 175.323 121.099 174.398 121.431 173.686C119.701 171.905 117.616 169.389 115.791 166.042C113.042 161.01 112.094 156.31 111.739 153.271Z" fill="#121826"/>
<path d="M125.388 176.699C126.952 178.907 128.54 181.091 130.104 183.298C129.251 185.553 127.094 192.224 130.27 197.493C130.815 198.395 131.786 200.009 133.137 200.033C136.004 200.081 138.113 192.959 138.54 191.583C139.251 189.233 139.985 185.601 139.559 180.925C138.492 174.065 133.516 170.362 130.104 171.121C126.976 171.81 125.554 176.225 125.388 176.699Z" fill="#121826" stroke="#121826" stroke-width="0.5"/>
<path d="M154.701 126.377C156.715 139.1 152.616 143.515 151.123 144.82C149.725 146.031 148.374 146.506 140.815 149.022C137.995 149.971 133.848 151.348 128.777 153.01C129.109 155.384 129.796 158.422 131.17 161.721C133.35 166.944 136.383 170.623 138.54 172.83C138.113 173.732 136.336 177.198 132.189 178.955C128.824 180.403 125.791 179.88 124.677 179.643C120.886 176.13 115.056 169.602 112.426 159.989C111.36 156.072 110.056 151.016 111.976 145.366C113.184 141.83 115.056 139.836 118.824 135.848C120.056 134.542 125.436 128.964 134.962 123.884C140.53 120.917 143.35 119.422 146.691 120.11C150.981 121.012 153.587 124.596 154.701 126.377Z" fill="#33D49E"/>
<path opacity="0.21" d="M139.108 125.854C138.35 128.204 136.857 132.002 134.014 136.014C126.952 145.936 118.99 146.53 116.715 152.084C115.009 156.238 116.217 163.834 131.62 178.907C132.544 178.527 133.729 177.958 134.962 177.032C136.739 175.703 137.853 174.207 138.516 173.163C136.763 171.335 134.725 168.819 132.876 165.543C130.151 160.677 129.014 156.143 128.492 153.01C133.872 151.182 138.208 149.829 141.099 148.927C146.881 147.171 149.843 146.411 152.142 143.491C153.563 141.663 154.156 139.741 154.535 138.483C155.72 134.614 155.388 131.243 155.056 129.296C149.748 128.181 144.44 127.018 139.108 125.854Z" fill="#121826"/>
<path opacity="0.16" d="M147.924 129.178C147.426 131.386 146.644 133.831 145.412 136.371C140.53 146.364 131.834 151.254 127.758 153.177C131.881 151.871 135.601 150.684 138.848 149.64C138.848 149.64 140.53 149.094 144.654 147.622C149.914 145.723 150.815 145.248 151.715 144.346C153.303 142.732 153.729 140.928 154.369 138.293C154.843 136.276 155.364 133.095 154.867 129.06C152.568 129.107 150.246 129.155 147.924 129.178Z" fill="#121826"/>
<path opacity="0.17" d="M128.753 152.678C128.113 155.692 127.355 161.484 129.345 168.249C130.601 172.522 132.568 175.75 134.085 177.863C134.796 177.459 135.791 176.771 136.763 175.679C137.592 174.73 138.113 173.804 138.445 173.092C136.715 171.311 134.63 168.795 132.805 165.448C130.056 160.416 129.108 155.716 128.753 152.678Z" fill="#121826"/>
<path d="M137.924 76.1249C133.326 79.5431 131.146 84.789 130.649 86.0233C130.341 86.7592 129.464 89.0854 129.061 92.2899C128.587 95.9455 128.966 99.0076 129.345 101.025C129.511 103.85 129.417 108.526 127.45 113.843C126.052 117.665 124.156 120.514 122.663 122.436C125.696 124.762 131.407 128.537 139.535 130.293C146.052 131.717 151.597 131.29 155.08 130.721C157.118 124.952 159.108 118.377 160.744 111.066C162.284 104.182 163.303 97.7732 163.943 91.9814C162.924 91.4829 159.938 89.9162 158.421 86.4506C158.327 86.237 156.146 81.086 158.563 78.0001C160.009 76.1724 162.047 76.386 162.047 75.8163C162.047 74.2971 147.592 68.9562 137.924 76.1249Z" fill="white" stroke="#121826" stroke-width="0.5"/>
<path opacity="0.13" d="M144.251 73.6333C143.777 74.4878 143.611 76.7666 143.611 78.0484C143.611 79.4014 143.753 80.5408 143.919 81.3479C143.919 83.4605 146.194 93.9049 144.606 103.827C142.782 115.221 136.644 124.004 133.658 127.825C136.052 128.941 139.63 130.27 144.156 130.864C148.658 131.433 152.426 131.054 155.033 130.603C156.739 125.713 158.35 120.324 159.772 114.461C161.715 106.438 162.924 98.9609 163.658 92.2908C162.426 91.4837 158.54 88.7302 157.592 83.959C157.331 82.5822 156.857 80.256 158.256 78.1671C159.511 76.2681 161.526 75.6747 162.237 75.5085C152.995 72.0429 145.53 71.307 144.251 73.6333Z" fill="#121826"/>
<path opacity="0.17" d="M157.639 85.5488C157.947 89.7028 157.876 94.8301 156.739 100.551C153.777 115.576 145.341 125.617 140.791 130.27C142.687 130.768 145.222 131.243 148.232 131.243C150.933 131.267 153.232 130.911 155.009 130.507C158.303 121.724 161.218 111.494 162.853 99.9573C163.232 97.2988 163.54 94.7114 163.753 92.1715C162.71 91.5543 161.289 90.5336 159.914 88.967C158.848 87.7327 158.113 86.5221 157.639 85.5488Z" fill="#121826"/>
<path opacity="0.14" d="M141.478 77.0513C142.663 79.2826 144.938 80.6831 147.379 80.7306C151.218 80.8255 154.322 77.526 153.872 76.3629C153.564 75.5558 151.218 75.0811 141.478 77.0513Z" fill="#121826"/>
<path d="M134.938 46.1689C134.18 46.0977 133.469 50.1805 131.834 56.4946C129.274 66.4405 127.734 69.0041 129.345 72.4223C129.63 73.0157 130.767 75.3894 133.255 76.3389C135.862 77.3359 139.63 76.6712 141.454 74.4399C145.601 69.3602 137.402 58.7734 135.649 47.9967C135.554 47.5219 135.364 46.2164 134.938 46.1689Z" fill="#33D49E"/>
<path d="M141.715 70.9979C141.928 71.8762 142.165 73.2292 141.952 74.8434C141.834 75.8403 141.573 76.6711 141.336 77.3358C142.355 77.6206 143.919 77.9292 145.791 77.8342C147.995 77.7156 149.725 77.0747 150.744 76.5999C150.388 75.8166 150.056 74.962 149.748 73.9888C149.203 72.3035 148.919 70.7368 148.753 69.3838C148.421 69.7873 147.308 70.9742 145.412 71.3777C143.635 71.7575 142.213 71.2116 141.715 70.9979Z" fill="white" stroke="#121826" stroke-width="0.5"/>
<path d="M135.151 48.8984C132.805 55.07 132.971 63.4493 137.663 69.4311C138.398 70.3806 139.108 71.0689 139.582 71.4962C142.853 71.8048 145.364 71.2826 146.881 70.8316C147.947 70.523 149.037 70.1907 150.199 69.4073C152.781 67.6745 153.848 65.0634 154.251 63.7816C155.009 64.3988 155.601 64.4937 156.004 64.47C158.137 64.3276 160.341 60.3634 159.037 57.7049C158.327 56.2569 156.81 55.6635 156.194 55.4736C155.72 53.5983 153.99 47.8064 148.54 44.5544C147.142 43.7236 142.947 41.2312 139.369 42.9403C136.999 44.056 136.075 46.4772 135.151 48.8984Z" fill="white" stroke="#121826" stroke-width="0.5"/>
<path d="M142.355 72.4225C142.284 72.4463 142.189 72.47 142.118 72.5175C141.739 72.6599 141.81 73.1821 142.213 73.2059C144.18 73.3958 146.62 72.0902 148.208 71.0221C148.587 70.7609 148.232 70.1438 147.853 70.4049C146.36 71.4018 144.061 72.6599 142.213 72.4938C142.237 72.7311 142.284 72.9685 142.308 73.1821C142.379 73.1584 142.473 73.1347 142.545 73.0872C142.971 72.9448 142.782 72.2564 142.355 72.4225Z" fill="#121826"/>
<path d="M142.426 72.7544C143.943 72.5408 145.436 72.1373 146.857 71.5676C147.284 71.4014 147.094 70.713 146.668 70.8792C145.222 71.4489 143.753 71.8524 142.236 72.0661C141.786 72.1373 141.976 72.8256 142.426 72.7544Z" fill="#121826"/>
<path d="M142.521 72.3745C143.042 72.4219 143.587 72.3982 144.109 72.2558C144.559 72.1371 144.369 71.4487 143.919 71.5674C143.469 71.6861 142.995 71.7098 142.521 71.6624C142.071 71.6149 142.071 72.327 142.521 72.3745Z" fill="#121826"/>
<path d="M146.905 60.2209C147.355 60.2209 147.355 59.5088 146.905 59.5088C146.455 59.5088 146.455 60.2209 146.905 60.2209Z" fill="#121826"/>
<path d="M149.109 59.8654C149.109 59.8417 149.109 59.818 149.109 59.818C149.109 59.6281 148.943 59.4619 148.753 59.4619C148.564 59.4619 148.398 59.6281 148.398 59.818C148.398 59.8417 148.398 59.8654 148.398 59.8654C148.398 60.0553 148.564 60.2215 148.753 60.2215C148.943 60.1978 149.109 60.0553 149.109 59.8654Z" fill="#121826"/>
<path d="M147.995 61.5979C148.445 61.5979 148.445 60.8857 147.995 60.8857C147.545 60.8857 147.545 61.5979 147.995 61.5979Z" fill="#121826"/>
<path d="M135.838 58.6076C136.289 58.6076 136.289 57.8955 135.838 57.8955C135.388 57.8955 135.388 58.6076 135.838 58.6076Z" fill="#121826"/>
<path d="M137.521 58.0852C137.971 58.0852 137.971 57.373 137.521 57.373C137.071 57.373 137.047 58.0852 137.521 58.0852Z" fill="#121826"/>
<path d="M137.118 59.7463C137.568 59.7463 137.568 59.0342 137.118 59.0342C136.644 59.0342 136.644 59.7463 137.118 59.7463Z" fill="#121826"/>
<path d="M133.943 53.3847C133.469 52.7438 132.308 50.9873 132.355 48.5898C132.379 46.9282 132.947 45.7176 133.255 45.0767C134.322 42.8929 135.933 41.706 137.26 40.7802C138.492 39.902 140.791 38.2878 144.061 37.9793C148.398 37.552 151.691 39.6883 153.966 41.1838C158.35 44.056 160.341 47.7827 160.767 48.5898C161.502 50.014 161.881 51.2484 162.473 53.0999C163.113 55.1413 163.113 55.711 164.18 60.4109C165.222 65.0397 165.364 65.2059 165.27 66.2266C164.985 69.7159 162.734 72.0659 162.379 72.4457C159.203 75.674 155.08 75.5078 153.682 75.4603C151.786 75.3891 150.981 74.8669 150.672 74.6533C148.8 73.3003 148.682 70.7604 148.682 70.2382C149.417 69.8109 150.388 69.1462 151.289 68.1255C153.042 66.1554 153.587 63.9953 153.777 62.9271C155.601 63.473 157.426 62.7609 158.184 61.4316C159.251 59.4852 157.758 56.6605 156.075 56.4231C155.815 56.3756 155.104 56.3519 154.18 57.1352C153.421 55.3786 152.071 52.8388 149.677 50.3226C146.739 47.213 143.587 45.6226 141.691 44.8156C140.625 45.2666 139.037 46.1211 137.497 47.6166C135.222 49.7529 134.322 52.1504 133.943 53.3847Z" fill="#33D49E"/>
<path opacity="0.14" d="M147.924 48.4717C148.895 50.0383 150.412 53.0292 150.341 56.9221C150.199 66.0847 141.407 71.212 140.862 71.4968C141.431 71.5917 146.976 72.47 150.838 68.5296C152.876 66.4408 153.492 64.0196 153.682 62.9039C154.085 63.0463 154.985 63.26 156.028 62.9514C156.289 62.8802 157.805 62.4292 158.303 61.0049C158.54 60.364 158.469 59.7706 158.421 59.4383C158.398 59.0347 158.303 58.0853 157.592 57.2545C157.331 56.9696 156.928 56.4949 156.265 56.3524C155.199 56.1388 154.369 56.9221 154.251 57.0171C153.706 55.7115 152.876 54.0974 151.644 52.3883C150.317 50.703 149.014 49.3974 147.924 48.4717Z" fill="#121826"/>
<path opacity="0.18" d="M147.189 77.526C146.478 75.5083 145.767 73.4669 145.08 71.4493C146.241 71.0695 147.426 70.6659 148.587 70.2861C149.227 72.375 149.843 74.4876 150.483 76.5765C149.393 76.9088 148.303 77.2174 147.189 77.526Z" fill="#121826"/>
<path opacity="0.21" d="M153.943 61.8594C153.35 63.1887 152.308 65.1351 150.436 66.9866C147.355 70.0487 143.848 71.0457 142.26 71.4017C142.947 71.4492 147.094 71.7341 150.175 69.1704C151.857 67.7699 152.734 65.9897 152.734 65.9897C153.184 65.0639 153.445 64.1144 153.564 63.7109C153.753 62.975 153.872 62.3341 153.943 61.8594Z" fill="#121826"/>
<path opacity="0.18" d="M148.753 77.2412C148.066 75.1523 147.402 73.0397 146.715 70.9509C147.308 70.761 147.9 70.5473 148.492 70.3574C149.132 72.4463 149.796 74.5352 150.436 76.6241C149.891 76.8139 149.322 77.0276 148.753 77.2412Z" fill="#121826"/>
<path d="M141.715 53.4562C141.075 55.9961 140.554 58.5597 140.128 61.1471C140.056 61.5743 139.914 62.0728 140.364 62.3102C140.886 62.595 142.142 62.1915 142.687 62.0728C143.137 61.9779 142.947 61.2895 142.497 61.3844C142.118 61.4794 141.431 61.693 141.075 61.6456C140.601 61.5743 140.72 61.6693 140.862 61.1233C141.052 60.3163 141.146 59.438 141.312 58.6309C141.644 56.9693 142 55.3077 142.402 53.6698C142.521 53.2188 141.834 53.0289 141.715 53.4562Z" fill="#121826"/>
<path d="M135.767 55.8778C136.692 54.8097 138.303 54.7859 139.251 55.8066C139.488 56.0677 139.867 55.6879 139.63 55.4268C138.492 54.1925 136.502 54.2162 135.388 55.4981C135.175 55.7592 135.554 56.139 135.767 55.8778Z" fill="#121826"/>
<path d="M145.507 56.1388C146.763 55.3317 148.445 55.6878 149.251 56.9696C149.44 57.2544 149.891 56.9933 149.701 56.7085C148.753 55.1893 146.739 54.7145 145.222 55.6878C144.938 55.8539 145.222 56.3287 145.507 56.1388Z" fill="#121826"/>
<path d="M137.237 51.7709C138.09 51.3199 139.037 51.3436 139.867 51.8183C140.175 51.9845 140.436 51.5335 140.128 51.3673C139.132 50.7976 137.971 50.7739 136.952 51.3199C136.668 51.4623 136.928 51.937 137.237 51.7709Z" fill="#121826"/>
<path d="M145.791 51.913C146.952 51.7231 148.066 52.0317 148.99 52.7201C149.274 52.9337 149.535 52.4589 149.251 52.269C148.184 51.4857 146.928 51.2009 145.649 51.3908C145.317 51.462 145.459 51.9605 145.791 51.913Z" fill="#121826"/>
<path d="M138.232 65.0877C140.838 65.8948 143.587 65.3013 145.649 63.521C145.91 63.3074 145.53 62.9276 145.27 63.1412C143.35 64.8029 140.791 65.3251 138.374 64.5655C138.042 64.4468 137.9 64.969 138.232 65.0877Z" fill="#121826"/>
</svg>
