<svg width="196" height="196" viewBox="0 0 196 196" fill="none" xmlns="http://www.w3.org/2000/svg">
<circle cx="98" cy="98" r="98" fill="#33D49E"/>
<mask id="mask0_85_8158" style="mask-type:alpha" maskUnits="userSpaceOnUse" x="0" y="0" width="196" height="196">
<circle cx="98" cy="98" r="98" fill="white"/>
</mask>
<g mask="url(#mask0_85_8158)">
<path fill-rule="evenodd" clip-rule="evenodd" d="M138 83C138 69.1929 126.807 58 113 58C110.239 58 108 60.2386 108 63C108 65.7614 110.239 68 113 68C121.284 68 128 74.7157 128 83L128.034 83.5831C128.322 86.0698 130.436 88 133 88C135.761 88 138 85.7614 138 83ZM63 108C65.7614 108 68 110.239 68 113C68 120.988 74.2446 127.518 82.1186 127.975L83 128C85.7614 128 88 130.239 88 133C88 135.761 85.7614 138 83 138C69.1929 138 58 126.807 58 113C58 110.239 60.2386 108 63 108ZM133 108C135.761 108 138 110.239 138 113C138 126.807 126.807 138 113 138C110.239 138 108 135.761 108 133C108 130.436 109.93 128.322 112.417 128.034L113 128C120.988 128 127.518 121.755 127.975 113.881L128 113C128 110.239 130.239 108 133 108ZM83 58C85.7614 58 88 60.2386 88 63C88 65.7614 85.7614 68 83 68C74.7157 68 68 74.7157 68 83C68 85.7614 65.7614 88 63 88C60.2386 88 58 85.7614 58 83C58 69.1929 69.1929 58 83 58ZM117.16 100.226C115.628 97.9289 112.524 97.308 110.227 98.8397C102.823 103.776 93.1773 103.776 85.7735 98.8397C83.4759 97.308 80.3715 97.9289 78.8398 100.226C77.308 102.524 77.9289 105.628 80.2265 107.16C90.9893 114.335 105.011 114.335 115.774 107.16C118.071 105.628 118.692 102.524 117.16 100.226Z" fill="#1B7A00"/>
</g>
</svg>
