<svg width="327" height="279" viewBox="0 0 327 279" fill="none" xmlns="http://www.w3.org/2000/svg">
<path d="M16.3509 143.029C16.6927 144.2 17.9869 144.346 19.0124 144.004C20.1113 143.639 21.0636 142.42 22.3089 143.054C22.9682 143.395 23.3833 144.126 24.1159 144.346C25.6542 144.833 26.3379 143.175 27.5344 142.639C29.2193 141.883 30.8309 143.858 32.5646 143.566C33.2483 143.468 33.6634 143.029 34.1518 142.59C35.2018 141.639 35.9343 142.029 36.911 142.81C37.7901 143.517 38.7424 144.443 39.9633 144.224C41.8435 143.858 42.161 141.371 44.4319 142.029C45.8725 142.444 47.1911 143.639 48.7783 143.37C49.6085 143.224 50.1946 142.688 50.7806 142.127C51.7573 141.2 52.612 140.713 54.0038 141.078C55.6643 141.493 57.227 142.541 58.9607 141.761C59.3758 141.566 59.0096 140.932 58.5944 141.127C56.9828 141.883 55.2247 140.493 53.6131 140.249C52.1969 140.03 51.269 140.688 50.2678 141.615C49.4864 142.346 48.7295 142.858 47.6306 142.59C46.7516 142.371 45.9702 141.859 45.14 141.517C44.0412 141.078 42.9423 140.981 41.9412 141.761C41.3307 142.224 40.9156 143.029 40.2319 143.37C39.2552 143.883 38.3517 143.078 37.6436 142.493C36.8866 141.883 35.9831 141.054 34.9087 141.298C34.3227 141.42 33.9564 141.834 33.5413 142.224C32.5157 143.151 31.6123 142.858 30.4402 142.371C29.2681 141.883 28.096 141.444 26.9484 142.2C26.167 142.688 25.581 143.785 24.5798 143.663C23.7252 143.566 23.3101 142.663 22.5287 142.322C21.845 142.029 21.1857 142.127 20.5264 142.42C19.8182 142.737 17.5718 144.419 17.1078 142.858C16.9125 142.371 16.2043 142.566 16.3509 143.029Z" fill="#E8E8E8"/>
<path d="M38.3762 138.055C39.2552 136.836 41.3308 139.128 42.5273 138.982C43.9924 138.811 44.1877 136.934 45.897 137.397C47.0202 137.69 47.997 138.543 49.2179 138.47C50.6341 138.397 51.5132 136.763 52.9783 137.129C53.9794 137.373 54.8585 138.299 55.9329 138.177C56.4213 138.129 56.641 137.86 56.9829 137.568C57.4224 137.178 57.1538 136.47 58.3747 136.885C58.7654 137.031 59.0829 137.495 59.3515 137.787C60.0352 138.567 60.7677 139.177 61.8421 138.787C62.7212 138.47 63.3805 137.982 64.3572 137.958C65.456 137.933 66.4572 138.275 67.3118 138.958C67.6781 139.25 68.1909 138.738 67.8246 138.446C66.7258 137.568 65.4072 137.129 64.0153 137.251C63.3316 137.324 62.7944 137.568 62.184 137.787C60.377 138.47 60.2305 137.324 59.1317 136.495C58.0817 135.715 57.398 135.958 56.5922 136.812C56.1282 137.324 55.9085 137.519 55.2003 137.3C54.8097 137.178 54.4434 136.934 54.1015 136.763C53.6132 136.519 53.1004 136.3 52.5388 136.3C50.9516 136.275 50.1214 138.031 48.4365 137.641C47.24 137.348 46.1168 136.3 44.8226 136.592C44.2366 136.714 43.8703 137.104 43.4796 137.519C43.0156 138.031 42.3319 138.226 41.6238 138.08C41.1843 137.982 40.7692 137.519 40.354 137.324C39.4506 136.885 38.4006 136.812 37.7657 137.69C37.4727 138.055 38.1076 138.421 38.3762 138.055Z" fill="#E8E8E8"/>
<path d="M260.997 15.9932C261.437 14.8472 262.975 16.4321 263.39 16.7003C263.854 17.0173 264.318 17.2124 264.904 17.1392C265.686 17.0661 266.321 16.5784 267.102 16.5296C267.859 16.5053 268.592 16.7735 269.3 16.9685C270.399 17.2855 271.619 17.6269 272.694 17.0173C273.5 16.554 273.89 15.9445 274.867 16.4565C275.38 16.7247 275.697 17.0661 276.283 17.1392C277.48 17.2855 278.457 16.4565 279.555 16.1883C280.874 15.8957 281.338 17.4074 282.681 17.0417C283.56 16.7979 284.097 16.2614 285.074 16.2614C285.855 16.2614 286.612 16.4809 287.369 16.6759C288.712 17.0173 289.982 17.3587 291.374 17.0905C291.838 16.9929 291.642 16.2858 291.178 16.3833C289.347 16.7247 287.638 15.8225 285.831 15.6031C285.269 15.5299 284.708 15.5056 284.146 15.6275C283.316 15.7982 282.559 16.6272 281.655 16.1639C281.118 15.8713 280.996 15.4812 280.312 15.408C279.848 15.3593 279.36 15.4812 278.92 15.6275C278.31 15.8469 277.748 16.1883 277.114 16.3346C275.99 16.6028 275.575 15.8469 274.623 15.5299C273.304 15.091 272.547 16.6272 271.278 16.6516C269.715 16.6759 268.323 15.6519 266.736 15.8225C265.808 15.9201 265.002 16.5784 264.025 16.2614C263.415 16.042 263 15.3349 262.389 15.0667C261.559 14.7009 260.582 14.8716 260.241 15.7738C260.118 16.2614 260.827 16.4321 260.997 15.9932Z" fill="#E8E8E8"/>
<path d="M273.207 14.1891C274.257 13.3357 275.917 14.3354 277.065 14.4573C277.529 14.506 277.968 14.4817 278.408 14.311C279.213 14.0184 279.751 13.3113 280.679 13.2869C281.997 13.2381 283.047 14.3841 284.39 14.3841C285.001 14.3841 285.587 14.1647 286.173 13.9696C287.223 13.6039 287.931 13.5063 288.883 14.1891C289.713 14.7743 290.299 14.8474 291.203 14.4329C292.155 13.994 292.692 13.7258 293.669 14.2866C294.206 14.5792 294.646 14.9937 295.207 15.2131C296.453 15.7252 297.674 15.3107 298.846 14.7986C300.115 14.2378 302.484 13.2381 303.29 15.0669C303.485 15.5057 304.12 15.1156 303.925 14.7011C302.631 11.7508 298.992 14.2866 297.063 14.6767C295.183 15.0425 294.255 13.1162 292.497 13.1894C291.911 13.2137 291.471 13.5063 290.983 13.7502C289.787 14.3354 289.371 13.4088 288.419 13.0431C287.003 12.5066 285.782 13.7014 284.39 13.6526C282.876 13.6282 281.68 12.1653 280.092 12.5798C279.433 12.7505 278.994 13.2625 278.383 13.5307C277.48 13.9452 276.576 13.6282 275.673 13.3844C274.598 13.1162 273.597 12.9211 272.694 13.677C272.327 13.9696 272.84 14.4817 273.207 14.1891Z" fill="#E8E8E8"/>
<path d="M269.446 244.999C270.447 243.268 272.962 245.536 274.305 245.609C276.039 245.706 277.407 243.829 279.14 244.682C280.434 245.316 281.289 246.097 282.827 245.877C284.659 245.609 286.246 244.317 288.126 244.268C288.639 244.268 289.176 244.341 289.616 244.609C289.811 244.731 290.226 245.17 290.495 245.267C290.983 245.438 291.301 245.438 291.74 245.17C292.424 244.731 292.888 244.048 293.645 243.683C294.426 243.292 295.305 243.122 296.16 243.171C297.723 243.244 298.992 244.438 300.579 244.195C301.434 244.048 302.167 243.536 302.997 243.317C304.096 243.049 305.146 243.341 306.025 244.024C306.391 244.317 306.757 243.683 306.391 243.39C305.097 242.39 303.583 242.268 302.093 242.854C300.677 243.39 299.871 243.634 298.406 243.024C297.771 242.756 297.161 242.537 296.477 242.463C294.988 242.293 293.449 242.732 292.302 243.658C292.058 243.853 291.813 244.243 291.545 244.365C290.739 244.755 290.275 244.073 289.665 243.805C289.054 243.512 288.37 243.488 287.687 243.561C285.636 243.78 283.658 245.584 281.558 245.121C279.922 244.78 279.091 243.292 277.284 243.805C276.503 244.024 275.844 244.56 275.038 244.755C273.793 245.072 272.889 244.243 271.79 243.853C270.716 243.463 269.397 243.512 268.762 244.585C268.567 245.024 269.202 245.389 269.446 244.999Z" fill="#E8E8E8"/>
<path d="M282.925 241.488C283.462 239.659 286.148 241.317 287.247 241.391C288.37 241.464 289.274 240.879 290.202 240.318C290.885 239.903 291.545 239.538 292.375 239.708C293.156 239.854 293.767 240.391 294.451 240.732C295.33 241.171 296.233 241.293 297.161 240.976C298.187 240.635 299.017 239.928 299.993 239.44C301.654 238.611 302.85 239.367 304.535 239.513C305.536 239.611 306.245 239.269 307.026 238.635C308.515 237.416 310.176 236.904 311.983 237.782C312.398 237.977 312.789 237.367 312.349 237.148C311.177 236.563 309.858 236.416 308.613 236.807C306.928 237.343 306.122 239.074 304.169 238.708C302.802 238.44 301.654 237.977 300.286 238.513C299.041 239.001 298.016 240.05 296.697 240.367C295.037 240.757 293.987 239.245 292.473 238.977C291.252 238.757 290.251 239.464 289.249 240.05C288.273 240.61 287.467 240.805 286.344 240.464C285.66 240.245 285.025 239.952 284.293 239.952C283.34 239.952 282.486 240.391 282.193 241.317C282.095 241.756 282.803 241.951 282.925 241.488Z" fill="#E8E8E8"/>
<path d="M37.9122 67.003C39.3285 65.3937 41.5505 64.6378 43.6505 65.1986C45.3598 65.6619 46.6784 66.8567 48.5342 66.4178C50.219 66.0033 51.4399 64.6378 53.076 64.1014C54.9073 63.4918 56.6899 64.4184 58.3747 65.028C59.791 65.54 61.2317 65.8814 62.6723 65.2718C63.7956 64.8085 64.6014 64.1258 65.8956 64.3696C66.7502 64.5403 67.556 64.9548 68.3862 65.2474C70.5106 65.9789 72.3908 65.2474 74.5152 65.0036C76.9326 64.7597 79.3256 64.9792 81.6698 65.5644C82.1337 65.6863 82.329 64.9792 81.8651 64.8573C79.6186 64.2721 77.2989 64.0526 74.9547 64.2233C73.8315 64.3209 72.7571 64.5403 71.6827 64.7354C70.2664 64.9792 69.1676 64.7597 67.849 64.2477C66.0176 63.5406 64.8211 63.3699 63.0386 64.2721C60.9631 65.3206 59.2782 64.5647 57.2515 63.8088C55.7131 63.2236 54.1504 62.8822 52.5632 63.4918C50.8783 64.1502 49.3888 65.8814 47.4598 65.7838C46.2877 65.7107 45.2621 64.9548 44.1877 64.5891C43.3819 64.3209 42.5029 64.2233 41.6482 64.2965C39.9878 64.4428 38.4983 65.2474 37.3994 66.4666C37.1064 66.8323 37.6192 67.3444 37.9122 67.003Z" fill="#E8E8E8"/>
<path d="M64.7723 60.1755C66.5548 58.0541 69.3629 60.6875 71.1454 61.3946C73.1722 62.1993 74.6861 61.2483 76.5907 60.6631C78.007 60.2242 78.9349 60.7363 80.2046 61.3215C80.9372 61.6385 81.6697 61.8091 82.4267 61.4678C83.4278 61.0045 84.136 60.0536 85.1615 59.5659C86.4557 58.9807 87.8475 58.8588 89.2394 59.1514C89.7033 59.2489 89.8987 58.5418 89.4347 58.4443C87.3592 58.0054 85.1859 58.4199 83.5011 59.7122C82.7197 60.2974 82.1092 61.1264 80.986 60.8582C80.4 60.7119 79.8628 60.2974 79.3011 60.0536C78.3244 59.639 77.3965 59.639 76.3954 59.956C75.1989 60.3218 74.0512 61.0533 72.757 61.0289C71.3408 61.0045 70.1687 60.0048 68.9966 59.3708C67.5071 58.5906 65.456 58.1761 64.2351 59.639C63.942 60.0292 64.4792 60.5412 64.7723 60.1755Z" fill="#E8E8E8"/>
<path d="M77.25 91.7517C78.5852 91.7517 79.6675 90.671 79.6675 89.3378C79.6675 88.0045 78.5852 86.9238 77.25 86.9238C75.9149 86.9238 74.8326 88.0045 74.8326 89.3378C74.8326 90.671 75.9149 91.7517 77.25 91.7517Z" fill="#33D49E"/>
<path d="M205.861 11.3608C207.143 11.3608 208.181 10.3237 208.181 9.04442C208.181 7.76511 207.143 6.72803 205.861 6.72803C204.58 6.72803 203.541 7.76511 203.541 9.04442C203.541 10.3237 204.58 11.3608 205.861 11.3608Z" fill="#33D49E"/>
<path d="M325.046 179.311C326.126 179.311 327 178.438 327 177.361C327 176.284 326.126 175.41 325.046 175.41C323.967 175.41 323.093 176.284 323.093 177.361C323.093 178.438 323.967 179.311 325.046 179.311Z" fill="#33D49E"/>
<path d="M191.601 239.172C192.626 239.172 193.457 238.343 193.457 237.319C193.457 236.295 192.626 235.466 191.601 235.466C190.576 235.466 189.745 236.295 189.745 237.319C189.745 238.343 190.576 239.172 191.601 239.172Z" fill="#33D49E"/>
<path d="M217.899 15.1158C218.519 15.1158 219.022 14.6137 219.022 13.9942C219.022 13.3747 218.519 12.8726 217.899 12.8726C217.279 12.8726 216.776 13.3747 216.776 13.9942C216.776 14.6137 217.279 15.1158 217.899 15.1158Z" fill="#1B7A00"/>
<path d="M72.0001 109.697C73.1194 109.697 74.0268 108.791 74.0268 107.674C74.0268 106.556 73.1194 105.65 72.0001 105.65C70.8808 105.65 69.9734 106.556 69.9734 107.674C69.9734 108.791 70.8808 109.697 72.0001 109.697Z" fill="#1B7A00"/>
<path d="M316.28 196.526C317.252 196.526 318.038 195.74 318.038 194.77C318.038 193.801 317.252 193.015 316.28 193.015C315.308 193.015 314.522 193.801 314.522 194.77C314.522 195.74 315.308 196.526 316.28 196.526Z" fill="#1B7A00"/>
<path d="M0.381348 194.014C2.26155 194.795 4.89873 195.746 8.17077 196.404C14.4463 197.623 19.4032 197.038 21.9183 196.696C25.0438 196.282 34.0541 194.795 47.5818 187.09C60.9386 179.506 69.6804 171.021 76.2489 164.56C83.379 157.562 88.5069 151.344 90.0208 149.466C99.1288 138.323 101.815 132.325 111.558 122.962C117.418 117.329 120.641 115.452 122.521 114.477C124.353 113.526 129.7 110.941 141.543 109.893C149.504 109.186 155.193 109.649 164.936 110.478C175.9 111.404 184.349 112.794 191.039 113.891C198.462 115.111 204.689 116.33 209.182 117.281C210.598 114.647 212.698 110.356 214.481 104.797C216.947 97.1403 216.776 93.3853 219.608 77.0242C220.927 69.3923 221.586 65.5154 222.588 62.2237C225.225 53.5189 229.058 46.9355 231.964 42.644C233.039 45.5212 234.113 48.3741 235.212 51.2513C236.359 49.8371 238.069 48.0083 240.462 46.3015C242.952 44.5215 245.321 43.4731 247.079 42.8391C246.81 44.0095 246.493 46.1064 247.006 48.6179C247.445 50.7392 248.3 52.3241 248.91 53.2751C250.009 52.3729 251.132 51.4463 252.231 50.5442C254.966 48.3009 257.701 46.0577 260.436 43.8144C261.071 45.1067 261.681 46.399 262.316 47.6913C263.537 50.2272 264.758 52.7386 266.003 55.2745C268.054 53.397 270.154 51.3488 272.279 49.1299C273.524 47.8133 274.721 46.521 275.844 45.2287C276.601 46.4478 277.382 47.8133 278.115 49.3494C279.433 52.1047 280.312 54.7137 280.898 56.9569C281.631 55.7621 282.583 54.4455 283.755 53.1775C287.858 48.7154 292.692 46.7648 295.647 45.887C295.354 47.0574 295.11 48.2522 294.89 49.5201C294.035 54.3479 293.913 58.7857 294.133 62.6138C294.768 62.0286 295.671 61.2727 296.819 60.4681C299.847 58.3224 302.753 57.2008 304.731 56.6156C306.171 56.1767 308.1 55.7134 310.444 55.5183C309.053 57.0788 307.197 59.3952 305.365 62.4675C303.314 65.9299 301.752 69.6117 300.36 74.7322C297.649 84.6074 297.405 92.9464 297.136 104.065C297.039 108.113 297.063 111.039 297.112 116.891C297.161 121.45 297.234 129.619 297.674 138.275C298.382 151.905 299.285 153.148 300.335 170.143C301.043 181.555 300.872 184.968 300.653 187.675C299.822 197.135 297.552 204.133 296.257 207.62C294.914 211.278 293.278 215.667 289.762 220.665C286.832 224.859 283.951 228.858 278.627 231.028C274.965 232.515 271.595 232.54 269.495 232.369C264.392 232.613 258.165 232.686 251.084 232.271C248.739 232.125 242.928 231.759 235.358 230.662C221.733 228.687 212.039 225.761 208.889 224.786C206.398 224.006 203.053 222.689 196.387 220.055C194.091 219.153 192.529 218.519 190.648 217.178C189.403 216.3 186.571 214.252 184.568 210.424C184.324 209.961 183.225 207.791 182.713 204.694C182.126 201.085 182.664 198.306 183.225 195.599C183.738 193.112 184.715 189.601 186.766 185.651C184.153 188.504 180.881 192.283 177.316 196.916C171.382 204.597 167.646 210.765 166.889 212.009C163.788 217.154 163.398 218.592 157.977 229.54C151.359 242.902 147.99 249.681 144.474 254.362C138.418 262.458 132.386 267.31 130.433 268.846C124.084 273.796 118.004 276.844 113.487 278.721C114.463 277.356 115.977 274.893 116.734 271.479C117.467 268.163 117.198 265.359 116.905 263.726C115.636 264.872 114.146 266.066 112.437 267.212C107.358 270.602 102.352 272.187 98.616 272.991C99.2997 270.821 99.959 268.285 100.374 265.408C101.058 260.897 100.985 256.923 100.716 253.777C99.1776 255.606 97.1509 257.703 94.5382 259.727C90.0696 263.165 85.6987 265.042 82.5244 266.091C83.5499 264.36 84.722 261.994 85.5278 259.02C86.7243 254.655 86.6266 250.851 86.3825 248.389C85.2104 249.51 83.672 250.754 81.743 251.802C75.7361 255.118 69.7292 254.753 66.9944 254.387C67.8246 253.192 68.7281 251.705 69.5094 249.9C71.0966 246.145 71.3897 242.707 71.3652 240.464C70.1687 241.683 68.7281 242.976 66.9699 244.17C60.9631 248.291 54.7364 249.193 51.1469 249.364C52.0748 248.218 53.0515 246.828 53.955 245.17C55.9573 241.488 56.6899 238.001 56.9829 235.563C54.1748 237.099 51.7085 238.245 49.8039 239.05C43.9679 241.537 41.7215 241.708 39.768 241.074C38.9866 240.805 38.3762 240.488 37.9855 240.22C39.3773 238.635 40.8424 236.733 42.2831 234.539C44.8226 230.589 46.4586 226.834 47.5086 223.762C46.6051 224.176 44.9935 224.883 42.918 225.469C39.011 226.59 35.9588 226.663 25.581 226.712C22.5531 226.736 20.1357 226.736 18.7927 226.736C20.7706 225.834 22.9682 224.639 25.2391 223.079C29.0728 220.494 31.9542 217.69 34.0297 215.325C33.0774 215.52 31.8321 215.715 30.3426 215.862C29.3414 215.959 26.0205 216.276 22.0403 215.935C16.3753 215.447 11.6626 213.838 8.80565 212.667C10.5393 212.107 11.9312 211.521 12.9323 211.107C15.5451 209.985 17.2299 209.254 19.0125 207.742C20.1357 206.791 20.9171 205.84 21.3811 205.206C19.0369 204.743 16.2776 204.011 13.323 202.768C7.2673 200.159 3.01852 196.623 0.381348 194.014Z" fill="white"/>
<path opacity="0.18" d="M188.451 183.383C187.743 184.603 186.668 186.553 185.618 189.016C183.616 193.697 181.858 197.794 182.371 203.012C182.737 206.767 184.129 209.522 184.593 210.376C184.91 210.961 185.985 212.887 187.938 214.862C191.869 218.861 196.704 220.446 199.879 221.445C211.575 225.127 217.435 226.98 218.949 227.346C224.932 228.736 233.844 230.784 245.98 231.833C253.013 232.442 261.461 232.759 271.009 232.223C269.642 232.028 267.395 231.54 265.222 229.931C264.611 229.492 262.047 227.517 260.363 222.421C258.873 217.934 258.873 213.545 259.606 208.62C261.022 199.208 264.44 192.161 268.274 184.481C270.618 179.775 271.546 178.556 275.014 171.436C277.309 166.73 279.043 162.926 280.215 157.806C281.24 153.417 281.265 150.71 280.898 148.296C280.654 146.711 280.263 144.249 278.603 141.591C276.723 138.592 274.232 136.958 272.865 136.202C269.544 136.275 265.173 136.568 260.118 137.373C255.918 138.055 247.03 139.762 236.677 144.297C224.565 149.588 216.727 156.026 209.548 161.999C203.761 166.779 196.191 173.801 188.451 183.383Z" fill="#121826"/>
<path d="M1.11388 194.307C18.4264 202.719 38.9866 193.429 53.7108 183.749C69.3141 173.46 82.2069 159.634 94.0009 145.273C97.0288 141.591 99.9834 137.86 102.914 134.13C105.917 130.301 108.847 126.351 112.193 122.791C115.562 119.232 119.42 116.232 123.913 114.184C128.382 112.16 133.241 111.088 138.1 110.527C148.356 109.381 158.88 110.185 169.112 111.185C180.075 112.258 190.966 114.038 201.759 116.281C223.344 120.768 244.491 127.156 265.466 133.886C268.103 134.739 270.74 135.593 273.378 136.446C273.817 136.592 274.012 135.885 273.573 135.739C252.622 128.936 231.573 122.304 210.085 117.354C189.354 112.575 167.817 109.015 146.476 109.283C137.319 109.405 127.771 110.649 119.811 115.477C111.68 120.402 106.234 128.692 100.447 136.007C88.8487 150.686 76.664 165.169 61.9153 176.824C54.541 182.652 46.5074 187.699 37.8878 191.479C28.853 195.453 18.4753 198.062 8.61028 196.063C6.11962 195.551 3.72663 194.746 1.43132 193.624C1.06504 193.478 0.67435 194.112 1.11388 194.307Z" fill="#121826"/>
<path d="M0.112738 194.258C6.09521 199.842 13.3963 203.865 21.3322 205.938C21.7962 206.06 21.9915 205.353 21.5276 205.231C13.7137 203.207 6.53474 199.257 0.625521 193.746C0.283666 193.429 -0.229118 193.941 0.112738 194.258Z" fill="#121826"/>
<path d="M20.8194 205.816C17.7671 209.473 13.1277 210.936 8.70795 212.253C8.34168 212.375 8.39051 212.814 8.70795 212.96C16.7904 216.349 25.7275 217.251 34.3227 215.569C34.1762 215.398 34.0541 215.203 33.9076 215.032C30.4402 220.616 24.3601 223.591 18.6218 226.346C18.2799 226.517 18.4508 227.029 18.8171 227.029C24.2135 227.005 29.6344 227.151 35.0064 226.883C39.7191 226.663 44.4563 225.883 48.583 223.42C48.9981 223.176 48.6074 222.542 48.2167 222.786C43.9679 225.322 39.0598 226.005 34.1762 226.176C29.0728 226.371 23.9449 226.273 18.8171 226.273C18.8904 226.492 18.9392 226.736 19.0125 226.956C24.8728 224.152 31.0262 221.079 34.5669 215.374C34.7378 215.081 34.4448 214.789 34.1518 214.837C25.6786 216.471 16.8881 215.544 8.92772 212.228C8.92772 212.472 8.92772 212.692 8.92772 212.935C13.4451 211.594 18.2311 210.083 21.3566 206.303C21.6252 205.962 21.1124 205.45 20.8194 205.816Z" fill="#121826"/>
<path d="M47.24 223.835C46.0435 227.59 44.2854 231.125 42.0145 234.32C40.9157 235.856 39.6459 237.221 38.4006 238.635C37.7657 239.367 37.2285 240.391 38.2541 241.049C39.3529 241.756 41.2819 241.293 42.4784 241.147C44.2366 240.927 45.9458 240.586 47.6551 240.098C51.269 239.05 54.6876 237.367 57.7399 235.149C58.1305 234.88 57.7643 234.246 57.3736 234.515C54.6387 236.49 51.6353 238.026 48.4365 239.074C46.9226 239.562 45.3842 239.952 43.797 240.22C42.8691 240.367 41.9412 240.488 41.0133 240.562C40.4517 240.61 39.0599 240.903 38.5959 240.415C37.9122 239.708 39.5482 238.44 40.0122 237.953C40.5006 237.392 40.9889 236.807 41.4529 236.221C42.3563 235.075 43.211 233.881 43.968 232.637C45.6528 229.931 46.947 227.029 47.9237 224.006C48.0702 223.567 47.3865 223.372 47.24 223.835Z" fill="#121826"/>
<path d="M56.8852 235.393C56.2014 240.44 54.1259 245.146 50.8538 249.047C50.6585 249.267 50.7806 249.681 51.1224 249.681C58.9607 249.34 66.4571 245.999 71.9512 240.416C72.2931 240.074 71.7559 239.562 71.4384 239.903C66.0908 245.365 58.7898 248.633 51.1224 248.974C51.2201 249.193 51.2934 249.389 51.3911 249.608C54.7608 245.609 56.9096 240.806 57.6177 235.636C57.6665 235.124 56.9584 234.905 56.8852 235.393Z" fill="#121826"/>
<path d="M70.7792 240.805C70.828 245.585 69.3873 250.193 66.6525 254.119C66.506 254.314 66.6525 254.606 66.8722 254.655C74.1245 256.752 81.3523 252.973 86.9196 248.608C87.2859 248.315 86.7731 247.803 86.4069 248.096C81.0348 252.314 74.0512 255.972 67.0676 253.948C67.1408 254.119 67.2141 254.314 67.2874 254.484C70.0955 250.461 71.5606 245.706 71.5117 240.805C71.4873 240.342 70.7547 240.342 70.7792 240.805Z" fill="#121826"/>
<path d="M86.3336 249.315C86.4801 255.094 85.0638 260.775 82.2069 265.823C82.0604 266.091 82.3046 266.457 82.622 266.359C89.7277 264.043 96.0521 259.776 100.862 254.046C101.155 253.68 100.643 253.168 100.35 253.534C95.6125 259.166 89.4103 263.36 82.4267 265.652C82.5732 265.823 82.6953 266.018 82.8418 266.188C85.772 261.044 87.2371 255.24 87.0661 249.315C87.0417 248.852 86.3092 248.852 86.3336 249.315Z" fill="#121826"/>
<path d="M100.496 254.192C100.887 260.483 100.13 266.774 98.2497 272.796C98.1521 273.089 98.4451 273.284 98.6893 273.235C105.355 272.065 111.533 268.919 116.417 264.238C116.759 263.921 116.246 263.384 115.904 263.726C111.094 268.334 105.038 271.382 98.4939 272.528C98.6404 272.674 98.7869 272.821 98.9335 272.967C100.838 266.895 101.619 260.531 101.204 254.167C101.18 253.729 100.447 253.729 100.496 254.192Z" fill="#121826"/>
<path d="M116.832 264.018C117.076 269.09 115.831 274.088 113.194 278.453C112.998 278.77 113.389 279.111 113.706 278.965C120.421 275.527 127.161 271.991 133.07 267.237C138.149 263.14 142.398 258.142 146.012 252.729C153.411 241.634 158.197 229.126 164.35 217.373C171.382 203.938 181.125 192.161 191.161 180.872C201.221 169.509 212.332 158.854 225.273 150.832C238.093 142.883 252.842 137.445 268.054 137.104C269.886 137.055 271.717 137.104 273.548 137.202C274.012 137.226 274.012 136.495 273.548 136.47C258.629 135.641 243.88 139.811 230.816 146.784C217.557 153.855 206.105 163.804 195.849 174.654C190.6 180.213 185.643 186.041 180.808 191.966C175.924 197.964 171.163 204.084 167.207 210.741C160.321 222.323 155.584 235.002 148.893 246.682C145.597 252.436 141.763 257.947 137.075 262.677C131.654 268.114 125.085 272.162 118.346 275.746C116.685 276.624 115.001 277.502 113.316 278.355C113.487 278.526 113.658 278.697 113.829 278.867C116.515 274.405 117.809 269.285 117.565 264.067C117.54 263.555 116.808 263.555 116.832 264.018Z" fill="#121826"/>
<path d="M272.694 136.495C276.796 138.494 279.384 142.566 280.312 146.955C281.46 152.417 280.044 158.074 278.163 163.219C274.476 173.142 268.64 182.067 264.343 191.722C260.363 200.671 257.554 210.692 259.532 220.519C260.314 224.396 261.95 228.517 265.442 230.711C269.055 232.979 273.695 232.588 277.553 231.174C285.391 228.297 290.69 221.104 294.133 213.814C298.406 204.767 300.701 194.697 301.263 184.724C301.874 173.752 299.407 163.097 298.675 152.197C297.942 140.932 297.698 129.594 297.527 118.305C297.381 107.942 297.283 97.4574 298.455 87.1433C299.456 78.1703 301.605 69.0754 306.489 61.346C307.71 59.3954 309.126 57.5666 310.664 55.8842C310.982 55.5428 310.469 55.0064 310.151 55.3721C297.747 68.9535 296.965 88.777 296.77 106.187C296.648 117.33 297.014 128.497 297.405 139.64C297.6 145.199 297.771 150.759 298.284 156.318C298.797 161.756 299.774 167.144 300.286 172.606C301.288 183.091 300.238 193.746 297.161 203.841C294.573 212.326 290.641 221.202 283.584 226.907C280.166 229.687 275.795 231.662 271.351 231.613C266.125 231.54 262.633 228.102 261.046 223.347C257.75 213.497 260.533 202.573 264.465 193.356C268.469 183.993 274.037 175.386 277.919 165.949C281.313 157.659 283.877 147.175 277.602 139.518C276.356 138.006 274.843 136.787 273.084 135.934C272.645 135.641 272.279 136.275 272.694 136.495Z" fill="#121826"/>
<path d="M186.741 185.748C183.543 192.405 180.368 200.305 182.908 207.718C184.983 213.789 190.477 217.641 196.069 220.25C203.004 223.469 210.549 225.615 217.948 227.492C226.03 229.54 234.235 231.003 242.537 231.881C252.011 232.905 261.535 233.125 271.033 232.613C271.497 232.588 271.497 231.857 271.033 231.881C255.015 232.759 238.923 231.467 223.247 228.004C215.579 226.322 207.985 224.152 200.66 221.396C194.873 219.226 188.646 216.227 185.228 210.839C180.271 203.085 183.787 193.697 187.401 186.163C187.572 185.675 186.937 185.309 186.741 185.748Z" fill="#121826"/>
<path d="M209.499 117.451C219.975 99.3835 217.704 77.5363 224.199 58.1761C226.03 52.6899 228.619 47.4475 232.233 42.8879C232.526 42.5221 232.013 42.0101 231.72 42.3758C218.681 58.81 220.024 80.9499 215.335 100.334C213.919 106.186 211.917 111.868 208.889 117.086C208.62 117.5 209.255 117.866 209.499 117.451Z" fill="#121826"/>
<path d="M231.94 42.6685C232.55 45.7164 233.551 48.6424 234.894 51.422C234.992 51.6171 235.334 51.6659 235.48 51.4952C238.582 47.7158 242.611 44.863 247.201 43.2049C247.055 43.0586 246.908 42.9123 246.762 42.766C245.956 46.4723 246.615 50.276 248.642 53.4702C248.788 53.6897 249.033 53.6897 249.228 53.5434C253.062 50.3979 256.92 47.2281 260.753 44.0827C260.558 44.0583 260.363 44.0339 260.167 44.0096C262.023 47.8377 263.879 51.6415 265.735 55.4696C265.832 55.6891 266.15 55.6891 266.321 55.5428C269.764 52.373 273.06 49.0081 276.137 45.4969C275.941 45.4726 275.746 45.4482 275.551 45.4238C277.797 49.0325 279.482 52.9338 280.581 57.0545C280.654 57.3715 281.094 57.3959 281.24 57.1521C284.537 51.8365 289.738 47.9352 295.769 46.2528C295.623 46.1065 295.476 45.9602 295.33 45.8139C294.011 51.3245 293.498 56.9814 293.791 62.6626C293.816 62.9796 294.182 63.1259 294.426 62.9308C298.87 58.9076 304.511 56.4449 310.493 55.9329C310.957 55.8841 310.957 55.1526 310.493 55.2014C304.315 55.7622 298.504 58.2737 293.913 62.4188C294.133 62.5163 294.328 62.5895 294.548 62.687C294.231 57.0789 294.744 51.4952 296.062 46.0334C296.135 45.7651 295.891 45.4969 295.623 45.5945C289.42 47.3501 284.073 51.3733 280.654 56.8351C280.874 56.8595 281.094 56.8838 281.313 56.9326C280.19 52.7631 278.481 48.813 276.21 45.1312C276.088 44.9361 275.795 44.863 275.624 45.058C272.523 48.5936 269.251 51.9341 265.808 55.1039C266.003 55.1283 266.199 55.1526 266.394 55.177C264.538 51.3489 262.682 47.5451 260.827 43.717C260.704 43.4975 260.411 43.4975 260.241 43.6438C256.407 46.7892 252.549 49.959 248.715 53.1045C248.91 53.1288 249.106 53.1532 249.301 53.1776C247.372 50.1541 246.713 46.5454 247.494 43.0342C247.543 42.7904 247.323 42.4734 247.055 42.5953C242.342 44.3022 238.191 47.2038 235.016 51.0807C235.212 51.105 235.407 51.1294 235.602 51.1538C234.284 48.4229 233.332 45.5457 232.721 42.571C232.55 42.0102 231.842 42.2052 231.94 42.6685Z" fill="#121826"/>
<path d="M226.226 80.2427C237.483 82.047 248.764 83.827 260.021 85.6313C260.485 85.7045 260.68 84.9974 260.216 84.9242C248.959 83.1199 237.678 81.3399 226.421 79.5356C225.957 79.4624 225.762 80.1695 226.226 80.2427Z" fill="#121826"/>
<path d="M281.899 84.7293C281.509 86.7774 281.24 88.8256 281.167 90.9226C281.142 91.3858 281.875 91.3858 281.899 90.9226C281.997 88.8988 282.217 86.8994 282.608 84.9243C282.681 84.461 281.973 84.266 281.899 84.7293Z" fill="#121826"/>
<path d="M285.318 85.9973C285.709 85.5097 286.124 85.2658 286.734 85.1683C286.588 85.0464 286.417 84.9245 286.27 84.827C286.515 86.8507 285.733 88.8014 284.048 90.0206C283.926 90.1181 283.829 90.2644 283.877 90.4351C284.146 91.4348 284.854 92.4345 286.002 92.4589C287.027 92.4832 287.858 91.6298 287.76 90.6057C287.711 90.1425 286.978 90.1425 287.027 90.6057C286.881 90.9227 286.71 91.2641 286.563 91.5811C285.953 91.8249 285.489 91.7274 285.172 91.2885C284.83 90.9959 284.683 90.6545 284.585 90.2156C284.537 90.3619 284.463 90.4838 284.415 90.6301C286.27 89.2647 287.271 87.119 287.003 84.8026C286.978 84.5344 286.783 84.4124 286.539 84.4612C285.806 84.5587 285.245 84.8757 284.781 85.4609C284.512 85.851 285.025 86.3875 285.318 85.9973Z" fill="#121826"/>
<path d="M293.645 86.5336C293.327 85.5339 292.277 85.095 291.3 85.4852C290.47 85.8021 288.932 87.2164 289.396 88.2161C289.591 88.6062 289.957 88.7037 290.348 88.8013C291.3 89.0451 292.009 89.0695 292.399 90.1179C293.327 92.7025 289.42 93.2634 288.956 90.8494C288.859 90.3862 288.175 90.5812 288.248 91.0445C288.663 93.2634 292.179 94.0924 293.083 91.776C293.474 90.8007 293.181 89.5815 292.448 88.85C292.057 88.4599 291.642 88.338 291.13 88.1673C290.543 87.9722 290.055 87.8991 290.373 87.2164C290.714 86.4605 292.448 85.2901 292.912 86.7287C293.083 87.192 293.791 86.9969 293.645 86.5336Z" fill="#121826"/>
<path d="M290.739 82.7054C290.861 83.7051 291.007 84.7292 291.13 85.7289C291.178 86.1922 291.911 86.1922 291.862 85.7289C291.74 84.7292 291.594 83.7051 291.471 82.7054C291.423 82.2421 290.666 82.2421 290.739 82.7054Z" fill="#121826"/>
<path d="M290.446 93.9461C290.568 94.8483 290.47 95.7261 290.177 96.5795C290.031 97.0184 290.739 97.2134 290.885 96.7745C291.203 95.848 291.301 94.897 291.178 93.9461C291.13 93.4828 290.397 93.4828 290.446 93.9461Z" fill="#121826"/>
<path d="M222.978 96.8232C227.105 97.1158 231.134 97.9204 235.041 99.2371C235.48 99.3834 235.676 98.6763 235.236 98.53C231.256 97.1889 227.154 96.3843 222.978 96.0917C222.49 96.0429 222.49 96.7744 222.978 96.8232Z" fill="#121826"/>
<path d="M241.438 100.066C249.57 102.236 257.823 103.968 266.125 105.26C266.589 105.333 266.785 104.626 266.321 104.553C257.994 103.236 249.765 101.505 241.634 99.3593C241.17 99.2374 240.974 99.9445 241.438 100.066Z" fill="#121826"/>
<path d="M279.36 106.893C279.14 105.796 279.311 104.699 279.922 103.748C280.337 103.114 281.46 102.48 281.973 103.309C282.241 103.772 282.363 104.382 282.388 104.894C282.437 105.845 282.192 107.088 281.216 107.479C280.386 107.82 279.165 107.381 279.165 106.381C279.165 105.918 278.432 105.918 278.432 106.381C278.408 107.722 279.8 108.503 281.02 108.283C282.705 107.991 283.242 106.064 283.072 104.577C282.925 103.333 282.119 101.432 280.508 102.163C278.774 102.968 278.286 105.382 278.627 107.064C278.75 107.552 279.458 107.357 279.36 106.893Z" fill="#121826"/>
<path d="M284.439 108.283C284.903 108.283 284.903 107.552 284.439 107.552C283.975 107.552 283.975 108.283 284.439 108.283Z" fill="#121826"/>
<path d="M284.537 107.625C284.537 107.576 284.561 107.625 284.537 107.625C284.463 107.723 284.488 107.723 284.415 107.771C284.39 107.796 284.415 107.796 284.39 107.771C284.341 107.747 284.39 107.771 284.415 107.771C284.439 107.771 284.439 107.771 284.39 107.771H284.415C284.415 107.771 284.463 107.796 284.415 107.771L284.463 107.796C284.463 107.796 284.39 107.723 284.415 107.771C284.439 107.796 284.39 107.771 284.415 107.747C284.415 107.723 284.415 107.796 284.415 107.796C284.39 107.844 284.366 107.893 284.341 107.918C284.268 108.04 284.146 108.137 284.024 108.21C284.195 108.21 284.366 108.21 284.537 108.21C284.439 108.113 284.39 107.942 284.439 107.82C284.512 107.649 284.488 107.43 284.317 107.308C284.17 107.21 283.902 107.259 283.804 107.43C283.609 107.869 283.682 108.356 284.024 108.722C284.17 108.869 284.39 108.844 284.537 108.722C284.756 108.527 285.001 108.308 285.098 108.015C285.196 107.723 285.123 107.406 284.878 107.21C284.488 106.894 283.755 107.015 283.78 107.625C283.828 108.088 284.561 108.088 284.537 107.625Z" fill="#121826"/>
<path d="M287.882 103.138C288.859 102.992 289.811 103.065 290.739 103.334C291.203 103.455 291.398 102.748 290.934 102.626C289.86 102.309 288.785 102.261 287.687 102.431C287.223 102.504 287.418 103.212 287.882 103.138Z" fill="#121826"/>
<path d="M287.442 103.358C287.442 104.138 287.345 104.894 287.149 105.65C287.076 105.894 287.271 106.113 287.491 106.113C288.541 106.138 290.055 107.016 289.689 108.308C289.42 109.259 288.077 109.649 287.418 108.918C287.101 108.576 286.588 109.088 286.905 109.43C287.882 110.527 289.762 110.039 290.324 108.722C291.105 106.918 289.127 105.406 287.516 105.382C287.638 105.528 287.76 105.699 287.857 105.845C288.102 105.016 288.199 104.236 288.199 103.358C288.151 102.895 287.418 102.895 287.442 103.358Z" fill="#121826"/>
<path d="M219.242 110.307C232.916 112.867 246.444 116.208 259.728 120.329C260.167 120.475 260.363 119.768 259.923 119.621C246.64 115.501 233.112 112.136 219.438 109.6C218.974 109.527 218.778 110.234 219.242 110.307Z" fill="#121826"/>
<path d="M279.311 122.596C279.555 121.743 279.653 120.914 279.629 120.036C279.604 119.573 278.896 119.573 278.896 120.036C278.896 121.67 278.896 123.303 278.896 124.937C278.896 125.4 279.629 125.4 279.629 124.937C279.629 123.303 279.629 121.67 279.629 120.036C279.384 120.036 279.14 120.036 278.896 120.036C278.92 120.865 278.847 121.621 278.603 122.425C278.481 122.864 279.189 123.059 279.311 122.596Z" fill="#121826"/>
<path d="M284.341 125.156C283.804 124.474 283.536 123.693 283.584 122.816C283.658 121.767 284.366 120.109 285.684 120.572C286.954 121.011 286.856 122.669 286.539 123.718C286.246 124.693 284.879 126.619 283.804 125.156C283.536 124.791 282.901 125.156 283.169 125.522C284.073 126.741 285.709 126.473 286.588 125.327C287.516 124.083 287.955 121.816 286.881 120.548C285.88 119.353 284.366 119.573 283.511 120.792C282.534 122.23 282.656 124.181 283.706 125.522C283.999 125.888 284.634 125.522 284.341 125.156Z" fill="#121826"/>
<path d="M290.202 119.256C290.397 119.866 290.568 120.475 290.763 121.085C290.91 121.524 291.618 121.353 291.471 120.89C291.276 120.28 291.105 119.67 290.91 119.061C290.763 118.622 290.055 118.817 290.202 119.256Z" fill="#121826"/>
<path d="M293.01 121.913C293.01 119.865 290.08 120.792 289.591 122.133C289.323 122.889 290.031 123.23 290.641 123.376C291.301 123.523 291.984 123.962 291.74 124.766C291.496 125.595 290.397 125.547 289.933 124.986C289.616 124.62 289.103 125.156 289.42 125.498C290.348 126.595 292.351 126.205 292.521 124.669C292.595 124.01 292.277 123.303 291.716 122.962C291.398 122.742 290.983 122.791 290.666 122.621C290.324 122.596 290.275 122.45 290.544 122.133C290.666 122.011 290.788 121.913 290.91 121.816C291.227 121.572 292.326 121.011 292.326 121.913C292.277 122.377 293.01 122.377 293.01 121.913Z" fill="#121826"/>
<path d="M290.47 126.449C290.47 126.961 290.47 127.473 290.47 127.961C290.47 128.424 291.203 128.424 291.203 127.961C291.203 127.449 291.203 126.937 291.203 126.449C291.203 125.986 290.47 125.986 290.47 126.449Z" fill="#121826"/>
<path d="M145.865 116.891C157.611 118.793 169.185 121.523 180.564 125.035C181.003 125.181 181.199 124.474 180.759 124.327C169.405 120.816 157.806 118.11 146.061 116.184C145.597 116.11 145.401 116.817 145.865 116.891Z" fill="#121826"/>
<path d="M199.708 130.326C204.079 131.496 208.352 132.959 212.552 134.666C212.991 134.837 213.187 134.129 212.747 133.959C208.547 132.252 204.274 130.789 199.903 129.619C199.439 129.497 199.244 130.204 199.708 130.326Z" fill="#121826"/>
<path d="M226.543 135.178C226.763 134.812 227.007 134.812 227.276 135.178C227.984 135.446 227.862 135.836 226.91 136.324C226.568 136.494 226.153 136.446 225.786 136.421C225.371 136.397 225.274 137.055 225.689 137.128C226.763 137.348 227.032 138.591 226.446 139.42C226.055 140.006 225.347 140.347 224.663 140.518C223.125 140.908 220.488 139.908 221.489 137.909C221.708 137.494 221.074 137.128 220.854 137.543C219.486 140.298 222.929 141.883 225.176 141.127C226.25 140.761 227.325 139.957 227.471 138.762C227.618 137.665 226.934 136.616 225.835 136.397C225.811 136.641 225.762 136.885 225.737 137.104C226.91 137.153 228.594 136.616 228.326 135.129C228.253 134.69 227.96 134.202 227.544 134.032C226.861 133.715 226.494 134.178 225.982 134.593C225.664 134.983 226.177 135.495 226.543 135.178Z" fill="#121826"/>
<path d="M235.09 134.861C235.016 135.324 234.748 135.666 234.333 135.861C234.162 135.934 234.113 136.202 234.211 136.373C234.308 136.568 234.528 136.592 234.723 136.495C235.285 136.226 235.725 135.69 235.822 135.08C235.847 134.885 235.773 134.69 235.578 134.641C235.383 134.568 235.139 134.666 235.09 134.861Z" fill="#121826"/>
<path d="M236.677 137.397C235.261 135.714 232.526 135.739 231.134 137.445C230.963 137.665 231.012 137.982 231.305 138.055C232.257 138.323 233.014 138.762 233.747 139.445C233.722 139.299 233.698 139.152 233.698 139.006C232.868 140.176 231.427 140.615 230.06 140.152C229.62 140.006 229.425 140.713 229.864 140.859C231.549 141.42 233.283 140.81 234.308 139.372C234.406 139.25 234.357 139.03 234.259 138.933C233.454 138.177 232.55 137.665 231.5 137.348C231.549 137.543 231.598 137.762 231.671 137.957C232.843 136.543 234.992 136.519 236.189 137.909C236.457 138.274 236.97 137.762 236.677 137.397Z" fill="#121826"/>
<path d="M230.621 140.176C229.889 140.859 229.132 141.542 228.399 142.2C228.057 142.517 228.57 143.029 228.912 142.712C229.644 142.03 230.401 141.347 231.134 140.688C231.5 140.371 230.987 139.859 230.621 140.176Z" fill="#121826"/>
<path d="M110.557 143.639C126.404 149.613 142.349 155.245 158.441 160.512C162.983 161.999 167.549 163.462 172.115 164.901C172.554 165.047 172.75 164.34 172.31 164.194C156.17 159.122 140.127 153.685 124.206 147.906C119.713 146.272 115.22 144.614 110.727 142.907C110.312 142.761 110.117 143.468 110.557 143.639Z" fill="#121826"/>
<path d="M96.98 164.877C115.782 170.753 134.413 177.142 152.849 184.042C153.289 184.213 153.484 183.506 153.044 183.335C134.584 176.434 115.953 170.046 97.1509 164.17C96.7114 164.023 96.516 164.731 96.98 164.877Z" fill="#121826"/>
<path d="M170.064 182.652C167.598 182.725 164.838 184.066 163.056 185.773C161.957 186.846 161.371 189.162 163.227 189.845C164.594 190.357 167.109 189.601 167.085 187.87C167.06 187.09 166.499 186.431 165.791 186.139C164.619 185.627 163.349 186.163 162.274 186.651C161.835 186.846 162.226 187.48 162.641 187.285C163.422 186.943 164.374 186.456 165.278 186.724C166.157 186.968 166.425 187.577 166.084 188.577C165.815 188.821 165.522 189.016 165.18 189.113C164.57 189.308 163.593 189.43 163.08 188.918C162.421 188.236 162.812 187.187 163.324 186.578C164.057 185.7 165.253 185.09 166.23 184.554C167.451 183.895 168.672 183.456 170.064 183.408C170.528 183.383 170.528 182.652 170.064 182.652Z" fill="#121826"/>
<path d="M175.24 184.213C174.63 184.822 174.02 185.432 173.433 186.041C173.092 186.383 173.629 186.895 173.946 186.553C174.557 185.944 175.167 185.334 175.753 184.725C176.071 184.408 175.558 183.896 175.24 184.213Z" fill="#121826"/>
<path d="M175.753 187.431C174.557 186.724 173.214 186.382 171.798 186.553C171.016 186.651 169.453 186.919 169.087 187.772C168.672 188.699 169.893 189.162 170.455 189.577C171.334 190.186 172.457 191.454 171.089 192.308C169.893 193.063 168.623 192.064 167.866 191.21C167.549 190.869 167.036 191.381 167.353 191.722C168.208 192.649 169.429 193.551 170.796 193.21C171.798 192.966 172.628 192.088 172.506 191.015C172.335 189.674 171.114 189.406 170.308 188.577C169.82 188.065 170.015 187.797 170.65 187.577C171.212 187.358 171.798 187.26 172.384 187.236C173.458 187.211 174.484 187.504 175.387 188.065C175.778 188.309 176.144 187.675 175.753 187.431Z" fill="#121826"/>
<path d="M168.55 193.063C167.939 193.77 167.329 194.478 166.718 195.185C166.401 195.55 166.938 196.062 167.231 195.697C167.842 194.99 168.452 194.282 169.063 193.575C169.38 193.21 168.867 192.698 168.55 193.063Z" fill="#121826"/>
<path d="M60.8165 187.967C79.9604 202.573 101.058 214.569 123.376 223.567C129.7 226.127 136.122 228.419 142.618 230.491C143.057 230.638 143.253 229.931 142.813 229.784C119.86 222.494 97.9078 212.131 77.7139 198.988C72.0489 195.307 66.5548 191.43 61.1828 187.333C60.8165 187.065 60.4502 187.699 60.8165 187.967Z" fill="#121826"/>
<path d="M53.0271 199.549C59.0096 205.645 65.8711 210.814 73.4164 214.862C73.8315 215.081 74.1978 214.447 73.7826 214.228C66.3107 210.229 59.4735 205.109 53.5399 199.037C53.2225 198.696 52.6853 199.208 53.0271 199.549Z" fill="#121826"/>
<path d="M120.348 231.296C121.96 231.735 123.571 232.174 125.183 232.589C125.647 232.711 125.842 232.003 125.378 231.882C123.767 231.443 122.155 231.004 120.544 230.589C120.08 230.467 119.884 231.174 120.348 231.296Z" fill="#121826"/>
<path d="M120.055 231.077C119.347 232.15 118.761 233.247 118.273 234.442C118.151 234.759 118.566 234.978 118.81 234.856C120.128 234.149 120.348 235.856 120.177 236.563C120.031 237.173 119.64 237.66 119.127 238.002C117.98 238.757 116.515 238.416 115.709 237.319C115.44 236.953 114.781 237.319 115.074 237.685C116.417 239.465 119.054 239.684 120.422 237.758C121.008 236.929 121.252 235.71 120.69 234.807C120.202 233.978 119.274 233.783 118.444 234.222C118.615 234.368 118.81 234.49 118.981 234.637C119.445 233.515 120.006 232.467 120.69 231.467C120.959 231.052 120.324 230.687 120.055 231.077Z" fill="#121826"/>
<path d="M128.187 234.515C127.283 235.222 126.16 235.905 125.354 236.758C125.037 237.099 124.866 237.465 125.208 237.855C125.671 238.367 126.746 238.611 127.381 238.758C128.382 239.001 129.432 239.05 130.457 238.928C130.921 238.879 130.921 238.148 130.457 238.197C129.163 238.343 127.283 238.343 126.16 237.563C125.818 237.319 125.818 237.49 126.013 237.148C126.16 236.904 126.575 236.709 126.795 236.539C127.43 236.051 128.04 235.539 128.675 235.051C129.09 234.734 128.553 234.222 128.187 234.515Z" fill="#121826"/>
<path d="M131.727 235.88C129.7 238.318 127.674 240.732 125.647 243.17C125.354 243.536 125.867 244.048 126.16 243.683C128.187 241.244 130.213 238.83 132.24 236.392C132.533 236.051 132.02 235.514 131.727 235.88Z" fill="#121826"/>
<path d="M138.735 235.905C138.125 236.612 137.539 237.343 136.928 238.05C136.635 238.416 137.148 238.928 137.441 238.562C138.052 237.855 138.638 237.124 139.248 236.417C139.565 236.051 139.053 235.539 138.735 235.905Z" fill="#121826"/>
<path d="M139.541 239.83C138.589 238.879 137.27 238.44 135.927 238.635C135.072 238.757 133.192 239.464 133.265 240.586C133.29 240.976 133.51 241.171 133.852 241.317C134.95 241.829 136.415 241.537 136.269 243.341C136.049 246.097 132.24 246.048 130.897 244.268C130.628 243.902 129.993 244.268 130.262 244.634C131.947 246.877 136.147 246.926 136.953 243.829C137.294 242.463 136.489 241.122 135.121 240.805C134.731 240.732 133.974 240.83 134.291 240.171C134.535 239.708 135.488 239.464 135.976 239.367C137.099 239.172 138.222 239.513 139.028 240.342C139.37 240.683 139.883 240.171 139.541 239.83Z" fill="#121826"/>
<path d="M131.312 245.78C131.092 246.389 130.873 246.999 130.677 247.584C130.531 248.023 131.239 248.218 131.385 247.779C131.605 247.169 131.825 246.56 132.02 245.975C132.167 245.511 131.459 245.316 131.312 245.78Z" fill="#121826"/>
<path d="M74.0756 209.01C83.5255 215.861 93.3416 222.225 103.475 228.029C103.89 228.272 104.257 227.638 103.841 227.395C93.7079 221.591 83.8917 215.227 74.4419 208.376C74.0512 208.108 73.6849 208.742 74.0756 209.01Z" fill="#121826"/>
<path d="M119.86 37.7673C125.362 37.7673 129.823 32.8112 129.823 26.6974C129.823 20.5835 125.362 15.6274 119.86 15.6274C114.358 15.6274 109.897 20.5835 109.897 26.6974C109.897 32.8112 114.358 37.7673 119.86 37.7673Z" fill="white" stroke="#121826" stroke-width="0.5"/>
<path d="M122.106 37.7673C127.608 37.7673 132.069 32.8112 132.069 26.6974C132.069 20.5835 127.608 15.6274 122.106 15.6274C116.604 15.6274 112.144 20.5835 112.144 26.6974C112.144 32.8112 116.604 37.7673 122.106 37.7673Z" fill="white" stroke="#121826" stroke-width="0.5"/>
<path d="M121.911 18.8948C121.911 19.9189 121.911 20.943 121.935 21.9915C121.935 22.4548 122.668 22.4548 122.668 21.9915C122.668 20.9674 122.668 19.9433 122.644 18.8948C122.644 18.4315 121.911 18.4315 121.911 18.8948Z" fill="#121826"/>
<path d="M125.207 21.8208C123.523 21.4062 121.667 21.4062 120.251 22.5522C119.201 23.4057 118.322 25.0881 119.298 26.3072C120.495 27.7702 122.546 26.8924 124.109 27.2826C126.38 27.8434 125.452 30.111 123.864 30.8913C122.668 31.4765 121.325 31.4277 120.251 30.623C119.884 30.3305 119.518 30.9644 119.884 31.257C121.203 32.2567 122.961 32.208 124.377 31.4521C125.598 30.7937 126.819 29.3064 126.087 27.8678C125.281 26.3072 123.376 26.5267 121.911 26.5023C121.252 26.5023 120.055 26.4292 119.738 25.6977C119.323 24.7223 120.006 23.6982 120.739 23.1131C121.96 22.1377 123.571 22.1621 125.012 22.5279C125.476 22.6498 125.671 21.9427 125.207 21.8208Z" fill="#121826"/>
<path d="M122.497 31.9397C122.497 32.6712 122.497 33.4271 122.497 34.1586C122.497 34.6219 123.23 34.6219 123.23 34.1586C123.23 33.4271 123.23 32.6712 123.23 31.9397C123.23 31.4765 122.497 31.4765 122.497 31.9397Z" fill="#121826"/>
<path d="M117.296 7.55684C118.468 9.45872 119.64 11.3606 120.812 13.2381C120.983 13.5063 121.398 13.4575 121.472 13.1406C122.741 8.82476 124.353 4.63087 126.306 0.558889C126.502 0.144376 125.867 -0.245753 125.671 0.193143C123.694 4.31389 122.058 8.55654 120.763 12.9455C120.983 12.9211 121.203 12.8967 121.423 12.848C120.251 10.9461 119.079 9.04421 117.906 7.16671C117.687 6.77658 117.052 7.14232 117.296 7.55684Z" fill="#121826"/>
<path d="M110.825 47.716C110.288 47.9842 110.898 50.3494 111.314 51.6173C111.851 53.2022 112.901 55.4698 115.196 57.8594C115.465 58.8347 115.977 60.2733 117.027 61.7363C118.151 63.3212 119.396 64.199 120.544 65.028C121.472 65.7107 122.79 66.5398 124.524 67.2713C124.621 68.1978 124.866 70.3192 124.988 71.2701C128.187 99.2619 126.404 82.145 127.845 94.3853C128.357 98.7742 128.528 100.53 129.407 103.236C130.531 106.699 132.02 109.332 133.143 111.015C133.852 111.283 134.828 111.624 136.049 111.917C136.831 112.087 140.029 112.795 144.327 112.161C149.186 111.429 152.605 109.43 157.611 106.479C161.664 104.09 164.326 101.944 166.157 100.457C170.284 97.0918 171.602 95.3118 172.017 94.7266C173.556 92.5565 174.166 90.8253 175.167 88.0213C176.12 85.3879 176.193 84.2175 175.753 83.1447C175.289 82.023 174.435 81.3403 173.8 80.9746C172.677 81.2672 171.285 81.6817 169.673 82.2669C168.037 82.8764 165.913 83.7786 163.666 85.0465C162.616 85.6317 161.029 86.6071 157.22 89.5818C151.091 94.3853 150.407 95.6288 147.111 97.4819C144.571 98.9205 142.276 99.7008 140.811 100.115C140.542 99.2375 140.103 97.8721 139.468 96.2384C138.125 92.8491 137.368 92.142 136.416 89.7037C135.585 87.6312 135.268 85.778 134.657 82.0962C134.145 79.0971 133.852 77.3171 133.827 74.7813C133.778 71.075 133.778 69.2219 134.291 66.9055C134.584 65.5888 134.975 64.3453 134.511 62.7848C134.34 62.1996 133.803 61.4681 132.753 60.0539C131.605 58.4934 130.335 57.0304 129.31 55.4211C128.162 53.6167 127.796 52.617 126.746 52.422C126.258 52.3244 125.598 52.422 125.281 52.8121C124.744 53.446 125.061 54.8603 126.306 56.177C125.501 56.0063 124.304 55.6649 123.083 54.8603C121.716 53.9825 120.959 52.9584 119.567 51.0565C118.688 49.8617 117.296 47.8136 116.588 46.7651C115.587 45.3021 115.05 44.4487 114.561 44.5706C114.097 44.6681 113.902 45.6678 113.829 46.375C113.707 46.3018 112.827 45.7898 112.315 46.1067C111.777 46.4481 111.68 47.6916 112.51 49.0083C111.851 48.2768 111.167 47.5453 110.825 47.716Z" fill="white"/>
<path opacity="0.18" d="M124.597 68.1733C124.719 69.4413 124.914 71.1481 125.208 73.1719C125.94 78.0485 126.844 81.9986 127.991 86.3144C130.775 96.9698 132.24 102.334 134.486 104.358C134.926 104.772 138.931 108.259 144.449 108.186C148.966 108.113 152.068 105.65 157.073 101.603C165.693 94.6046 171.382 89.9474 174.801 87.1434C174.679 88.4845 174.337 90.4839 173.287 92.6052C172.237 94.7509 170.845 96.2627 168.819 98.067C166.035 100.554 163.153 102.358 157.537 105.87C152.507 109.015 149.968 110.6 148.258 111.161C143.008 112.941 139.15 112.429 138.32 112.307C135.927 111.965 134.047 111.21 132.826 110.6C132.167 109.527 131.239 107.918 130.36 105.821C128.382 101.139 127.991 97.1892 127.771 95.1898C127.112 89.2403 125.964 79.9748 124.597 68.1733Z" fill="#121826"/>
<path d="M141.104 100.335C144.229 99.6763 146.94 97.9695 149.528 96.1651C152.483 94.0926 155.413 91.9712 158.294 89.7768C163.691 85.6804 169.673 80.2673 176.999 81.3402C177.463 81.4134 177.658 80.7062 177.194 80.6331C170.406 79.6334 164.765 83.876 159.71 87.7773C156.609 90.1669 153.484 92.4833 150.285 94.7509C147.404 96.7991 144.449 98.8717 140.933 99.6275C140.444 99.7494 140.64 100.432 141.104 100.335Z" fill="#121826"/>
<path d="M141.372 100.7C140.786 97.7499 139.199 95.1653 138.003 92.4344C136.709 89.4596 135.732 86.3386 135.072 83.1688C133.754 76.8048 133.778 70.197 135.097 63.833C135.195 63.3697 134.486 63.1747 134.389 63.6379C133.095 69.8556 133.021 76.2928 134.193 82.5348C134.804 85.7534 135.732 88.9232 137.002 91.9467C138.247 94.9215 140.029 97.7255 140.664 100.92C140.762 101.359 141.47 101.164 141.372 100.7Z" fill="#121826"/>
<path d="M134.731 64.0282C135.317 62.1995 133.485 60.4927 132.484 59.1516C130.97 57.1278 129.505 55.0308 127.942 53.0314C127.234 52.1293 126.184 51.4953 125.256 52.5682C124.133 53.8848 125.232 55.3966 126.184 56.4451C126.502 56.7864 127.014 56.2744 126.697 55.933C126.306 55.4941 125.647 54.8602 125.574 54.2506C125.623 53.9092 125.671 53.5679 125.696 53.2265C126.111 53.1533 126.526 53.0802 126.966 53.007C127.185 53.1046 127.454 53.6166 127.6 53.8117C128.406 54.8845 129.212 55.9818 130.018 57.0546C130.775 58.0787 131.532 59.1028 132.289 60.1025C133.021 61.1022 134.462 62.4921 134.047 63.8575C133.876 64.2964 134.584 64.4915 134.731 64.0282Z" fill="#121826"/>
<path d="M124.695 66.9297C122.204 65.6862 119.567 64.3207 117.784 62.1262C115.513 59.3465 115.636 55.2746 115.367 51.8609C115.294 51.0563 115.22 50.2273 115.196 49.4226C115.196 49.0081 115.196 48.5936 115.22 48.1791C115.245 48.0084 115.44 46.4967 115.684 46.3991C116.466 46.0821 116.979 50.7637 117.027 51.2026C117.394 53.8116 117.98 56.5669 120.177 58.2737C120.544 58.5663 121.056 58.0542 120.69 57.7616C117.32 55.1527 118.126 50.4711 116.954 46.838C116.71 46.0821 116.197 44.8142 115.269 45.692C114.195 46.7161 114.415 49.1544 114.512 50.4223C114.659 52.7143 114.879 54.982 115.172 57.2496C115.367 58.8345 115.733 60.3463 116.612 61.7117C118.419 64.467 121.496 66.1007 124.353 67.5393C124.744 67.7831 125.11 67.1491 124.695 66.9297Z" fill="#121826"/>
<path d="M115.88 58.1272C114.073 55.9084 112.193 53.6164 111.436 50.7879C111.265 50.1296 111.02 49.2518 111.118 48.5447C111.167 48.2277 111.045 48.0326 111.484 48.1302C111.68 48.1789 112.022 48.9592 112.144 49.1299C112.974 50.3978 113.804 51.6413 114.61 52.9092C114.879 53.2994 115.513 52.9336 115.245 52.5435C114.586 51.5438 113.951 50.5685 113.291 49.5688C112.827 48.886 112.315 47.5206 111.582 47.0817C110.508 46.399 110.386 47.8863 110.386 48.5934C110.386 52.5435 112.974 55.7865 115.343 58.6637C115.66 59.005 116.173 58.493 115.88 58.1272Z" fill="#121826"/>
<path d="M113.242 49.3251C113.047 48.8619 112.876 48.3742 112.754 47.8865C112.705 47.6671 112.339 46.5211 112.534 46.3748C112.73 46.2285 114.317 48.3498 114.488 48.5693C114.781 48.935 115.294 48.423 115.001 48.0572C114.463 47.3989 113.951 46.6918 113.365 46.0578C113.047 45.6921 112.534 45.3751 112.07 45.7408C111.704 46.0334 111.753 46.5455 111.802 46.96C111.924 47.8378 112.168 48.6912 112.51 49.4958C112.73 49.9347 113.438 49.7397 113.242 49.3251Z" fill="#121826"/>
<path d="M114.61 47.4962C114.634 46.9841 114.439 46.5452 114.293 46.0576C114.219 45.8381 114.146 45.6187 114.17 45.3749C114.195 45.2286 114.195 45.1066 114.317 45.0091C114.341 44.9847 114.756 44.814 114.683 45.0579C114.561 45.5212 115.269 45.7162 115.391 45.2529C115.611 44.3995 114.512 43.8631 113.853 44.3751C112.827 45.1798 113.902 46.5209 113.853 47.4718C113.853 47.9595 114.586 47.9595 114.61 47.4962Z" fill="#121826"/>
<path d="M115.636 45.4727C117.565 50.3981 121.154 54.4701 125.794 57.0059C126.209 57.2254 126.575 56.5914 126.16 56.372C121.691 53.9337 118.199 50.0324 116.319 45.2777C116.173 44.8388 115.465 45.0338 115.636 45.4727Z" fill="#121826"/>
<path d="M124.035 67.4904C125.256 75.7319 126.306 83.9978 127.21 92.2637C127.918 98.8227 128.699 105.748 132.802 111.185C133.07 111.551 133.729 111.185 133.436 110.819C129.114 105.114 128.553 97.7499 127.796 90.8982C126.917 83.0225 125.916 75.1467 124.768 67.3197C124.695 66.8321 123.987 67.0272 124.035 67.4904Z" fill="#121826"/>
<path d="M133.168 111.283C140.591 114.525 148.722 112.087 155.388 108.21C158.978 106.113 162.421 103.675 165.717 101.164C168.672 98.9203 171.48 96.4089 173.385 93.1903C175.558 89.5084 176.437 85.1682 175.949 80.9256C175.9 80.4623 175.167 80.4623 175.216 80.9256C175.631 84.6318 175.021 88.4112 173.336 91.7517C171.7 95.019 169.087 97.6036 166.255 99.8225C163.324 102.139 160.248 104.285 157.098 106.284C153.826 108.381 150.334 110.234 146.573 111.234C142.3 112.38 137.685 112.429 133.559 110.624C133.095 110.478 132.728 111.087 133.168 111.283Z" fill="#121826"/>
<path d="M111.24 193.015C112.534 197.087 113.829 201.159 115.123 205.255C111.46 208.327 108.212 210.376 105.819 211.741C102.889 213.423 99.5683 214.96 98.1276 218.324C97.9323 218.812 97.273 220.275 97.8834 220.933C98.4939 221.616 100.13 221.104 101.302 220.69C105.746 219.105 109.238 217.008 110.337 216.349C115.758 213.131 116.441 213.716 122.863 209.839C124.67 208.742 126.135 207.767 127.112 207.108C126.795 205.572 126.306 203.426 125.696 200.891C125.012 198.038 124.304 195.112 123.156 191.406C122.619 189.699 121.887 187.407 120.885 184.7C117.662 187.455 114.463 190.235 111.24 193.015Z" fill="#121826"/>
<path d="M102.157 193.015C102.889 193.38 103.964 193.844 105.282 194.234C109.433 195.404 112.901 194.746 115.245 194.258C121.96 192.893 127.088 189.333 129.627 187.333C128.846 183.725 128.138 179.945 127.552 175.971C126.502 169.192 125.891 162.804 125.574 156.879C127.112 157.879 129.261 159.244 131.898 160.683C135.61 162.731 138.369 164.243 142.154 165.437C145.206 166.413 148.576 167.461 153.044 167.144C154.07 167.071 158.514 166.705 163.446 163.926C165.693 162.682 172.506 158.878 174.777 151.076C175.338 149.101 176.315 145.785 174.996 142.42C172.97 137.202 166.303 133.91 158.294 134.203C156.243 133.349 152.922 131.959 148.82 130.179C142.105 127.278 139.175 125.864 133.998 123.937C126.721 121.207 124.109 120.865 122.375 120.719C119.738 120.524 116.637 120.304 113.047 121.743C108.823 123.45 106.454 126.4 105.551 127.57C104.183 129.326 102.987 131.472 101.522 136.909C99.9346 142.786 99.2509 147.882 98.8602 152.319C98.5428 156.05 98.03 162.024 98.4695 169.9C98.7869 176.02 99.7393 183.944 102.157 193.015Z" fill="white"/>
<path opacity="0.19" d="M129.652 187.041C127.82 188.26 125.989 189.479 124.157 190.698C124.011 187.041 123.913 183.286 123.864 179.458C123.767 170.216 124.035 161.414 124.548 153.051C126.38 154.05 129.017 155.367 132.289 156.659C136.464 158.293 142.325 160.61 149.284 160.951C152.898 161.122 160.272 160.927 169.038 156.489C168.11 158.83 166.255 162.17 162.738 164.291C160.98 165.364 159.32 165.828 157.708 166.266C157.708 166.266 153.484 167.412 148.942 167.291C143.423 167.144 134.291 163.804 125.232 156.318C126.721 166.559 128.186 176.8 129.652 187.041Z" fill="#121826"/>
<path d="M102.523 192.917C98.201 176.8 97.4684 159.805 100.472 143.395C101.693 136.787 103.28 129.082 108.774 124.596C115.025 119.451 123.767 120.646 130.848 123.157C135.463 124.791 139.932 126.839 144.449 128.765C148.991 130.692 153.557 132.618 158.099 134.544C158.538 134.715 158.905 134.105 158.465 133.91C150.114 130.375 141.812 126.644 133.363 123.328C126.404 120.597 118.273 118.646 111.191 122.157C104.843 125.303 102.157 132.276 100.643 138.762C98.7137 147.101 97.8347 155.709 97.8835 164.267C97.9324 173.996 99.2509 183.725 101.766 193.112C101.937 193.551 102.645 193.356 102.523 192.917Z" fill="#121826"/>
<path d="M102.108 193.429C111.655 197.989 121.813 192.99 129.823 187.626C130.213 187.358 129.847 186.724 129.456 186.992C121.691 192.161 111.753 197.209 102.474 192.795C102.059 192.576 101.693 193.21 102.108 193.429Z" fill="#121826"/>
<path d="M130.018 186.943C127.674 176.093 126.16 165.096 125.5 154.002C125.476 153.538 124.744 153.538 124.768 154.002C125.452 165.145 126.966 176.215 129.31 187.138C129.407 187.602 130.116 187.407 130.018 186.943Z" fill="#121826"/>
<path d="M125.378 157.147C131.043 160.878 137.27 164.291 143.765 166.34C149.846 168.266 156.341 167.827 162.055 164.925C162.47 164.706 162.104 164.072 161.688 164.291C155.828 167.266 149.284 167.461 143.106 165.364C136.977 163.267 131.141 160.073 125.745 156.538C125.354 156.269 124.988 156.903 125.378 157.147Z" fill="#121826"/>
<path d="M111.558 195.185C112.925 198.477 113.999 201.866 114.781 205.328C114.83 205.182 114.903 205.06 114.952 204.914C111.191 207.254 107.577 209.839 104.135 212.619C102.401 214.033 100.692 215.472 99.0311 216.983C98.1276 217.812 96.4183 218.958 97.0288 220.397C97.6392 221.836 99.3729 221.836 100.618 221.372C102.669 220.616 104.647 219.544 106.601 218.593C110.898 216.52 115.147 214.326 119.371 212.082C121.716 210.839 124.109 209.644 126.428 208.327C126.868 208.083 127.454 207.742 127.161 207.157C126.99 206.791 126.624 206.742 126.282 206.937C125.867 207.181 126.233 207.815 126.648 207.571C126.355 207.523 126.062 207.62 125.842 207.815C125.574 207.962 125.281 208.108 125.012 208.254C124.45 208.547 123.913 208.839 123.352 209.132C122.375 209.644 121.423 210.156 120.446 210.668C118.517 211.692 116.563 212.716 114.61 213.716C110.581 215.813 106.503 217.837 102.401 219.739C101.351 220.226 99.8125 221.226 98.5916 220.836C96.4183 220.153 98.5671 218.324 99.3485 217.593C101.009 216.081 102.694 214.618 104.428 213.228C107.87 210.424 111.509 207.864 115.269 205.499C115.416 205.401 115.465 205.255 115.44 205.084C114.659 201.598 113.584 198.208 112.217 194.941C112.07 194.551 111.362 194.746 111.558 195.185Z" fill="#121826"/>
<path d="M122.79 191.503C124.109 196.745 125.427 201.963 126.746 207.206C126.868 207.669 127.576 207.474 127.454 207.011C126.135 201.768 124.817 196.55 123.498 191.308C123.376 190.845 122.668 191.04 122.79 191.503Z" fill="#121826"/>
<path d="M181.101 75.7564C177.17 78.1947 174.752 80.9744 172.799 83.2664C166.621 90.435 164.081 97.9938 162.983 102.212C161.713 107.137 162.421 107.747 161.371 112.672C159.662 120.67 156.194 126.644 153.582 130.399C157.147 133.861 163.471 139.104 172.677 142.761C180.32 145.785 187.157 146.614 191.772 146.784C193.383 141.664 195.386 134.934 197.412 126.912C201.222 111.941 200.147 112.185 203.859 96.0432C207.692 79.4627 209.475 76.3416 207.082 73.4888C202.638 68.1489 189.354 70.6604 181.101 75.7564Z" fill="#33D49E"/>
<path d="M130.457 197.964C132.069 201.378 133.705 204.792 135.317 208.205C133.241 210.18 131.629 212.009 130.409 213.472C126.868 217.788 124.914 221.421 124.524 222.201C123.669 223.81 123.059 225.225 122.644 226.249C123.889 226.005 125.696 225.542 127.723 224.664C131.068 223.201 133.241 221.372 134.731 220.104C138.515 216.861 142.96 213.009 147.941 208.522C146.989 206.62 146.061 204.645 145.133 202.597C143.326 198.598 141.739 194.721 140.322 190.966C137.026 193.307 133.729 195.648 130.457 197.964Z" fill="#121826"/>
<path d="M117.491 196.526C116.417 194.453 115.098 191.747 113.78 188.577C112.241 184.895 110.337 179.872 108.725 173.728C106.894 166.779 105.99 160.537 105.526 155.44C104.867 148.052 104.476 143.834 105.771 138.128C106.698 134.105 107.748 129.741 111.533 126.083C115.098 122.621 119.225 121.597 121.276 121.109C126.819 119.817 131.312 120.89 136.586 122.158C142.447 123.572 146.744 125.596 148.551 126.522C150.285 127.4 152.556 128.668 164.106 137.056C166.841 139.055 169.136 140.737 170.723 141.908C173.605 143.151 177.072 144.395 181.101 145.321C183.494 145.882 185.74 146.248 187.792 146.467C187.303 148.052 186.546 150.101 185.447 152.417C185.008 153.319 183.25 156.952 179.856 161.317C177.658 164.145 175.607 166.73 172.139 169.168C169.429 171.07 167.476 171.728 166.523 172.021C164.155 172.728 162.201 172.728 161.444 172.704C159.149 172.655 156.951 172.094 153.362 170.387C149.846 168.729 146.915 166.876 143.424 164.389C140.762 162.487 137.246 159.805 133.266 156.318C134.047 158.708 134.902 161.122 135.829 163.584C138.808 171.606 142.105 178.946 145.524 185.651C145.524 186.651 145.353 188.358 144.4 190.113C143.643 191.503 142.618 192.503 141.055 193.576C136 197.087 130.433 197.94 130.433 197.94C124.621 198.867 119.909 197.453 117.491 196.526Z" fill="white"/>
<path opacity="0.22" d="M129.017 144.858C129.139 148.174 129.359 151.612 129.774 155.196C131.483 170.533 135.634 183.651 140.176 194.185C140.86 193.868 143.106 192.771 144.425 190.162C145.45 188.162 145.377 186.285 145.328 185.48C141.763 176.58 138.198 167.68 134.609 158.781C132.728 154.123 130.873 149.491 129.017 144.858Z" fill="#121826"/>
<path opacity="0.22" d="M129.017 144.858C130.213 146.223 132.02 148.174 134.34 150.393C140.42 156.099 148.307 163.535 157.269 165.047C171.309 167.388 183.64 154.392 185.447 152.465C184.178 155.123 182.297 158.391 179.514 161.78C176.632 165.291 174.239 168.388 169.917 170.606C168.355 171.411 166.279 172.435 163.422 172.655C162.348 172.728 159.735 172.825 153.142 169.851C151.75 169.217 146.549 166.827 139.028 161.487C136.611 159.78 134.706 158.293 133.412 157.269C131.971 153.099 130.482 148.979 129.017 144.858Z" fill="#121826"/>
<path d="M117.809 196.355C109.751 180.701 105.087 162.755 105.453 145.102C105.624 137.08 107.822 128.034 115.172 123.572C118.908 121.304 123.425 121.06 127.698 121.255C131.776 121.45 135.781 122.182 139.688 123.377C148.673 126.108 156.829 131.13 163.862 137.324C164.204 137.641 164.741 137.129 164.374 136.812C158.001 131.204 150.749 126.571 142.764 123.645C138.809 122.206 134.706 121.207 130.531 120.743C126.282 120.28 121.618 120.158 117.565 121.621C109.946 124.376 106.112 132.35 105.111 139.908C104.501 144.468 104.672 149.101 105.014 153.66C105.355 158.22 105.966 162.755 106.869 167.242C108.921 177.483 112.412 187.407 117.198 196.697C117.394 197.135 118.029 196.77 117.809 196.355Z" fill="#121826"/>
<path d="M128.675 144.956C133.314 158.927 138.833 172.606 145.23 185.895C145.426 186.309 146.061 185.944 145.865 185.529C139.492 172.314 133.998 158.708 129.383 144.785C129.212 144.297 128.528 144.492 128.675 144.956Z" fill="#121826"/>
<path d="M117.394 197.16C123.108 199.915 129.627 198.745 135.365 196.672C140.274 194.892 146.671 191.625 145.646 185.359C145.572 184.895 144.864 185.09 144.937 185.554C145.963 191.82 138.735 194.819 133.974 196.38C128.748 198.111 122.863 199.013 117.735 196.526C117.345 196.331 116.954 196.965 117.394 197.16Z" fill="#121826"/>
<path d="M133.29 156.977C140.347 163.292 147.965 169.729 157.317 172.192C162.103 173.435 166.67 173.24 170.894 170.509C174.777 167.998 178.024 164.389 180.783 160.732C183.982 156.44 186.473 151.661 188.158 146.589C188.304 146.151 187.596 145.955 187.45 146.394C184.593 154.855 179.44 162.877 172.432 168.485C170.528 169.997 168.403 171.314 166.035 171.899C163.495 172.533 160.834 172.24 158.319 171.655C153.875 170.607 149.723 168.583 145.914 166.096C141.592 163.267 137.661 159.878 133.803 156.44C133.461 156.148 132.924 156.66 133.29 156.977Z" fill="#121826"/>
<path d="M130.14 198.159C131.752 201.573 133.388 204.987 134.999 208.4C135.195 208.815 135.83 208.449 135.634 208.035C134.023 204.621 132.387 201.207 130.775 197.794C130.555 197.355 129.92 197.745 130.14 198.159Z" fill="#121826"/>
<path d="M134.999 208.278C129.456 213.179 125.11 219.299 122.277 226.127C122.106 226.566 122.814 226.761 122.985 226.322C125.769 219.592 130.067 213.618 135.536 208.79C135.878 208.498 135.341 207.986 134.999 208.278Z" fill="#121826"/>
<path d="M122.497 226.444C124.768 227.273 127.063 225.493 128.919 224.371C131.312 222.908 133.632 221.348 135.903 219.69C140.322 216.423 144.425 212.765 148.209 208.791C148.527 208.449 148.014 207.937 147.697 208.279C144.156 212.009 140.322 215.447 136.22 218.568C134.267 220.031 132.264 221.421 130.213 222.738C129.114 223.42 128.016 224.103 126.892 224.762C125.623 225.493 124.206 226.298 122.717 225.761C122.253 225.566 122.057 226.273 122.497 226.444Z" fill="#121826"/>
<path d="M141.348 193.624C143.008 198.744 145.06 203.694 147.501 208.473C147.721 208.888 148.356 208.522 148.136 208.108C145.719 203.377 143.692 198.476 142.056 193.429C141.91 192.966 141.201 193.161 141.348 193.624Z" fill="#121826"/>
<path d="M180.417 38.9133C179.343 39.7911 178.415 41.1322 176.583 43.8387C174.361 47.1061 172.066 50.3246 170.918 54.9574C170.43 56.9324 169.649 60.2729 170.235 64.4912C171.065 70.4894 174.142 74.659 175.851 76.634C177.072 76.5365 178.464 76.3658 179.953 76.0244C182.029 75.5855 183.836 74.9759 185.301 74.3664C185.838 75.5367 186.473 76.7803 187.205 78.0482C188.353 80.072 189.55 81.8276 190.673 83.3637C191.332 82.7785 192.309 81.8764 193.432 80.706C195.923 78.0726 196.924 76.317 198.242 74.5858C202.149 69.4654 204.201 70.587 206.813 66.5638C209.157 62.9551 209.353 59.2488 209.426 57.5176C209.792 50.7148 206.642 45.8869 205.763 44.5458C204.664 42.8878 202.491 39.7667 198.413 37.7429C192.822 34.9389 185.203 34.9877 180.417 38.9133Z" fill="white"/>
<path opacity="0.19" d="M197.022 49.0569C196.729 50.7637 196.191 53.1776 195.044 55.9329C192.822 61.2728 189.647 64.6133 186.351 68.0025C184.007 70.4165 180.588 73.5619 175.949 76.6341C177.218 76.5366 178.61 76.3415 180.075 76.0246C185.325 74.8298 189.257 72.3915 191.796 70.4165C192.407 71.6844 193.066 72.9523 193.725 74.2446C194.458 75.6588 195.19 77.0487 195.923 78.3897C196.484 77.4144 197.388 75.9027 198.609 74.1227C200.953 70.7578 202.198 69.7581 204.664 66.5152C207.424 62.9308 208.791 61.1265 209.28 59.1515C209.499 58.2493 210.964 52.4949 207.204 49.3495C204.64 47.155 200.513 47.0087 197.022 49.0569Z" fill="#121826"/>
<path d="M172.848 49.8129C173.409 48.1304 174.801 44.6193 178.293 41.7908C184.495 36.7679 192.04 38.1821 193.163 38.4016C193.261 40.2547 193.75 43.9853 196.191 47.8378C197.949 50.5931 200.025 52.3243 201.417 53.324C201.856 53.324 203.419 53.324 204.64 54.47C206.398 56.1525 205.812 58.7615 205.714 59.1272C205.592 59.6149 205.299 60.8828 204.152 61.8337C201.954 63.6868 198.853 62.5408 198.731 62.4921C198.194 63.1748 197.388 64.3452 197.022 65.9301C196.509 68.1002 196.997 70.0264 197.754 71.9527C200.025 77.7559 201.954 82.7057 206.789 84.5344C213.211 86.9727 221.513 82.7544 224.761 76.683C228.521 69.6363 223.808 61.2485 220.561 55.3234C218.388 51.3246 215.946 48.4474 214.236 46.6187C213.748 44.473 212.356 39.5476 207.985 35.2318C207.082 34.3296 201.002 28.5508 191.82 28.7215C184.031 28.8678 174.166 33.3055 172.139 41.4251C171.334 44.7899 172.139 47.8866 172.848 49.8129Z" fill="#1B7A00"/>
<path d="M171.798 70.3677C171.505 71.9526 171.236 74.269 171.529 77.0486C171.822 79.8283 172.286 84.1685 174.801 85.9485C177.878 88.143 184.031 86.5337 189.33 81.5595C188.182 79.0724 187.035 76.5854 185.911 74.0983C184.544 74.6835 182.932 75.2687 181.101 75.7563C179.27 76.244 177.585 76.5122 176.12 76.6829C174.679 74.5616 173.238 72.4646 171.798 70.3677Z" fill="#1B7A00"/>
<path d="M178.024 41.5226C173.604 46.4724 170.381 52.5925 169.771 59.2735C169.185 65.6375 171.138 72.2209 175.582 76.9025C175.9 77.2439 176.413 76.7318 176.095 76.3904C171.773 71.8552 169.917 65.4668 170.503 59.2979C171.089 52.8364 174.264 46.8625 178.537 42.0834C178.854 41.6933 178.342 41.1813 178.024 41.5226Z" fill="#121826"/>
<path d="M175.973 76.9753C185.569 76.4876 194.067 70.6845 199.073 62.6624C199.317 62.2723 198.682 61.9065 198.438 62.2967C193.554 70.0749 185.301 75.7805 175.949 76.2438C175.509 76.2682 175.485 76.9997 175.973 76.9753Z" fill="#121826"/>
<path d="M196.802 65.1253C196.411 67.9781 196.802 70.7821 197.998 73.4155C198.194 73.8544 198.829 73.4643 198.633 73.0498C197.534 70.6114 197.144 67.9781 197.51 65.3203C197.559 64.857 196.851 64.662 196.802 65.1253Z" fill="#121826"/>
<path d="M185.447 74.6104C186.448 77.9265 188.158 80.9256 190.453 83.5102C190.771 83.8515 191.283 83.3395 190.966 82.9981C188.744 80.5111 187.108 77.6095 186.131 74.4153C186.033 73.952 185.325 74.1471 185.447 74.6104Z" fill="#121826"/>
<path d="M190.771 83.7054C192.626 83.0227 193.969 81.6816 195.141 80.1455C196.655 78.1461 197.95 76.0003 199.097 73.7815C199.317 73.367 198.682 73.0012 198.462 73.4157C197.486 75.2689 196.436 77.0732 195.239 78.78C194.018 80.5112 192.651 82.2424 190.6 82.9983C190.136 83.169 190.307 83.8761 190.771 83.7054Z" fill="#121826"/>
<path d="M183.006 44.8384C179.611 49.7394 177.048 55.1281 175.436 60.8581C175.338 61.2238 175.778 61.4433 176.046 61.2238C177.463 59.9315 178.879 58.6392 180.295 57.3225C180.637 57.0056 180.124 56.4935 179.782 56.8105C178.366 58.1028 176.95 59.3951 175.534 60.7118C175.729 60.8337 175.949 60.9556 176.144 61.0775C177.756 55.4207 180.295 50.0808 183.64 45.2285C183.909 44.8384 183.274 44.4726 183.006 44.8384Z" fill="#121826"/>
<path d="M175.265 64.4185C176.852 65.5401 178.732 65.1256 180.368 64.3209C182.175 63.4188 183.909 62.2484 184.812 60.3953C185.032 59.9807 184.397 59.615 184.178 60.0295C182.932 62.541 178.342 65.7352 175.631 63.7845C175.265 63.5163 174.899 64.1503 175.265 64.4185Z" fill="#121826"/>
<path d="M178.638 48.043C179.016 47.1062 179.079 46.2487 178.779 46.128C178.479 46.0073 177.929 46.6688 177.551 47.6058C177.173 48.5426 177.11 49.3999 177.41 49.5206C177.711 49.6413 178.26 48.9798 178.638 48.043Z" fill="#121826"/>
<path d="M189.464 50.891C189.841 49.9542 189.904 49.0969 189.604 48.9762C189.304 48.8552 188.754 49.517 188.376 50.4538C187.999 51.3906 187.936 52.2479 188.236 52.3688C188.536 52.4895 189.086 51.828 189.464 50.891Z" fill="#121826"/>
<path d="M178.659 43.1073C179.611 42.2295 181.174 42.0588 181.833 43.3755C182.053 43.79 182.664 43.4243 182.468 43.0098C181.614 41.2542 179.416 41.4005 178.146 42.5953C177.804 42.9123 178.317 43.4243 178.659 43.1073Z" fill="#121826"/>
<path d="M188.451 45.4236C190.404 44.1801 192.675 44.5214 193.31 46.9841C193.432 47.4474 194.14 47.2523 194.018 46.789C193.261 43.8875 190.453 43.3023 188.085 44.7896C187.694 45.0578 188.06 45.6918 188.451 45.4236Z" fill="#121826"/>
<path d="M187.767 54.9576C188.231 54.9576 188.231 54.2261 187.767 54.2261C187.303 54.2261 187.303 54.9576 187.767 54.9576Z" fill="#121826"/>
<path d="M190.673 54.2749C191.137 54.2749 191.137 53.5435 190.673 53.5435C190.185 53.5435 190.185 54.2749 190.673 54.2749Z" fill="#121826"/>
<path d="M189.379 57.0547C189.843 57.0547 189.843 56.3232 189.379 56.3232C188.89 56.3232 188.89 57.0547 189.379 57.0547Z" fill="#121826"/>
<path d="M174.142 52.251C174.606 52.251 174.606 51.5195 174.142 51.5195C173.678 51.5195 173.678 52.251 174.142 52.251Z" fill="#121826"/>
<path d="M176.168 52.3731C176.632 52.3731 176.632 51.6416 176.168 51.6416C175.704 51.6416 175.704 52.3731 176.168 52.3731Z" fill="#121826"/>
<path d="M174.874 54.5186C175.338 54.5186 175.338 53.7871 174.874 53.7871C174.41 53.7871 174.41 54.5186 174.874 54.5186Z" fill="#121826"/>
<path d="M201.417 53.6895C204.567 53.5432 206.154 56.6155 205.275 59.3952C204.469 61.9067 201.685 63.5891 199.292 61.931C198.902 61.6628 198.535 62.2968 198.926 62.565C201.71 64.4913 205.055 62.5406 205.983 59.5903C206.984 56.3473 205.055 52.7874 201.441 52.9581C200.953 52.9824 200.953 53.7139 201.417 53.6895Z" fill="#121826"/>
<path d="M203.37 71.148C201.856 72.0014 200.953 73.2449 199.976 75.0005C197.534 79.4382 196.753 83.5346 196.509 84.7293C194.043 97.5792 194.751 92.1174 193.798 98.262C193.09 102.846 192.236 108.966 191.454 116.281C190.648 117.842 189.745 119.865 189.086 122.352C188.329 125.181 188.182 127.424 188.085 129.058C187.45 140.03 187.84 140.493 187.352 146.419C187.083 149.759 187.45 153.124 187.01 156.44C186.888 157.391 186.619 159.342 187.621 161.268C187.816 161.634 188.5 162.902 189.94 163.755C191.235 164.535 192.602 164.535 195.288 164.511C197.266 164.486 198.853 164.316 199.854 164.194C202.442 163.852 203.981 163.804 205.715 162.999C206.374 162.682 207.448 162.194 207.399 161.634C207.375 161.487 207.253 161.073 205.348 160.512C204.274 160.195 202.736 159.854 200.806 159.805C201.099 159.415 201.588 158.903 202.296 158.464C202.54 158.318 203.199 157.952 205.544 157.635C206.911 157.44 207.668 157.342 208.742 157.391C210.574 157.44 210.94 157.805 212.088 157.513C212.771 157.342 213.211 157.098 214.139 156.562C215.164 155.977 215.775 155.611 216.239 154.88C216.654 154.246 216.752 153.587 216.8 153.173C216.239 152.392 215.189 151.173 213.528 150.247C212.723 149.808 210.818 148.759 208.401 149.076C206.691 149.296 205.519 150.076 204.445 150.832C202.858 151.905 201.808 153.124 201.173 153.977C199.586 154.319 197.974 154.684 196.387 155.026C197.974 147.15 199.366 140.469 200.44 135.349C201.93 128.326 203.737 119.768 206.252 108.625C206.496 107.528 207.326 104.016 208.962 96.9697C209.963 92.6782 210.378 88.2649 211.648 84.0466C211.892 83.2176 212.723 80.5842 212.6 77.2194C212.527 75.415 212.21 73.9276 211.306 72.5622C210.94 72.0258 210.403 71.1967 209.377 70.6359C206.789 69.2461 203.761 70.9041 203.37 71.148Z" fill="white"/>
<path opacity="0.25" d="M211.868 73.6108C211.404 76.2686 210.623 80.5844 209.475 85.8512C205.812 102.846 203.712 105.723 200.416 121.012C198.413 130.302 197.095 138.933 196.167 144.931C195.41 149.954 194.824 154.246 194.409 157.489C196.875 156.026 199.366 154.538 201.832 153.075C200.147 153.49 198.438 153.88 196.753 154.295C197.803 148.54 198.804 143.859 199.537 140.591C200.562 136.007 201.295 133.228 202.174 128.473C202.882 124.62 203.346 121.426 203.639 119.28C205.08 113.404 206.667 106.796 208.376 99.5545C209.426 95.1167 209.743 90.5083 211.209 86.2169C211.77 84.5589 212.942 81.4134 212.576 77.2927C212.429 75.7322 212.112 74.4642 211.868 73.6108Z" fill="#121826"/>
<path opacity="0.35" d="M202.296 158.44C202.931 158.22 203.834 157.928 204.957 157.708C206.838 157.342 208.376 157.367 208.718 157.367C210.793 157.416 210.989 157.806 212.063 157.489C212.552 157.342 212.307 157.318 214.456 156.196C215.628 155.587 216.117 155.343 216.239 154.855C216.336 154.392 216.043 153.929 215.775 153.636C214.285 153.173 212.698 152.734 211.038 152.344C210.061 152.1 209.109 151.905 208.181 151.71C207.35 152.661 206.545 153.636 205.69 154.587C204.542 155.879 203.419 157.172 202.296 158.44Z" fill="#121826"/>
<path d="M190.844 116.013C187.962 122.255 187.572 129.155 187.328 135.91C187.059 143.688 186.815 151.466 186.546 159.22C186.522 159.683 187.254 159.683 187.279 159.22C187.523 151.734 187.767 144.273 188.036 136.787C188.255 129.863 188.524 122.767 191.479 116.379C191.674 115.964 191.039 115.574 190.844 116.013Z" fill="#121826"/>
<path d="M191.82 116.281C192.48 109.259 193.432 102.285 194.702 95.3606C195.312 92.0201 195.996 88.704 196.753 85.3879C197.51 82.1449 198.365 78.902 199.903 75.9516C201.148 73.5377 203.199 70.8799 206.056 70.3679C209.524 69.7583 211.819 73.0744 212.185 76.1467C212.552 79.4872 211.502 82.9983 210.867 86.2413C210.207 89.5818 209.499 92.9222 208.767 96.2627C207.106 103.846 205.275 111.405 203.297 118.939C203.175 119.402 203.883 119.597 204.005 119.134C205.983 111.624 207.814 104.065 209.475 96.4578C210.281 92.7272 211.062 89.021 211.819 85.266C212.454 82.023 213.455 78.4875 212.796 75.1714C212.332 72.8793 210.818 70.5629 208.498 69.8071C206.007 69.0024 203.517 70.3191 201.808 72.0503C199.659 74.2448 198.413 77.2195 197.485 80.0967C196.362 83.5591 195.654 87.1435 194.922 90.7034C193.212 99.1399 191.967 107.674 191.161 116.257C191.039 116.745 191.772 116.745 191.82 116.281Z" fill="#121826"/>
<path d="M203.419 118.524C200.953 130.862 198.462 143.175 195.996 155.513C195.898 155.977 196.606 156.172 196.704 155.708C199.17 143.371 201.661 131.057 204.127 118.719C204.225 118.256 203.517 118.061 203.419 118.524Z" fill="#121826"/>
<path d="M186.644 159.244C186.961 161.682 188.597 163.852 190.99 164.608C192.651 165.145 194.482 164.901 196.191 164.779C197.974 164.657 199.781 164.559 201.563 164.389C203.004 164.267 204.396 163.974 205.714 163.34C206.374 163.023 207.888 162.438 207.741 161.487C207.595 160.561 206.007 159.927 205.251 159.707C204.567 159.488 203.834 159.39 203.126 159.439C202.076 159.512 201.075 159.878 200.025 159.537C199.585 159.39 199.39 160.097 199.83 160.244C200.953 160.609 201.978 160.244 203.126 160.171C204.274 160.097 205.714 160.414 206.594 161.219C207.302 161.902 206.374 162.219 205.739 162.536C205.153 162.828 204.542 163.096 203.908 163.267C202.662 163.633 201.368 163.682 200.074 163.779C197.632 163.95 195.044 164.389 192.602 164.169C189.916 163.925 187.767 161.926 187.401 159.244C187.328 158.781 186.595 158.781 186.644 159.244Z" fill="#121826"/>
<path d="M201.075 159.951C203.346 158.049 205.177 155.782 206.984 153.465C207.619 152.636 207.888 152.027 209.133 152.197C209.866 152.295 210.647 152.612 211.355 152.807C212.918 153.221 214.481 153.66 216.019 154.075C216.483 154.197 216.678 153.49 216.214 153.368C214.432 152.88 212.649 152.392 210.867 151.905C209.67 151.588 208.352 150.856 207.326 151.807C206.13 152.929 205.226 154.514 204.152 155.782C203.029 157.098 201.856 158.318 200.538 159.415C200.196 159.732 200.709 160.244 201.075 159.951Z" fill="#121826"/>
<path d="M200.294 154.709C201.539 153.831 202.711 152.905 203.834 151.905C205.299 150.588 206.496 148.808 208.694 149.247C211.624 149.832 214.578 151.076 216.532 153.441C216.825 153.807 217.338 153.295 217.045 152.929C214.969 150.393 211.624 148.979 208.425 148.467C206.813 148.199 205.788 149.052 204.689 150.1C203.199 151.563 201.612 152.88 199.903 154.099C199.537 154.343 199.903 154.977 200.294 154.709Z" fill="#121826"/>
<path d="M197.07 154.855C198.56 154.587 200.025 154.246 201.49 153.855C201.954 153.734 201.759 153.026 201.295 153.148C199.83 153.538 198.365 153.88 196.875 154.148C196.411 154.246 196.607 154.928 197.07 154.855Z" fill="#121826"/>
<path d="M206.691 154.294C208.767 153.221 210.964 154.075 213.064 154.611C214.285 154.928 215.799 155.343 216.8 154.294C217.118 153.953 216.605 153.441 216.288 153.782C215.042 155.099 211.746 153.368 210.256 153.124C208.889 152.904 207.57 152.978 206.349 153.636C205.885 153.88 206.252 154.514 206.691 154.294Z" fill="#121826"/>
<path d="M204.884 156.416C206.594 154.173 209.719 155.758 211.892 156.196C213.528 156.538 215.311 156.416 216.507 155.099C216.825 154.758 216.312 154.246 215.995 154.587C212.845 158.001 207.375 151.954 204.274 156.026C203.956 156.416 204.591 156.782 204.884 156.416Z" fill="#121826"/>
<path d="M202.394 158.805C203.688 158.488 204.982 158.123 206.276 157.83C207.546 157.537 208.596 157.806 209.841 157.927C211.624 158.123 213.455 157.83 214.725 156.464C215.042 156.123 214.529 155.611 214.212 155.952C212.576 157.732 210.354 157.172 208.254 156.952C206.252 156.733 204.103 157.635 202.198 158.123C201.734 158.196 201.93 158.903 202.394 158.805Z" fill="#121826"/>
</svg>
