<svg width="24" height="24" viewBox="0 0 24 24" fill="none" xmlns="http://www.w3.org/2000/svg">
<path d="M15 3H9C5.68629 3 3 5.68629 3 9V15C3 18.3137 5.68629 21 9 21H15C18.3137 21 21 18.3137 21 15V9C21 5.68629 18.3137 3 15 3Z" fill="#E5E6EB"/>
<path fill-rule="evenodd" clip-rule="evenodd" d="M8 13.0001C8.55228 13.0001 9 13.4478 9 14.0001V16.0001C9 16.5524 8.55228 17.0001 8 17.0001C7.44772 17.0001 7 16.5524 7 16.0001V14.0001C7 13.4478 7.44772 13.0001 8 13.0001ZM12 11.0001C12.5523 11.0001 13 11.4478 13 12.0001V16.0001C13 16.5524 12.5523 17.0001 12 17.0001C11.4477 17.0001 11 16.5524 11 16.0001V12.0001C11 11.4478 11.4477 11.0001 12 11.0001ZM16 15.0001C16.5523 15.0001 17 15.4478 17 16.0001C17 16.5524 16.5523 17.0001 16 17.0001C15.4477 17.0001 15 16.5524 15 16.0001C15 15.4478 15.4477 15.0001 16 15.0001ZM17 9.00009C15.8954 9.00009 15 8.10466 15 7.00009V5.41431C15 4.86202 15.4477 4.41431 16 4.41431C16.2652 4.41431 16.5196 4.51966 16.7071 4.7072L19.2929 7.29299C19.6834 7.68351 19.6834 8.31668 19.2929 8.7072C19.1054 8.89474 18.851 9.00009 18.5858 9.00009H17Z" fill="#9EA3AE"/>
</svg>
